<svg width="1440" height="841" viewBox="0 0 1440 841" fill="none" xmlns="http://www.w3.org/2000/svg">
<g clip-path="url(#clip0_1230_23099)">
<rect width="1440" height="840" transform="translate(0 0.25)" fill="white"/>
<rect width="1440" height="52" transform="translate(0 0.25)" fill="#004D99"/>
<path d="M76.104 22.9L76.23 25.15C76.23 25.906 76.104 26.452 75.852 26.788C75.6 27.124 75.072 27.4 74.268 27.616C75.06 27.82 75.582 28.108 75.834 28.48C76.098 28.84 76.23 29.404 76.23 30.172L76.104 32.278C76.104 32.794 76.218 33.19 76.446 33.466C76.674 33.754 77.1 33.916 77.724 33.952V35.608C76.44 35.56 75.528 35.296 74.988 34.816C74.46 34.348 74.196 33.574 74.196 32.494L74.322 30.316C74.322 29.392 73.662 28.75 72.342 28.39V26.86C73.026 26.704 73.524 26.482 73.836 26.194C74.16 25.894 74.322 25.51 74.322 25.042L74.196 22.756C74.196 21.628 74.46 20.836 74.988 20.38C75.528 19.912 76.446 19.654 77.742 19.606L77.76 21.262C77.124 21.31 76.686 21.466 76.446 21.73C76.218 21.994 76.104 22.384 76.104 22.9ZM79.8556 33.25V20.92H83.3476L87.0916 31.486H87.3616V20.92H89.3596V33.25H85.9396L82.1056 22.666H81.8536V33.25H79.8556ZM92.342 25.222C92.966 24.442 93.998 24.052 95.438 24.052C96.878 24.052 97.904 24.442 98.516 25.222C99.14 26.002 99.452 27.172 99.452 28.732C99.452 30.292 99.152 31.468 98.552 32.26C97.952 33.052 96.914 33.448 95.438 33.448C93.962 33.448 92.924 33.052 92.324 32.26C91.724 31.468 91.424 30.292 91.424 28.732C91.424 27.172 91.73 26.002 92.342 25.222ZM93.818 31.072C94.094 31.552 94.634 31.792 95.438 31.792C96.242 31.792 96.782 31.552 97.058 31.072C97.334 30.592 97.472 29.806 97.472 28.714C97.472 27.622 97.322 26.848 97.022 26.392C96.734 25.936 96.206 25.708 95.438 25.708C94.67 25.708 94.136 25.936 93.836 26.392C93.548 26.848 93.404 27.622 93.404 28.714C93.404 29.806 93.542 30.592 93.818 31.072ZM103.363 33.25H101.401V24.25H103.345V24.808C104.197 24.304 104.977 24.052 105.685 24.052C106.729 24.052 107.491 24.346 107.971 24.934C109.063 24.346 110.149 24.052 111.229 24.052C112.309 24.052 113.071 24.388 113.515 25.06C113.959 25.72 114.181 26.842 114.181 28.426V33.25H112.237V28.48C112.237 27.508 112.135 26.818 111.931 26.41C111.739 26.002 111.331 25.798 110.707 25.798C110.167 25.798 109.585 25.918 108.961 26.158L108.655 26.284C108.751 26.524 108.799 27.292 108.799 28.588V33.25H106.855V28.624C106.855 27.556 106.759 26.818 106.567 26.41C106.375 26.002 105.955 25.798 105.307 25.798C104.707 25.798 104.149 25.918 103.633 26.158L103.363 26.266V33.25ZM122.891 31.63L123.395 31.576L123.431 33.034C122.063 33.31 120.851 33.448 119.795 33.448C118.463 33.448 117.503 33.082 116.915 32.35C116.339 31.618 116.051 30.448 116.051 28.84C116.051 25.648 117.353 24.052 119.957 24.052C122.477 24.052 123.737 25.426 123.737 28.174L123.611 29.578H118.031C118.043 30.322 118.205 30.868 118.517 31.216C118.829 31.564 119.411 31.738 120.263 31.738C121.115 31.738 121.991 31.702 122.891 31.63ZM121.811 28.066C121.811 27.178 121.667 26.56 121.379 26.212C121.103 25.852 120.629 25.672 119.957 25.672C119.285 25.672 118.793 25.858 118.481 26.23C118.181 26.602 118.025 27.214 118.013 28.066H121.811ZM135.987 31.63L136.491 31.576L136.527 33.034C135.159 33.31 133.947 33.448 132.891 33.448C131.559 33.448 130.599 33.082 130.011 32.35C129.435 31.618 129.147 30.448 129.147 28.84C129.147 25.648 130.449 24.052 133.053 24.052C135.573 24.052 136.833 25.426 136.833 28.174L136.707 29.578H131.127C131.139 30.322 131.301 30.868 131.613 31.216C131.925 31.564 132.507 31.738 133.359 31.738C134.211 31.738 135.087 31.702 135.987 31.63ZM134.907 28.066C134.907 27.178 134.763 26.56 134.475 26.212C134.199 25.852 133.725 25.672 133.053 25.672C132.381 25.672 131.889 25.858 131.577 26.23C131.277 26.602 131.121 27.214 131.109 28.066H134.907ZM140.681 33.25H138.719V24.25H140.663V24.808C141.539 24.304 142.367 24.052 143.147 24.052C144.347 24.052 145.163 24.394 145.595 25.078C146.039 25.75 146.261 26.866 146.261 28.426V33.25H144.317V28.48C144.317 27.508 144.209 26.818 143.993 26.41C143.789 26.002 143.363 25.798 142.715 25.798C142.103 25.798 141.515 25.918 140.951 26.158L140.681 26.266V33.25ZM153.387 25.924H150.903V29.884C150.903 30.616 150.957 31.102 151.065 31.342C151.173 31.582 151.449 31.702 151.893 31.702L153.369 31.648L153.459 33.214C152.655 33.37 152.043 33.448 151.623 33.448C150.603 33.448 149.901 33.214 149.517 32.746C149.145 32.278 148.959 31.396 148.959 30.1V25.924H147.807V24.25H148.959V21.64H150.903V24.25H153.387V25.924ZM161.405 31.63L161.909 31.576L161.945 33.034C160.577 33.31 159.365 33.448 158.309 33.448C156.977 33.448 156.017 33.082 155.429 32.35C154.853 31.618 154.565 30.448 154.565 28.84C154.565 25.648 155.867 24.052 158.471 24.052C160.991 24.052 162.251 25.426 162.251 28.174L162.125 29.578H156.545C156.557 30.322 156.719 30.868 157.031 31.216C157.343 31.564 157.925 31.738 158.777 31.738C159.629 31.738 160.505 31.702 161.405 31.63ZM160.325 28.066C160.325 27.178 160.181 26.56 159.893 26.212C159.617 25.852 159.143 25.672 158.471 25.672C157.799 25.672 157.307 25.858 156.995 26.23C156.695 26.602 156.539 27.214 156.527 28.066H160.325ZM164.955 32.278L164.829 30.172C164.829 29.404 164.955 28.84 165.207 28.48C165.471 28.108 165.999 27.82 166.791 27.616C165.987 27.4 165.459 27.124 165.207 26.788C164.955 26.452 164.829 25.906 164.829 25.15L164.955 22.9C164.955 22.384 164.835 21.994 164.595 21.73C164.367 21.466 163.935 21.31 163.299 21.262L163.317 19.606C164.613 19.654 165.525 19.912 166.053 20.38C166.593 20.836 166.863 21.628 166.863 22.756L166.737 25.042C166.737 25.51 166.893 25.894 167.205 26.194C167.529 26.482 168.033 26.704 168.717 26.86V28.39C167.397 28.75 166.737 29.392 166.737 30.316L166.863 32.494C166.863 33.574 166.593 34.348 166.053 34.816C165.525 35.296 164.619 35.56 163.335 35.608V33.952C163.959 33.916 164.385 33.754 164.613 33.466C164.841 33.19 164.955 32.794 164.955 32.278Z" fill="white"/>
<path d="M72 35.23H75.1163V35.77H72V35.23ZM78.2666 35.23H162.796V35.77H78.2666V35.23ZM165.931 35.23H169.059V35.77H165.931V35.23Z" fill="white"/>
<g clip-path="url(#clip1_1230_23099)">
<path d="M1322.11 31.25V21.66H1323.66V31.25H1322.11ZM1324.94 23.046V21.66H1331.94V23.046H1329.24V31.25H1327.67V23.046H1324.94ZM1331.83 31.25L1334.2 21.66H1337.29L1339.67 31.25H1338.11L1337.59 29.192H1333.91L1333.39 31.25H1331.83ZM1335.4 22.962L1334.21 27.82H1337.28L1336.1 22.962H1335.4Z" fill="white"/>
<path d="M1356 29.4498L1350.4 23.8498L1351.1 23.0498L1356 27.9498L1360.9 23.0498L1361.6 23.8498L1356 29.4498Z" fill="white"/>
</g>
<rect width="1440" height="93" transform="translate(0 52.25)" fill="#F2F7FC"/>
<rect x="72.5" y="69.25" width="208.024" height="59" fill="#F2F7FC"/>
<rect x="72.5" y="69.25" width="208.024" height="59" stroke="#C5C7C9"/>
<line x1="73.1957" y1="69.6453" x2="280.121" y2="127.299" stroke="#C5C7C9"/>
<path d="M119.051 86.75C122.573 86.75 125.051 87.75 126.482 89.75C127.937 91.7273 128.664 94.7616 128.664 98.8525C128.664 102.943 127.937 105.955 126.482 107.887C125.051 109.796 122.573 110.75 119.051 110.75C115.528 110.75 113.04 109.796 111.585 107.887C110.153 105.955 109.438 102.943 109.438 98.8525C109.438 94.7616 110.153 91.7273 111.585 89.75C113.04 87.7501 115.528 86.75 119.051 86.75ZM139.597 86.75C141.71 86.75 143.995 86.9886 146.449 87.4658L147.676 87.7041L147.54 91.3525C144.813 91.0571 142.574 90.9092 140.824 90.9092C139.097 90.9092 137.88 91.1134 137.176 91.5225C136.471 91.9316 135.948 92.6931 135.607 93.8066C135.289 94.8975 135.131 96.784 135.131 99.4658C135.131 102.125 135.46 103.988 136.119 105.057C136.778 106.125 138.142 106.659 140.21 106.659L143.04 106.522V102.022H140.926V97.9316H147.676V109.966C144.426 110.489 141.789 110.75 139.767 110.75C136.153 110.75 133.664 109.784 132.301 107.853C130.96 105.921 130.29 102.852 130.29 98.6475C130.29 94.4433 130.994 91.4095 132.403 89.5459C133.812 87.6823 136.21 86.75 139.597 86.75ZM159.289 86.75C162.812 86.75 165.29 87.75 166.722 89.75C168.176 91.7273 168.903 94.7617 168.903 98.8525C168.903 102.943 168.176 105.955 166.722 107.887C165.29 109.796 162.812 110.75 159.289 110.75C155.767 110.75 153.278 109.796 151.823 107.887C150.391 105.955 149.676 102.943 149.676 98.8525C149.676 94.7617 150.392 91.7273 151.823 89.75C153.278 87.7501 155.767 86.7501 159.289 86.75ZM194.433 90.9854H183.773V96.5967H192.314V100.762H183.773V106.515H194.433V110.75H178.903V86.75H194.433V90.9854ZM212.458 106.515H212.811V86.75H217.682V110.75H209.67L203.67 90.9854H203.316V110.75H198.446V86.75H206.67L212.458 106.515ZM238.411 91.0557H232.059V110.75H227.188V91.0557H220.765V86.75H238.411V91.0557ZM257.024 90.9854H246.365V96.5967H254.907V100.762H246.365V106.515H257.024V110.75H241.495V86.75H257.024V90.9854ZM100.704 106.182H109.193V110.341H96V87.1592H100.704V106.182ZM119.051 90.8408C117.233 90.8408 115.983 91.4773 115.301 92.75C114.619 94.0227 114.278 96.0685 114.278 98.8867C114.278 101.682 114.608 103.682 115.267 104.887C115.948 106.068 117.21 106.659 119.051 106.659C120.892 106.659 122.142 106.068 122.801 104.887C123.483 103.682 123.823 101.682 123.823 98.8867C123.823 96.0686 123.483 94.0227 122.801 92.75C122.119 91.4773 120.869 90.8408 119.051 90.8408ZM159.289 90.8408C157.471 90.8409 156.221 91.4774 155.539 92.75C154.857 94.0227 154.517 96.0687 154.517 98.8867C154.517 101.682 154.847 103.682 155.506 104.887C156.188 106.068 157.449 106.659 159.289 106.659C161.13 106.659 162.38 106.068 163.039 104.887C163.721 103.682 164.062 101.682 164.062 98.8867C164.062 96.0685 163.721 94.0227 163.039 92.75C162.357 91.4774 161.107 90.8408 159.289 90.8408Z" fill="black"/>
<path d="M305.024 68.75V128.75" stroke="#C5C7C9" stroke-linejoin="round"/>
<rect width="146" height="48" transform="translate(329.024 74.75)" fill="#F6E4C8"/>
<path d="M356.349 95.3796H349.146V82.5313H351.228V93.5227H356.349V95.3796Z" fill="black"/>
<path d="M358.311 87.0142C358.961 86.2014 360.037 85.795 361.537 85.795C363.038 85.795 364.107 86.2014 364.745 87.0142C365.395 87.8269 365.72 89.0461 365.72 90.6717C365.72 92.2972 365.407 93.5227 364.782 94.348C364.157 95.1732 363.075 95.5859 361.537 95.5859C359.999 95.5859 358.918 95.1732 358.292 94.348C357.667 93.5227 357.355 92.2972 357.355 90.6717C357.355 89.0461 357.673 87.8269 358.311 87.0142ZM359.849 93.11C360.137 93.6102 360.699 93.8603 361.537 93.8603C362.375 93.8603 362.938 93.6102 363.225 93.11C363.513 92.6098 363.657 91.7908 363.657 90.6529C363.657 89.515 363.5 88.7085 363.188 88.2333C362.888 87.7582 362.337 87.5206 361.537 87.5206C360.737 87.5206 360.18 87.7582 359.868 88.2333C359.568 88.7085 359.418 89.515 359.418 90.6529C359.418 91.7908 359.562 92.6098 359.849 93.11Z" fill="black"/>
<path d="M375.947 96.655C375.947 98.7057 374.466 99.7311 371.502 99.7311C370.077 99.7311 369.02 99.5373 368.332 99.1496C367.644 98.762 367.301 98.0555 367.301 97.0301C367.301 96.5675 367.413 96.1673 367.638 95.8297C367.863 95.5046 368.226 95.1482 368.726 94.7606C368.313 94.4855 368.107 94.0291 368.107 93.3914C368.107 93.1413 368.276 92.7349 368.614 92.1722L368.782 91.8908C367.882 91.3532 367.432 90.4153 367.432 89.0774C367.432 87.952 367.77 87.1267 368.445 86.6015C369.12 86.0763 370.033 85.8137 371.183 85.8137C371.733 85.8137 372.277 85.8763 372.815 86.0013L373.096 86.0576L376.004 85.9825V87.6331L374.447 87.5393C374.784 87.977 374.953 88.4897 374.953 89.0774C374.953 90.3028 374.641 91.1531 374.015 91.6283C373.403 92.0909 372.44 92.3222 371.127 92.3222C370.802 92.3222 370.527 92.2972 370.302 92.2472C370.127 92.6724 370.039 93.0037 370.039 93.2413C370.039 93.4664 370.152 93.6227 370.377 93.7102C370.614 93.7978 371.177 93.8478 372.065 93.8603C373.553 93.8728 374.572 94.0729 375.122 94.4605C375.672 94.8481 375.947 95.5796 375.947 96.655ZM369.308 96.8426C369.308 97.2802 369.483 97.5928 369.833 97.7804C370.183 97.968 370.783 98.0617 371.633 98.0617C373.146 98.0617 373.903 97.6303 373.903 96.7675C373.903 96.2799 373.765 95.9673 373.49 95.8297C373.228 95.7047 372.696 95.6359 371.896 95.6234L370.058 95.5109C369.783 95.7359 369.589 95.9423 369.476 96.1298C369.364 96.3299 369.308 96.5675 369.308 96.8426ZM369.458 89.0774C369.458 89.6526 369.595 90.0777 369.87 90.3528C370.145 90.6154 370.589 90.7467 371.202 90.7467C371.815 90.7467 372.252 90.6154 372.515 90.3528C372.79 90.0777 372.928 89.6526 372.928 89.0774C372.928 88.5022 372.79 88.0833 372.515 87.8207C372.24 87.5456 371.796 87.408 371.183 87.408C370.033 87.408 369.458 87.9645 369.458 89.0774Z" fill="black"/>
<path d="M378.112 87.0142C378.762 86.2014 379.837 85.795 381.338 85.795C382.838 85.795 383.907 86.2014 384.545 87.0142C385.195 87.8269 385.52 89.0461 385.52 90.6717C385.52 92.2972 385.208 93.5227 384.583 94.348C383.957 95.1732 382.876 95.5859 381.338 95.5859C379.8 95.5859 378.718 95.1732 378.093 94.348C377.468 93.5227 377.155 92.2972 377.155 90.6717C377.155 89.0461 377.474 87.8269 378.112 87.0142ZM379.65 93.11C379.937 93.6102 380.5 93.8603 381.338 93.8603C382.176 93.8603 382.738 93.6102 383.026 93.11C383.313 92.6098 383.457 91.7908 383.457 90.6529C383.457 89.515 383.301 88.7085 382.988 88.2333C382.688 87.7582 382.138 87.5206 381.338 87.5206C380.538 87.5206 379.981 87.7582 379.668 88.2333C379.368 88.7085 379.218 89.515 379.218 90.6529C379.218 91.7908 379.362 92.6098 379.65 93.11Z" fill="black"/>
<path d="M395.687 84.1444C394.098 84.1444 393.304 84.7009 393.304 85.8137C393.304 86.3889 393.492 86.8016 393.867 87.0517C394.242 87.2892 395.068 87.5894 396.343 87.952C397.631 88.3021 398.538 88.7272 399.063 89.2274C399.588 89.7151 399.85 90.4904 399.85 91.5532C399.85 92.9037 399.463 93.9166 398.688 94.5918C397.925 95.2545 396.881 95.5859 395.555 95.5859C394.492 95.5859 393.317 95.4608 392.029 95.2108L391.354 95.0795L391.56 93.4101C393.248 93.6352 394.536 93.7477 395.424 93.7477C396.974 93.7477 397.75 93.06 397.75 91.6845C397.75 91.1468 397.575 90.753 397.225 90.5029C396.874 90.2403 396.087 89.9589 394.861 89.6588C393.636 89.3462 392.723 88.9211 392.123 88.3834C391.523 87.8457 391.222 86.9954 391.222 85.8325C391.222 84.6696 391.598 83.7943 392.348 83.2066C393.111 82.6064 394.161 82.3063 395.499 82.3063C396.462 82.3063 397.6 82.4188 398.913 82.6439L399.569 82.7564L399.4 84.4445C397.65 84.2444 396.412 84.1444 395.687 84.1444Z" fill="black"/>
<path d="M401.857 95.3796V86.0013H403.901V95.3796H401.857ZM401.857 84.407V82.25H403.901V84.407H401.857Z" fill="black"/>
<path d="M412.89 87.9332C411.414 87.7332 410.345 87.6331 409.682 87.6331C409.02 87.6331 408.557 87.7144 408.294 87.877C408.044 88.027 407.919 88.2708 407.919 88.6085C407.919 88.9461 408.057 89.1837 408.332 89.3212C408.619 89.4588 409.282 89.6213 410.32 89.8089C411.37 89.9839 412.114 90.2653 412.552 90.6529C412.99 91.0406 413.208 91.7283 413.208 92.7161C413.208 93.704 412.89 94.4292 412.252 94.8919C411.627 95.3546 410.708 95.5859 409.495 95.5859C408.732 95.5859 407.769 95.4796 406.606 95.267L406.025 95.1732L406.1 93.4664C407.6 93.6665 408.682 93.7665 409.345 93.7665C410.007 93.7665 410.476 93.6852 410.751 93.5227C411.039 93.3601 411.183 93.0913 411.183 92.7161C411.183 92.341 411.045 92.0847 410.77 91.9471C410.508 91.7971 409.864 91.6408 408.838 91.4782C407.825 91.3031 407.081 91.0343 406.606 90.6717C406.131 90.309 405.893 89.6463 405.893 88.6835C405.893 87.7206 406.219 87.0017 406.869 86.5265C407.531 86.0513 408.376 85.8137 409.401 85.8137C410.201 85.8137 411.183 85.9138 412.346 86.1138L412.927 86.2264L412.89 87.9332Z" fill="black"/>
<path d="M420.219 87.7457H417.63V91.8721C417.63 92.6349 417.687 93.1413 417.799 93.3914C417.912 93.6415 418.199 93.7665 418.662 93.7665L420.2 93.7102L420.294 95.342C419.456 95.5046 418.818 95.5859 418.381 95.5859C417.318 95.5859 416.586 95.342 416.186 94.8544C415.798 94.3667 415.605 93.4476 415.605 92.0972V87.7457H414.404V86.0013H415.605V83.2816H417.63V86.0013H420.219V87.7457Z" fill="black"/>
<path d="M428.573 93.6915L429.098 93.6352L429.136 95.1545C427.71 95.4421 426.447 95.5859 425.347 95.5859C423.959 95.5859 422.958 95.2045 422.346 94.4417C421.745 93.679 421.445 92.4598 421.445 90.7842C421.445 87.4581 422.802 85.795 425.516 85.795C428.141 85.795 429.454 87.2267 429.454 90.0902L429.323 91.5532H423.509C423.521 92.3285 423.69 92.8974 424.015 93.2601C424.34 93.6227 424.947 93.804 425.834 93.804C426.722 93.804 427.635 93.7665 428.573 93.6915ZM427.447 89.9777C427.447 89.0524 427.297 88.4084 426.997 88.0458C426.71 87.6706 426.216 87.4831 425.516 87.4831C424.815 87.4831 424.303 87.6769 423.977 88.0645C423.665 88.4522 423.502 89.0899 423.49 89.9777H427.447Z" fill="black"/>
<path d="M433.465 95.3796H431.42V86.0013H433.446V86.5828C434.334 86.0576 435.147 85.795 435.884 85.795C436.972 85.795 437.766 86.1013 438.266 86.7141C439.404 86.1013 440.536 85.795 441.661 85.795C442.787 85.795 443.581 86.1451 444.043 86.8453C444.506 87.5331 444.737 88.7022 444.737 90.3528V95.3796H442.712V90.4091C442.712 89.3962 442.605 88.6772 442.393 88.2521C442.193 87.8269 441.768 87.6144 441.117 87.6144C440.555 87.6144 439.948 87.7394 439.298 87.9895L438.979 88.1208C439.079 88.3709 439.129 89.1712 439.129 90.5216V95.3796H437.104V90.5591C437.104 89.4462 437.004 88.6772 436.803 88.2521C436.603 87.8269 436.166 87.6144 435.49 87.6144C434.865 87.6144 434.284 87.7394 433.746 87.9895L433.465 88.102V95.3796Z" fill="black"/>
<path d="M454.076 88.8898V93.1663C454.089 93.4414 454.157 93.6477 454.282 93.7853C454.42 93.9103 454.626 93.9916 454.901 94.0291L454.845 95.5859C453.77 95.5859 452.938 95.3546 452.351 94.8919C451.35 95.3546 450.344 95.5859 449.331 95.5859C447.468 95.5859 446.536 94.5918 446.536 92.6036C446.536 91.6533 446.786 90.9655 447.286 90.5404C447.799 90.1152 448.58 89.8589 449.631 89.7714L452.05 89.565V88.8898C452.05 88.3896 451.938 88.0395 451.713 87.8394C451.5 87.6394 451.181 87.5393 450.756 87.5393C449.956 87.5393 448.956 87.5894 447.755 87.6894L447.155 87.7269L447.08 86.2827C448.443 85.9575 449.693 85.795 450.831 85.795C451.982 85.795 452.807 86.0451 453.307 86.5452C453.82 87.0329 454.076 87.8144 454.076 88.8898ZM449.875 91.2156C449.012 91.2906 448.58 91.7596 448.58 92.6224C448.58 93.4852 448.962 93.9166 449.725 93.9166C450.35 93.9166 451.013 93.8165 451.713 93.6164L452.05 93.5039V91.0093L449.875 91.2156Z" fill="black"/>
<path d="M366.3 115.044V102.195H368.382V115.044H366.3Z" fill="black"/>
<path d="M370.099 104.052V102.195H379.478V104.052H375.858V115.044H373.757V104.052H370.099Z" fill="black"/>
<path d="M379.755 110.917V109.06H385.363V110.917H379.755Z" fill="black"/>
<path d="M386.644 102.195H388.839L390.677 113.243H391.071L393.509 102.233H395.948L398.386 113.243H398.799L400.637 102.195H402.831L400.299 115.044H396.942L394.729 104.746L392.534 115.044H389.158L386.644 102.195Z" fill="black"/>
<path d="M411.187 108.554V112.83C411.2 113.106 411.268 113.312 411.393 113.449C411.531 113.574 411.737 113.656 412.012 113.693L411.956 115.25C410.881 115.25 410.049 115.019 409.461 114.556C408.461 115.019 407.455 115.25 406.442 115.25C404.579 115.25 403.647 114.256 403.647 112.268C403.647 111.317 403.897 110.63 404.397 110.204C404.91 109.779 405.691 109.523 406.742 109.435L409.161 109.229V108.554C409.161 108.054 409.049 107.704 408.824 107.504C408.611 107.303 408.292 107.203 407.867 107.203C407.067 107.203 406.067 107.253 404.866 107.354L404.266 107.391L404.191 105.947C405.554 105.622 406.804 105.459 407.942 105.459C409.093 105.459 409.918 105.709 410.418 106.209C410.931 106.697 411.187 107.479 411.187 108.554ZM406.986 110.88C406.123 110.955 405.691 111.424 405.691 112.286C405.691 113.149 406.073 113.581 406.836 113.581C407.461 113.581 408.124 113.481 408.824 113.281L409.161 113.168V110.673L406.986 110.88Z" fill="black"/>
<path d="M413.866 115.044V101.764H415.911V115.044H413.866Z" fill="black"/>
<path d="M418.61 115.044V101.764H420.655V115.044H418.61Z" fill="black"/>
<path d="M429.919 113.356L430.444 113.299L430.482 114.819C429.056 115.106 427.793 115.25 426.693 115.25C425.305 115.25 424.305 114.869 423.692 114.106C423.092 113.343 422.792 112.124 422.792 110.448C422.792 107.122 424.148 105.459 426.862 105.459C429.488 105.459 430.801 106.891 430.801 109.754L430.669 111.217H424.855C424.867 111.993 425.036 112.562 425.361 112.924C425.686 113.287 426.293 113.468 427.181 113.468C428.068 113.468 428.981 113.431 429.919 113.356ZM428.794 109.642C428.794 108.716 428.644 108.073 428.344 107.71C428.056 107.335 427.562 107.147 426.862 107.147C426.162 107.147 425.649 107.341 425.324 107.729C425.011 108.116 424.849 108.754 424.836 109.642H428.794Z" fill="black"/>
<path d="M437.812 107.41H435.224V111.536C435.224 112.299 435.28 112.805 435.393 113.055C435.505 113.306 435.793 113.431 436.255 113.431L437.793 113.374L437.887 115.006C437.049 115.169 436.412 115.25 435.974 115.25C434.911 115.25 434.18 115.006 433.779 114.518C433.392 114.031 433.198 113.112 433.198 111.761V107.41H431.998V105.665H433.198V102.946H435.224V105.665H437.812V107.41Z" fill="black"/>
<rect width="1440" height="459.604" transform="translate(0 249.25)" fill="white"/>
<path d="M530.888 312.25L535.784 290.49H544.168L549.064 312.25H544.648L543.784 308.314H536.168L535.304 312.25H530.888ZM539.208 294.138L537 304.474H542.952L540.744 294.138H539.208ZM561.018 296.25H565.306V312.25H561.05V311.354C559.514 312.207 558.18 312.634 557.05 312.634C554.831 312.634 553.338 312.026 552.57 310.81C551.802 309.573 551.418 307.514 551.418 304.634V296.25H555.706V304.698C555.706 306.277 555.834 307.354 556.09 307.93C556.346 308.506 556.964 308.794 557.946 308.794C558.884 308.794 559.77 308.645 560.602 308.346L561.018 308.218V296.25ZM578.129 299.898H574.193V306.458C574.193 307.098 574.204 307.557 574.225 307.834C574.268 308.09 574.385 308.314 574.577 308.506C574.791 308.698 575.111 308.794 575.537 308.794L577.969 308.73L578.161 312.154C576.732 312.474 575.644 312.634 574.897 312.634C572.977 312.634 571.665 312.207 570.961 311.354C570.257 310.479 569.905 308.879 569.905 306.554V299.898H568.017V296.25H569.905V291.802H574.193V296.25H578.129V299.898ZM584.442 306.074C584.463 307.055 584.719 307.77 585.21 308.218C585.722 308.645 586.447 308.858 587.385 308.858C589.37 308.858 591.14 308.794 592.698 308.666L593.594 308.57L593.658 311.738C591.204 312.335 588.986 312.634 587.002 312.634C584.591 312.634 582.842 311.994 581.754 310.714C580.666 309.434 580.122 307.354 580.122 304.474C580.122 298.735 582.479 295.866 587.194 295.866C591.844 295.866 594.17 298.277 594.17 303.098L593.85 306.074H584.442ZM589.946 302.81C589.946 301.53 589.743 300.645 589.338 300.154C588.932 299.642 588.218 299.386 587.194 299.386C586.191 299.386 585.476 299.653 585.05 300.186C584.644 300.698 584.431 301.573 584.41 302.81H589.946ZM601.522 312.25H597.234V296.25H601.49V297.146C602.941 296.293 604.274 295.866 605.49 295.866C607.623 295.866 609.095 296.495 609.906 297.754C610.717 299.013 611.122 300.954 611.122 303.578V312.25H606.834V303.706C606.834 302.341 606.674 301.338 606.354 300.698C606.034 300.037 605.394 299.706 604.434 299.706C603.559 299.706 602.717 299.855 601.906 300.154L601.522 300.282V312.25ZM623.786 299.898H619.85V306.458C619.85 307.098 619.86 307.557 619.882 307.834C619.924 308.09 620.042 308.314 620.234 308.506C620.447 308.698 620.767 308.794 621.194 308.794L623.626 308.73L623.818 312.154C622.388 312.474 621.3 312.634 620.554 312.634C618.634 312.634 617.322 312.207 616.618 311.354C615.914 310.479 615.562 308.879 615.562 306.554V299.898H613.674V296.25H615.562V291.802H619.85V296.25H623.786V299.898ZM626.578 312.25V296.25H630.866V312.25H626.578ZM626.578 294.202V289.85H630.866V294.202H626.578ZM640.812 295.866C641.921 295.866 643.34 296.037 645.068 296.378L645.932 296.57L645.804 299.962C644.118 299.791 642.87 299.706 642.06 299.706C640.588 299.706 639.606 300.026 639.116 300.666C638.646 301.285 638.412 302.469 638.412 304.218C638.412 305.967 638.646 307.173 639.116 307.834C639.606 308.474 640.598 308.794 642.092 308.794L645.804 308.538L645.932 311.962C643.649 312.41 641.91 312.634 640.716 312.634C638.348 312.634 636.641 311.973 635.596 310.65C634.572 309.306 634.06 307.162 634.06 304.218C634.06 301.274 634.593 299.151 635.66 297.85C636.726 296.527 638.444 295.866 640.812 295.866ZM661.365 301.242V307.898C661.408 308.41 661.493 308.773 661.621 308.986C661.749 309.178 662.016 309.317 662.421 309.402L662.293 312.634C661.205 312.634 660.33 312.559 659.669 312.41C659.029 312.261 658.378 311.962 657.717 311.514C656.181 312.261 654.613 312.634 653.013 312.634C649.706 312.634 648.053 310.885 648.053 307.386C648.053 305.679 648.512 304.474 649.429 303.77C650.346 303.045 651.754 302.618 653.653 302.49L657.077 302.234V301.242C657.077 300.581 656.928 300.133 656.629 299.898C656.33 299.642 655.85 299.514 655.189 299.514L649.173 299.77L649.045 296.794C651.328 296.175 653.493 295.866 655.541 295.866C657.61 295.866 659.093 296.293 659.989 297.146C660.906 297.999 661.365 299.365 661.365 301.242ZM654.165 305.466C652.97 305.573 652.373 306.213 652.373 307.386C652.373 308.559 652.896 309.146 653.941 309.146C654.752 309.146 655.637 309.018 656.597 308.762L657.077 308.634V305.21L654.165 305.466ZM664.781 300.09V296.25H676.653V300.09L669.933 308.41H676.653V312.25H664.781V308.41L671.501 300.09H664.781ZM679.984 312.25V296.25H684.272V312.25H679.984ZM679.984 294.202V289.85H684.272V294.202H679.984ZM689.098 298.074C690.229 296.602 692.117 295.866 694.762 295.866C697.407 295.866 699.295 296.602 700.426 298.074C701.557 299.525 702.122 301.573 702.122 304.218C702.122 309.829 699.669 312.634 694.762 312.634C689.855 312.634 687.402 309.829 687.402 304.218C687.402 301.573 687.967 299.525 689.098 298.074ZM692.394 307.834C692.842 308.602 693.631 308.986 694.762 308.986C695.893 308.986 696.671 308.602 697.098 307.834C697.546 307.066 697.77 305.861 697.77 304.218C697.77 302.575 697.546 301.381 697.098 300.634C696.671 299.887 695.893 299.514 694.762 299.514C693.631 299.514 692.842 299.887 692.394 300.634C691.967 301.381 691.754 302.575 691.754 304.218C691.754 305.861 691.967 307.066 692.394 307.834ZM709.553 312.25H705.265V296.25H709.521V297.146C710.972 296.293 712.305 295.866 713.521 295.866C715.655 295.866 717.127 296.495 717.937 297.754C718.748 299.013 719.153 300.954 719.153 303.578V312.25H714.865V303.706C714.865 302.341 714.705 301.338 714.385 300.698C714.065 300.037 713.425 299.706 712.465 299.706C711.591 299.706 710.748 299.855 709.937 300.154L709.553 300.282V312.25ZM726.473 306.074C726.494 307.055 726.75 307.77 727.241 308.218C727.753 308.645 728.478 308.858 729.417 308.858C731.401 308.858 733.171 308.794 734.729 308.666L735.625 308.57L735.689 311.738C733.235 312.335 731.017 312.634 729.033 312.634C726.622 312.634 724.873 311.994 723.785 310.714C722.697 309.434 722.153 307.354 722.153 304.474C722.153 298.735 724.51 295.866 729.225 295.866C733.875 295.866 736.201 298.277 736.201 303.098L735.881 306.074H726.473ZM731.977 302.81C731.977 301.53 731.774 300.645 731.369 300.154C730.963 299.642 730.249 299.386 729.225 299.386C728.222 299.386 727.507 299.653 727.081 300.186C726.675 300.698 726.462 301.573 726.441 302.81H731.977ZM752.281 295.866C753.39 295.866 754.809 296.037 756.537 296.378L757.401 296.57L757.273 299.962C755.587 299.791 754.339 299.706 753.529 299.706C752.057 299.706 751.075 300.026 750.585 300.666C750.115 301.285 749.881 302.469 749.881 304.218C749.881 305.967 750.115 307.173 750.585 307.834C751.075 308.474 752.067 308.794 753.561 308.794L757.273 308.538L757.401 311.962C755.118 312.41 753.379 312.634 752.185 312.634C749.817 312.634 748.11 311.973 747.065 310.65C746.041 309.306 745.529 307.162 745.529 304.218C745.529 301.274 746.062 299.151 747.129 297.85C748.195 296.527 749.913 295.866 752.281 295.866ZM761.317 298.074C762.447 296.602 764.335 295.866 766.981 295.866C769.626 295.866 771.514 296.602 772.645 298.074C773.775 299.525 774.341 301.573 774.341 304.218C774.341 309.829 771.887 312.634 766.981 312.634C762.074 312.634 759.621 309.829 759.621 304.218C759.621 301.573 760.186 299.525 761.317 298.074ZM764.613 307.834C765.061 308.602 765.85 308.986 766.981 308.986C768.111 308.986 768.89 308.602 769.317 307.834C769.765 307.066 769.989 305.861 769.989 304.218C769.989 302.575 769.765 301.381 769.317 300.634C768.89 299.887 768.111 299.514 766.981 299.514C765.85 299.514 765.061 299.887 764.613 300.634C764.186 301.381 763.973 302.575 763.973 304.218C763.973 305.861 764.186 307.066 764.613 307.834ZM781.772 312.25H777.484V296.25H781.74V297.146C783.212 296.293 784.471 295.866 785.516 295.866C787.244 295.866 788.577 296.367 789.516 297.37C791.479 296.367 793.271 295.866 794.892 295.866C797.004 295.866 798.465 296.485 799.276 297.722C800.108 298.938 800.524 300.89 800.524 303.578V312.25H796.236V303.706C796.236 302.341 796.087 301.338 795.788 300.698C795.489 300.037 794.892 299.706 793.996 299.706C793.313 299.706 792.481 299.855 791.5 300.154L791.02 300.314C791.105 301.914 791.148 303.13 791.148 303.962V312.25H786.86V304.026C786.86 302.447 786.721 301.338 786.444 300.698C786.167 300.037 785.559 299.706 784.62 299.706C783.788 299.706 782.967 299.855 782.156 300.154L781.772 300.282V312.25ZM804.328 318.97V296.25H808.584V297.114C809.97 296.282 811.186 295.866 812.232 295.866C814.386 295.866 815.976 296.517 817 297.818C818.024 299.098 818.536 301.285 818.536 304.378C818.536 307.471 817.97 309.626 816.84 310.842C815.709 312.037 813.853 312.634 811.272 312.634C810.568 312.634 809.81 312.57 809 312.442L808.616 312.378V318.97H804.328ZM811.4 299.706C810.61 299.706 809.81 299.866 809 300.186L808.616 300.346V308.73C809.576 308.858 810.354 308.922 810.952 308.922C812.189 308.922 813.032 308.559 813.48 307.834C813.949 307.109 814.184 305.871 814.184 304.122C814.184 301.178 813.256 299.706 811.4 299.706ZM821.926 312.25V289.85H826.214V312.25H821.926ZM833.879 306.074C833.9 307.055 834.156 307.77 834.647 308.218C835.159 308.645 835.884 308.858 836.823 308.858C838.807 308.858 840.578 308.794 842.135 308.666L843.031 308.57L843.095 311.738C840.642 312.335 838.423 312.634 836.439 312.634C834.028 312.634 832.279 311.994 831.191 310.714C830.103 309.434 829.559 307.354 829.559 304.474C829.559 298.735 831.916 295.866 836.631 295.866C841.282 295.866 843.607 298.277 843.607 303.098L843.287 306.074H833.879ZM839.383 302.81C839.383 301.53 839.18 300.645 838.775 300.154C838.37 299.642 837.655 299.386 836.631 299.386C835.628 299.386 834.914 299.653 834.487 300.186C834.082 300.698 833.868 301.573 833.847 302.81H839.383ZM855.536 299.898H851.6V306.458C851.6 307.098 851.61 307.557 851.632 307.834C851.674 308.09 851.792 308.314 851.984 308.506C852.197 308.698 852.517 308.794 852.944 308.794L855.376 308.73L855.568 312.154C854.138 312.474 853.05 312.634 852.304 312.634C850.384 312.634 849.072 312.207 848.368 311.354C847.664 310.479 847.312 308.879 847.312 306.554V299.898H845.424V296.25H847.312V291.802H851.6V296.25H855.536V299.898ZM870.584 301.242V307.898C870.626 308.41 870.712 308.773 870.84 308.986C870.968 309.178 871.234 309.317 871.64 309.402L871.512 312.634C870.424 312.634 869.549 312.559 868.888 312.41C868.248 312.261 867.597 311.962 866.936 311.514C865.4 312.261 863.832 312.634 862.232 312.634C858.925 312.634 857.272 310.885 857.272 307.386C857.272 305.679 857.73 304.474 858.648 303.77C859.565 303.045 860.973 302.618 862.872 302.49L866.296 302.234V301.242C866.296 300.581 866.146 300.133 865.848 299.898C865.549 299.642 865.069 299.514 864.408 299.514L858.392 299.77L858.264 296.794C860.546 296.175 862.712 295.866 864.76 295.866C866.829 295.866 868.312 296.293 869.208 297.146C870.125 297.999 870.584 299.365 870.584 301.242ZM863.384 305.466C862.189 305.573 861.592 306.213 861.592 307.386C861.592 308.559 862.114 309.146 863.16 309.146C863.97 309.146 864.856 309.018 865.816 308.762L866.296 308.634V305.21L863.384 305.466ZM883.536 299.898H879.6V306.458C879.6 307.098 879.61 307.557 879.632 307.834C879.674 308.09 879.792 308.314 879.984 308.506C880.197 308.698 880.517 308.794 880.944 308.794L883.376 308.73L883.568 312.154C882.138 312.474 881.05 312.634 880.304 312.634C878.384 312.634 877.072 312.207 876.368 311.354C875.664 310.479 875.312 308.879 875.312 306.554V299.898H873.424V296.25H875.312V291.802H879.6V296.25H883.536V299.898ZM898.584 301.242V307.898C898.626 308.41 898.712 308.773 898.84 308.986C898.968 309.178 899.234 309.317 899.64 309.402L899.512 312.634C898.424 312.634 897.549 312.559 896.888 312.41C896.248 312.261 895.597 311.962 894.936 311.514C893.4 312.261 891.832 312.634 890.232 312.634C886.925 312.634 885.272 310.885 885.272 307.386C885.272 305.679 885.73 304.474 886.648 303.77C887.565 303.045 888.973 302.618 890.872 302.49L894.296 302.234V301.242C894.296 300.581 894.146 300.133 893.848 299.898C893.549 299.642 893.069 299.514 892.408 299.514L886.392 299.77L886.264 296.794C888.546 296.175 890.712 295.866 892.76 295.866C894.829 295.866 896.312 296.293 897.208 297.146C898.125 297.999 898.584 299.365 898.584 301.242ZM891.384 305.466C890.189 305.573 889.592 306.213 889.592 307.386C889.592 308.559 890.114 309.146 891.16 309.146C891.97 309.146 892.856 309.018 893.816 308.762L894.296 308.634V305.21L891.384 305.466ZM902.864 312.25V307.098H907.472V312.25H902.864ZM903.28 304.25L902.864 290.49H907.504L907.056 304.25H903.28Z" fill="#17324D"/>
<rect width="200" height="148" transform="translate(620 343.25)" fill="#F6E4C8"/>
<path fill-rule="evenodd" clip-rule="evenodd" d="M720 467.25C692.386 467.25 670 444.864 670 417.25C670 389.636 692.386 367.25 720 367.25C733.261 367.25 745.979 372.518 755.355 381.895C764.732 391.271 770 403.989 770 417.25C770 444.864 747.614 467.25 720 467.25ZM745.504 396.75L749.004 400.25L710.004 438.25L686.504 415.25L690.004 411.75L710.004 431.25L745.504 396.75ZM720 372.25C744.853 372.25 765 392.397 765 417.25C765 442.103 744.853 462.25 720 462.25C695.147 462.25 675 442.103 675 417.25C675 392.397 695.147 372.25 720 372.25Z" fill="#995C00"/>
<path d="M666.37 535.052C665.134 535.304 664.024 535.43 663.04 535.43C662.056 535.43 661.258 535.298 660.646 535.034C660.046 534.758 659.578 534.338 659.242 533.774C658.918 533.198 658.69 532.544 658.558 531.812C658.438 531.068 658.378 530.144 658.378 529.04C658.378 527.936 658.438 527.012 658.558 526.268C658.69 525.512 658.918 524.846 659.242 524.27C659.578 523.694 660.046 523.274 660.646 523.01C661.246 522.746 662.026 522.614 662.986 522.614C663.946 522.614 665.074 522.746 666.37 523.01L666.316 524.18C665.104 523.964 664.024 523.856 663.076 523.856C661.756 523.856 660.88 524.252 660.448 525.044C660.028 525.824 659.818 527.162 659.818 529.058C659.818 530.006 659.854 530.768 659.926 531.344C660.01 531.92 660.166 532.442 660.394 532.91C660.622 533.366 660.952 533.696 661.384 533.9C661.828 534.092 662.47 534.188 663.31 534.188C664.162 534.188 665.164 534.08 666.316 533.864L666.37 535.052ZM667.832 530.732C667.832 529.088 668.126 527.9 668.714 527.168C669.302 526.436 670.292 526.07 671.684 526.07C673.088 526.07 674.078 526.436 674.654 527.168C675.242 527.9 675.536 529.088 675.536 530.732C675.536 532.376 675.26 533.57 674.708 534.314C674.156 535.058 673.148 535.43 671.684 535.43C670.22 535.43 669.212 535.058 668.66 534.314C668.108 533.57 667.832 532.376 667.832 530.732ZM669.218 530.714C669.218 532.022 669.374 532.94 669.686 533.468C670.01 533.996 670.676 534.26 671.684 534.26C672.704 534.26 673.37 534.002 673.682 533.486C673.994 532.958 674.15 532.034 674.15 530.714C674.15 529.394 673.976 528.488 673.628 527.996C673.28 527.492 672.632 527.24 671.684 527.24C670.748 527.24 670.1 527.492 669.74 527.996C669.392 528.488 669.218 529.394 669.218 530.714ZM679.087 535.25H677.737V526.25H679.069V526.88C680.041 526.34 680.971 526.07 681.859 526.07C683.059 526.07 683.863 526.394 684.271 527.042C684.691 527.69 684.901 528.842 684.901 530.498V535.25H683.569V530.534C683.569 529.286 683.443 528.434 683.191 527.978C682.951 527.51 682.429 527.276 681.625 527.276C681.241 527.276 680.833 527.336 680.401 527.456C679.981 527.564 679.657 527.672 679.429 527.78L679.087 527.942V535.25ZM692.015 527.42H689.153V531.722C689.153 532.754 689.225 533.432 689.369 533.756C689.525 534.08 689.885 534.242 690.449 534.242L692.051 534.134L692.141 535.25C691.337 535.382 690.725 535.448 690.305 535.448C689.369 535.448 688.721 535.22 688.361 534.764C688.001 534.308 687.821 533.438 687.821 532.154V527.42H686.543V526.25H687.821V523.496H689.153V526.25H692.015V527.42ZM693.663 535.25V526.25H695.013V535.25H693.663ZM693.663 524.216V522.65H695.013V524.216H693.663ZM698.951 535.25H697.601V526.25H698.933V526.88C699.905 526.34 700.835 526.07 701.723 526.07C702.923 526.07 703.727 526.394 704.135 527.042C704.555 527.69 704.765 528.842 704.765 530.498V535.25H703.433V530.534C703.433 529.286 703.307 528.434 703.055 527.978C702.815 527.51 702.293 527.276 701.489 527.276C701.105 527.276 700.697 527.336 700.265 527.456C699.845 527.564 699.521 527.672 699.293 527.78L698.951 527.942V535.25ZM712.885 526.25H714.235V535.25H712.885V534.62C711.985 535.16 711.097 535.43 710.221 535.43C708.997 535.43 708.181 535.112 707.773 534.476C707.377 533.84 707.179 532.664 707.179 530.948V526.25H708.529V530.93C708.529 532.238 708.643 533.114 708.871 533.558C709.099 534.002 709.615 534.224 710.419 534.224C710.815 534.224 711.217 534.17 711.625 534.062C712.033 533.942 712.345 533.828 712.561 533.72L712.885 533.558V526.25ZM723.185 528.968V533.576C723.221 534.02 723.569 534.284 724.229 534.368L724.175 535.43C723.227 535.43 722.513 535.19 722.033 534.71C720.953 535.19 719.873 535.43 718.793 535.43C717.965 535.43 717.335 535.196 716.903 534.728C716.471 534.26 716.255 533.588 716.255 532.712C716.255 531.836 716.477 531.194 716.921 530.786C717.365 530.366 718.061 530.108 719.009 530.012L721.835 529.742V528.968C721.835 528.356 721.703 527.918 721.439 527.654C721.175 527.39 720.815 527.258 720.359 527.258C719.399 527.258 718.403 527.318 717.371 527.438L716.813 527.492L716.759 526.466C718.079 526.202 719.249 526.07 720.269 526.07C721.289 526.07 722.027 526.304 722.483 526.772C722.951 527.24 723.185 527.972 723.185 528.968ZM717.641 532.64C717.641 533.744 718.097 534.296 719.009 534.296C719.825 534.296 720.629 534.158 721.421 533.882L721.835 533.738V530.768L719.171 531.02C718.631 531.068 718.241 531.224 718.001 531.488C717.761 531.752 717.641 532.136 717.641 532.64ZM732.63 527.276C731.322 527.276 730.668 527.732 730.668 528.644C730.668 529.064 730.818 529.364 731.118 529.544C731.418 529.712 732.102 529.892 733.17 530.084C734.238 530.264 734.994 530.522 735.438 530.858C735.882 531.194 736.104 531.824 736.104 532.748C736.104 533.672 735.804 534.35 735.204 534.782C734.616 535.214 733.752 535.43 732.612 535.43C731.868 535.43 730.992 535.346 729.984 535.178L729.444 535.088L729.516 533.918C730.884 534.122 731.916 534.224 732.612 534.224C733.308 534.224 733.836 534.116 734.196 533.9C734.568 533.672 734.754 533.3 734.754 532.784C734.754 532.256 734.598 531.902 734.286 531.722C733.974 531.53 733.29 531.35 732.234 531.182C731.178 531.014 730.428 530.768 729.984 530.444C729.54 530.12 729.318 529.52 729.318 528.644C729.318 527.768 729.624 527.12 730.236 526.7C730.86 526.28 731.634 526.07 732.558 526.07C733.29 526.07 734.208 526.154 735.312 526.322L735.816 526.412L735.78 527.564C734.448 527.372 733.398 527.276 732.63 527.276ZM743.787 526.25H745.137V535.25H743.787V534.62C742.887 535.16 741.999 535.43 741.123 535.43C739.899 535.43 739.083 535.112 738.675 534.476C738.279 533.84 738.081 532.664 738.081 530.948V526.25H739.431V530.93C739.431 532.238 739.545 533.114 739.773 533.558C740.001 534.002 740.517 534.224 741.321 534.224C741.717 534.224 742.119 534.17 742.527 534.062C742.935 533.942 743.247 533.828 743.463 533.72L743.787 533.558V526.25ZM747.842 535.25V522.326H749.192V535.25H747.842ZM758.681 527.276C757.373 527.276 756.719 527.732 756.719 528.644C756.719 529.064 756.869 529.364 757.169 529.544C757.469 529.712 758.153 529.892 759.221 530.084C760.289 530.264 761.045 530.522 761.489 530.858C761.933 531.194 762.155 531.824 762.155 532.748C762.155 533.672 761.855 534.35 761.255 534.782C760.667 535.214 759.803 535.43 758.663 535.43C757.919 535.43 757.043 535.346 756.035 535.178L755.495 535.088L755.567 533.918C756.935 534.122 757.967 534.224 758.663 534.224C759.359 534.224 759.887 534.116 760.247 533.9C760.619 533.672 760.805 533.3 760.805 532.784C760.805 532.256 760.649 531.902 760.337 531.722C760.025 531.53 759.341 531.35 758.285 531.182C757.229 531.014 756.479 530.768 756.035 530.444C755.591 530.12 755.369 529.52 755.369 528.644C755.369 527.768 755.675 527.12 756.287 526.7C756.911 526.28 757.685 526.07 758.609 526.07C759.341 526.07 760.259 526.154 761.363 526.322L761.867 526.412L761.831 527.564C760.499 527.372 759.449 527.276 758.681 527.276ZM764.222 535.25V526.25H765.572V535.25H764.222ZM764.222 524.216V522.65H765.572V524.216H764.222ZM772.821 527.42H769.959V531.722C769.959 532.754 770.031 533.432 770.175 533.756C770.331 534.08 770.691 534.242 771.255 534.242L772.857 534.134L772.947 535.25C772.143 535.382 771.531 535.448 771.111 535.448C770.175 535.448 769.527 535.22 769.167 534.764C768.807 534.308 768.627 533.438 768.627 532.154V527.42H767.349V526.25H768.627V523.496H769.959V526.25H772.821V527.42ZM774.074 530.732C774.074 529.088 774.368 527.9 774.956 527.168C775.544 526.436 776.534 526.07 777.926 526.07C779.33 526.07 780.32 526.436 780.896 527.168C781.484 527.9 781.778 529.088 781.778 530.732C781.778 532.376 781.502 533.57 780.95 534.314C780.398 535.058 779.39 535.43 777.926 535.43C776.462 535.43 775.454 535.058 774.902 534.314C774.35 533.57 774.074 532.376 774.074 530.732ZM775.46 530.714C775.46 532.022 775.616 532.94 775.928 533.468C776.252 533.996 776.918 534.26 777.926 534.26C778.946 534.26 779.612 534.002 779.924 533.486C780.236 532.958 780.392 532.034 780.392 530.714C780.392 529.394 780.218 528.488 779.87 527.996C779.522 527.492 778.874 527.24 777.926 527.24C776.99 527.24 776.342 527.492 775.982 527.996C775.634 528.488 775.46 529.394 775.46 530.714Z" fill="#17324D"/>
<rect x="666.5" y="567.25" width="107" height="46" rx="3" stroke="#0066CC" stroke-width="2"/>
<rect x="665.5" y="566.25" width="109" height="48" rx="4" fill="#0066CC"/>
<path d="M694.491 596.426C692.891 596.426 691.803 595.983 691.227 595.098C690.662 594.213 690.379 592.757 690.379 590.73C690.379 588.703 690.667 587.263 691.243 586.41C691.819 585.546 692.902 585.114 694.491 585.114C695.44 585.114 696.486 585.247 697.627 585.514L697.563 586.954C696.603 586.783 695.643 586.698 694.683 586.698C693.723 586.698 693.072 586.986 692.731 587.562C692.39 588.127 692.219 589.199 692.219 590.778C692.219 592.346 692.384 593.418 692.715 593.994C693.046 594.559 693.691 594.842 694.651 594.842C695.611 594.842 696.582 594.762 697.563 594.602L697.611 596.074C696.512 596.309 695.472 596.426 694.491 596.426ZM699.597 589.114C700.152 588.421 701.069 588.074 702.349 588.074C703.629 588.074 704.541 588.421 705.085 589.114C705.64 589.807 705.917 590.847 705.917 592.234C705.917 593.621 705.651 594.666 705.117 595.37C704.584 596.074 703.661 596.426 702.349 596.426C701.037 596.426 700.115 596.074 699.581 595.37C699.048 594.666 698.781 593.621 698.781 592.234C698.781 590.847 699.053 589.807 699.597 589.114ZM700.909 594.314C701.155 594.741 701.635 594.954 702.349 594.954C703.064 594.954 703.544 594.741 703.789 594.314C704.035 593.887 704.157 593.189 704.157 592.218C704.157 591.247 704.024 590.559 703.757 590.154C703.501 589.749 703.032 589.546 702.349 589.546C701.667 589.546 701.192 589.749 700.925 590.154C700.669 590.559 700.541 591.247 700.541 592.218C700.541 593.189 700.664 593.887 700.909 594.314ZM709.394 596.25H707.65V588.25H709.378V588.746C710.156 588.298 710.892 588.074 711.586 588.074C712.652 588.074 713.378 588.378 713.762 588.986C714.156 589.583 714.354 590.575 714.354 591.962V596.25H712.626V592.01C712.626 591.146 712.53 590.533 712.338 590.17C712.156 589.807 711.778 589.626 711.202 589.626C710.658 589.626 710.135 589.733 709.634 589.946L709.394 590.042V596.25ZM720.688 589.738H718.48V593.258C718.48 593.909 718.528 594.341 718.624 594.554C718.72 594.767 718.965 594.874 719.36 594.874L720.672 594.826L720.752 596.218C720.037 596.357 719.493 596.426 719.12 596.426C718.213 596.426 717.589 596.218 717.248 595.802C716.917 595.386 716.752 594.602 716.752 593.45V589.738H715.728V588.25H716.752V585.93H718.48V588.25H720.688V589.738ZM722.118 596.25V588.25H723.863V596.25H722.118ZM722.118 586.89V585.05H723.863V586.89H722.118ZM727.722 596.25H725.978V588.25H727.706V588.746C728.485 588.298 729.221 588.074 729.914 588.074C730.981 588.074 731.706 588.378 732.09 588.986C732.485 589.583 732.682 590.575 732.682 591.962V596.25H730.954V592.01C730.954 591.146 730.858 590.533 730.666 590.17C730.485 589.807 730.106 589.626 729.53 589.626C728.986 589.626 728.463 589.733 727.962 589.946L727.722 590.042V596.25ZM739.56 588.25H741.288V596.25H739.56V595.754C738.782 596.202 738.062 596.426 737.4 596.426C736.302 596.426 735.566 596.133 735.192 595.546C734.819 594.949 734.632 593.909 734.632 592.426V588.25H736.376V592.442C736.376 593.402 736.456 594.047 736.616 594.378C736.776 594.709 737.15 594.874 737.736 594.874C738.312 594.874 738.84 594.767 739.32 594.554L739.56 594.458V588.25ZM749.32 590.714V594.362C749.33 594.597 749.389 594.773 749.496 594.89C749.613 594.997 749.789 595.066 750.024 595.098L749.976 596.426C749.058 596.426 748.349 596.229 747.848 595.834C746.994 596.229 746.136 596.426 745.272 596.426C743.682 596.426 742.888 595.578 742.888 593.882C742.888 593.071 743.101 592.485 743.528 592.122C743.965 591.759 744.632 591.541 745.528 591.466L747.592 591.29V590.714C747.592 590.287 747.496 589.989 747.304 589.818C747.122 589.647 746.85 589.562 746.488 589.562C745.805 589.562 744.952 589.605 743.928 589.69L743.416 589.722L743.352 588.49C744.514 588.213 745.581 588.074 746.552 588.074C747.533 588.074 748.237 588.287 748.664 588.714C749.101 589.13 749.32 589.797 749.32 590.714ZM745.736 592.698C745 592.762 744.632 593.162 744.632 593.898C744.632 594.634 744.957 595.002 745.608 595.002C746.141 595.002 746.706 594.917 747.304 594.746L747.592 594.65V592.522L745.736 592.698Z" fill="white"/>
<rect width="1440" height="62" transform="translate(0 778.25)" fill="#003366"/>
<mask id="path-16-inside-1_1230_23099" fill="white">
<path d="M0 778.25H1440V840.25H0V778.25Z"/>
</mask>
<path d="M0 778.25H1440V840.25H0V778.25Z" fill="#004D99"/>
<path d="M0 778.25V779.25H1440V778.25V777.25H0V778.25Z" fill="white" fill-opacity="0.5" mask="url(#path-16-inside-1_1230_23099)"/>
<path d="M25.106 814.25V804.66H27.822L30.734 812.878H30.944V804.66H32.498V814.25H29.838L26.856 806.018H26.66V814.25H25.106ZM34.8176 808.006C35.303 807.399 36.1056 807.096 37.2256 807.096C38.3456 807.096 39.1436 807.399 39.6196 808.006C40.105 808.613 40.3476 809.523 40.3476 810.736C40.3476 811.949 40.1143 812.864 39.6476 813.48C39.181 814.096 38.3736 814.404 37.2256 814.404C36.0776 814.404 35.2703 814.096 34.8036 813.48C34.337 812.864 34.1036 811.949 34.1036 810.736C34.1036 809.523 34.3416 808.613 34.8176 808.006ZM35.9656 812.556C36.1803 812.929 36.6003 813.116 37.2256 813.116C37.851 813.116 38.271 812.929 38.4856 812.556C38.7003 812.183 38.8076 811.571 38.8076 810.722C38.8076 809.873 38.691 809.271 38.4576 808.916C38.2336 808.561 37.823 808.384 37.2256 808.384C36.6283 808.384 36.213 808.561 35.9796 808.916C35.7556 809.271 35.6436 809.873 35.6436 810.722C35.6436 811.571 35.751 812.183 35.9656 812.556ZM45.6295 808.552H43.6975V811.632C43.6975 812.201 43.7395 812.579 43.8235 812.766C43.9075 812.953 44.1221 813.046 44.4675 813.046L45.6155 813.004L45.6855 814.222C45.0601 814.343 44.5841 814.404 44.2575 814.404C43.4641 814.404 42.9181 814.222 42.6195 813.858C42.3301 813.494 42.1855 812.808 42.1855 811.8V808.552H41.2895V807.25H42.1855V805.22H43.6975V807.25H45.6295V808.552ZM51.865 812.99L52.257 812.948L52.285 814.082C51.221 814.297 50.2784 814.404 49.457 814.404C48.421 814.404 47.6744 814.119 47.217 813.55C46.769 812.981 46.545 812.071 46.545 810.82C46.545 808.337 47.5577 807.096 49.583 807.096C51.543 807.096 52.523 808.165 52.523 810.302L52.425 811.394H48.085C48.0944 811.973 48.2204 812.397 48.463 812.668C48.7057 812.939 49.1584 813.074 49.821 813.074C50.4837 813.074 51.165 813.046 51.865 812.99ZM51.025 810.218C51.025 809.527 50.913 809.047 50.689 808.776C50.4744 808.496 50.1057 808.356 49.583 808.356C49.0604 808.356 48.6777 808.501 48.435 808.79C48.2017 809.079 48.0804 809.555 48.071 810.218H51.025ZM62.6246 814.25H57.2486V804.66H58.8026V812.864H62.6246V814.25ZM68.6951 812.99L69.0871 812.948L69.1151 814.082C68.0511 814.297 67.1084 814.404 66.2871 814.404C65.2511 814.404 64.5044 814.119 64.0471 813.55C63.5991 812.981 63.3751 812.071 63.3751 810.82C63.3751 808.337 64.3878 807.096 66.4131 807.096C68.3731 807.096 69.3531 808.165 69.3531 810.302L69.2551 811.394H64.9151C64.9244 811.973 65.0504 812.397 65.2931 812.668C65.5358 812.939 65.9884 813.074 66.6511 813.074C67.3138 813.074 67.9951 813.046 68.6951 812.99ZM67.8551 810.218C67.8551 809.527 67.7431 809.047 67.5191 808.776C67.3044 808.496 66.9358 808.356 66.4131 808.356C65.8904 808.356 65.5078 808.501 65.2651 808.79C65.0318 809.079 64.9104 809.555 64.9011 810.218H67.8551ZM76.9385 815.202C76.9385 816.733 75.8325 817.498 73.6205 817.498C72.5565 817.498 71.7678 817.353 71.2545 817.064C70.7412 816.775 70.4845 816.247 70.4845 815.482C70.4845 815.137 70.5685 814.838 70.7365 814.586C70.9045 814.343 71.1752 814.077 71.5485 813.788C71.2405 813.583 71.0865 813.242 71.0865 812.766C71.0865 812.579 71.2125 812.276 71.4645 811.856L71.5905 811.646C70.9185 811.245 70.5825 810.545 70.5825 809.546C70.5825 808.706 70.8345 808.09 71.3385 807.698C71.8425 807.306 72.5238 807.11 73.3825 807.11C73.7932 807.11 74.1992 807.157 74.6005 807.25L74.8105 807.292L76.9805 807.236V808.468L75.8185 808.398C76.0705 808.725 76.1965 809.107 76.1965 809.546C76.1965 810.461 75.9632 811.095 75.4965 811.45C75.0392 811.795 74.3205 811.968 73.3405 811.968C73.0978 811.968 72.8925 811.949 72.7245 811.912C72.5938 812.229 72.5285 812.477 72.5285 812.654C72.5285 812.822 72.6125 812.939 72.7805 813.004C72.9578 813.069 73.3778 813.107 74.0405 813.116C75.1512 813.125 75.9118 813.275 76.3225 813.564C76.7332 813.853 76.9385 814.399 76.9385 815.202ZM71.9825 815.342C71.9825 815.669 72.1132 815.902 72.3745 816.042C72.6358 816.182 73.0838 816.252 73.7185 816.252C74.8478 816.252 75.4125 815.93 75.4125 815.286C75.4125 814.922 75.3098 814.689 75.1045 814.586C74.9085 814.493 74.5118 814.441 73.9145 814.432L72.5425 814.348C72.3372 814.516 72.1925 814.67 72.1085 814.81C72.0245 814.959 71.9825 815.137 71.9825 815.342ZM72.0945 809.546C72.0945 809.975 72.1972 810.293 72.4025 810.498C72.6078 810.694 72.9392 810.792 73.3965 810.792C73.8538 810.792 74.1805 810.694 74.3765 810.498C74.5818 810.293 74.6845 809.975 74.6845 809.546C74.6845 809.117 74.5818 808.804 74.3765 808.608C74.1712 808.403 73.8398 808.3 73.3825 808.3C72.5238 808.3 72.0945 808.715 72.0945 809.546ZM83.356 809.406V812.598C83.3653 812.803 83.4166 812.957 83.51 813.06C83.6126 813.153 83.7666 813.214 83.972 813.242L83.93 814.404C83.1273 814.404 82.5066 814.231 82.068 813.886C81.3213 814.231 80.57 814.404 79.814 814.404C78.4233 814.404 77.728 813.662 77.728 812.178C77.728 811.469 77.9146 810.955 78.288 810.638C78.6706 810.321 79.254 810.129 80.038 810.064L81.844 809.91V809.406C81.844 809.033 81.76 808.771 81.592 808.622C81.4333 808.473 81.1953 808.398 80.878 808.398C80.2806 808.398 79.534 808.435 78.638 808.51L78.19 808.538L78.134 807.46C79.1513 807.217 80.0846 807.096 80.934 807.096C81.7926 807.096 82.4086 807.283 82.782 807.656C83.1646 808.02 83.356 808.603 83.356 809.406ZM80.22 811.142C79.576 811.198 79.254 811.548 79.254 812.192C79.254 812.836 79.5386 813.158 80.108 813.158C80.5746 813.158 81.0693 813.083 81.592 812.934L81.844 812.85V810.988L80.22 811.142ZM85.3557 814.25V804.338H86.8817V814.25H85.3557ZM88.8127 814.25V807.25H90.3387V814.25H88.8127ZM88.8127 806.06V804.45H90.3387V806.06H88.8127Z" fill="white"/>
<path d="M24 815.79H70.08V816.21H24V815.79ZM77.2872 815.79H91.2627V816.21H77.2872V815.79Z" fill="white"/>
<path d="M120.62 811.268H118.66V814.25H117.106V804.66H120.62C122.795 804.66 123.882 805.733 123.882 807.88C123.882 808.981 123.607 809.821 123.056 810.4C122.515 810.979 121.703 811.268 120.62 811.268ZM118.66 809.924H120.606C121.726 809.924 122.286 809.243 122.286 807.88C122.286 807.227 122.151 806.751 121.88 806.452C121.609 806.153 121.185 806.004 120.606 806.004H118.66V809.924ZM125.195 814.25V807.25H126.707V808.09C127.501 807.577 128.294 807.245 129.087 807.096V808.622C128.285 808.781 127.599 808.986 127.029 809.238L126.721 809.364V814.25H125.195ZM130.254 814.25V807.25H131.78V814.25H130.254ZM130.254 806.06V804.45H131.78V806.06H130.254ZM132.973 807.25H134.569L135.913 812.948H136.361L137.761 807.25H139.315L137.495 814.25H134.779L132.973 807.25ZM145.592 809.406V812.598C145.602 812.803 145.653 812.957 145.746 813.06C145.849 813.153 146.003 813.214 146.208 813.242L146.166 814.404C145.364 814.404 144.743 814.231 144.304 813.886C143.558 814.231 142.806 814.404 142.05 814.404C140.66 814.404 139.964 813.662 139.964 812.178C139.964 811.469 140.151 810.955 140.524 810.638C140.907 810.321 141.49 810.129 142.274 810.064L144.08 809.91V809.406C144.08 809.033 143.996 808.771 143.828 808.622C143.67 808.473 143.432 808.398 143.114 808.398C142.517 808.398 141.77 808.435 140.874 808.51L140.426 808.538L140.37 807.46C141.388 807.217 142.321 807.096 143.17 807.096C144.029 807.096 144.645 807.283 145.018 807.656C145.401 808.02 145.592 808.603 145.592 809.406ZM142.456 811.142C141.812 811.198 141.49 811.548 141.49 812.192C141.49 812.836 141.775 813.158 142.344 813.158C142.811 813.158 143.306 813.083 143.828 812.934L144.08 812.85V810.988L142.456 811.142ZM150.126 807.096C150.621 807.096 151.204 807.161 151.876 807.292L152.226 807.362L152.17 808.566C151.433 808.491 150.887 808.454 150.532 808.454C149.823 808.454 149.347 808.613 149.104 808.93C148.861 809.247 148.74 809.845 148.74 810.722C148.74 811.599 148.857 812.206 149.09 812.542C149.323 812.878 149.809 813.046 150.546 813.046L152.184 812.934L152.226 814.152C151.283 814.32 150.574 814.404 150.098 814.404C149.034 814.404 148.283 814.119 147.844 813.55C147.415 812.971 147.2 812.029 147.2 810.722C147.2 809.415 147.429 808.487 147.886 807.936C148.343 807.376 149.09 807.096 150.126 807.096ZM153.057 807.25H154.555L156.039 812.948H156.417L157.901 807.25H159.413L156.753 817.26H155.255L156.095 814.25H154.891L153.057 807.25ZM167.364 811.268H165.404V814.25H163.85V804.66H167.364C169.539 804.66 170.626 805.733 170.626 807.88C170.626 808.981 170.351 809.821 169.8 810.4C169.259 810.979 168.447 811.268 167.364 811.268ZM165.404 809.924H167.35C168.47 809.924 169.03 809.243 169.03 807.88C169.03 807.227 168.895 806.751 168.624 806.452C168.353 806.153 167.929 806.004 167.35 806.004H165.404V809.924ZM172.318 808.006C172.803 807.399 173.606 807.096 174.726 807.096C175.846 807.096 176.644 807.399 177.12 808.006C177.605 808.613 177.848 809.523 177.848 810.736C177.848 811.949 177.614 812.864 177.148 813.48C176.681 814.096 175.874 814.404 174.726 814.404C173.578 814.404 172.77 814.096 172.304 813.48C171.837 812.864 171.604 811.949 171.604 810.736C171.604 809.523 171.842 808.613 172.318 808.006ZM173.466 812.556C173.68 812.929 174.1 813.116 174.726 813.116C175.351 813.116 175.771 812.929 175.986 812.556C176.2 812.183 176.308 811.571 176.308 810.722C176.308 809.873 176.191 809.271 175.958 808.916C175.734 808.561 175.323 808.384 174.726 808.384C174.128 808.384 173.713 808.561 173.48 808.916C173.256 809.271 173.144 809.873 173.144 810.722C173.144 811.571 173.251 812.183 173.466 812.556ZM179.447 814.25V804.338H180.973V814.25H179.447ZM182.904 814.25V807.25H184.43V814.25H182.904ZM182.904 806.06V804.45H184.43V806.06H182.904ZM188.899 807.096C189.394 807.096 189.977 807.161 190.649 807.292L190.999 807.362L190.943 808.566C190.206 808.491 189.66 808.454 189.305 808.454C188.596 808.454 188.12 808.613 187.877 808.93C187.635 809.247 187.513 809.845 187.513 810.722C187.513 811.599 187.63 812.206 187.863 812.542C188.097 812.878 188.582 813.046 189.319 813.046L190.957 812.934L190.999 814.152C190.057 814.32 189.347 814.404 188.871 814.404C187.807 814.404 187.056 814.119 186.617 813.55C186.188 812.971 185.973 812.029 185.973 810.722C185.973 809.415 186.202 808.487 186.659 807.936C187.117 807.376 187.863 807.096 188.899 807.096ZM191.831 807.25H193.329L194.813 812.948H195.191L196.675 807.25H198.187L195.527 817.26H194.029L194.869 814.25H193.665L191.831 807.25Z" fill="white"/>
<path d="M116 815.79H155.127V816.21H116V815.79ZM157.561 815.79H193.9V816.21H157.561V815.79ZM196.334 815.79H198.439V816.21H196.334V815.79Z" fill="white"/>
<path d="M227.424 814.25H224.106V804.66H227.424C228.899 804.66 229.907 805.033 230.448 805.78C230.989 806.527 231.26 807.698 231.26 809.294C231.26 810.106 231.204 810.797 231.092 811.366C230.989 811.926 230.803 812.435 230.532 812.892C230 813.797 228.964 814.25 227.424 814.25ZM229.65 809.294C229.65 808.137 229.505 807.301 229.216 806.788C228.927 806.275 228.329 806.018 227.424 806.018H225.66V812.878H227.424C228.348 812.878 228.964 812.537 229.272 811.856C229.421 811.511 229.519 811.142 229.566 810.75C229.622 810.358 229.65 809.873 229.65 809.294ZM232.893 814.25V807.25H234.419V814.25H232.893ZM232.893 806.06V804.45H234.419V806.06H232.893ZM238.888 807.096C239.382 807.096 239.966 807.161 240.638 807.292L240.988 807.362L240.932 808.566C240.194 808.491 239.648 808.454 239.294 808.454C238.584 808.454 238.108 808.613 237.866 808.93C237.623 809.247 237.502 809.845 237.502 810.722C237.502 811.599 237.618 812.206 237.852 812.542C238.085 812.878 238.57 813.046 239.308 813.046L240.946 812.934L240.988 814.152C240.045 814.32 239.336 814.404 238.86 814.404C237.796 814.404 237.044 814.119 236.606 813.55C236.176 812.971 235.962 812.029 235.962 810.722C235.962 809.415 236.19 808.487 236.648 807.936C237.105 807.376 237.852 807.096 238.888 807.096ZM243.989 814.25H242.463V804.338H243.989V807.614C244.68 807.269 245.319 807.096 245.907 807.096C246.84 807.096 247.475 807.362 247.811 807.894C248.156 808.417 248.329 809.285 248.329 810.498V814.25H246.803V810.54C246.803 809.784 246.724 809.247 246.565 808.93C246.406 808.613 246.07 808.454 245.557 808.454C245.109 808.454 244.661 808.529 244.213 808.678L243.989 808.762V814.25ZM250.106 814.25V807.25H251.632V814.25H250.106ZM250.106 806.06V804.45H251.632V806.06H250.106ZM258.663 809.406V812.598C258.672 812.803 258.723 812.957 258.817 813.06C258.919 813.153 259.073 813.214 259.279 813.242L259.237 814.404C258.434 814.404 257.813 814.231 257.375 813.886C256.628 814.231 255.877 814.404 255.121 814.404C253.73 814.404 253.035 813.662 253.035 812.178C253.035 811.469 253.221 810.955 253.595 810.638C253.977 810.321 254.561 810.129 255.345 810.064L257.151 809.91V809.406C257.151 809.033 257.067 808.771 256.899 808.622C256.74 808.473 256.502 808.398 256.185 808.398C255.587 808.398 254.841 808.435 253.945 808.51L253.497 808.538L253.441 807.46C254.458 807.217 255.391 807.096 256.241 807.096C257.099 807.096 257.715 807.283 258.089 807.656C258.471 808.02 258.663 808.603 258.663 809.406ZM255.527 811.142C254.883 811.198 254.561 811.548 254.561 812.192C254.561 812.836 254.845 813.158 255.415 813.158C255.881 813.158 256.376 813.083 256.899 812.934L257.151 812.85V810.988L255.527 811.142ZM260.578 814.25V807.25H262.09V808.09C262.884 807.577 263.677 807.245 264.47 807.096V808.622C263.668 808.781 262.982 808.986 262.412 809.238L262.104 809.364V814.25H260.578ZM270.817 809.406V812.598C270.826 812.803 270.878 812.957 270.971 813.06C271.074 813.153 271.228 813.214 271.433 813.242L271.391 814.404C270.588 814.404 269.968 814.231 269.529 813.886C268.782 814.231 268.031 814.404 267.275 814.404C265.884 814.404 265.189 813.662 265.189 812.178C265.189 811.469 265.376 810.955 265.749 810.638C266.132 810.321 266.715 810.129 267.499 810.064L269.305 809.91V809.406C269.305 809.033 269.221 808.771 269.053 808.622C268.894 808.473 268.656 808.398 268.339 808.398C267.742 808.398 266.995 808.435 266.099 808.51L265.651 808.538L265.595 807.46C266.612 807.217 267.546 807.096 268.395 807.096C269.254 807.096 269.87 807.283 270.243 807.656C270.626 808.02 270.817 808.603 270.817 809.406ZM267.681 811.142C267.037 811.198 266.715 811.548 266.715 812.192C266.715 812.836 267 813.158 267.569 813.158C268.036 813.158 268.53 813.083 269.053 812.934L269.305 812.85V810.988L267.681 811.142ZM272.383 808.608V807.25H277.577V808.608L274.217 812.892H277.577V814.25H272.383V812.892L275.757 808.608H272.383ZM279.09 814.25V807.25H280.616V814.25H279.09ZM279.09 806.06V804.45H280.616V806.06H279.09ZM282.845 808.006C283.33 807.399 284.133 807.096 285.253 807.096C286.373 807.096 287.171 807.399 287.647 808.006C288.132 808.613 288.375 809.523 288.375 810.736C288.375 811.949 288.142 812.864 287.675 813.48C287.208 814.096 286.401 814.404 285.253 814.404C284.105 814.404 283.298 814.096 282.831 813.48C282.364 812.864 282.131 811.949 282.131 810.736C282.131 809.523 282.369 808.613 282.845 808.006ZM283.993 812.556C284.208 812.929 284.628 813.116 285.253 813.116C285.878 813.116 286.298 812.929 286.513 812.556C286.728 812.183 286.835 811.571 286.835 810.722C286.835 809.873 286.718 809.271 286.485 808.916C286.261 808.561 285.85 808.384 285.253 808.384C284.656 808.384 284.24 808.561 284.007 808.916C283.783 809.271 283.671 809.873 283.671 810.722C283.671 811.571 283.778 812.183 283.993 812.556ZM291.417 814.25H289.891V807.25H291.403V807.684C292.084 807.292 292.728 807.096 293.335 807.096C294.268 807.096 294.903 807.362 295.239 807.894C295.584 808.417 295.757 809.285 295.757 810.498V814.25H294.245V810.54C294.245 809.784 294.161 809.247 293.993 808.93C293.834 808.613 293.503 808.454 292.999 808.454C292.523 808.454 292.065 808.547 291.627 808.734L291.417 808.818V814.25ZM302.517 812.99L302.909 812.948L302.937 814.082C301.873 814.297 300.931 814.404 300.109 814.404C299.073 814.404 298.327 814.119 297.869 813.55C297.421 812.981 297.197 812.071 297.197 810.82C297.197 808.337 298.21 807.096 300.235 807.096C302.195 807.096 303.175 808.165 303.175 810.302L303.077 811.394H298.737C298.747 811.973 298.873 812.397 299.115 812.668C299.358 812.939 299.811 813.074 300.473 813.074C301.136 813.074 301.817 813.046 302.517 812.99ZM301.677 810.218C301.677 809.527 301.565 809.047 301.341 808.776C301.127 808.496 300.758 808.356 300.235 808.356C299.713 808.356 299.33 808.501 299.087 808.79C298.854 809.079 298.733 809.555 298.723 810.218H301.677ZM307.075 814.25L309.441 804.66H312.535L314.915 814.25H313.347L312.829 812.192H309.147L308.629 814.25H307.075ZM310.645 805.962L309.455 810.82H312.521L311.345 805.962H310.645ZM318.649 807.096C319.144 807.096 319.727 807.161 320.399 807.292L320.749 807.362L320.693 808.566C319.956 808.491 319.41 808.454 319.055 808.454C318.346 808.454 317.87 808.613 317.627 808.93C317.385 809.247 317.263 809.845 317.263 810.722C317.263 811.599 317.38 812.206 317.613 812.542C317.847 812.878 318.332 813.046 319.069 813.046L320.707 812.934L320.749 814.152C319.807 814.32 319.097 814.404 318.621 814.404C317.557 814.404 316.806 814.119 316.367 813.55C315.938 812.971 315.723 812.029 315.723 810.722C315.723 809.415 315.952 808.487 316.409 807.936C316.867 807.376 317.613 807.096 318.649 807.096ZM324.774 807.096C325.269 807.096 325.852 807.161 326.524 807.292L326.874 807.362L326.818 808.566C326.081 808.491 325.535 808.454 325.18 808.454C324.471 808.454 323.995 808.613 323.752 808.93C323.51 809.247 323.388 809.845 323.388 810.722C323.388 811.599 323.505 812.206 323.738 812.542C323.972 812.878 324.457 813.046 325.194 813.046L326.832 812.934L326.874 814.152C325.932 814.32 325.222 814.404 324.746 814.404C323.682 814.404 322.931 814.119 322.492 813.55C322.063 812.971 321.848 812.029 321.848 810.722C321.848 809.415 322.077 808.487 322.534 807.936C322.992 807.376 323.738 807.096 324.774 807.096ZM333.265 812.99L333.657 812.948L333.685 814.082C332.621 814.297 331.679 814.404 330.857 814.404C329.821 814.404 329.075 814.119 328.617 813.55C328.169 812.981 327.945 812.071 327.945 810.82C327.945 808.337 328.958 807.096 330.983 807.096C332.943 807.096 333.923 808.165 333.923 810.302L333.825 811.394H329.485C329.495 811.973 329.621 812.397 329.863 812.668C330.106 812.939 330.559 813.074 331.221 813.074C331.884 813.074 332.565 813.046 333.265 812.99ZM332.425 810.218C332.425 809.527 332.313 809.047 332.089 808.776C331.875 808.496 331.506 808.356 330.983 808.356C330.461 808.356 330.078 808.501 329.835 808.79C329.602 809.079 329.481 809.555 329.471 810.218H332.425ZM340.249 808.692C339.147 808.543 338.349 808.468 337.855 808.468C337.36 808.468 337.015 808.529 336.819 808.65C336.632 808.762 336.539 808.944 336.539 809.196C336.539 809.448 336.641 809.625 336.847 809.728C337.061 809.831 337.556 809.952 338.331 810.092C339.115 810.223 339.67 810.433 339.997 810.722C340.323 811.011 340.487 811.525 340.487 812.262C340.487 812.999 340.249 813.541 339.773 813.886C339.306 814.231 338.62 814.404 337.715 814.404C337.145 814.404 336.427 814.325 335.559 814.166L335.125 814.096L335.181 812.822C336.301 812.971 337.108 813.046 337.603 813.046C338.097 813.046 338.447 812.985 338.653 812.864C338.867 812.743 338.975 812.542 338.975 812.262C338.975 811.982 338.872 811.791 338.667 811.688C338.471 811.576 337.99 811.459 337.225 811.338C336.469 811.207 335.913 811.007 335.559 810.736C335.204 810.465 335.027 809.971 335.027 809.252C335.027 808.533 335.269 807.997 335.755 807.642C336.249 807.287 336.879 807.11 337.645 807.11C338.242 807.11 338.975 807.185 339.843 807.334L340.277 807.418L340.249 808.692ZM346.811 808.692C345.71 808.543 344.912 808.468 344.417 808.468C343.923 808.468 343.577 808.529 343.381 808.65C343.195 808.762 343.101 808.944 343.101 809.196C343.101 809.448 343.204 809.625 343.409 809.728C343.624 809.831 344.119 809.952 344.893 810.092C345.677 810.223 346.233 810.433 346.559 810.722C346.886 811.011 347.049 811.525 347.049 812.262C347.049 812.999 346.811 813.541 346.335 813.886C345.869 814.231 345.183 814.404 344.277 814.404C343.708 814.404 342.989 814.325 342.121 814.166L341.687 814.096L341.743 812.822C342.863 812.971 343.671 813.046 344.165 813.046C344.66 813.046 345.01 812.985 345.215 812.864C345.43 812.743 345.537 812.542 345.537 812.262C345.537 811.982 345.435 811.791 345.229 811.688C345.033 811.576 344.553 811.459 343.787 811.338C343.031 811.207 342.476 811.007 342.121 810.736C341.767 810.465 341.589 809.971 341.589 809.252C341.589 808.533 341.832 807.997 342.317 807.642C342.812 807.287 343.442 807.11 344.207 807.11C344.805 807.11 345.537 807.185 346.405 807.334L346.839 807.418L346.811 808.692ZM348.516 814.25V807.25H350.042V814.25H348.516ZM348.516 806.06V804.45H350.042V806.06H348.516ZM355.155 807.096C356.116 807.096 356.807 807.367 357.227 807.908C357.656 808.44 357.871 809.387 357.871 810.75C357.871 812.113 357.619 813.065 357.115 813.606C356.611 814.138 355.724 814.404 354.455 814.404C354.016 814.404 353.321 814.362 352.369 814.278L351.893 814.236V804.338H353.405V807.516C354.049 807.236 354.632 807.096 355.155 807.096ZM354.455 813.046C355.201 813.046 355.696 812.873 355.939 812.528C356.191 812.173 356.317 811.576 356.317 810.736C356.317 809.896 356.209 809.308 355.995 808.972C355.789 808.627 355.449 808.454 354.973 808.454C354.525 808.454 354.077 808.524 353.629 808.664L353.405 808.734V812.99C353.918 813.027 354.268 813.046 354.455 813.046ZM359.399 814.25V807.25H360.925V814.25H359.399ZM359.399 806.06V804.45H360.925V806.06H359.399ZM362.86 814.25V804.338H364.386V814.25H362.86ZM366.317 814.25V807.25H367.843V814.25H366.317ZM366.317 806.06V804.45H367.843V806.06H366.317ZM373.46 808.552H371.528V811.632C371.528 812.201 371.57 812.579 371.654 812.766C371.738 812.953 371.952 813.046 372.298 813.046L373.446 813.004L373.516 814.222C372.89 814.343 372.414 814.404 372.088 814.404C371.294 814.404 370.748 814.222 370.45 813.858C370.16 813.494 370.016 812.808 370.016 811.8V808.552H369.12V807.25H370.016V805.22H371.528V807.25H373.46V808.552ZM379.891 809.406V812.598C379.9 812.803 379.952 812.957 380.045 813.06C380.148 813.153 380.302 813.214 380.507 813.242L380.465 814.404C379.662 814.404 379.042 814.231 378.603 813.886C377.856 814.231 377.105 814.404 376.349 814.404C374.958 814.404 374.263 813.662 374.263 812.178C374.263 811.469 374.45 810.955 374.823 810.638C375.206 810.321 375.789 810.129 376.573 810.064L378.379 809.91V809.406C378.379 809.033 378.295 808.771 378.127 808.622C377.968 808.473 377.73 808.398 377.413 808.398C376.816 808.398 376.069 808.435 375.173 808.51L374.725 808.538L374.669 807.46C375.686 807.217 376.62 807.096 377.469 807.096C378.328 807.096 378.944 807.283 379.317 807.656C379.7 808.02 379.891 808.603 379.891 809.406ZM376.755 811.142C376.111 811.198 375.789 811.548 375.789 812.192C375.789 812.836 376.074 813.158 376.643 813.158C377.11 813.158 377.604 813.083 378.127 812.934L378.379 812.85V810.988L376.755 811.142ZM375.817 803.778L379.121 805.192L378.757 806.186L375.341 805.094L375.817 803.778Z" fill="white"/>
<path d="M223 815.79H380.885V816.21H223V815.79Z" fill="white"/>
</g>
<defs>
<clipPath id="clip0_1230_23099">
<rect width="1440" height="840" fill="white" transform="translate(0 0.25)"/>
</clipPath>
<clipPath id="clip1_1230_23099">
<rect width="47" height="24" fill="white" transform="translate(1321 14.25)"/>
</clipPath>
</defs>
</svg>
