<svg width="1440" height="841" viewBox="0 0 1440 841" fill="none" xmlns="http://www.w3.org/2000/svg">
<g clip-path="url(#clip0_40000001_3832)">
<rect width="1440" height="840" transform="translate(0 0.402832)" fill="white"/>
<rect width="1440" height="52" transform="translate(0 0.402832)" fill="#004D99"/>
<path d="M76.104 23.0528L76.23 25.3028C76.23 26.0588 76.104 26.6048 75.852 26.9408C75.6 27.2768 75.072 27.5528 74.268 27.7688C75.06 27.9728 75.582 28.2608 75.834 28.6328C76.098 28.9928 76.23 29.5568 76.23 30.3248L76.104 32.4308C76.104 32.9468 76.218 33.3428 76.446 33.6188C76.674 33.9068 77.1 34.0688 77.724 34.1048V35.7608C76.44 35.7128 75.528 35.4488 74.988 34.9688C74.46 34.5008 74.196 33.7268 74.196 32.6468L74.322 30.4688C74.322 29.5448 73.662 28.9028 72.342 28.5428V27.0128C73.026 26.8568 73.524 26.6348 73.836 26.3468C74.16 26.0468 74.322 25.6628 74.322 25.1948L74.196 22.9088C74.196 21.7808 74.46 20.9888 74.988 20.5328C75.528 20.0648 76.446 19.8068 77.742 19.7588L77.76 21.4148C77.124 21.4628 76.686 21.6188 76.446 21.8828C76.218 22.1468 76.104 22.5368 76.104 23.0528ZM79.8556 33.4028V21.0728H87.6316V22.8188H81.8536V26.3108H86.5516V28.0388H81.8536V31.6388H87.6316V33.4028H79.8556ZM91.5328 33.4028H89.5708V24.4028H91.5148V24.9608C92.3908 24.4568 93.2188 24.2048 93.9988 24.2048C95.1988 24.2048 96.0148 24.5468 96.4468 25.2308C96.8908 25.9028 97.1128 27.0188 97.1128 28.5788V33.4028H95.1688V28.6328C95.1688 27.6608 95.0608 26.9708 94.8448 26.5628C94.6408 26.1548 94.2148 25.9508 93.5668 25.9508C92.9548 25.9508 92.3668 26.0708 91.8028 26.3108L91.5328 26.4188V33.4028ZM104.239 26.0768H101.755V30.0368C101.755 30.7688 101.809 31.2548 101.917 31.4948C102.025 31.7348 102.301 31.8548 102.745 31.8548L104.221 31.8008L104.311 33.3668C103.507 33.5228 102.895 33.6008 102.475 33.6008C101.455 33.6008 100.753 33.3668 100.369 32.8988C99.997 32.4308 99.811 31.5488 99.811 30.2528V26.0768H98.659V24.4028H99.811V21.7928H101.755V24.4028H104.239V26.0768ZM105.848 33.4028V24.4028H107.81V33.4028H105.848ZM105.848 22.8728V20.8028H107.81V22.8728H105.848ZM115.032 26.0768H112.548V30.0368C112.548 30.7688 112.602 31.2548 112.71 31.4948C112.818 31.7348 113.094 31.8548 113.538 31.8548L115.014 31.8008L115.104 33.3668C114.3 33.5228 113.688 33.6008 113.268 33.6008C112.248 33.6008 111.546 33.3668 111.162 32.8988C110.79 32.4308 110.604 31.5488 110.604 30.2528V26.0768H109.452V24.4028H110.604V21.7928H112.548V24.4028H115.032V26.0768ZM115.813 24.4028H117.739L119.647 31.7288H120.133L122.041 24.4028H123.985L120.565 37.2728H118.639L119.719 33.4028H118.171L115.813 24.4028ZM131.418 33.4028H129.456V24.4028H131.4V24.9608C132.276 24.4568 133.104 24.2048 133.884 24.2048C135.084 24.2048 135.9 24.5468 136.332 25.2308C136.776 25.9028 136.998 27.0188 136.998 28.5788V33.4028H135.054V28.6328C135.054 27.6608 134.946 26.9708 134.73 26.5628C134.526 26.1548 134.1 25.9508 133.452 25.9508C132.84 25.9508 132.252 26.0708 131.688 26.3108L131.418 26.4188V33.4028ZM145.942 27.1748V31.2788C145.954 31.5428 146.02 31.7408 146.14 31.8728C146.272 31.9928 146.47 32.0708 146.734 32.1068L146.68 33.6008C145.648 33.6008 144.85 33.3788 144.286 32.9348C143.326 33.3788 142.36 33.6008 141.388 33.6008C139.6 33.6008 138.706 32.6468 138.706 30.7388C138.706 29.8268 138.946 29.1668 139.426 28.7588C139.918 28.3508 140.668 28.1048 141.676 28.0208L143.998 27.8228V27.1748C143.998 26.6948 143.89 26.3588 143.674 26.1668C143.47 25.9748 143.164 25.8788 142.756 25.8788C141.988 25.8788 141.028 25.9268 139.876 26.0228L139.3 26.0588L139.228 24.6728C140.536 24.3608 141.736 24.2048 142.828 24.2048C143.932 24.2048 144.724 24.4448 145.204 24.9248C145.696 25.3928 145.942 26.1428 145.942 27.1748ZM141.91 29.4068C141.082 29.4788 140.668 29.9288 140.668 30.7568C140.668 31.5848 141.034 31.9988 141.766 31.9988C142.366 31.9988 143.002 31.9028 143.674 31.7108L143.998 31.6028V29.2088L141.91 29.4068ZM150.367 33.4028H148.405V24.4028H150.349V24.9608C151.201 24.4568 151.981 24.2048 152.689 24.2048C153.733 24.2048 154.495 24.4988 154.975 25.0868C156.067 24.4988 157.153 24.2048 158.233 24.2048C159.313 24.2048 160.075 24.5408 160.519 25.2128C160.963 25.8728 161.185 26.9948 161.185 28.5788V33.4028H159.241V28.6328C159.241 27.6608 159.139 26.9708 158.935 26.5628C158.743 26.1548 158.335 25.9508 157.711 25.9508C157.171 25.9508 156.589 26.0708 155.965 26.3108L155.659 26.4368C155.755 26.6768 155.803 27.4448 155.803 28.7408V33.4028H153.859V28.7768C153.859 27.7088 153.763 26.9708 153.571 26.5628C153.379 26.1548 152.959 25.9508 152.311 25.9508C151.711 25.9508 151.153 26.0708 150.637 26.3108L150.367 26.4188V33.4028ZM169.895 31.7828L170.399 31.7288L170.435 33.1868C169.067 33.4628 167.855 33.6008 166.799 33.6008C165.467 33.6008 164.507 33.2348 163.919 32.5028C163.343 31.7708 163.055 30.6008 163.055 28.9928C163.055 25.8008 164.357 24.2048 166.961 24.2048C169.481 24.2048 170.741 25.5788 170.741 28.3268L170.615 29.7308H165.035C165.047 30.4748 165.209 31.0208 165.521 31.3688C165.833 31.7168 166.415 31.8908 167.267 31.8908C168.119 31.8908 168.995 31.8548 169.895 31.7828ZM168.815 28.2188C168.815 27.3308 168.671 26.7128 168.383 26.3648C168.107 26.0048 167.633 25.8248 166.961 25.8248C166.289 25.8248 165.797 26.0108 165.485 26.3828C165.185 26.7548 165.029 27.3668 165.017 28.2188H168.815ZM173.445 32.4308L173.319 30.3248C173.319 29.5568 173.445 28.9928 173.697 28.6328C173.961 28.2608 174.489 27.9728 175.281 27.7688C174.477 27.5528 173.949 27.2768 173.697 26.9408C173.445 26.6048 173.319 26.0588 173.319 25.3028L173.445 23.0528C173.445 22.5368 173.325 22.1468 173.085 21.8828C172.857 21.6188 172.425 21.4628 171.789 21.4148L171.807 19.7588C173.103 19.8068 174.015 20.0648 174.543 20.5328C175.083 20.9888 175.353 21.7808 175.353 22.9088L175.227 25.1948C175.227 25.6628 175.383 26.0468 175.695 26.3468C176.019 26.6348 176.523 26.8568 177.207 27.0128V28.5428C175.887 28.9028 175.227 29.5448 175.227 30.4688L175.353 32.6468C175.353 33.7268 175.083 34.5008 174.543 34.9688C174.015 35.4488 173.109 35.7128 171.825 35.7608V34.1048C172.449 34.0688 172.875 33.9068 173.103 33.6188C173.331 33.3428 173.445 32.9468 173.445 32.4308Z" fill="white"/>
<path d="M72 35.3828H75.1163V35.9228H72V35.3828ZM78.2666 35.3828H118.476V35.9228H78.2666V35.3828ZM121.603 35.3828H171.288V35.9228H121.603V35.3828ZM174.423 35.3828H177.549V35.9228H174.423V35.3828Z" fill="white"/>
<g clip-path="url(#clip1_40000001_3832)">
<path d="M1322.11 31.4028V21.8128H1328.15V23.1708H1323.66V25.8868H1327.31V27.2308H1323.66V30.0308H1328.15V31.4028H1322.11ZM1329.84 31.4028V21.8128H1332.56L1335.47 30.0308H1335.68V21.8128H1337.24V31.4028H1334.58L1331.59 23.1708H1331.4V31.4028H1329.84ZM1343.35 27.7348V26.3628H1346.08V31.2348C1345.83 31.3002 1345.31 31.3702 1344.54 31.4448C1343.77 31.5195 1343.22 31.5568 1342.87 31.5568C1341.42 31.5568 1340.41 31.1555 1339.86 30.3528C1339.31 29.5502 1339.04 28.2948 1339.04 26.5868C1339.04 24.8695 1339.32 23.6188 1339.88 22.8348C1340.45 22.0508 1341.43 21.6588 1342.82 21.6588C1343.64 21.6588 1344.56 21.7522 1345.59 21.9388L1346.08 22.0368L1346.02 23.2688C1344.89 23.1195 1343.88 23.0448 1342.98 23.0448C1342.09 23.0448 1341.47 23.2968 1341.14 23.8008C1340.81 24.3048 1340.65 25.2382 1340.65 26.6008C1340.65 27.9635 1340.8 28.9062 1341.11 29.4288C1341.43 29.9422 1342.06 30.1988 1343.01 30.1988C1343.69 30.1988 1344.2 30.1568 1344.54 30.0728V27.7348H1343.35Z" fill="white"/>
<path d="M1363 29.6029L1357.4 24.0029L1358.1 23.2029L1363 28.1029L1367.9 23.2029L1368.6 24.0029L1363 29.6029Z" fill="white"/>
</g>
<rect width="1440" height="93" transform="translate(0 52.4028)" fill="#F2F7FC"/>
<rect x="72.5" y="69.4028" width="208.024" height="59" fill="#F2F7FC"/>
<rect x="72.5" y="69.4028" width="208.024" height="59" stroke="#C5C7C9"/>
<line x1="73.1967" y1="69.7981" x2="280.122" y2="127.452" stroke="#C5C7C9"/>
<path d="M242.485 90.0222L245.964 97.9324L249.468 90.0222H253.765L247.991 101.375V107.796H243.95V101.375L238.164 90.0222H242.485Z" fill="black"/>
<path d="M232.074 90.0222V107.796H228.106V90.0222H232.074ZM237.481 90.0222V93.1106H222.809V90.0222H237.481Z" fill="black"/>
<path d="M220.952 90.0222V107.796H216.984V90.0222H220.952Z" fill="black"/>
<path d="M209.343 90.0222V107.796H205.376V90.0222H209.343ZM214.751 90.0222V93.1106H200.078V90.0222H214.751Z" fill="black"/>
<path d="M198.493 90.0222V107.796H194.525L187.812 96.3088V107.796H183.832V90.0222H187.812L194.538 101.509V90.0222H198.493Z" fill="black"/>
<path d="M181.878 104.719V107.796H172.417V104.719H181.878ZM173.772 90.0222V107.796H169.793V90.0222H173.772ZM180.657 97.1755V100.154H172.417V97.1755H180.657ZM181.89 90.0222V93.1106H172.417V90.0222H181.89Z" fill="black"/>
<path d="M161.129 98.5183V99.3118C161.129 100.663 160.942 101.875 160.567 102.949C160.201 104.024 159.676 104.939 158.993 105.696C158.317 106.453 157.512 107.035 156.576 107.442C155.648 107.84 154.618 108.04 153.487 108.04C152.356 108.04 151.323 107.84 150.387 107.442C149.451 107.035 148.637 106.453 147.945 105.696C147.262 104.939 146.733 104.024 146.358 102.949C145.984 101.875 145.797 100.663 145.797 99.3118V98.5183C145.797 97.1674 145.984 95.9548 146.358 94.8806C146.733 93.7983 147.258 92.8787 147.933 92.1218C148.617 91.365 149.426 90.7872 150.362 90.3884C151.298 89.9815 152.332 89.7781 153.463 89.7781C154.594 89.7781 155.628 89.9815 156.563 90.3884C157.499 90.7872 158.305 91.365 158.98 92.1218C159.664 92.8787 160.193 93.7983 160.567 94.8806C160.942 95.9548 161.129 97.1674 161.129 98.5183ZM157.113 99.3118V98.4939C157.113 97.5906 157.031 96.7931 156.869 96.1013C156.706 95.4014 156.47 94.8155 156.161 94.3435C155.851 93.8715 155.469 93.5175 155.013 93.2815C154.557 93.0374 154.041 92.9153 153.463 92.9153C152.861 92.9153 152.336 93.0374 151.888 93.2815C151.441 93.5175 151.062 93.8715 150.753 94.3435C150.452 94.8155 150.22 95.4014 150.057 96.1013C149.903 96.7931 149.825 97.5906 149.825 98.4939V99.3118C149.825 100.207 149.903 101.004 150.057 101.704C150.22 102.396 150.456 102.982 150.765 103.462C151.074 103.942 151.453 104.304 151.9 104.549C152.356 104.793 152.885 104.915 153.487 104.915C154.065 104.915 154.578 104.793 155.025 104.549C155.481 104.304 155.864 103.942 156.173 103.462C156.482 102.982 156.714 102.396 156.869 101.704C157.031 101.004 157.113 100.207 157.113 99.3118Z" fill="black"/>
<path d="M143.584 98.4084V105.574C143.292 105.908 142.844 106.266 142.242 106.648C141.648 107.031 140.887 107.36 139.959 107.637C139.031 107.906 137.924 108.04 136.639 108.04C135.475 108.04 134.417 107.853 133.465 107.478C132.513 107.096 131.695 106.538 131.011 105.806C130.328 105.065 129.799 104.162 129.424 103.096C129.058 102.03 128.875 100.809 128.875 99.4338V98.384C128.875 97.0087 129.058 95.788 129.424 94.7219C129.791 93.6558 130.307 92.7566 130.975 92.0242C131.642 91.2836 132.435 90.7221 133.355 90.3396C134.275 89.9571 135.292 89.7659 136.407 89.7659C137.994 89.7659 139.292 90.0222 140.301 90.5349C141.31 91.0395 142.075 91.7393 142.596 92.6345C143.125 93.5297 143.45 94.5592 143.572 95.7229H139.739C139.658 95.1288 139.495 94.6161 139.251 94.1848C139.015 93.7535 138.677 93.4239 138.238 93.196C137.798 92.96 137.229 92.842 136.529 92.842C135.967 92.842 135.459 92.96 135.003 93.196C134.555 93.4239 134.177 93.7698 133.868 94.2336C133.558 94.6975 133.322 95.2753 133.16 95.967C132.997 96.6506 132.916 97.4482 132.916 98.3596V99.4338C132.916 100.345 132.997 101.147 133.16 101.839C133.331 102.53 133.579 103.108 133.904 103.572C134.23 104.028 134.641 104.374 135.137 104.61C135.642 104.846 136.228 104.964 136.895 104.964C137.416 104.964 137.855 104.923 138.213 104.842C138.571 104.752 138.864 104.642 139.092 104.512C139.32 104.374 139.491 104.247 139.605 104.134V101.179H136.443V98.4084H143.584Z" fill="black"/>
<path d="M126.824 98.5183V99.3118C126.824 100.663 126.637 101.875 126.263 102.949C125.896 104.024 125.372 104.939 124.688 105.696C124.013 106.453 123.207 107.035 122.271 107.442C121.343 107.84 120.314 108.04 119.183 108.04C118.051 108.04 117.018 107.84 116.082 107.442C115.146 107.035 114.332 106.453 113.641 105.696C112.957 104.939 112.428 104.024 112.054 102.949C111.679 101.875 111.492 100.663 111.492 99.3118V98.5183C111.492 97.1674 111.679 95.9548 112.054 94.8806C112.428 93.7983 112.953 92.8787 113.628 92.1218C114.312 91.365 115.122 90.7872 116.058 90.3884C116.993 89.9815 118.027 89.7781 119.158 89.7781C120.289 89.7781 121.323 89.9815 122.259 90.3884C123.195 90.7872 124 91.365 124.676 92.1218C125.359 92.8787 125.888 93.7983 126.263 94.8806C126.637 95.9548 126.824 97.1674 126.824 98.5183ZM122.808 99.3118V98.4939C122.808 97.5906 122.727 96.7931 122.564 96.1013C122.401 95.4014 122.165 94.8155 121.856 94.3435C121.547 93.8715 121.164 93.5175 120.708 93.2815C120.253 93.0374 119.736 92.9153 119.158 92.9153C118.556 92.9153 118.031 93.0374 117.583 93.2815C117.136 93.5175 116.757 93.8715 116.448 94.3435C116.147 94.8155 115.915 95.4014 115.752 96.1013C115.598 96.7931 115.521 97.5906 115.521 98.4939V99.3118C115.521 100.207 115.598 101.004 115.752 101.704C115.915 102.396 116.151 102.982 116.46 103.462C116.77 103.942 117.148 104.304 117.596 104.549C118.051 104.793 118.58 104.915 119.183 104.915C119.76 104.915 120.273 104.793 120.721 104.549C121.176 104.304 121.559 103.942 121.868 103.462C122.177 102.982 122.409 102.396 122.564 101.704C122.727 101.004 122.808 100.207 122.808 99.3118Z" fill="black"/>
<path d="M110.858 104.719V107.796H101.886V104.719H110.858ZM103.241 90.0222V107.796H99.2617V90.0222H103.241Z" fill="black"/>
<path d="M305.023 68.9028V128.903" stroke="#C5C7C9" stroke-linejoin="round"/>
<rect width="146" height="48" transform="translate(329.023 74.9028)" fill="#F6E4C8"/>
<path d="M354.6 95.9028H347.688V83.5728H349.686V94.1208H354.6V95.9028ZM356.483 87.8748C357.107 87.0948 358.139 86.7048 359.579 86.7048C361.019 86.7048 362.045 87.0948 362.657 87.8748C363.281 88.6548 363.593 89.8248 363.593 91.3848C363.593 92.9448 363.293 94.1208 362.693 94.9128C362.093 95.7048 361.055 96.1008 359.579 96.1008C358.103 96.1008 357.065 95.7048 356.465 94.9128C355.865 94.1208 355.565 92.9448 355.565 91.3848C355.565 89.8248 355.871 88.6548 356.483 87.8748ZM357.959 93.7248C358.235 94.2048 358.775 94.4448 359.579 94.4448C360.383 94.4448 360.923 94.2048 361.199 93.7248C361.475 93.2448 361.613 92.4588 361.613 91.3668C361.613 90.2748 361.463 89.5008 361.163 89.0448C360.875 88.5888 360.347 88.3608 359.579 88.3608C358.811 88.3608 358.277 88.5888 357.977 89.0448C357.689 89.5008 357.545 90.2748 357.545 91.3668C357.545 92.4588 357.683 93.2448 357.959 93.7248ZM373.408 97.1268C373.408 99.0948 371.986 100.079 369.142 100.079C367.774 100.079 366.76 99.8928 366.1 99.5208C365.44 99.1488 365.11 98.4708 365.11 97.4868C365.11 97.0428 365.218 96.6588 365.434 96.3348C365.65 96.0228 365.998 95.6808 366.478 95.3088C366.082 95.0448 365.884 94.6068 365.884 93.9948C365.884 93.7548 366.046 93.3648 366.37 92.8248L366.532 92.5548C365.668 92.0388 365.236 91.1388 365.236 89.8548C365.236 88.7748 365.56 87.9828 366.208 87.4788C366.856 86.9748 367.732 86.7228 368.836 86.7228C369.364 86.7228 369.886 86.7828 370.402 86.9028L370.672 86.9568L373.462 86.8848V88.4688L371.968 88.3788C372.292 88.7988 372.454 89.2908 372.454 89.8548C372.454 91.0308 372.154 91.8468 371.554 92.3028C370.966 92.7468 370.042 92.9688 368.782 92.9688C368.47 92.9688 368.206 92.9448 367.99 92.8968C367.822 93.3048 367.738 93.6228 367.738 93.8508C367.738 94.0668 367.846 94.2168 368.062 94.3008C368.29 94.3848 368.83 94.4328 369.682 94.4448C371.11 94.4568 372.088 94.6488 372.616 95.0208C373.144 95.3928 373.408 96.0948 373.408 97.1268ZM367.036 97.3068C367.036 97.7268 367.204 98.0268 367.54 98.2068C367.876 98.3868 368.452 98.4768 369.268 98.4768C370.72 98.4768 371.446 98.0628 371.446 97.2348C371.446 96.7668 371.314 96.4668 371.05 96.3348C370.798 96.2148 370.288 96.1488 369.52 96.1368L367.756 96.0288C367.492 96.2448 367.306 96.4428 367.198 96.6228C367.09 96.8148 367.036 97.0428 367.036 97.3068ZM367.18 89.8548C367.18 90.4068 367.312 90.8148 367.576 91.0788C367.84 91.3308 368.266 91.4568 368.854 91.4568C369.442 91.4568 369.862 91.3308 370.114 91.0788C370.378 90.8148 370.51 90.4068 370.51 89.8548C370.51 89.3028 370.378 88.9008 370.114 88.6488C369.85 88.3848 369.424 88.2528 368.836 88.2528C367.732 88.2528 367.18 88.7868 367.18 89.8548ZM375.485 87.8748C376.109 87.0948 377.141 86.7048 378.581 86.7048C380.021 86.7048 381.047 87.0948 381.659 87.8748C382.283 88.6548 382.595 89.8248 382.595 91.3848C382.595 92.9448 382.295 94.1208 381.695 94.9128C381.095 95.7048 380.057 96.1008 378.581 96.1008C377.105 96.1008 376.067 95.7048 375.467 94.9128C374.867 94.1208 374.567 92.9448 374.567 91.3848C374.567 89.8248 374.873 88.6548 375.485 87.8748ZM376.961 93.7248C377.237 94.2048 377.777 94.4448 378.581 94.4448C379.385 94.4448 379.925 94.2048 380.201 93.7248C380.477 93.2448 380.615 92.4588 380.615 91.3668C380.615 90.2748 380.465 89.5008 380.165 89.0448C379.877 88.5888 379.349 88.3608 378.581 88.3608C377.813 88.3608 377.279 88.5888 376.979 89.0448C376.691 89.5008 376.547 90.2748 376.547 91.3668C376.547 92.4588 376.685 93.2448 376.961 93.7248ZM388.733 95.9028V83.5728H390.731V95.9028H388.733ZM392.379 85.3548V83.5728H401.379V85.3548H397.905V95.9028H395.889V85.3548H392.379ZM401.645 91.9428V90.1608H407.027V91.9428H401.645ZM408.256 83.5728H410.362L412.126 94.1748H412.504L414.844 83.6088H417.184L419.524 94.1748H419.92L421.684 83.5728H423.79L421.36 95.9028H418.138L416.014 86.0208L413.908 95.9028H410.668L408.256 83.5728ZM431.809 89.6748V93.7788C431.821 94.0428 431.887 94.2408 432.007 94.3728C432.139 94.4928 432.337 94.5708 432.601 94.6068L432.547 96.1008C431.515 96.1008 430.717 95.8788 430.153 95.4348C429.193 95.8788 428.227 96.1008 427.255 96.1008C425.467 96.1008 424.573 95.1468 424.573 93.2388C424.573 92.3268 424.813 91.6668 425.293 91.2588C425.785 90.8508 426.535 90.6048 427.543 90.5208L429.865 90.3228V89.6748C429.865 89.1948 429.757 88.8588 429.541 88.6668C429.337 88.4748 429.031 88.3788 428.623 88.3788C427.855 88.3788 426.895 88.4268 425.743 88.5228L425.167 88.5588L425.095 87.1728C426.403 86.8608 427.603 86.7048 428.695 86.7048C429.799 86.7048 430.591 86.9448 431.071 87.4248C431.563 87.8928 431.809 88.6428 431.809 89.6748ZM427.777 91.9068C426.949 91.9788 426.535 92.4288 426.535 93.2568C426.535 94.0848 426.901 94.4988 427.633 94.4988C428.233 94.4988 428.869 94.4028 429.541 94.2108L429.865 94.1028V91.7088L427.777 91.9068ZM434.38 95.9028V83.1588H436.342V95.9028H434.38ZM438.933 95.9028V83.1588H440.895V95.9028H438.933ZM449.785 94.2828L450.289 94.2288L450.325 95.6868C448.957 95.9628 447.745 96.1008 446.689 96.1008C445.357 96.1008 444.397 95.7348 443.809 95.0028C443.233 94.2708 442.945 93.1008 442.945 91.4928C442.945 88.3008 444.247 86.7048 446.851 86.7048C449.371 86.7048 450.631 88.0788 450.631 90.8268L450.505 92.2308H444.925C444.937 92.9748 445.099 93.5208 445.411 93.8688C445.723 94.2168 446.305 94.3908 447.157 94.3908C448.009 94.3908 448.885 94.3548 449.785 94.2828ZM448.705 90.7188C448.705 89.8308 448.561 89.2128 448.273 88.8648C447.997 88.5048 447.523 88.3248 446.851 88.3248C446.179 88.3248 445.687 88.5108 445.375 88.8828C445.075 89.2548 444.919 89.8668 444.907 90.7188H448.705ZM457.36 88.5768H454.876V92.5368C454.876 93.2688 454.93 93.7548 455.038 93.9948C455.146 94.2348 455.422 94.3548 455.866 94.3548L457.342 94.3008L457.432 95.8668C456.628 96.0228 456.016 96.1008 455.596 96.1008C454.576 96.1008 453.874 95.8668 453.49 95.3988C453.118 94.9308 452.932 94.0488 452.932 92.7528V88.5768H451.78V86.9028H452.932V84.2928H454.876V86.9028H457.36V88.5768ZM378.323 105.121C376.799 105.121 376.037 105.655 376.037 106.723C376.037 107.275 376.217 107.671 376.577 107.911C376.937 108.139 377.729 108.427 378.953 108.775C380.189 109.111 381.059 109.519 381.563 109.999C382.067 110.467 382.319 111.211 382.319 112.231C382.319 113.527 381.947 114.499 381.203 115.147C380.471 115.783 379.469 116.101 378.197 116.101C377.177 116.101 376.049 115.981 374.813 115.741L374.165 115.615L374.363 114.013C375.983 114.229 377.219 114.337 378.071 114.337C379.559 114.337 380.303 113.677 380.303 112.357C380.303 111.841 380.135 111.463 379.799 111.223C379.463 110.971 378.707 110.701 377.531 110.413C376.355 110.113 375.479 109.705 374.903 109.189C374.327 108.673 374.039 107.857 374.039 106.741C374.039 105.625 374.399 104.785 375.119 104.221C375.851 103.645 376.859 103.357 378.143 103.357C379.067 103.357 380.159 103.465 381.419 103.681L382.049 103.789L381.887 105.409C380.207 105.217 379.019 105.121 378.323 105.121ZM383.276 106.903H385.202L387.11 114.229H387.596L389.504 106.903H391.448L388.028 119.773H386.102L387.182 115.903H385.634L383.276 106.903ZM399.086 108.757C397.67 108.565 396.644 108.469 396.008 108.469C395.372 108.469 394.928 108.547 394.676 108.703C394.436 108.847 394.316 109.081 394.316 109.405C394.316 109.729 394.448 109.957 394.712 110.089C394.988 110.221 395.624 110.377 396.62 110.557C397.628 110.725 398.342 110.995 398.762 111.367C399.182 111.739 399.392 112.399 399.392 113.347C399.392 114.295 399.086 114.991 398.474 115.435C397.874 115.879 396.992 116.101 395.828 116.101C395.096 116.101 394.172 115.999 393.056 115.795L392.498 115.705L392.57 114.067C394.01 114.259 395.048 114.355 395.684 114.355C396.32 114.355 396.77 114.277 397.034 114.121C397.31 113.965 397.448 113.707 397.448 113.347C397.448 112.987 397.316 112.741 397.052 112.609C396.8 112.465 396.182 112.315 395.198 112.159C394.226 111.991 393.512 111.733 393.056 111.385C392.6 111.037 392.372 110.401 392.372 109.477C392.372 108.553 392.684 107.863 393.308 107.407C393.944 106.951 394.754 106.723 395.738 106.723C396.506 106.723 397.448 106.819 398.564 107.011L399.122 107.119L399.086 108.757ZM406.12 108.577H403.636V112.537C403.636 113.269 403.69 113.755 403.798 113.995C403.906 114.235 404.182 114.355 404.626 114.355L406.102 114.301L406.192 115.867C405.388 116.023 404.776 116.101 404.356 116.101C403.336 116.101 402.634 115.867 402.25 115.399C401.878 114.931 401.692 114.049 401.692 112.753V108.577H400.54V106.903H401.692V104.293H403.636V106.903H406.12V108.577ZM414.137 114.283L414.641 114.229L414.677 115.687C413.309 115.963 412.097 116.101 411.041 116.101C409.709 116.101 408.749 115.735 408.161 115.003C407.585 114.271 407.297 113.101 407.297 111.493C407.297 108.301 408.599 106.705 411.203 106.705C413.723 106.705 414.983 108.079 414.983 110.827L414.857 112.231H409.277C409.289 112.975 409.451 113.521 409.763 113.869C410.075 114.217 410.657 114.391 411.509 114.391C412.361 114.391 413.237 114.355 414.137 114.283ZM413.057 110.719C413.057 109.831 412.913 109.213 412.625 108.865C412.349 108.505 411.875 108.325 411.203 108.325C410.531 108.325 410.039 108.511 409.727 108.883C409.427 109.255 409.271 109.867 409.259 110.719H413.057ZM418.832 115.903H416.87V106.903H418.814V107.461C419.666 106.957 420.446 106.705 421.154 106.705C422.198 106.705 422.96 106.999 423.44 107.587C424.532 106.999 425.618 106.705 426.698 106.705C427.778 106.705 428.54 107.041 428.984 107.713C429.428 108.373 429.65 109.495 429.65 111.079V115.903H427.706V111.133C427.706 110.161 427.604 109.471 427.4 109.063C427.208 108.655 426.8 108.451 426.176 108.451C425.636 108.451 425.054 108.571 424.43 108.811L424.124 108.937C424.22 109.177 424.268 109.945 424.268 111.241V115.903H422.324V111.277C422.324 110.209 422.228 109.471 422.036 109.063C421.844 108.655 421.424 108.451 420.776 108.451C420.176 108.451 419.618 108.571 419.102 108.811L418.832 108.919V115.903Z" fill="black"/>
<rect width="1440" height="459.604" transform="translate(0 249.403)" fill="white"/>
<path d="M536.872 312.403L541.768 290.643H550.152L555.048 312.403H550.632L549.768 308.467H542.152L541.288 312.403H536.872ZM545.192 294.291L542.984 304.627H548.936L546.728 294.291H545.192ZM567.002 296.403H571.29V312.403H567.034V311.507C565.498 312.36 564.165 312.787 563.034 312.787C560.815 312.787 559.322 312.179 558.554 310.963C557.786 309.725 557.402 307.667 557.402 304.787V296.403H561.69V304.851C561.69 306.429 561.818 307.507 562.074 308.083C562.33 308.659 562.949 308.947 563.93 308.947C564.869 308.947 565.754 308.797 566.586 308.499L567.002 308.371V296.403ZM584.114 300.051H580.178V306.611C580.178 307.251 580.188 307.709 580.21 307.987C580.252 308.243 580.37 308.467 580.562 308.659C580.775 308.851 581.095 308.947 581.522 308.947L583.954 308.883L584.146 312.307C582.716 312.627 581.628 312.787 580.882 312.787C578.962 312.787 577.65 312.36 576.946 311.507C576.242 310.632 575.89 309.032 575.89 306.707V300.051H574.002V296.403H575.89V291.955H580.178V296.403H584.114V300.051ZM591.194 312.403H586.906V290.003H591.194V297.171C592.666 296.403 593.989 296.019 595.162 296.019C597.295 296.019 598.767 296.648 599.578 297.907C600.389 299.165 600.794 301.107 600.794 303.731V312.403H596.506V303.827C596.506 302.483 596.346 301.491 596.026 300.851C595.706 300.189 595.066 299.859 594.106 299.859C593.274 299.859 592.442 299.987 591.61 300.243L591.194 300.371V312.403ZM608.113 306.227C608.135 307.208 608.391 307.923 608.881 308.371C609.393 308.797 610.119 309.011 611.057 309.011C613.041 309.011 614.812 308.947 616.369 308.819L617.265 308.723L617.329 311.891C614.876 312.488 612.657 312.787 610.673 312.787C608.263 312.787 606.513 312.147 605.425 310.867C604.337 309.587 603.793 307.507 603.793 304.627C603.793 298.888 606.151 296.019 610.865 296.019C615.516 296.019 617.841 298.429 617.841 303.251L617.521 306.227H608.113ZM613.617 302.963C613.617 301.683 613.415 300.797 613.009 300.307C612.604 299.795 611.889 299.539 610.865 299.539C609.863 299.539 609.148 299.805 608.721 300.339C608.316 300.851 608.103 301.725 608.081 302.963H613.617ZM625.194 312.403H620.906V296.403H625.162V297.299C626.613 296.445 627.946 296.019 629.162 296.019C631.295 296.019 632.767 296.648 633.578 297.907C634.389 299.165 634.794 301.107 634.794 303.731V312.403H630.506V303.859C630.506 302.493 630.346 301.491 630.026 300.851C629.706 300.189 629.066 299.859 628.106 299.859C627.231 299.859 626.389 300.008 625.578 300.307L625.194 300.435V312.403ZM647.457 300.051H643.521V306.611C643.521 307.251 643.532 307.709 643.553 307.987C643.596 308.243 643.713 308.467 643.905 308.659C644.119 308.851 644.439 308.947 644.865 308.947L647.297 308.883L647.489 312.307C646.06 312.627 644.972 312.787 644.225 312.787C642.305 312.787 640.993 312.36 640.289 311.507C639.585 310.632 639.233 309.032 639.233 306.707V300.051H637.345V296.403H639.233V291.955H643.521V296.403H647.457V300.051ZM650.25 312.403V296.403H654.538V312.403H650.25ZM650.25 294.355V290.003H654.538V294.355H650.25ZM664.484 296.019C665.593 296.019 667.012 296.189 668.74 296.531L669.604 296.723L669.476 300.115C667.79 299.944 666.542 299.859 665.732 299.859C664.26 299.859 663.278 300.179 662.788 300.819C662.318 301.437 662.084 302.621 662.084 304.371C662.084 306.12 662.318 307.325 662.788 307.987C663.278 308.627 664.27 308.947 665.764 308.947L669.476 308.691L669.604 312.115C667.321 312.563 665.582 312.787 664.388 312.787C662.02 312.787 660.313 312.125 659.268 310.803C658.244 309.459 657.732 307.315 657.732 304.371C657.732 301.427 658.265 299.304 659.332 298.003C660.398 296.68 662.116 296.019 664.484 296.019ZM685.037 301.395V308.051C685.08 308.563 685.165 308.925 685.293 309.139C685.421 309.331 685.688 309.469 686.093 309.555L685.965 312.787C684.877 312.787 684.002 312.712 683.341 312.563C682.701 312.413 682.05 312.115 681.389 311.667C679.853 312.413 678.285 312.787 676.685 312.787C673.378 312.787 671.725 311.037 671.725 307.539C671.725 305.832 672.184 304.627 673.101 303.923C674.018 303.197 675.426 302.771 677.325 302.643L680.749 302.387V301.395C680.749 300.733 680.6 300.285 680.301 300.051C680.002 299.795 679.522 299.667 678.861 299.667L672.845 299.923L672.717 296.947C675 296.328 677.165 296.019 679.213 296.019C681.282 296.019 682.765 296.445 683.661 297.299C684.578 298.152 685.037 299.517 685.037 301.395ZM677.837 305.619C676.642 305.725 676.045 306.365 676.045 307.539C676.045 308.712 676.568 309.299 677.613 309.299C678.424 309.299 679.309 309.171 680.269 308.915L680.749 308.787V305.363L677.837 305.619ZM697.989 300.051H694.053V306.611C694.053 307.251 694.063 307.709 694.085 307.987C694.127 308.243 694.245 308.467 694.437 308.659C694.65 308.851 694.97 308.947 695.397 308.947L697.829 308.883L698.021 312.307C696.591 312.627 695.503 312.787 694.757 312.787C692.837 312.787 691.525 312.36 690.821 311.507C690.117 310.632 689.765 309.032 689.765 306.707V300.051H687.877V296.403H689.765V291.955H694.053V296.403H697.989V300.051ZM700.781 312.403V296.403H705.069V312.403H700.781ZM700.781 294.355V290.003H705.069V294.355H700.781ZM709.895 298.227C711.026 296.755 712.914 296.019 715.559 296.019C718.204 296.019 720.092 296.755 721.223 298.227C722.354 299.677 722.919 301.725 722.919 304.371C722.919 309.981 720.466 312.787 715.559 312.787C710.652 312.787 708.199 309.981 708.199 304.371C708.199 301.725 708.764 299.677 709.895 298.227ZM713.191 307.987C713.639 308.755 714.428 309.139 715.559 309.139C716.69 309.139 717.468 308.755 717.895 307.987C718.343 307.219 718.567 306.013 718.567 304.371C718.567 302.728 718.343 301.533 717.895 300.787C717.468 300.04 716.69 299.667 715.559 299.667C714.428 299.667 713.639 300.04 713.191 300.787C712.764 301.533 712.551 302.728 712.551 304.371C712.551 306.013 712.764 307.219 713.191 307.987ZM730.35 312.403H726.062V296.403H730.318V297.299C731.769 296.445 733.102 296.019 734.318 296.019C736.451 296.019 737.923 296.648 738.734 297.907C739.545 299.165 739.95 301.107 739.95 303.731V312.403H735.662V303.859C735.662 302.493 735.502 301.491 735.182 300.851C734.862 300.189 734.222 299.859 733.262 299.859C732.387 299.859 731.545 300.008 730.734 300.307L730.35 300.435V312.403ZM756.765 296.019C757.874 296.019 759.293 296.189 761.021 296.531L761.885 296.723L761.757 300.115C760.072 299.944 758.824 299.859 758.013 299.859C756.541 299.859 755.56 300.179 755.069 300.819C754.6 301.437 754.365 302.621 754.365 304.371C754.365 306.12 754.6 307.325 755.069 307.987C755.56 308.627 756.552 308.947 758.045 308.947L761.757 308.691L761.885 312.115C759.602 312.563 757.864 312.787 756.669 312.787C754.301 312.787 752.594 312.125 751.549 310.803C750.525 309.459 750.013 307.315 750.013 304.371C750.013 301.427 750.546 299.304 751.613 298.003C752.68 296.68 754.397 296.019 756.765 296.019ZM765.801 298.227C766.932 296.755 768.82 296.019 771.465 296.019C774.11 296.019 775.998 296.755 777.129 298.227C778.26 299.677 778.825 301.725 778.825 304.371C778.825 309.981 776.372 312.787 771.465 312.787C766.558 312.787 764.105 309.981 764.105 304.371C764.105 301.725 764.67 299.677 765.801 298.227ZM769.097 307.987C769.545 308.755 770.334 309.139 771.465 309.139C772.596 309.139 773.374 308.755 773.801 307.987C774.249 307.219 774.473 306.013 774.473 304.371C774.473 302.728 774.249 301.533 773.801 300.787C773.374 300.04 772.596 299.667 771.465 299.667C770.334 299.667 769.545 300.04 769.097 300.787C768.67 301.533 768.457 302.728 768.457 304.371C768.457 306.013 768.67 307.219 769.097 307.987ZM786.256 312.403H781.968V296.403H786.224V297.299C787.696 296.445 788.955 296.019 790 296.019C791.728 296.019 793.062 296.52 794 297.523C795.963 296.52 797.755 296.019 799.376 296.019C801.488 296.019 802.95 296.637 803.76 297.875C804.592 299.091 805.008 301.043 805.008 303.731V312.403H800.72V303.859C800.72 302.493 800.571 301.491 800.272 300.851C799.974 300.189 799.376 299.859 798.48 299.859C797.798 299.859 796.966 300.008 795.984 300.307L795.504 300.467C795.59 302.067 795.632 303.283 795.632 304.115V312.403H791.344V304.179C791.344 302.6 791.206 301.491 790.928 300.851C790.651 300.189 790.043 299.859 789.104 299.859C788.272 299.859 787.451 300.008 786.64 300.307L786.256 300.435V312.403ZM808.812 319.123V296.403H813.068V297.267C814.455 296.435 815.671 296.019 816.716 296.019C818.871 296.019 820.46 296.669 821.484 297.971C822.508 299.251 823.02 301.437 823.02 304.531C823.02 307.624 822.455 309.779 821.324 310.995C820.193 312.189 818.337 312.787 815.756 312.787C815.052 312.787 814.295 312.723 813.484 312.595L813.1 312.531V319.123H808.812ZM815.884 299.859C815.095 299.859 814.295 300.019 813.484 300.339L813.1 300.499V308.883C814.06 309.011 814.839 309.075 815.436 309.075C816.673 309.075 817.516 308.712 817.964 307.987C818.433 307.261 818.668 306.024 818.668 304.275C818.668 301.331 817.74 299.859 815.884 299.859ZM826.41 312.403V290.003H830.698V312.403H826.41ZM838.363 306.227C838.385 307.208 838.641 307.923 839.131 308.371C839.643 308.797 840.369 309.011 841.307 309.011C843.291 309.011 845.062 308.947 846.619 308.819L847.515 308.723L847.579 311.891C845.126 312.488 842.907 312.787 840.923 312.787C838.513 312.787 836.763 312.147 835.675 310.867C834.587 309.587 834.043 307.507 834.043 304.627C834.043 298.888 836.401 296.019 841.115 296.019C845.766 296.019 848.091 298.429 848.091 303.251L847.771 306.227H838.363ZM843.867 302.963C843.867 301.683 843.665 300.797 843.259 300.307C842.854 299.795 842.139 299.539 841.115 299.539C840.113 299.539 839.398 299.805 838.971 300.339C838.566 300.851 838.353 301.725 838.331 302.963H843.867ZM860.02 300.051H856.084V306.611C856.084 307.251 856.095 307.709 856.116 307.987C856.159 308.243 856.276 308.467 856.468 308.659C856.681 308.851 857.001 308.947 857.428 308.947L859.86 308.883L860.052 312.307C858.623 312.627 857.535 312.787 856.788 312.787C854.868 312.787 853.556 312.36 852.852 311.507C852.148 310.632 851.796 309.032 851.796 306.707V300.051H849.908V296.403H851.796V291.955H856.084V296.403H860.02V300.051ZM866.332 306.227C866.353 307.208 866.609 307.923 867.1 308.371C867.612 308.797 868.337 309.011 869.276 309.011C871.26 309.011 873.031 308.947 874.588 308.819L875.484 308.723L875.548 311.891C873.095 312.488 870.876 312.787 868.892 312.787C866.481 312.787 864.732 312.147 863.644 310.867C862.556 309.587 862.012 307.507 862.012 304.627C862.012 298.888 864.369 296.019 869.084 296.019C873.735 296.019 876.06 298.429 876.06 303.251L875.74 306.227H866.332ZM871.836 302.963C871.836 301.683 871.633 300.797 871.228 300.307C870.823 299.795 870.108 299.539 869.084 299.539C868.081 299.539 867.367 299.805 866.94 300.339C866.535 300.851 866.321 301.725 866.3 302.963H871.836ZM892.725 290.003V312.403H888.469V311.731C886.975 312.435 885.685 312.787 884.597 312.787C882.271 312.787 880.65 312.115 879.733 310.771C878.815 309.427 878.357 307.304 878.357 304.403C878.357 301.48 878.901 299.357 879.989 298.035C881.098 296.691 882.762 296.019 884.981 296.019C885.663 296.019 886.613 296.125 887.829 296.339L888.437 296.467V290.003H892.725ZM887.989 308.563L888.437 308.467V300.051C887.263 299.837 886.218 299.731 885.301 299.731C883.573 299.731 882.709 301.267 882.709 304.339C882.709 306.003 882.901 307.187 883.285 307.891C883.669 308.595 884.298 308.947 885.173 308.947C886.069 308.947 887.007 308.819 887.989 308.563ZM896.879 312.403V307.251H901.487V312.403H896.879ZM897.295 304.403L896.879 290.643H901.519L901.071 304.403H897.295Z" fill="#17324D"/>
<rect width="200" height="148" transform="translate(620 343.403)" fill="#F6E4C8"/>
<path fill-rule="evenodd" clip-rule="evenodd" d="M720 467.403C692.386 467.403 670 445.017 670 417.403C670 389.789 692.386 367.403 720 367.403C733.261 367.403 745.979 372.671 755.355 382.047C764.732 391.424 770 404.142 770 417.403C770 445.017 747.614 467.403 720 467.403ZM745.504 396.902L749.004 400.402L710.004 438.402L686.504 415.402L690.004 411.902L710.004 431.402L745.504 396.902ZM720 372.403C744.853 372.403 765 392.55 765 417.403C765 442.256 744.853 462.403 720 462.403C695.147 462.403 675 442.256 675 417.403C675 392.55 695.147 372.403 720 372.403Z" fill="#995C00"/>
<path d="M637.402 535.205C636.166 535.457 635.056 535.583 634.072 535.583C633.088 535.583 632.29 535.451 631.678 535.187C631.078 534.911 630.61 534.491 630.274 533.927C629.95 533.351 629.722 532.697 629.59 531.965C629.47 531.221 629.41 530.297 629.41 529.193C629.41 528.089 629.47 527.165 629.59 526.421C629.722 525.665 629.95 524.999 630.274 524.423C630.61 523.847 631.078 523.427 631.678 523.163C632.278 522.899 633.058 522.767 634.018 522.767C634.978 522.767 636.106 522.899 637.402 523.163L637.348 524.333C636.136 524.117 635.056 524.009 634.108 524.009C632.788 524.009 631.912 524.405 631.48 525.197C631.06 525.977 630.85 527.315 630.85 529.211C630.85 530.159 630.886 530.921 630.958 531.497C631.042 532.073 631.198 532.595 631.426 533.063C631.654 533.519 631.984 533.849 632.416 534.053C632.86 534.245 633.502 534.341 634.342 534.341C635.194 534.341 636.196 534.233 637.348 534.017L637.402 535.205ZM638.863 530.885C638.863 529.241 639.157 528.053 639.745 527.321C640.333 526.589 641.323 526.223 642.715 526.223C644.119 526.223 645.109 526.589 645.685 527.321C646.273 528.053 646.567 529.241 646.567 530.885C646.567 532.529 646.291 533.723 645.739 534.467C645.187 535.211 644.179 535.583 642.715 535.583C641.251 535.583 640.243 535.211 639.691 534.467C639.139 533.723 638.863 532.529 638.863 530.885ZM640.249 530.867C640.249 532.175 640.405 533.093 640.717 533.621C641.041 534.149 641.707 534.413 642.715 534.413C643.735 534.413 644.401 534.155 644.713 533.639C645.025 533.111 645.181 532.187 645.181 530.867C645.181 529.547 645.007 528.641 644.659 528.149C644.311 527.645 643.663 527.393 642.715 527.393C641.779 527.393 641.131 527.645 640.771 528.149C640.423 528.641 640.249 529.547 640.249 530.867ZM650.119 535.403H648.769V526.403H650.101V527.033C651.073 526.493 652.003 526.223 652.891 526.223C654.091 526.223 654.895 526.547 655.303 527.195C655.723 527.843 655.933 528.995 655.933 530.651V535.403H654.601V530.687C654.601 529.439 654.475 528.587 654.223 528.131C653.983 527.663 653.461 527.429 652.657 527.429C652.273 527.429 651.865 527.489 651.433 527.609C651.013 527.717 650.689 527.825 650.461 527.933L650.119 528.095V535.403ZM663.046 527.573H660.184V531.875C660.184 532.907 660.256 533.585 660.4 533.909C660.556 534.233 660.916 534.395 661.48 534.395L663.082 534.287L663.172 535.403C662.368 535.535 661.756 535.601 661.336 535.601C660.4 535.601 659.752 535.373 659.392 534.917C659.032 534.461 658.852 533.591 658.852 532.307V527.573H657.574V526.403H658.852V523.649H660.184V526.403H663.046V527.573ZM664.694 535.403V526.403H666.044V535.403H664.694ZM664.694 524.369V522.803H666.044V524.369H664.694ZM669.982 535.403H668.632V526.403H669.964V527.033C670.936 526.493 671.866 526.223 672.754 526.223C673.954 526.223 674.758 526.547 675.166 527.195C675.586 527.843 675.796 528.995 675.796 530.651V535.403H674.464V530.687C674.464 529.439 674.338 528.587 674.086 528.131C673.846 527.663 673.324 527.429 672.52 527.429C672.136 527.429 671.728 527.489 671.296 527.609C670.876 527.717 670.552 527.825 670.324 527.933L669.982 528.095V535.403ZM683.916 526.403H685.266V535.403H683.916V534.773C683.016 535.313 682.128 535.583 681.252 535.583C680.028 535.583 679.212 535.265 678.804 534.629C678.408 533.993 678.21 532.817 678.21 531.101V526.403H679.56V531.083C679.56 532.391 679.674 533.267 679.902 533.711C680.13 534.155 680.646 534.377 681.45 534.377C681.846 534.377 682.248 534.323 682.656 534.215C683.064 534.095 683.376 533.981 683.592 533.873L683.916 533.711V526.403ZM693.982 534.287L694.504 534.233L694.54 535.295C693.172 535.487 692.002 535.583 691.03 535.583C689.734 535.583 688.816 535.211 688.276 534.467C687.736 533.711 687.466 532.541 687.466 530.957C687.466 527.801 688.72 526.223 691.228 526.223C692.44 526.223 693.346 526.565 693.946 527.249C694.546 527.921 694.846 528.983 694.846 530.435L694.774 531.461H688.834C688.834 532.457 689.014 533.195 689.374 533.675C689.734 534.155 690.358 534.395 691.246 534.395C692.146 534.395 693.058 534.359 693.982 534.287ZM693.496 530.381C693.496 529.277 693.316 528.497 692.956 528.041C692.608 527.585 692.032 527.357 691.228 527.357C690.436 527.357 689.836 527.597 689.428 528.077C689.032 528.557 688.828 529.325 688.816 530.381H693.496ZM700.509 530.885C700.509 529.241 700.803 528.053 701.391 527.321C701.979 526.589 702.969 526.223 704.361 526.223C705.765 526.223 706.755 526.589 707.331 527.321C707.919 528.053 708.213 529.241 708.213 530.885C708.213 532.529 707.937 533.723 707.385 534.467C706.833 535.211 705.825 535.583 704.361 535.583C702.897 535.583 701.889 535.211 701.337 534.467C700.785 533.723 700.509 532.529 700.509 530.885ZM701.895 530.867C701.895 532.175 702.051 533.093 702.363 533.621C702.687 534.149 703.353 534.413 704.361 534.413C705.381 534.413 706.047 534.155 706.359 533.639C706.671 533.111 706.827 532.187 706.827 530.867C706.827 529.547 706.653 528.641 706.305 528.149C705.957 527.645 705.309 527.393 704.361 527.393C703.425 527.393 702.777 527.645 702.417 528.149C702.069 528.641 701.895 529.547 701.895 530.867ZM711.765 535.403H710.415V526.403H711.747V527.033C712.719 526.493 713.649 526.223 714.537 526.223C715.737 526.223 716.541 526.547 716.949 527.195C717.369 527.843 717.579 528.995 717.579 530.651V535.403H716.247V530.687C716.247 529.439 716.121 528.587 715.869 528.131C715.629 527.663 715.107 527.429 714.303 527.429C713.919 527.429 713.511 527.489 713.079 527.609C712.659 527.717 712.335 527.825 712.107 527.933L711.765 528.095V535.403ZM728.7 527.573H725.838V531.875C725.838 532.907 725.91 533.585 726.054 533.909C726.21 534.233 726.57 534.395 727.134 534.395L728.736 534.287L728.826 535.403C728.022 535.535 727.41 535.601 726.99 535.601C726.054 535.601 725.406 535.373 725.046 534.917C724.686 534.461 724.506 533.591 724.506 532.307V527.573H723.228V526.403H724.506V523.649H725.838V526.403H728.7V527.573ZM731.699 535.403H730.349V522.479H731.699V526.907C732.659 526.451 733.583 526.223 734.471 526.223C735.671 526.223 736.475 526.547 736.883 527.195C737.303 527.843 737.513 528.995 737.513 530.651V535.403H736.163V530.687C736.163 529.439 736.037 528.587 735.785 528.131C735.545 527.663 735.029 527.429 734.237 527.429C733.481 527.429 732.749 527.567 732.041 527.843L731.699 527.969V535.403ZM746.137 534.287L746.659 534.233L746.695 535.295C745.327 535.487 744.157 535.583 743.185 535.583C741.889 535.583 740.971 535.211 740.431 534.467C739.891 533.711 739.621 532.541 739.621 530.957C739.621 527.801 740.875 526.223 743.383 526.223C744.595 526.223 745.501 526.565 746.101 527.249C746.701 527.921 747.001 528.983 747.001 530.435L746.929 531.461H740.989C740.989 532.457 741.169 533.195 741.529 533.675C741.889 534.155 742.513 534.395 743.401 534.395C744.301 534.395 745.213 534.359 746.137 534.287ZM745.651 530.381C745.651 529.277 745.471 528.497 745.111 528.041C744.763 527.585 744.187 527.357 743.383 527.357C742.591 527.357 741.991 527.597 741.583 528.077C741.187 528.557 740.983 529.325 740.971 530.381H745.651ZM752.322 526.403H753.672L755.49 534.233H755.778L757.92 526.583H759.324L761.466 534.233H761.772L763.572 526.403H764.922L762.78 535.403H760.53L758.622 528.365L756.714 535.403H754.464L752.322 526.403ZM772.803 534.287L773.325 534.233L773.361 535.295C771.993 535.487 770.823 535.583 769.851 535.583C768.555 535.583 767.637 535.211 767.097 534.467C766.557 533.711 766.287 532.541 766.287 530.957C766.287 527.801 767.541 526.223 770.049 526.223C771.261 526.223 772.167 526.565 772.767 527.249C773.367 527.921 773.667 528.983 773.667 530.435L773.595 531.461H767.655C767.655 532.457 767.835 533.195 768.195 533.675C768.555 534.155 769.179 534.395 770.067 534.395C770.967 534.395 771.879 534.359 772.803 534.287ZM772.317 530.381C772.317 529.277 772.137 528.497 771.777 528.041C771.429 527.585 770.853 527.357 770.049 527.357C769.257 527.357 768.657 527.597 768.249 528.077C767.853 528.557 767.649 529.325 767.637 530.381H772.317ZM779.749 526.223C780.961 526.223 781.807 526.571 782.287 527.267C782.779 527.951 783.025 529.157 783.025 530.885C783.025 532.613 782.719 533.831 782.107 534.539C781.507 535.235 780.397 535.583 778.777 535.583C778.273 535.583 777.439 535.535 776.275 535.439L775.771 535.385V522.479H777.103V526.853C778.015 526.433 778.897 526.223 779.749 526.223ZM778.759 534.377C779.935 534.377 780.709 534.113 781.081 533.585C781.465 533.045 781.657 532.139 781.657 530.867C781.657 529.595 781.507 528.707 781.207 528.203C780.907 527.687 780.373 527.429 779.605 527.429C778.909 527.429 778.195 527.561 777.463 527.825L777.103 527.951V534.287C777.883 534.347 778.435 534.377 778.759 534.377ZM788.071 527.429C786.763 527.429 786.109 527.885 786.109 528.797C786.109 529.217 786.259 529.517 786.559 529.697C786.859 529.865 787.543 530.045 788.611 530.237C789.679 530.417 790.435 530.675 790.879 531.011C791.323 531.347 791.545 531.977 791.545 532.901C791.545 533.825 791.245 534.503 790.645 534.935C790.057 535.367 789.193 535.583 788.053 535.583C787.309 535.583 786.433 535.499 785.425 535.331L784.885 535.241L784.957 534.071C786.325 534.275 787.357 534.377 788.053 534.377C788.749 534.377 789.277 534.269 789.637 534.053C790.009 533.825 790.195 533.453 790.195 532.937C790.195 532.409 790.039 532.055 789.727 531.875C789.415 531.683 788.731 531.503 787.675 531.335C786.619 531.167 785.869 530.921 785.425 530.597C784.981 530.273 784.759 529.673 784.759 528.797C784.759 527.921 785.065 527.273 785.677 526.853C786.301 526.433 787.075 526.223 787.999 526.223C788.731 526.223 789.649 526.307 790.753 526.475L791.257 526.565L791.221 527.717C789.889 527.525 788.839 527.429 788.071 527.429ZM793.612 535.403V526.403H794.962V535.403H793.612ZM793.612 524.369V522.803H794.962V524.369H793.612ZM802.212 527.573H799.35V531.875C799.35 532.907 799.422 533.585 799.566 533.909C799.722 534.233 800.082 534.395 800.646 534.395L802.248 534.287L802.338 535.403C801.534 535.535 800.922 535.601 800.502 535.601C799.566 535.601 798.918 535.373 798.558 534.917C798.198 534.461 798.018 533.591 798.018 532.307V527.573H796.74V526.403H798.018V523.649H799.35V526.403H802.212V527.573ZM809.98 534.287L810.502 534.233L810.538 535.295C809.17 535.487 808 535.583 807.028 535.583C805.732 535.583 804.814 535.211 804.274 534.467C803.734 533.711 803.464 532.541 803.464 530.957C803.464 527.801 804.718 526.223 807.226 526.223C808.438 526.223 809.344 526.565 809.944 527.249C810.544 527.921 810.844 528.983 810.844 530.435L810.772 531.461H804.832C804.832 532.457 805.012 533.195 805.372 533.675C805.732 534.155 806.356 534.395 807.244 534.395C808.144 534.395 809.056 534.359 809.98 534.287ZM809.494 530.381C809.494 529.277 809.314 528.497 808.954 528.041C808.606 527.585 808.03 527.357 807.226 527.357C806.434 527.357 805.834 527.597 805.426 528.077C805.03 528.557 804.826 529.325 804.814 530.381H809.494Z" fill="#17324D"/>
<rect x="666.5" y="567.403" width="107" height="46" rx="3" stroke="#0066CC" stroke-width="2"/>
<rect x="665.5" y="566.403" width="109" height="48" rx="4" fill="#0066CC"/>
<path d="M694.483 596.579C692.883 596.579 691.795 596.136 691.219 595.251C690.654 594.365 690.371 592.909 690.371 590.883C690.371 588.856 690.659 587.416 691.235 586.563C691.811 585.699 692.894 585.267 694.483 585.267C695.432 585.267 696.478 585.4 697.619 585.667L697.555 587.107C696.595 586.936 695.635 586.851 694.675 586.851C693.715 586.851 693.064 587.139 692.723 587.715C692.382 588.28 692.211 589.352 692.211 590.931C692.211 592.499 692.376 593.571 692.707 594.147C693.038 594.712 693.683 594.995 694.643 594.995C695.603 594.995 696.574 594.915 697.555 594.755L697.603 596.227C696.504 596.461 695.464 596.579 694.483 596.579ZM699.59 589.267C700.144 588.573 701.062 588.227 702.342 588.227C703.622 588.227 704.534 588.573 705.078 589.267C705.632 589.96 705.91 591 705.91 592.387C705.91 593.773 705.643 594.819 705.11 595.523C704.576 596.227 703.654 596.579 702.342 596.579C701.03 596.579 700.107 596.227 699.574 595.523C699.04 594.819 698.774 593.773 698.774 592.387C698.774 591 699.046 589.96 699.59 589.267ZM700.902 594.467C701.147 594.893 701.627 595.107 702.342 595.107C703.056 595.107 703.536 594.893 703.782 594.467C704.027 594.04 704.15 593.341 704.15 592.371C704.15 591.4 704.016 590.712 703.75 590.307C703.494 589.901 703.024 589.699 702.342 589.699C701.659 589.699 701.184 589.901 700.918 590.307C700.662 590.712 700.534 591.4 700.534 592.371C700.534 593.341 700.656 594.04 700.902 594.467ZM709.386 596.403H707.642V588.403H709.37V588.899C710.149 588.451 710.885 588.227 711.578 588.227C712.645 588.227 713.37 588.531 713.754 589.139C714.149 589.736 714.346 590.728 714.346 592.115V596.403H712.618V592.163C712.618 591.299 712.522 590.685 712.33 590.323C712.149 589.96 711.77 589.779 711.194 589.779C710.65 589.779 710.127 589.885 709.626 590.099L709.386 590.195V596.403ZM720.68 589.891H718.472V593.411C718.472 594.061 718.52 594.493 718.616 594.707C718.712 594.92 718.958 595.027 719.352 595.027L720.664 594.979L720.744 596.371C720.03 596.509 719.486 596.579 719.112 596.579C718.206 596.579 717.582 596.371 717.24 595.955C716.91 595.539 716.744 594.755 716.744 593.603V589.891H715.72V588.403H716.744V586.083H718.472V588.403H720.68V589.891ZM722.111 596.403V588.403H723.855V596.403H722.111ZM722.111 587.043V585.203H723.855V587.043H722.111ZM727.714 596.403H725.97V588.403H727.698V588.899C728.477 588.451 729.213 588.227 729.906 588.227C730.973 588.227 731.698 588.531 732.082 589.139C732.477 589.736 732.674 590.728 732.674 592.115V596.403H730.946V592.163C730.946 591.299 730.85 590.685 730.658 590.323C730.477 589.96 730.098 589.779 729.522 589.779C728.978 589.779 728.455 589.885 727.954 590.099L727.714 590.195V596.403ZM739.552 588.403H741.28V596.403H739.552V595.907C738.774 596.355 738.054 596.579 737.392 596.579C736.294 596.579 735.558 596.285 735.184 595.699C734.811 595.101 734.624 594.061 734.624 592.579V588.403H736.368V592.595C736.368 593.555 736.448 594.2 736.608 594.531C736.768 594.861 737.142 595.027 737.728 595.027C738.304 595.027 738.832 594.92 739.312 594.707L739.552 594.611V588.403ZM749.088 594.963L749.536 594.915L749.568 596.211C748.352 596.456 747.275 596.579 746.336 596.579C745.152 596.579 744.299 596.253 743.776 595.603C743.264 594.952 743.008 593.912 743.008 592.483C743.008 589.645 744.165 588.227 746.48 588.227C748.72 588.227 749.84 589.448 749.84 591.891L749.728 593.139H744.768C744.779 593.8 744.923 594.285 745.2 594.595C745.477 594.904 745.995 595.059 746.752 595.059C747.509 595.059 748.288 595.027 749.088 594.963ZM748.128 591.795C748.128 591.005 748 590.456 747.744 590.147C747.499 589.827 747.077 589.667 746.48 589.667C745.883 589.667 745.445 589.832 745.168 590.163C744.901 590.493 744.763 591.037 744.752 591.795H748.128Z" fill="white"/>
<mask id="path-25-inside-1_40000001_3832" fill="white">
<path d="M0 778.403H1440V840.403H0V778.403Z"/>
</mask>
<path d="M0 778.403H1440V840.403H0V778.403Z" fill="#004D99"/>
<path d="M0 778.403V779.403H1440V778.403V777.403H0V778.403Z" fill="white" fill-opacity="0.5" mask="url(#path-25-inside-1_40000001_3832)"/>
<path d="M30.482 814.403H25.106V804.813H26.66V813.017H30.482V814.403ZM36.5525 813.143L36.9445 813.101L36.9725 814.235C35.9085 814.449 34.9659 814.557 34.1445 814.557C33.1085 814.557 32.3619 814.272 31.9045 813.703C31.4565 813.133 31.2325 812.223 31.2325 810.973C31.2325 808.49 32.2452 807.249 34.2705 807.249C36.2305 807.249 37.2105 808.317 37.2105 810.455L37.1125 811.547H32.7725C32.7819 812.125 32.9079 812.55 33.1505 812.821C33.3932 813.091 33.8459 813.227 34.5085 813.227C35.1712 813.227 35.8525 813.199 36.5525 813.143ZM35.7125 810.371C35.7125 809.68 35.6005 809.199 35.3765 808.929C35.1619 808.649 34.7932 808.509 34.2705 808.509C33.7479 808.509 33.3652 808.653 33.1225 808.943C32.8892 809.232 32.7679 809.708 32.7585 810.371H35.7125ZM44.7959 815.355C44.7959 816.885 43.6899 817.651 41.4779 817.651C40.4139 817.651 39.6252 817.506 39.1119 817.217C38.5986 816.927 38.3419 816.4 38.3419 815.635C38.3419 815.289 38.4259 814.991 38.5939 814.739C38.7619 814.496 39.0326 814.23 39.4059 813.941C39.0979 813.735 38.9439 813.395 38.9439 812.919C38.9439 812.732 39.0699 812.429 39.3219 812.009L39.4479 811.799C38.7759 811.397 38.4399 810.697 38.4399 809.699C38.4399 808.859 38.6919 808.243 39.1959 807.851C39.6999 807.459 40.3812 807.263 41.2399 807.263C41.6506 807.263 42.0566 807.309 42.4579 807.403L42.6679 807.445L44.8379 807.389V808.621L43.6759 808.551C43.9279 808.877 44.0539 809.26 44.0539 809.699C44.0539 810.613 43.8206 811.248 43.3539 811.603C42.8966 811.948 42.1779 812.121 41.1979 812.121C40.9552 812.121 40.7499 812.102 40.5819 812.065C40.4512 812.382 40.3859 812.629 40.3859 812.807C40.3859 812.975 40.4699 813.091 40.6379 813.157C40.8152 813.222 41.2352 813.259 41.8979 813.269C43.0086 813.278 43.7692 813.427 44.1799 813.717C44.5906 814.006 44.7959 814.552 44.7959 815.355ZM39.8399 815.495C39.8399 815.821 39.9706 816.055 40.2319 816.195C40.4932 816.335 40.9412 816.405 41.5759 816.405C42.7052 816.405 43.2699 816.083 43.2699 815.439C43.2699 815.075 43.1672 814.841 42.9619 814.739C42.7659 814.645 42.3692 814.594 41.7719 814.585L40.3999 814.501C40.1946 814.669 40.0499 814.823 39.9659 814.963C39.8819 815.112 39.8399 815.289 39.8399 815.495ZM39.9519 809.699C39.9519 810.128 40.0546 810.445 40.2599 810.651C40.4652 810.847 40.7966 810.945 41.2539 810.945C41.7112 810.945 42.0379 810.847 42.2339 810.651C42.4392 810.445 42.5419 810.128 42.5419 809.699C42.5419 809.269 42.4392 808.957 42.2339 808.761C42.0286 808.555 41.6972 808.453 41.2399 808.453C40.3812 808.453 39.9519 808.868 39.9519 809.699ZM51.2134 809.559V812.751C51.2227 812.956 51.274 813.11 51.3674 813.213C51.47 813.306 51.624 813.367 51.8294 813.395L51.7874 814.557C50.9847 814.557 50.364 814.384 49.9254 814.039C49.1787 814.384 48.4274 814.557 47.6714 814.557C46.2807 814.557 45.5854 813.815 45.5854 812.331C45.5854 811.621 45.772 811.108 46.1454 810.791C46.528 810.473 47.1114 810.282 47.8954 810.217L49.7014 810.063V809.559C49.7014 809.185 49.6174 808.924 49.4494 808.775C49.2907 808.625 49.0527 808.551 48.7354 808.551C48.138 808.551 47.3914 808.588 46.4954 808.663L46.0474 808.691L45.9914 807.613C47.0087 807.37 47.942 807.249 48.7914 807.249C49.65 807.249 50.266 807.435 50.6394 807.809C51.022 808.173 51.2134 808.756 51.2134 809.559ZM48.0774 811.295C47.4334 811.351 47.1114 811.701 47.1114 812.345C47.1114 812.989 47.396 813.311 47.9654 813.311C48.432 813.311 48.9267 813.236 49.4494 813.087L49.7014 813.003V811.141L48.0774 811.295ZM53.2131 814.403V804.491H54.7391V814.403H53.2131ZM59.9283 814.403V804.813H62.6443L65.5563 813.031H65.7663V804.813H67.3203V814.403H64.6603L61.6783 806.171H61.4823V814.403H59.9283ZM69.6399 808.159C70.1252 807.552 70.9279 807.249 72.0479 807.249C73.1679 807.249 73.9659 807.552 74.4419 808.159C74.9272 808.765 75.1699 809.675 75.1699 810.889C75.1699 812.102 74.9366 813.017 74.4699 813.633C74.0032 814.249 73.1959 814.557 72.0479 814.557C70.8999 814.557 70.0926 814.249 69.6259 813.633C69.1592 813.017 68.9259 812.102 68.9259 810.889C68.9259 809.675 69.1639 808.765 69.6399 808.159ZM70.7879 812.709C71.0026 813.082 71.4226 813.269 72.0479 813.269C72.6732 813.269 73.0932 813.082 73.3079 812.709C73.5226 812.335 73.6299 811.724 73.6299 810.875C73.6299 810.025 73.5132 809.423 73.2799 809.069C73.0559 808.714 72.6452 808.537 72.0479 808.537C71.4506 808.537 71.0352 808.714 70.8019 809.069C70.5779 809.423 70.4659 810.025 70.4659 810.875C70.4659 811.724 70.5732 812.335 70.7879 812.709ZM80.4517 808.705H78.5197V811.785C78.5197 812.354 78.5617 812.732 78.6457 812.919C78.7297 813.105 78.9444 813.199 79.2897 813.199L80.4377 813.157L80.5077 814.375C79.8824 814.496 79.4064 814.557 79.0797 814.557C78.2864 814.557 77.7404 814.375 77.4417 814.011C77.1524 813.647 77.0077 812.961 77.0077 811.953V808.705H76.1117V807.403H77.0077V805.373H78.5197V807.403H80.4517V808.705ZM86.6873 813.143L87.0793 813.101L87.1073 814.235C86.0433 814.449 85.1006 814.557 84.2793 814.557C83.2433 814.557 82.4966 814.272 82.0393 813.703C81.5913 813.133 81.3673 812.223 81.3673 810.973C81.3673 808.49 82.38 807.249 84.4053 807.249C86.3653 807.249 87.3453 808.317 87.3453 810.455L87.2473 811.547H82.9073C82.9166 812.125 83.0426 812.55 83.2853 812.821C83.528 813.091 83.9806 813.227 84.6433 813.227C85.306 813.227 85.9873 813.199 86.6873 813.143ZM85.8473 810.371C85.8473 809.68 85.7353 809.199 85.5113 808.929C85.2966 808.649 84.928 808.509 84.4053 808.509C83.8826 808.509 83.5 808.653 83.2573 808.943C83.024 809.232 82.9026 809.708 82.8933 810.371H85.8473ZM93.6707 808.845C92.5693 808.695 91.7713 808.621 91.2767 808.621C90.782 808.621 90.4367 808.681 90.2407 808.803C90.054 808.915 89.9607 809.097 89.9607 809.349C89.9607 809.601 90.0633 809.778 90.2687 809.881C90.4833 809.983 90.978 810.105 91.7527 810.245C92.5367 810.375 93.092 810.585 93.4187 810.875C93.7453 811.164 93.9087 811.677 93.9087 812.415C93.9087 813.152 93.6707 813.693 93.1947 814.039C92.728 814.384 92.042 814.557 91.1367 814.557C90.5673 814.557 89.8487 814.477 88.9807 814.319L88.5467 814.249L88.6027 812.975C89.7227 813.124 90.53 813.199 91.0247 813.199C91.5193 813.199 91.8693 813.138 92.0747 813.017C92.2893 812.895 92.3967 812.695 92.3967 812.415C92.3967 812.135 92.294 811.943 92.0887 811.841C91.8927 811.729 91.412 811.612 90.6467 811.491C89.8907 811.36 89.3353 811.159 88.9807 810.889C88.626 810.618 88.4487 810.123 88.4487 809.405C88.4487 808.686 88.6913 808.149 89.1767 807.795C89.6713 807.44 90.3013 807.263 91.0667 807.263C91.664 807.263 92.3967 807.337 93.2647 807.487L93.6987 807.571L93.6707 808.845Z" fill="white"/>
<path d="M24 815.943H37.9394V816.363H24V815.943ZM45.1466 815.943H94.4547V816.363H45.1466V815.943Z" fill="white"/>
<path d="M123.62 811.421H121.66V814.403H120.106V804.813H123.62C125.795 804.813 126.882 805.886 126.882 808.033C126.882 809.134 126.607 809.974 126.056 810.553C125.515 811.131 124.703 811.421 123.62 811.421ZM121.66 810.077H123.606C124.726 810.077 125.286 809.395 125.286 808.033C125.286 807.379 125.151 806.903 124.88 806.605C124.609 806.306 124.185 806.157 123.606 806.157H121.66V810.077ZM128.195 814.403V807.403H129.707V808.243C130.501 807.729 131.294 807.398 132.087 807.249V808.775C131.285 808.933 130.599 809.139 130.029 809.391L129.721 809.517V814.403H128.195ZM133.254 814.403V807.403H134.78V814.403H133.254ZM133.254 806.213V804.603H134.78V806.213H133.254ZM135.973 807.403H137.569L138.913 813.101H139.361L140.761 807.403H142.315L140.495 814.403H137.779L135.973 807.403ZM148.592 809.559V812.751C148.602 812.956 148.653 813.11 148.746 813.213C148.849 813.306 149.003 813.367 149.208 813.395L149.166 814.557C148.364 814.557 147.743 814.384 147.304 814.039C146.558 814.384 145.806 814.557 145.05 814.557C143.66 814.557 142.964 813.815 142.964 812.331C142.964 811.621 143.151 811.108 143.524 810.791C143.907 810.473 144.49 810.282 145.274 810.217L147.08 810.063V809.559C147.08 809.185 146.996 808.924 146.828 808.775C146.67 808.625 146.432 808.551 146.114 808.551C145.517 808.551 144.77 808.588 143.874 808.663L143.426 808.691L143.37 807.613C144.388 807.37 145.321 807.249 146.17 807.249C147.029 807.249 147.645 807.435 148.018 807.809C148.401 808.173 148.592 808.756 148.592 809.559ZM145.456 811.295C144.812 811.351 144.49 811.701 144.49 812.345C144.49 812.989 144.775 813.311 145.344 813.311C145.811 813.311 146.306 813.236 146.828 813.087L147.08 813.003V811.141L145.456 811.295ZM153.126 807.249C153.621 807.249 154.204 807.314 154.876 807.445L155.226 807.515L155.17 808.719C154.433 808.644 153.887 808.607 153.532 808.607C152.823 808.607 152.347 808.765 152.104 809.083C151.861 809.4 151.74 809.997 151.74 810.875C151.74 811.752 151.857 812.359 152.09 812.695C152.323 813.031 152.809 813.199 153.546 813.199L155.184 813.087L155.226 814.305C154.283 814.473 153.574 814.557 153.098 814.557C152.034 814.557 151.283 814.272 150.844 813.703C150.415 813.124 150.2 812.181 150.2 810.875C150.2 809.568 150.429 808.639 150.886 808.089C151.343 807.529 152.09 807.249 153.126 807.249ZM156.057 807.403H157.555L159.039 813.101H159.417L160.901 807.403H162.413L159.753 817.413H158.255L159.095 814.403H157.891L156.057 807.403ZM170.364 811.421H168.404V814.403H166.85V804.813H170.364C172.539 804.813 173.626 805.886 173.626 808.033C173.626 809.134 173.351 809.974 172.8 810.553C172.259 811.131 171.447 811.421 170.364 811.421ZM168.404 810.077H170.35C171.47 810.077 172.03 809.395 172.03 808.033C172.03 807.379 171.895 806.903 171.624 806.605C171.353 806.306 170.929 806.157 170.35 806.157H168.404V810.077ZM175.318 808.159C175.803 807.552 176.606 807.249 177.726 807.249C178.846 807.249 179.644 807.552 180.12 808.159C180.605 808.765 180.848 809.675 180.848 810.889C180.848 812.102 180.614 813.017 180.148 813.633C179.681 814.249 178.874 814.557 177.726 814.557C176.578 814.557 175.77 814.249 175.304 813.633C174.837 813.017 174.604 812.102 174.604 810.889C174.604 809.675 174.842 808.765 175.318 808.159ZM176.466 812.709C176.68 813.082 177.1 813.269 177.726 813.269C178.351 813.269 178.771 813.082 178.986 812.709C179.2 812.335 179.308 811.724 179.308 810.875C179.308 810.025 179.191 809.423 178.958 809.069C178.734 808.714 178.323 808.537 177.726 808.537C177.128 808.537 176.713 808.714 176.48 809.069C176.256 809.423 176.144 810.025 176.144 810.875C176.144 811.724 176.251 812.335 176.466 812.709ZM182.447 814.403V804.491H183.973V814.403H182.447ZM185.904 814.403V807.403H187.43V814.403H185.904ZM185.904 806.213V804.603H187.43V806.213H185.904ZM191.899 807.249C192.394 807.249 192.977 807.314 193.649 807.445L193.999 807.515L193.943 808.719C193.206 808.644 192.66 808.607 192.305 808.607C191.596 808.607 191.12 808.765 190.877 809.083C190.635 809.4 190.513 809.997 190.513 810.875C190.513 811.752 190.63 812.359 190.863 812.695C191.097 813.031 191.582 813.199 192.319 813.199L193.957 813.087L193.999 814.305C193.057 814.473 192.347 814.557 191.871 814.557C190.807 814.557 190.056 814.272 189.617 813.703C189.188 813.124 188.973 812.181 188.973 810.875C188.973 809.568 189.202 808.639 189.659 808.089C190.117 807.529 190.863 807.249 191.899 807.249ZM194.831 807.403H196.329L197.813 813.101H198.191L199.675 807.403H201.187L198.527 817.413H197.029L197.869 814.403H196.665L194.831 807.403Z" fill="white"/>
<path d="M119 815.943H158.127V816.363H119V815.943ZM160.561 815.943H196.9V816.363H160.561V815.943ZM199.334 815.943H201.439V816.363H199.334V815.943Z" fill="white"/>
<path d="M226.28 814.403L228.646 804.813H231.74L234.12 814.403H232.552L232.034 812.345H228.352L227.834 814.403H226.28ZM229.85 806.115L228.66 810.973H231.726L230.55 806.115H229.85ZM237.855 807.249C238.349 807.249 238.933 807.314 239.605 807.445L239.955 807.515L239.899 808.719C239.161 808.644 238.615 808.607 238.261 808.607C237.551 808.607 237.075 808.765 236.833 809.083C236.59 809.4 236.469 809.997 236.469 810.875C236.469 811.752 236.585 812.359 236.819 812.695C237.052 813.031 237.537 813.199 238.275 813.199L239.913 813.087L239.955 814.305C239.012 814.473 238.303 814.557 237.827 814.557C236.763 814.557 236.011 814.272 235.573 813.703C235.143 813.124 234.929 812.181 234.929 810.875C234.929 809.568 235.157 808.639 235.615 808.089C236.072 807.529 236.819 807.249 237.855 807.249ZM243.98 807.249C244.474 807.249 245.058 807.314 245.73 807.445L246.08 807.515L246.024 808.719C245.286 808.644 244.74 808.607 244.386 808.607C243.676 808.607 243.2 808.765 242.958 809.083C242.715 809.4 242.594 809.997 242.594 810.875C242.594 811.752 242.71 812.359 242.944 812.695C243.177 813.031 243.662 813.199 244.4 813.199L246.038 813.087L246.08 814.305C245.137 814.473 244.428 814.557 243.952 814.557C242.888 814.557 242.136 814.272 241.698 813.703C241.268 813.124 241.054 812.181 241.054 810.875C241.054 809.568 241.282 808.639 241.74 808.089C242.197 807.529 242.944 807.249 243.98 807.249ZM252.471 813.143L252.863 813.101L252.891 814.235C251.827 814.449 250.884 814.557 250.062 814.557C249.027 814.557 248.28 814.272 247.823 813.703C247.375 813.133 247.151 812.223 247.151 810.973C247.151 808.49 248.163 807.249 250.189 807.249C252.149 807.249 253.129 808.317 253.129 810.455L253.031 811.547H248.691C248.7 812.125 248.826 812.55 249.069 812.821C249.311 813.091 249.764 813.227 250.427 813.227C251.089 813.227 251.771 813.199 252.471 813.143ZM251.631 810.371C251.631 809.68 251.519 809.199 251.295 808.929C251.08 808.649 250.711 808.509 250.189 808.509C249.666 808.509 249.283 808.653 249.041 808.943C248.807 809.232 248.686 809.708 248.677 810.371H251.631ZM259.454 808.845C258.353 808.695 257.555 808.621 257.06 808.621C256.565 808.621 256.22 808.681 256.024 808.803C255.837 808.915 255.744 809.097 255.744 809.349C255.744 809.601 255.847 809.778 256.052 809.881C256.267 809.983 256.761 810.105 257.536 810.245C258.32 810.375 258.875 810.585 259.202 810.875C259.529 811.164 259.692 811.677 259.692 812.415C259.692 813.152 259.454 813.693 258.978 814.039C258.511 814.384 257.825 814.557 256.92 814.557C256.351 814.557 255.632 814.477 254.764 814.319L254.33 814.249L254.386 812.975C255.506 813.124 256.313 813.199 256.808 813.199C257.303 813.199 257.653 813.138 257.858 813.017C258.073 812.895 258.18 812.695 258.18 812.415C258.18 812.135 258.077 811.943 257.872 811.841C257.676 811.729 257.195 811.612 256.43 811.491C255.674 811.36 255.119 811.159 254.764 810.889C254.409 810.618 254.232 810.123 254.232 809.405C254.232 808.686 254.475 808.149 254.96 807.795C255.455 807.44 256.085 807.263 256.85 807.263C257.447 807.263 258.18 807.337 259.048 807.487L259.482 807.571L259.454 808.845ZM266.016 808.845C264.915 808.695 264.117 808.621 263.622 808.621C263.128 808.621 262.782 808.681 262.586 808.803C262.4 808.915 262.306 809.097 262.306 809.349C262.306 809.601 262.409 809.778 262.614 809.881C262.829 809.983 263.324 810.105 264.098 810.245C264.882 810.375 265.438 810.585 265.764 810.875C266.091 811.164 266.254 811.677 266.254 812.415C266.254 813.152 266.016 813.693 265.54 814.039C265.074 814.384 264.388 814.557 263.482 814.557C262.913 814.557 262.194 814.477 261.326 814.319L260.892 814.249L260.948 812.975C262.068 813.124 262.876 813.199 263.37 813.199C263.865 813.199 264.215 813.138 264.42 813.017C264.635 812.895 264.742 812.695 264.742 812.415C264.742 812.135 264.64 811.943 264.434 811.841C264.238 811.729 263.758 811.612 262.992 811.491C262.236 811.36 261.681 811.159 261.326 810.889C260.972 810.618 260.794 810.123 260.794 809.405C260.794 808.686 261.037 808.149 261.522 807.795C262.017 807.44 262.647 807.263 263.412 807.263C264.01 807.263 264.742 807.337 265.61 807.487L266.044 807.571L266.016 808.845ZM267.721 814.403V807.403H269.247V814.403H267.721ZM267.721 806.213V804.603H269.247V806.213H267.721ZM274.36 807.249C275.321 807.249 276.012 807.519 276.432 808.061C276.861 808.593 277.076 809.54 277.076 810.903C277.076 812.265 276.824 813.217 276.32 813.759C275.816 814.291 274.929 814.557 273.66 814.557C273.221 814.557 272.526 814.515 271.574 814.431L271.098 814.389V804.491H272.61V807.669C273.254 807.389 273.837 807.249 274.36 807.249ZM273.66 813.199C274.406 813.199 274.901 813.026 275.144 812.681C275.396 812.326 275.522 811.729 275.522 810.889C275.522 810.049 275.414 809.461 275.2 809.125C274.994 808.779 274.654 808.607 274.178 808.607C273.73 808.607 273.282 808.677 272.834 808.817L272.61 808.887V813.143C273.123 813.18 273.473 813.199 273.66 813.199ZM278.604 814.403V807.403H280.13V814.403H278.604ZM278.604 806.213V804.603H280.13V806.213H278.604ZM282.065 814.403V804.491H283.591V814.403H282.065ZM285.522 814.403V807.403H287.048V814.403H285.522ZM285.522 806.213V804.603H287.048V806.213H285.522ZM292.665 808.705H290.733V811.785C290.733 812.354 290.775 812.732 290.859 812.919C290.943 813.105 291.157 813.199 291.503 813.199L292.651 813.157L292.721 814.375C292.095 814.496 291.619 814.557 291.293 814.557C290.499 814.557 289.953 814.375 289.655 814.011C289.365 813.647 289.221 812.961 289.221 811.953V808.705H288.325V807.403H289.221V805.373H290.733V807.403H292.665V808.705ZM293.272 807.403H294.77L296.254 813.101H296.632L298.116 807.403H299.628L296.968 817.413H295.47L296.31 814.403H295.106L293.272 807.403ZM306.879 806.017C305.694 806.017 305.101 806.432 305.101 807.263C305.101 807.692 305.241 808 305.521 808.187C305.801 808.364 306.417 808.588 307.369 808.859C308.33 809.12 309.007 809.437 309.399 809.811C309.791 810.175 309.987 810.753 309.987 811.547C309.987 812.555 309.698 813.311 309.119 813.815C308.55 814.309 307.77 814.557 306.781 814.557C305.988 814.557 305.11 814.463 304.149 814.277L303.645 814.179L303.799 812.933C305.059 813.101 306.02 813.185 306.683 813.185C307.84 813.185 308.419 812.671 308.419 811.645C308.419 811.243 308.288 810.949 308.027 810.763C307.766 810.567 307.178 810.357 306.263 810.133C305.348 809.899 304.667 809.582 304.219 809.181C303.771 808.779 303.547 808.145 303.547 807.277C303.547 806.409 303.827 805.755 304.387 805.317C304.956 804.869 305.74 804.645 306.739 804.645C307.458 804.645 308.307 804.729 309.287 804.897L309.777 804.981L309.651 806.241C308.344 806.091 307.42 806.017 306.879 806.017ZM315.155 808.705H313.223V811.785C313.223 812.354 313.265 812.732 313.349 812.919C313.433 813.105 313.648 813.199 313.993 813.199L315.141 813.157L315.211 814.375C314.586 814.496 314.11 814.557 313.783 814.557C312.99 814.557 312.444 814.375 312.145 814.011C311.856 813.647 311.711 812.961 311.711 811.953V808.705H310.815V807.403H311.711V805.373H313.223V807.403H315.155V808.705ZM321.586 809.559V812.751C321.596 812.956 321.647 813.11 321.74 813.213C321.843 813.306 321.997 813.367 322.202 813.395L322.16 814.557C321.358 814.557 320.737 814.384 320.298 814.039C319.552 814.384 318.8 814.557 318.044 814.557C316.654 814.557 315.958 813.815 315.958 812.331C315.958 811.621 316.145 811.108 316.518 810.791C316.901 810.473 317.484 810.282 318.268 810.217L320.074 810.063V809.559C320.074 809.185 319.99 808.924 319.822 808.775C319.664 808.625 319.426 808.551 319.108 808.551C318.511 808.551 317.764 808.588 316.868 808.663L316.42 808.691L316.364 807.613C317.382 807.37 318.315 807.249 319.164 807.249C320.023 807.249 320.639 807.435 321.012 807.809C321.395 808.173 321.586 808.756 321.586 809.559ZM318.45 811.295C317.806 811.351 317.484 811.701 317.484 812.345C317.484 812.989 317.769 813.311 318.338 813.311C318.805 813.311 319.3 813.236 319.822 813.087L320.074 813.003V811.141L318.45 811.295ZM327.268 808.705H325.336V811.785C325.336 812.354 325.378 812.732 325.462 812.919C325.546 813.105 325.761 813.199 326.106 813.199L327.254 813.157L327.324 814.375C326.699 814.496 326.223 814.557 325.896 814.557C325.103 814.557 324.557 814.375 324.258 814.011C323.969 813.647 323.824 812.961 323.824 811.953V808.705H322.928V807.403H323.824V805.373H325.336V807.403H327.268V808.705ZM333.504 813.143L333.896 813.101L333.924 814.235C332.86 814.449 331.917 814.557 331.096 814.557C330.06 814.557 329.313 814.272 328.856 813.703C328.408 813.133 328.184 812.223 328.184 810.973C328.184 808.49 329.196 807.249 331.222 807.249C333.182 807.249 334.162 808.317 334.162 810.455L334.064 811.547H329.724C329.733 812.125 329.859 812.55 330.102 812.821C330.344 813.091 330.797 813.227 331.46 813.227C332.122 813.227 332.804 813.199 333.504 813.143ZM332.664 810.371C332.664 809.68 332.552 809.199 332.328 808.929C332.113 808.649 331.744 808.509 331.222 808.509C330.699 808.509 330.316 808.653 330.074 808.943C329.84 809.232 329.719 809.708 329.71 810.371H332.664ZM337.155 814.403H335.629V807.403H337.141V807.837C337.804 807.445 338.41 807.249 338.961 807.249C339.773 807.249 340.366 807.477 340.739 807.935C341.588 807.477 342.433 807.249 343.273 807.249C344.113 807.249 344.706 807.51 345.051 808.033C345.396 808.546 345.569 809.419 345.569 810.651V814.403H344.057V810.693C344.057 809.937 343.978 809.4 343.819 809.083C343.67 808.765 343.352 808.607 342.867 808.607C342.447 808.607 341.994 808.7 341.509 808.887L341.271 808.985C341.346 809.171 341.383 809.769 341.383 810.777V814.403H339.871V810.805C339.871 809.974 339.796 809.4 339.647 809.083C339.498 808.765 339.171 808.607 338.667 808.607C338.2 808.607 337.766 808.7 337.365 808.887L337.155 808.971V814.403ZM352.344 813.143L352.736 813.101L352.764 814.235C351.7 814.449 350.757 814.557 349.936 814.557C348.9 814.557 348.153 814.272 347.696 813.703C347.248 813.133 347.024 812.223 347.024 810.973C347.024 808.49 348.036 807.249 350.062 807.249C352.022 807.249 353.002 808.317 353.002 810.455L352.904 811.547H348.564C348.573 812.125 348.699 812.55 348.942 812.821C349.184 813.091 349.637 813.227 350.3 813.227C350.962 813.227 351.644 813.199 352.344 813.143ZM351.504 810.371C351.504 809.68 351.392 809.199 351.168 808.929C350.953 808.649 350.584 808.509 350.062 808.509C349.539 808.509 349.156 808.653 348.914 808.943C348.68 809.232 348.559 809.708 348.55 810.371H351.504ZM355.995 814.403H354.469V807.403H355.981V807.837C356.662 807.445 357.306 807.249 357.913 807.249C358.846 807.249 359.481 807.515 359.817 808.047C360.162 808.569 360.335 809.437 360.335 810.651V814.403H358.823V810.693C358.823 809.937 358.739 809.4 358.571 809.083C358.412 808.765 358.081 808.607 357.577 808.607C357.101 808.607 356.644 808.7 356.205 808.887L355.995 808.971V814.403ZM365.878 808.705H363.946V811.785C363.946 812.354 363.988 812.732 364.072 812.919C364.156 813.105 364.37 813.199 364.716 813.199L365.864 813.157L365.934 814.375C365.308 814.496 364.832 814.557 364.506 814.557C363.712 814.557 363.166 814.375 362.868 814.011C362.578 813.647 362.434 812.961 362.434 811.953V808.705H361.538V807.403H362.434V805.373H363.946V807.403H365.878V808.705Z" fill="white"/>
<path d="M226 815.943H295.346V816.363H226V815.943ZM297.779 815.943H366.199V816.363H297.779V815.943Z" fill="white"/>
</g>
<defs>
<clipPath id="clip0_40000001_3832">
<rect width="1440" height="840" fill="white" transform="translate(0 0.402832)"/>
</clipPath>
<clipPath id="clip1_40000001_3832">
<rect width="47" height="24" fill="white" transform="translate(1321 14.4028)"/>
</clipPath>
</defs>
</svg>
