<?xml version="1.0" encoding="UTF-8"?>
<svg xmlns="http://www.w3.org/2000/svg" xmlns:xlink="http://www.w3.org/1999/xlink" width="500px" height="500px" viewBox="0 0 500 500" version="1.1">
<g id="surface1">
<rect x="0" y="0" width="500" height="500" style="fill:rgb(100%,100%,100%);fill-opacity:1;stroke:none;"/>
<path style="fill-rule:nonzero;fill:rgb(0%,0%,0%);fill-opacity:1;stroke-width:1;stroke-linecap:butt;stroke-linejoin:miter;stroke:rgb(0%,0%,0%);stroke-opacity:1;stroke-miterlimit:4;" d="M 3.999789 4.500289 L 11.000172 4.500289 M 14.000164 4.500289 L 14.999961 4.500289 M 15.999758 4.500289 L 17.999953 4.500289 M 18.99975 4.500289 L 20.000148 4.500289 M 20.999945 4.500289 L 23.000141 4.500289 M 23.999937 4.500289 L 24.999734 4.500289 M 26.000133 4.500289 L 26.99993 4.500289 M 27.999727 4.500289 L 29.000125 4.500289 M 32.000117 4.500289 L 33.999711 4.500289 M 35.999906 4.500289 L 36.999703 4.500289 M 38.999898 4.500289 L 41.000094 4.500289 M 41.999891 4.500289 L 43.000289 4.500289 M 44.999883 4.500289 L 47.000078 4.500289 M 50.999867 4.500289 L 53.999859 4.500289 M 56.999852 4.500289 L 59.000047 4.500289 M 59.999844 4.500289 L 61.000242 4.500289 M 62.000039 4.500289 L 65.000031 4.500289 M 65.999828 4.500289 L 73.000211 4.500289 M 3.999789 5.500086 L 5.000188 5.500086 M 9.999773 5.500086 L 11.000172 5.500086 M 12.999766 5.500086 L 15.999758 5.500086 M 17.000156 5.500086 L 17.999953 5.500086 M 18.99975 5.500086 L 20.000148 5.500086 M 21.999742 5.500086 L 23.000141 5.500086 M 23.999937 5.500086 L 26.99993 5.500086 M 27.999727 5.500086 L 29.000125 5.500086 M 29.999922 5.500086 L 35.000109 5.500086 M 36.999703 5.500086 L 41.999891 5.500086 M 47.000078 5.500086 L 52.000266 5.500086 M 56.000055 5.500086 L 56.999852 5.500086 M 58.00025 5.500086 L 59.999844 5.500086 M 65.999828 5.500086 L 67.000227 5.500086 M 71.999813 5.500086 L 73.000211 5.500086 M 3.999789 6.499883 L 5.000188 6.499883 M 5.999984 6.499883 L 8.999977 6.499883 M 9.999773 6.499883 L 11.000172 6.499883 M 12.999766 6.499883 L 14.000164 6.499883 M 14.999961 6.499883 L 15.999758 6.499883 M 17.000156 6.499883 L 17.999953 6.499883 M 20.000148 6.499883 L 20.999945 6.499883 M 24.999734 6.499883 L 27.999727 6.499883 M 29.000125 6.499883 L 30.999719 6.499883 M 32.999914 6.499883 L 35.000109 6.499883 M 35.999906 6.499883 L 38.000102 6.499883 M 41.999891 6.499883 L 43.000289 6.499883 M 44.000086 6.499883 L 44.999883 6.499883 M 46.000281 6.499883 L 47.000078 6.499883 M 49.000273 6.499883 L 55.000258 6.499883 M 56.999852 6.499883 L 58.00025 6.499883 M 59.000047 6.499883 L 61.000242 6.499883 M 62.000039 6.499883 L 62.999836 6.499883 M 65.999828 6.499883 L 67.000227 6.499883 M 68.000023 6.499883 L 71.000016 6.499883 M 71.999813 6.499883 L 73.000211 6.499883 M 3.999789 7.500281 L 5.000188 7.500281 M 5.999984 7.500281 L 8.999977 7.500281 M 9.999773 7.500281 L 11.000172 7.500281 M 12.999766 7.500281 L 15.999758 7.500281 M 17.999953 7.500281 L 20.000148 7.500281 M 20.999945 7.500281 L 21.999742 7.500281 M 23.000141 7.500281 L 23.999937 7.500281 M 26.000133 7.500281 L 32.000117 7.500281 M 35.000109 7.500281 L 35.999906 7.500281 M 38.000102 7.500281 L 38.999898 7.500281 M 41.000094 7.500281 L 46.000281 7.500281 M 47.999875 7.500281 L 50.00007 7.500281 M 50.999867 7.500281 L 53.000062 7.500281 M 55.000258 7.500281 L 56.000055 7.500281 M 56.999852 7.500281 L 59.999844 7.500281 M 64.000234 7.500281 L 65.000031 7.500281 M 65.999828 7.500281 L 67.000227 7.500281 M 68.000023 7.500281 L 71.000016 7.500281 M 71.999813 7.500281 L 73.000211 7.500281 M 3.999789 8.500078 L 5.000188 8.500078 M 5.999984 8.500078 L 8.999977 8.500078 M 9.999773 8.500078 L 11.000172 8.500078 M 11.999969 8.500078 L 17.000156 8.500078 M 18.99975 8.500078 L 20.000148 8.500078 M 20.999945 8.500078 L 21.999742 8.500078 M 23.000141 8.500078 L 26.000133 8.500078 M 27.999727 8.500078 L 29.000125 8.500078 M 29.999922 8.500078 L 35.000109 8.500078 M 35.999906 8.500078 L 41.999891 8.500078 M 47.000078 8.500078 L 50.00007 8.500078 M 53.000062 8.500078 L 56.000055 8.500078 M 56.999852 8.500078 L 58.00025 8.500078 M 61.000242 8.500078 L 62.999836 8.500078 M 64.000234 8.500078 L 65.000031 8.500078 M 65.999828 8.500078 L 67.000227 8.500078 M 68.000023 8.500078 L 71.000016 8.500078 M 71.999813 8.500078 L 73.000211 8.500078 M 3.999789 9.499875 L 5.000188 9.499875 M 9.999773 9.499875 L 11.000172 9.499875 M 14.000164 9.499875 L 15.999758 9.499875 M 17.000156 9.499875 L 18.99975 9.499875 M 20.000148 9.499875 L 20.999945 9.499875 M 23.999937 9.499875 L 29.000125 9.499875 M 32.000117 9.499875 L 32.999914 9.499875 M 35.999906 9.499875 L 36.999703 9.499875 M 40.000297 9.499875 L 41.000094 9.499875 M 41.999891 9.499875 L 43.000289 9.499875 M 44.000086 9.499875 L 46.000281 9.499875 M 49.000273 9.499875 L 50.00007 9.499875 M 50.999867 9.499875 L 55.000258 9.499875 M 56.000055 9.499875 L 61.000242 9.499875 M 62.000039 9.499875 L 62.999836 9.499875 M 65.999828 9.499875 L 67.000227 9.499875 M 71.999813 9.499875 L 73.000211 9.499875 M 3.999789 10.500273 L 11.000172 10.500273 M 11.999969 10.500273 L 12.999766 10.500273 M 14.000164 10.500273 L 14.999961 10.500273 M 15.999758 10.500273 L 17.000156 10.500273 M 17.999953 10.500273 L 18.99975 10.500273 M 20.000148 10.500273 L 20.999945 10.500273 M 21.999742 10.500273 L 23.000141 10.500273 M 23.999937 10.500273 L 24.999734 10.500273 M 26.000133 10.500273 L 26.99993 10.500273 M 27.999727 10.500273 L 29.000125 10.500273 M 29.999922 10.500273 L 30.999719 10.500273 M 32.000117 10.500273 L 32.999914 10.500273 M 33.999711 10.500273 L 35.000109 10.500273 M 35.999906 10.500273 L 36.999703 10.500273 M 38.000102 10.500273 L 38.999898 10.500273 M 40.000297 10.500273 L 41.000094 10.500273 M 41.999891 10.500273 L 43.000289 10.500273 M 44.000086 10.500273 L 44.999883 10.500273 M 46.000281 10.500273 L 47.000078 10.500273 M 47.999875 10.500273 L 49.000273 10.500273 M 50.00007 10.500273 L 50.999867 10.500273 M 52.000266 10.500273 L 53.000062 10.500273 M 53.999859 10.500273 L 55.000258 10.500273 M 56.000055 10.500273 L 56.999852 10.500273 M 58.00025 10.500273 L 59.000047 10.500273 M 59.999844 10.500273 L 61.000242 10.500273 M 62.000039 10.500273 L 62.999836 10.500273 M 64.000234 10.500273 L 65.000031 10.500273 M 65.999828 10.500273 L 73.000211 10.500273 M 11.999969 11.50007 L 12.999766 11.50007 M 14.999961 11.50007 L 18.99975 11.50007 M 20.000148 11.50007 L 20.999945 11.50007 M 23.999937 11.50007 L 24.999734 11.50007 M 26.000133 11.50007 L 27.999727 11.50007 M 29.000125 11.50007 L 32.000117 11.50007 M 32.999914 11.50007 L 33.999711 11.50007 M 35.000109 11.50007 L 36.999703 11.50007 M 40.000297 11.50007 L 44.999883 11.50007 M 46.000281 11.50007 L 47.000078 11.50007 M 47.999875 11.50007 L 49.000273 11.50007 M 50.999867 11.50007 L 53.000062 11.50007 M 53.999859 11.50007 L 55.000258 11.50007 M 56.000055 11.50007 L 56.999852 11.50007 M 58.00025 11.50007 L 59.000047 11.50007 M 62.000039 11.50007 L 64.000234 11.50007 M 5.999984 12.499867 L 8.00018 12.499867 M 9.999773 12.499867 L 12.999766 12.499867 M 14.000164 12.499867 L 14.999961 12.499867 M 15.999758 12.499867 L 17.999953 12.499867 M 20.000148 12.499867 L 20.999945 12.499867 M 21.999742 12.499867 L 26.000133 12.499867 M 29.999922 12.499867 L 32.999914 12.499867 M 35.999906 12.499867 L 41.000094 12.499867 M 41.999891 12.499867 L 43.000289 12.499867 M 44.000086 12.499867 L 44.999883 12.499867 M 46.000281 12.499867 L 49.000273 12.499867 M 53.000062 12.499867 L 56.999852 12.499867 M 61.000242 12.499867 L 62.999836 12.499867 M 64.000234 12.499867 L 67.000227 12.499867 M 68.000023 12.499867 L 68.99982 12.499867 M 3.999789 13.500266 L 6.999781 13.500266 M 8.00018 13.500266 L 9.999773 13.500266 M 11.000172 13.500266 L 14.000164 13.500266 M 15.999758 13.500266 L 17.999953 13.500266 M 18.99975 13.500266 L 23.000141 13.500266 M 24.999734 13.500266 L 27.999727 13.500266 M 29.000125 13.500266 L 29.999922 13.500266 M 32.000117 13.500266 L 32.999914 13.500266 M 35.999906 13.500266 L 41.999891 13.500266 M 46.000281 13.500266 L 47.000078 13.500266 M 47.999875 13.500266 L 49.000273 13.500266 M 50.999867 13.500266 L 52.000266 13.500266 M 53.000062 13.500266 L 53.999859 13.500266 M 56.000055 13.500266 L 59.000047 13.500266 M 59.999844 13.500266 L 61.000242 13.500266 M 62.999836 13.500266 L 65.000031 13.500266 M 68.99982 13.500266 L 71.000016 13.500266 M 71.999813 13.500266 L 73.000211 13.500266 M 3.999789 14.500063 L 5.999984 14.500063 M 6.999781 14.500063 L 8.999977 14.500063 M 9.999773 14.500063 L 11.999969 14.500063 M 12.999766 14.500063 L 14.000164 14.500063 M 17.000156 14.500063 L 20.999945 14.500063 M 23.000141 14.500063 L 23.999937 14.500063 M 26.000133 14.500063 L 27.999727 14.500063 M 29.999922 14.500063 L 35.000109 14.500063 M 35.999906 14.500063 L 36.999703 14.500063 M 40.000297 14.500063 L 41.000094 14.500063 M 47.999875 14.500063 L 49.000273 14.500063 M 55.000258 14.500063 L 56.999852 14.500063 M 58.00025 14.500063 L 59.999844 14.500063 M 62.000039 14.500063 L 64.000234 14.500063 M 67.000227 14.500063 L 68.000023 14.500063 M 70.000219 14.500063 L 71.000016 14.500063 M 71.999813 14.500063 L 73.000211 14.500063 M 3.999789 15.499859 L 5.000188 15.499859 M 5.999984 15.499859 L 6.999781 15.499859 M 14.000164 15.499859 L 14.999961 15.499859 M 15.999758 15.499859 L 20.000148 15.499859 M 20.999945 15.499859 L 21.999742 15.499859 M 23.999937 15.499859 L 26.99993 15.499859 M 29.999922 15.499859 L 33.999711 15.499859 M 38.999898 15.499859 L 40.000297 15.499859 M 41.000094 15.499859 L 43.000289 15.499859 M 47.000078 15.499859 L 47.999875 15.499859 M 50.00007 15.499859 L 50.999867 15.499859 M 53.999859 15.499859 L 55.000258 15.499859 M 56.999852 15.499859 L 61.000242 15.499859 M 62.000039 15.499859 L 62.999836 15.499859 M 65.000031 15.499859 L 65.999828 15.499859 M 67.000227 15.499859 L 68.000023 15.499859 M 3.999789 16.500258 L 6.999781 16.500258 M 9.999773 16.500258 L 12.999766 16.500258 M 14.000164 16.500258 L 14.999961 16.500258 M 15.999758 16.500258 L 20.000148 16.500258 M 20.999945 16.500258 L 21.999742 16.500258 M 23.000141 16.500258 L 23.999937 16.500258 M 29.000125 16.500258 L 36.999703 16.500258 M 40.000297 16.500258 L 41.000094 16.500258 M 41.999891 16.500258 L 43.000289 16.500258 M 44.999883 16.500258 L 46.000281 16.500258 M 47.999875 16.500258 L 53.999859 16.500258 M 59.000047 16.500258 L 59.999844 16.500258 M 61.000242 16.500258 L 62.000039 16.500258 M 65.000031 16.500258 L 67.000227 16.500258 M 70.000219 16.500258 L 71.000016 16.500258 M 71.999813 16.500258 L 73.000211 16.500258 M 3.999789 17.500055 L 5.000188 17.500055 M 5.999984 17.500055 L 6.999781 17.500055 M 8.00018 17.500055 L 8.999977 17.500055 M 11.000172 17.500055 L 11.999969 17.500055 M 14.000164 17.500055 L 14.999961 17.500055 M 15.999758 17.500055 L 17.000156 17.500055 M 18.99975 17.500055 L 20.000148 17.500055 M 23.000141 17.500055 L 26.000133 17.500055 M 26.99993 17.500055 L 27.999727 17.500055 M 30.999719 17.500055 L 33.999711 17.500055 M 35.000109 17.500055 L 35.999906 17.500055 M 36.999703 17.500055 L 38.999898 17.500055 M 40.000297 17.500055 L 43.000289 17.500055 M 44.000086 17.500055 L 44.999883 17.500055 M 47.000078 17.500055 L 50.00007 17.500055 M 50.999867 17.500055 L 55.000258 17.500055 M 59.999844 17.500055 L 62.000039 17.500055 M 65.000031 17.500055 L 68.000023 17.500055 M 68.99982 17.500055 L 70.000219 17.500055 M 3.999789 18.499852 L 5.000188 18.499852 M 6.999781 18.499852 L 8.00018 18.499852 M 8.999977 18.499852 L 11.000172 18.499852 M 12.999766 18.499852 L 17.999953 18.499852 M 18.99975 18.499852 L 20.999945 18.499852 M 21.999742 18.499852 L 23.000141 18.499852 M 26.000133 18.499852 L 29.000125 18.499852 M 30.999719 18.499852 L 32.000117 18.499852 M 32.999914 18.499852 L 35.999906 18.499852 M 38.000102 18.499852 L 38.999898 18.499852 M 41.000094 18.499852 L 43.000289 18.499852 M 44.000086 18.499852 L 44.999883 18.499852 M 47.000078 18.499852 L 47.999875 18.499852 M 49.000273 18.499852 L 50.00007 18.499852 M 53.000062 18.499852 L 56.999852 18.499852 M 58.00025 18.499852 L 59.000047 18.499852 M 61.000242 18.499852 L 62.000039 18.499852 M 64.000234 18.499852 L 65.000031 18.499852 M 65.999828 18.499852 L 67.000227 18.499852 M 68.000023 18.499852 L 68.99982 18.499852 M 3.999789 19.50025 L 6.999781 19.50025 M 8.00018 19.50025 L 9.999773 19.50025 M 12.999766 19.50025 L 14.000164 19.50025 M 14.999961 19.50025 L 18.99975 19.50025 M 20.999945 19.50025 L 23.999937 19.50025 M 24.999734 19.50025 L 26.000133 19.50025 M 27.999727 19.50025 L 29.999922 19.50025 M 33.999711 19.50025 L 38.999898 19.50025 M 40.000297 19.50025 L 41.000094 19.50025 M 46.000281 19.50025 L 49.000273 19.50025 M 50.00007 19.50025 L 52.000266 19.50025 M 53.000062 19.50025 L 53.999859 19.50025 M 55.000258 19.50025 L 59.000047 19.50025 M 59.999844 19.50025 L 62.000039 19.50025 M 64.000234 19.50025 L 65.000031 19.50025 M 67.000227 19.50025 L 68.000023 19.50025 M 71.999813 19.50025 L 73.000211 19.50025 M 3.999789 20.500047 L 8.00018 20.500047 M 9.999773 20.500047 L 11.000172 20.500047 M 11.999969 20.500047 L 14.000164 20.500047 M 17.999953 20.500047 L 18.99975 20.500047 M 20.999945 20.500047 L 24.999734 20.500047 M 27.999727 20.500047 L 30.999719 20.500047 M 33.999711 20.500047 L 35.000109 20.500047 M 36.999703 20.500047 L 38.999898 20.500047 M 41.000094 20.500047 L 41.999891 20.500047 M 43.000289 20.500047 L 46.000281 20.500047 M 47.999875 20.500047 L 52.000266 20.500047 M 58.00025 20.500047 L 61.000242 20.500047 M 62.000039 20.500047 L 65.999828 20.500047 M 67.000227 20.500047 L 68.000023 20.500047 M 68.99982 20.500047 L 71.000016 20.500047 M 71.999813 20.500047 L 73.000211 20.500047 M 3.999789 21.499844 L 5.000188 21.499844 M 5.999984 21.499844 L 8.00018 21.499844 M 8.999977 21.499844 L 9.999773 21.499844 M 11.000172 21.499844 L 11.999969 21.499844 M 14.999961 21.499844 L 17.000156 21.499844 M 17.999953 21.499844 L 20.000148 21.499844 M 21.999742 21.499844 L 24.999734 21.499844 M 26.000133 21.499844 L 26.99993 21.499844 M 32.999914 21.499844 L 33.999711 21.499844 M 35.000109 21.499844 L 35.999906 21.499844 M 40.000297 21.499844 L 41.999891 21.499844 M 43.000289 21.499844 L 50.999867 21.499844 M 53.000062 21.499844 L 53.999859 21.499844 M 55.000258 21.499844 L 56.999852 21.499844 M 61.000242 21.499844 L 64.000234 21.499844 M 65.000031 21.499844 L 65.999828 21.499844 M 71.999813 21.499844 L 73.000211 21.499844 M 3.999789 22.500242 L 5.000188 22.500242 M 6.999781 22.500242 L 8.00018 22.500242 M 8.999977 22.500242 L 11.000172 22.500242 M 11.999969 22.500242 L 14.999961 22.500242 M 15.999758 22.500242 L 17.999953 22.500242 M 20.999945 22.500242 L 24.999734 22.500242 M 26.99993 22.500242 L 27.999727 22.500242 M 29.000125 22.500242 L 29.999922 22.500242 M 30.999719 22.500242 L 32.999914 22.500242 M 35.000109 22.500242 L 36.999703 22.500242 M 38.000102 22.500242 L 38.999898 22.500242 M 40.000297 22.500242 L 44.000086 22.500242 M 44.999883 22.500242 L 46.000281 22.500242 M 50.00007 22.500242 L 53.000062 22.500242 M 53.999859 22.500242 L 55.000258 22.500242 M 59.999844 22.500242 L 62.999836 22.500242 M 65.999828 22.500242 L 68.000023 22.500242 M 68.99982 22.500242 L 71.999813 22.500242 M 5.000188 23.500039 L 8.00018 23.500039 M 8.999977 23.500039 L 9.999773 23.500039 M 12.999766 23.500039 L 15.999758 23.500039 M 17.000156 23.500039 L 18.99975 23.500039 M 23.000141 23.500039 L 24.999734 23.500039 M 26.000133 23.500039 L 26.99993 23.500039 M 29.999922 23.500039 L 32.999914 23.500039 M 35.000109 23.500039 L 35.999906 23.500039 M 38.000102 23.500039 L 38.999898 23.500039 M 40.000297 23.500039 L 41.999891 23.500039 M 43.000289 23.500039 L 44.000086 23.500039 M 44.999883 23.500039 L 47.000078 23.500039 M 50.999867 23.500039 L 53.000062 23.500039 M 53.999859 23.500039 L 58.00025 23.500039 M 59.000047 23.500039 L 59.999844 23.500039 M 61.000242 23.500039 L 62.000039 23.500039 M 64.000234 23.500039 L 65.999828 23.500039 M 67.000227 23.500039 L 68.99982 23.500039 M 71.999813 23.500039 L 73.000211 23.500039 M 3.999789 24.499836 L 5.000188 24.499836 M 8.999977 24.499836 L 11.000172 24.499836 M 11.999969 24.499836 L 14.000164 24.499836 M 14.999961 24.499836 L 15.999758 24.499836 M 17.000156 24.499836 L 17.999953 24.499836 M 20.000148 24.499836 L 21.999742 24.499836 M 23.000141 24.499836 L 24.999734 24.499836 M 26.99993 24.499836 L 30.999719 24.499836 M 35.999906 24.499836 L 36.999703 24.499836 M 38.000102 24.499836 L 38.999898 24.499836 M 41.999891 24.499836 L 43.000289 24.499836 M 44.000086 24.499836 L 44.999883 24.499836 M 46.000281 24.499836 L 47.000078 24.499836 M 49.000273 24.499836 L 52.000266 24.499836 M 53.000062 24.499836 L 53.999859 24.499836 M 55.000258 24.499836 L 56.999852 24.499836 M 58.00025 24.499836 L 59.000047 24.499836 M 62.000039 24.499836 L 65.999828 24.499836 M 67.000227 24.499836 L 68.99982 24.499836 M 70.000219 24.499836 L 71.000016 24.499836 M 3.999789 25.500234 L 5.000188 25.500234 M 5.999984 25.500234 L 6.999781 25.500234 M 11.999969 25.500234 L 12.999766 25.500234 M 14.000164 25.500234 L 15.999758 25.500234 M 17.000156 25.500234 L 17.999953 25.500234 M 20.000148 25.500234 L 20.999945 25.500234 M 21.999742 25.500234 L 26.99993 25.500234 M 27.999727 25.500234 L 29.000125 25.500234 M 30.999719 25.500234 L 35.000109 25.500234 M 35.999906 25.500234 L 38.999898 25.500234 M 41.000094 25.500234 L 47.000078 25.500234 M 49.000273 25.500234 L 50.00007 25.500234 M 50.999867 25.500234 L 52.000266 25.500234 M 53.000062 25.500234 L 53.999859 25.500234 M 56.000055 25.500234 L 59.999844 25.500234 M 62.999836 25.500234 L 65.999828 25.500234 M 67.000227 25.500234 L 68.000023 25.500234 M 71.999813 25.500234 L 73.000211 25.500234 M 3.999789 26.500031 L 8.999977 26.500031 M 9.999773 26.500031 L 11.000172 26.500031 M 14.000164 26.500031 L 17.000156 26.500031 M 20.999945 26.500031 L 23.999937 26.500031 M 24.999734 26.500031 L 29.000125 26.500031 M 30.999719 26.500031 L 33.999711 26.500031 M 35.999906 26.500031 L 36.999703 26.500031 M 38.000102 26.500031 L 38.999898 26.500031 M 43.000289 26.500031 L 46.000281 26.500031 M 47.000078 26.500031 L 50.00007 26.500031 M 52.000266 26.500031 L 53.000062 26.500031 M 55.000258 26.500031 L 56.000055 26.500031 M 56.999852 26.500031 L 59.999844 26.500031 M 61.000242 26.500031 L 62.999836 26.500031 M 65.000031 26.500031 L 65.999828 26.500031 M 67.000227 26.500031 L 68.000023 26.500031 M 71.000016 26.500031 L 73.000211 26.500031 M 3.999789 27.499828 L 5.000188 27.499828 M 5.999984 27.499828 L 9.999773 27.499828 M 11.000172 27.499828 L 12.999766 27.499828 M 14.000164 27.499828 L 14.999961 27.499828 M 17.000156 27.499828 L 17.999953 27.499828 M 18.99975 27.499828 L 24.999734 27.499828 M 27.999727 27.499828 L 29.999922 27.499828 M 30.999719 27.499828 L 32.000117 27.499828 M 33.999711 27.499828 L 35.000109 27.499828 M 38.000102 27.499828 L 38.999898 27.499828 M 40.000297 27.499828 L 41.000094 27.499828 M 44.000086 27.499828 L 46.000281 27.499828 M 49.000273 27.499828 L 53.000062 27.499828 M 55.000258 27.499828 L 56.000055 27.499828 M 56.999852 27.499828 L 58.00025 27.499828 M 59.999844 27.499828 L 62.000039 27.499828 M 62.999836 27.499828 L 64.000234 27.499828 M 68.99982 27.499828 L 70.000219 27.499828 M 3.999789 28.500227 L 5.000188 28.500227 M 6.999781 28.500227 L 11.999969 28.500227 M 12.999766 28.500227 L 15.999758 28.500227 M 18.99975 28.500227 L 20.999945 28.500227 M 23.000141 28.500227 L 24.999734 28.500227 M 26.99993 28.500227 L 27.999727 28.500227 M 32.999914 28.500227 L 33.999711 28.500227 M 35.000109 28.500227 L 35.999906 28.500227 M 36.999703 28.500227 L 38.000102 28.500227 M 40.000297 28.500227 L 41.000094 28.500227 M 41.999891 28.500227 L 43.000289 28.500227 M 44.000086 28.500227 L 44.999883 28.500227 M 46.000281 28.500227 L 47.999875 28.500227 M 49.000273 28.500227 L 53.999859 28.500227 M 56.999852 28.500227 L 59.999844 28.500227 M 62.000039 28.500227 L 64.000234 28.500227 M 65.000031 28.500227 L 65.999828 28.500227 M 71.000016 28.500227 L 71.999813 28.500227 M 8.00018 29.500023 L 9.999773 29.500023 M 11.000172 29.500023 L 14.000164 29.500023 M 14.999961 29.500023 L 17.000156 29.500023 M 18.99975 29.500023 L 20.000148 29.500023 M 20.999945 29.500023 L 21.999742 29.500023 M 23.000141 29.500023 L 23.999937 29.500023 M 24.999734 29.500023 L 26.000133 29.500023 M 26.99993 29.500023 L 27.999727 29.500023 M 30.999719 29.500023 L 32.000117 29.500023 M 33.999711 29.500023 L 35.000109 29.500023 M 35.999906 29.500023 L 38.999898 29.500023 M 40.000297 29.500023 L 41.000094 29.500023 M 43.000289 29.500023 L 47.000078 29.500023 M 49.000273 29.500023 L 50.00007 29.500023 M 53.999859 29.500023 L 56.000055 29.500023 M 56.999852 29.500023 L 58.00025 29.500023 M 59.999844 29.500023 L 62.000039 29.500023 M 65.000031 29.500023 L 68.99982 29.500023 M 70.000219 29.500023 L 71.000016 29.500023 M 3.999789 30.49982 L 8.00018 30.49982 M 8.999977 30.49982 L 11.000172 30.49982 M 12.999766 30.49982 L 20.000148 30.49982 M 20.999945 30.49982 L 21.999742 30.49982 M 23.000141 30.49982 L 24.999734 30.49982 M 26.000133 30.49982 L 26.99993 30.49982 M 27.999727 30.49982 L 29.999922 30.49982 M 32.999914 30.49982 L 35.000109 30.49982 M 38.000102 30.49982 L 40.000297 30.49982 M 41.999891 30.49982 L 44.000086 30.49982 M 46.000281 30.49982 L 50.00007 30.49982 M 53.000062 30.49982 L 55.000258 30.49982 M 56.999852 30.49982 L 59.999844 30.49982 M 61.000242 30.49982 L 62.000039 30.49982 M 65.999828 30.49982 L 67.000227 30.49982 M 68.000023 30.49982 L 70.000219 30.49982 M 5.000188 31.500219 L 5.999984 31.500219 M 6.999781 31.500219 L 8.00018 31.500219 M 11.000172 31.500219 L 15.999758 31.500219 M 17.999953 31.500219 L 21.999742 31.500219 M 23.000141 31.500219 L 24.999734 31.500219 M 26.99993 31.500219 L 29.000125 31.500219 M 29.999922 31.500219 L 32.999914 31.500219 M 33.999711 31.500219 L 35.999906 31.500219 M 36.999703 31.500219 L 41.999891 31.500219 M 43.000289 31.500219 L 49.000273 31.500219 M 55.000258 31.500219 L 59.000047 31.500219 M 62.000039 31.500219 L 65.000031 31.500219 M 67.000227 31.500219 L 71.000016 31.500219 M 3.999789 32.500016 L 5.999984 32.500016 M 9.999773 32.500016 L 11.999969 32.500016 M 14.000164 32.500016 L 20.000148 32.500016 M 21.999742 32.500016 L 23.999937 32.500016 M 26.000133 32.500016 L 29.000125 32.500016 M 30.999719 32.500016 L 32.000117 32.500016 M 32.999914 32.500016 L 33.999711 32.500016 M 35.000109 32.500016 L 38.000102 32.500016 M 38.999898 32.500016 L 40.000297 32.500016 M 41.000094 32.500016 L 41.999891 32.500016 M 46.000281 32.500016 L 49.000273 32.500016 M 53.000062 32.500016 L 56.000055 32.500016 M 58.00025 32.500016 L 59.999844 32.500016 M 61.000242 32.500016 L 64.000234 32.500016 M 65.000031 32.500016 L 68.000023 32.500016 M 70.000219 32.500016 L 71.000016 32.500016 M 71.999813 32.500016 L 73.000211 32.500016 M 3.999789 33.499812 L 5.000188 33.499812 M 6.999781 33.499812 L 9.999773 33.499812 M 11.000172 33.499812 L 11.999969 33.499812 M 12.999766 33.499812 L 14.000164 33.499812 M 18.99975 33.499812 L 20.000148 33.499812 M 20.999945 33.499812 L 21.999742 33.499812 M 23.000141 33.499812 L 23.999937 33.499812 M 26.99993 33.499812 L 27.999727 33.499812 M 32.000117 33.499812 L 33.999711 33.499812 M 35.000109 33.499812 L 40.000297 33.499812 M 41.999891 33.499812 L 43.000289 33.499812 M 46.000281 33.499812 L 47.000078 33.499812 M 49.000273 33.499812 L 50.999867 33.499812 M 52.000266 33.499812 L 53.999859 33.499812 M 55.000258 33.499812 L 56.000055 33.499812 M 59.000047 33.499812 L 65.999828 33.499812 M 68.000023 33.499812 L 70.000219 33.499812 M 71.999813 33.499812 L 73.000211 33.499812 M 6.999781 34.500211 L 8.00018 34.500211 M 8.999977 34.500211 L 11.000172 34.500211 M 11.999969 34.500211 L 12.999766 34.500211 M 15.999758 34.500211 L 17.000156 34.500211 M 18.99975 34.500211 L 20.999945 34.500211 M 21.999742 34.500211 L 24.999734 34.500211 M 26.99993 34.500211 L 29.999922 34.500211 M 30.999719 34.500211 L 32.999914 34.500211 M 35.999906 34.500211 L 38.000102 34.500211 M 41.999891 34.500211 L 43.000289 34.500211 M 44.999883 34.500211 L 47.000078 34.500211 M 50.00007 34.500211 L 52.000266 34.500211 M 53.000062 34.500211 L 53.999859 34.500211 M 56.000055 34.500211 L 56.999852 34.500211 M 59.000047 34.500211 L 61.000242 34.500211 M 62.000039 34.500211 L 62.999836 34.500211 M 65.000031 34.500211 L 65.999828 34.500211 M 67.000227 34.500211 L 71.999813 34.500211 M 5.000188 35.500008 L 8.999977 35.500008 M 11.999969 35.500008 L 14.999961 35.500008 M 17.999953 35.500008 L 18.99975 35.500008 M 20.999945 35.500008 L 21.999742 35.500008 M 23.000141 35.500008 L 24.999734 35.500008 M 26.000133 35.500008 L 29.000125 35.500008 M 29.999922 35.500008 L 30.999719 35.500008 M 32.999914 35.500008 L 33.999711 35.500008 M 36.999703 35.500008 L 40.000297 35.500008 M 41.999891 35.500008 L 43.000289 35.500008 M 44.999883 35.500008 L 46.000281 35.500008 M 47.999875 35.500008 L 49.000273 35.500008 M 50.999867 35.500008 L 53.999859 35.500008 M 56.000055 35.500008 L 58.00025 35.500008 M 59.000047 35.500008 L 59.999844 35.500008 M 64.000234 35.500008 L 65.000031 35.500008 M 68.000023 35.500008 L 68.99982 35.500008 M 71.000016 35.500008 L 73.000211 35.500008 M 5.999984 36.499805 L 6.999781 36.499805 M 8.00018 36.499805 L 17.000156 36.499805 M 18.99975 36.499805 L 20.000148 36.499805 M 26.000133 36.499805 L 26.99993 36.499805 M 27.999727 36.499805 L 29.999922 36.499805 M 32.000117 36.499805 L 41.999891 36.499805 M 43.000289 36.499805 L 46.000281 36.499805 M 47.000078 36.499805 L 49.000273 36.499805 M 50.999867 36.499805 L 52.000266 36.499805 M 53.999859 36.499805 L 55.000258 36.499805 M 56.000055 36.499805 L 56.999852 36.499805 M 61.000242 36.499805 L 62.000039 36.499805 M 64.000234 36.499805 L 71.000016 36.499805 M 71.999813 36.499805 L 73.000211 36.499805 M 6.999781 37.500203 L 8.999977 37.500203 M 11.999969 37.500203 L 14.000164 37.500203 M 14.999961 37.500203 L 15.999758 37.500203 M 18.99975 37.500203 L 21.999742 37.500203 M 23.000141 37.500203 L 24.999734 37.500203 M 26.000133 37.500203 L 26.99993 37.500203 M 29.000125 37.500203 L 33.999711 37.500203 M 35.999906 37.500203 L 36.999703 37.500203 M 40.000297 37.500203 L 41.999891 37.500203 M 44.999883 37.500203 L 46.000281 37.500203 M 47.000078 37.500203 L 47.999875 37.500203 M 50.999867 37.500203 L 53.000062 37.500203 M 55.000258 37.500203 L 59.999844 37.500203 M 62.999836 37.500203 L 65.000031 37.500203 M 68.000023 37.500203 L 71.000016 37.500203 M 71.999813 37.500203 L 73.000211 37.500203 M 3.999789 38.5 L 5.999984 38.5 M 6.999781 38.5 L 8.999977 38.5 M 9.999773 38.5 L 11.000172 38.5 M 11.999969 38.5 L 12.999766 38.5 M 14.999961 38.5 L 15.999758 38.5 M 17.000156 38.5 L 17.999953 38.5 M 20.999945 38.5 L 21.999742 38.5 M 23.000141 38.5 L 24.999734 38.5 M 29.000125 38.5 L 29.999922 38.5 M 32.000117 38.5 L 32.999914 38.5 M 33.999711 38.5 L 35.000109 38.5 M 35.999906 38.5 L 36.999703 38.5 M 38.000102 38.5 L 38.999898 38.5 M 40.000297 38.5 L 41.000094 38.5 M 43.000289 38.5 L 47.999875 38.5 M 50.00007 38.5 L 52.000266 38.5 M 56.000055 38.5 L 59.999844 38.5 M 64.000234 38.5 L 65.000031 38.5 M 65.999828 38.5 L 67.000227 38.5 M 68.000023 38.5 L 70.000219 38.5 M 71.999813 38.5 L 73.000211 38.5 M 3.999789 39.499797 L 6.999781 39.499797 M 8.00018 39.499797 L 8.999977 39.499797 M 11.999969 39.499797 L 14.000164 39.499797 M 14.999961 39.499797 L 17.000156 39.499797 M 20.000148 39.499797 L 20.999945 39.499797 M 21.999742 39.499797 L 24.999734 39.499797 M 26.000133 39.499797 L 26.99993 39.499797 M 29.999922 39.499797 L 35.000109 39.499797 M 35.999906 39.499797 L 36.999703 39.499797 M 40.000297 39.499797 L 41.999891 39.499797 M 44.999883 39.499797 L 46.000281 39.499797 M 49.000273 39.499797 L 50.00007 39.499797 M 50.999867 39.499797 L 53.000062 39.499797 M 53.999859 39.499797 L 55.000258 39.499797 M 56.000055 39.499797 L 56.999852 39.499797 M 59.000047 39.499797 L 61.000242 39.499797 M 64.000234 39.499797 L 65.000031 39.499797 M 68.000023 39.499797 L 70.000219 39.499797 M 71.000016 39.499797 L 73.000211 39.499797 M 5.000188 40.500195 L 5.999984 40.500195 M 6.999781 40.500195 L 14.999961 40.500195 M 15.999758 40.500195 L 17.000156 40.500195 M 17.999953 40.500195 L 20.999945 40.500195 M 23.000141 40.500195 L 24.999734 40.500195 M 26.000133 40.500195 L 29.000125 40.500195 M 29.999922 40.500195 L 32.999914 40.500195 M 33.999711 40.500195 L 41.000094 40.500195 M 44.000086 40.500195 L 44.999883 40.500195 M 47.000078 40.500195 L 53.000062 40.500195 M 56.000055 40.500195 L 59.999844 40.500195 M 64.000234 40.500195 L 68.99982 40.500195 M 71.000016 40.500195 L 71.999813 40.500195 M 3.999789 41.499992 L 5.000188 41.499992 M 6.999781 41.499992 L 9.999773 41.499992 M 11.000172 41.499992 L 11.999969 41.499992 M 12.999766 41.499992 L 14.000164 41.499992 M 14.999961 41.499992 L 20.000148 41.499992 M 20.999945 41.499992 L 21.999742 41.499992 M 23.000141 41.499992 L 24.999734 41.499992 M 27.999727 41.499992 L 29.999922 41.499992 M 32.000117 41.499992 L 33.999711 41.499992 M 35.999906 41.499992 L 36.999703 41.499992 M 38.000102 41.499992 L 40.000297 41.499992 M 41.000094 41.499992 L 44.999883 41.499992 M 47.000078 41.499992 L 50.999867 41.499992 M 53.000062 41.499992 L 55.000258 41.499992 M 56.000055 41.499992 L 58.00025 41.499992 M 61.000242 41.499992 L 62.000039 41.499992 M 62.999836 41.499992 L 64.000234 41.499992 M 65.999828 41.499992 L 68.000023 41.499992 M 70.000219 41.499992 L 71.000016 41.499992 M 3.999789 42.499789 L 5.000188 42.499789 M 8.00018 42.499789 L 11.000172 42.499789 M 11.999969 42.499789 L 17.999953 42.499789 M 18.99975 42.499789 L 20.000148 42.499789 M 20.999945 42.499789 L 21.999742 42.499789 M 23.999937 42.499789 L 29.000125 42.499789 M 29.999922 42.499789 L 32.000117 42.499789 M 32.999914 42.499789 L 33.999711 42.499789 M 38.000102 42.499789 L 40.000297 42.499789 M 43.000289 42.499789 L 47.000078 42.499789 M 50.00007 42.499789 L 52.000266 42.499789 M 53.999859 42.499789 L 56.000055 42.499789 M 56.999852 42.499789 L 58.00025 42.499789 M 59.999844 42.499789 L 61.000242 42.499789 M 62.999836 42.499789 L 64.000234 42.499789 M 68.99982 42.499789 L 71.000016 42.499789 M 8.00018 43.500188 L 8.999977 43.500188 M 11.999969 43.500188 L 14.000164 43.500188 M 17.999953 43.500188 L 18.99975 43.500188 M 20.000148 43.500188 L 21.999742 43.500188 M 26.000133 43.500188 L 27.999727 43.500188 M 30.999719 43.500188 L 32.000117 43.500188 M 32.999914 43.500188 L 33.999711 43.500188 M 35.000109 43.500188 L 35.999906 43.500188 M 36.999703 43.500188 L 40.000297 43.500188 M 41.000094 43.500188 L 44.000086 43.500188 M 44.999883 43.500188 L 46.000281 43.500188 M 47.000078 43.500188 L 52.000266 43.500188 M 53.000062 43.500188 L 53.999859 43.500188 M 55.000258 43.500188 L 56.999852 43.500188 M 58.00025 43.500188 L 59.000047 43.500188 M 59.999844 43.500188 L 62.000039 43.500188 M 62.999836 43.500188 L 64.000234 43.500188 M 65.000031 43.500188 L 68.000023 43.500188 M 68.99982 43.500188 L 71.999813 43.500188 M 3.999789 44.499984 L 5.000188 44.499984 M 5.999984 44.499984 L 6.999781 44.499984 M 9.999773 44.499984 L 11.000172 44.499984 M 12.999766 44.499984 L 14.999961 44.499984 M 15.999758 44.499984 L 17.999953 44.499984 M 20.999945 44.499984 L 21.999742 44.499984 M 23.000141 44.499984 L 27.999727 44.499984 M 29.999922 44.499984 L 32.000117 44.499984 M 32.999914 44.499984 L 33.999711 44.499984 M 36.999703 44.499984 L 38.000102 44.499984 M 40.000297 44.499984 L 41.999891 44.499984 M 43.000289 44.499984 L 44.000086 44.499984 M 44.999883 44.499984 L 47.000078 44.499984 M 53.999859 44.499984 L 56.000055 44.499984 M 58.00025 44.499984 L 59.000047 44.499984 M 59.999844 44.499984 L 62.000039 44.499984 M 62.999836 44.499984 L 65.999828 44.499984 M 67.000227 44.499984 L 71.999813 44.499984 M 3.999789 45.499781 L 5.000188 45.499781 M 5.999984 45.499781 L 6.999781 45.499781 M 8.00018 45.499781 L 8.999977 45.499781 M 14.000164 45.499781 L 14.999961 45.499781 M 15.999758 45.499781 L 20.000148 45.499781 M 20.999945 45.499781 L 23.999937 45.499781 M 26.000133 45.499781 L 30.999719 45.499781 M 32.999914 45.499781 L 33.999711 45.499781 M 36.999703 45.499781 L 38.000102 45.499781 M 41.999891 45.499781 L 44.000086 45.499781 M 47.000078 45.499781 L 47.999875 45.499781 M 50.999867 45.499781 L 53.000062 45.499781 M 56.000055 45.499781 L 56.999852 45.499781 M 61.000242 45.499781 L 62.999836 45.499781 M 65.000031 45.499781 L 65.999828 45.499781 M 67.000227 45.499781 L 68.99982 45.499781 M 70.000219 45.499781 L 71.000016 45.499781 M 71.999813 45.499781 L 73.000211 45.499781 M 3.999789 46.50018 L 5.000188 46.50018 M 6.999781 46.50018 L 8.999977 46.50018 M 9.999773 46.50018 L 15.999758 46.50018 M 17.000156 46.50018 L 18.99975 46.50018 M 20.000148 46.50018 L 23.000141 46.50018 M 23.999937 46.50018 L 24.999734 46.50018 M 26.000133 46.50018 L 26.99993 46.50018 M 29.000125 46.50018 L 30.999719 46.50018 M 32.000117 46.50018 L 33.999711 46.50018 M 38.000102 46.50018 L 38.999898 46.50018 M 41.999891 46.50018 L 43.000289 46.50018 M 44.000086 46.50018 L 50.00007 46.50018 M 50.999867 46.50018 L 52.000266 46.50018 M 53.999859 46.50018 L 55.000258 46.50018 M 56.000055 46.50018 L 58.00025 46.50018 M 61.000242 46.50018 L 64.000234 46.50018 M 65.000031 46.50018 L 65.999828 46.50018 M 68.000023 46.50018 L 68.99982 46.50018 M 70.000219 46.50018 L 71.000016 46.50018 M 3.999789 47.499977 L 5.000188 47.499977 M 5.999984 47.499977 L 8.00018 47.499977 M 11.999969 47.499977 L 12.999766 47.499977 M 14.000164 47.499977 L 17.000156 47.499977 M 23.999937 47.499977 L 24.999734 47.499977 M 26.000133 47.499977 L 26.99993 47.499977 M 27.999727 47.499977 L 30.999719 47.499977 M 32.999914 47.499977 L 33.999711 47.499977 M 35.000109 47.499977 L 40.000297 47.499977 M 41.999891 47.499977 L 47.000078 47.499977 M 47.999875 47.499977 L 49.000273 47.499977 M 50.00007 47.499977 L 52.000266 47.499977 M 55.000258 47.499977 L 58.00025 47.499977 M 59.000047 47.499977 L 59.999844 47.499977 M 5.000188 48.499773 L 5.999984 48.499773 M 9.999773 48.499773 L 11.000172 48.499773 M 14.000164 48.499773 L 15.999758 48.499773 M 17.000156 48.499773 L 17.999953 48.499773 M 20.999945 48.499773 L 21.999742 48.499773 M 27.999727 48.499773 L 30.999719 48.499773 M 32.999914 48.499773 L 33.999711 48.499773 M 36.999703 48.499773 L 38.000102 48.499773 M 38.999898 48.499773 L 41.000094 48.499773 M 46.000281 48.499773 L 47.999875 48.499773 M 49.000273 48.499773 L 50.00007 48.499773 M 50.999867 48.499773 L 53.000062 48.499773 M 55.000258 48.499773 L 59.000047 48.499773 M 61.000242 48.499773 L 62.999836 48.499773 M 64.000234 48.499773 L 65.000031 48.499773 M 65.999828 48.499773 L 67.000227 48.499773 M 68.99982 48.499773 L 71.000016 48.499773 M 71.999813 48.499773 L 73.000211 48.499773 M 3.999789 49.500172 L 6.999781 49.500172 M 11.000172 49.500172 L 11.999969 49.500172 M 12.999766 49.500172 L 14.999961 49.500172 M 15.999758 49.500172 L 18.99975 49.500172 M 20.000148 49.500172 L 24.999734 49.500172 M 26.000133 49.500172 L 26.99993 49.500172 M 27.999727 49.500172 L 29.000125 49.500172 M 30.999719 49.500172 L 32.000117 49.500172 M 35.999906 49.500172 L 38.000102 49.500172 M 41.000094 49.500172 L 41.999891 49.500172 M 44.000086 49.500172 L 44.999883 49.500172 M 46.000281 49.500172 L 47.000078 49.500172 M 47.999875 49.500172 L 50.999867 49.500172 M 56.999852 49.500172 L 59.999844 49.500172 M 61.000242 49.500172 L 62.000039 49.500172 M 65.999828 49.500172 L 67.000227 49.500172 M 68.99982 49.500172 L 73.000211 49.500172 M 8.999977 50.499969 L 11.999969 50.499969 M 12.999766 50.499969 L 14.999961 50.499969 M 17.999953 50.499969 L 18.99975 50.499969 M 20.000148 50.499969 L 20.999945 50.499969 M 21.999742 50.499969 L 23.999937 50.499969 M 27.999727 50.499969 L 29.000125 50.499969 M 32.999914 50.499969 L 35.000109 50.499969 M 40.000297 50.499969 L 41.999891 50.499969 M 44.000086 50.499969 L 44.999883 50.499969 M 46.000281 50.499969 L 47.999875 50.499969 M 49.000273 50.499969 L 50.00007 50.499969 M 52.000266 50.499969 L 53.000062 50.499969 M 55.000258 50.499969 L 62.000039 50.499969 M 62.999836 50.499969 L 65.000031 50.499969 M 65.999828 50.499969 L 68.99982 50.499969 M 71.000016 50.499969 L 73.000211 50.499969 M 3.999789 51.499766 L 8.00018 51.499766 M 11.999969 51.499766 L 12.999766 51.499766 M 14.999961 51.499766 L 15.999758 51.499766 M 17.999953 51.499766 L 21.999742 51.499766 M 23.999937 51.499766 L 24.999734 51.499766 M 26.99993 51.499766 L 29.000125 51.499766 M 30.999719 51.499766 L 32.999914 51.499766 M 33.999711 51.499766 L 35.000109 51.499766 M 35.999906 51.499766 L 36.999703 51.499766 M 38.000102 51.499766 L 38.999898 51.499766 M 40.000297 51.499766 L 44.000086 51.499766 M 46.000281 51.499766 L 47.000078 51.499766 M 52.000266 51.499766 L 53.000062 51.499766 M 53.999859 51.499766 L 55.000258 51.499766 M 56.000055 51.499766 L 58.00025 51.499766 M 59.000047 51.499766 L 62.999836 51.499766 M 64.000234 51.499766 L 68.000023 51.499766 M 3.999789 52.500164 L 5.000188 52.500164 M 9.999773 52.500164 L 11.000172 52.500164 M 11.999969 52.500164 L 14.000164 52.500164 M 17.000156 52.500164 L 18.99975 52.500164 M 23.000141 52.500164 L 24.999734 52.500164 M 26.000133 52.500164 L 26.99993 52.500164 M 29.000125 52.500164 L 29.999922 52.500164 M 30.999719 52.500164 L 32.000117 52.500164 M 33.999711 52.500164 L 35.999906 52.500164 M 36.999703 52.500164 L 43.000289 52.500164 M 44.000086 52.500164 L 44.999883 52.500164 M 47.000078 52.500164 L 49.000273 52.500164 M 50.999867 52.500164 L 55.000258 52.500164 M 56.999852 52.500164 L 58.00025 52.500164 M 59.000047 52.500164 L 59.999844 52.500164 M 61.000242 52.500164 L 62.000039 52.500164 M 64.000234 52.500164 L 65.999828 52.500164 M 67.000227 52.500164 L 70.000219 52.500164 M 71.000016 52.500164 L 71.999813 52.500164 M 3.999789 53.499961 L 6.999781 53.499961 M 8.999977 53.499961 L 9.999773 53.499961 M 11.000172 53.499961 L 12.999766 53.499961 M 14.000164 53.499961 L 14.999961 53.499961 M 17.000156 53.499961 L 17.999953 53.499961 M 21.999742 53.499961 L 23.999937 53.499961 M 24.999734 53.499961 L 26.000133 53.499961 M 26.99993 53.499961 L 29.999922 53.499961 M 32.000117 53.499961 L 32.999914 53.499961 M 35.999906 53.499961 L 36.999703 53.499961 M 41.000094 53.499961 L 41.999891 53.499961 M 46.000281 53.499961 L 47.000078 53.499961 M 50.00007 53.499961 L 55.000258 53.499961 M 56.000055 53.499961 L 56.999852 53.499961 M 61.000242 53.499961 L 62.000039 53.499961 M 62.999836 53.499961 L 65.000031 53.499961 M 65.999828 53.499961 L 68.000023 53.499961 M 68.99982 53.499961 L 70.000219 53.499961 M 71.000016 53.499961 L 71.999813 53.499961 M 3.999789 54.499758 L 5.000188 54.499758 M 8.00018 54.499758 L 8.999977 54.499758 M 9.999773 54.499758 L 11.000172 54.499758 M 12.999766 54.499758 L 15.999758 54.499758 M 17.999953 54.499758 L 24.999734 54.499758 M 26.000133 54.499758 L 26.99993 54.499758 M 27.999727 54.499758 L 30.999719 54.499758 M 33.999711 54.499758 L 40.000297 54.499758 M 41.999891 54.499758 L 44.000086 54.499758 M 44.999883 54.499758 L 46.000281 54.499758 M 49.000273 54.499758 L 50.00007 54.499758 M 50.999867 54.499758 L 55.000258 54.499758 M 56.000055 54.499758 L 56.999852 54.499758 M 58.00025 54.499758 L 59.999844 54.499758 M 61.000242 54.499758 L 62.000039 54.499758 M 68.000023 54.499758 L 68.99982 54.499758 M 3.999789 55.500156 L 5.000188 55.500156 M 6.999781 55.500156 L 8.999977 55.500156 M 11.000172 55.500156 L 12.999766 55.500156 M 14.999961 55.500156 L 15.999758 55.500156 M 18.99975 55.500156 L 20.000148 55.500156 M 20.999945 55.500156 L 21.999742 55.500156 M 23.999937 55.500156 L 26.000133 55.500156 M 29.999922 55.500156 L 30.999719 55.500156 M 32.000117 55.500156 L 32.999914 55.500156 M 33.999711 55.500156 L 35.000109 55.500156 M 35.999906 55.500156 L 36.999703 55.500156 M 40.000297 55.500156 L 41.999891 55.500156 M 44.000086 55.500156 L 44.999883 55.500156 M 46.000281 55.500156 L 47.999875 55.500156 M 49.000273 55.500156 L 50.00007 55.500156 M 50.999867 55.500156 L 52.000266 55.500156 M 53.999859 55.500156 L 55.000258 55.500156 M 56.000055 55.500156 L 59.000047 55.500156 M 59.999844 55.500156 L 61.000242 55.500156 M 62.999836 55.500156 L 64.000234 55.500156 M 65.000031 55.500156 L 67.000227 55.500156 M 68.000023 55.500156 L 71.999813 55.500156 M 3.999789 56.499953 L 5.999984 56.499953 M 9.999773 56.499953 L 12.999766 56.499953 M 14.999961 56.499953 L 17.000156 56.499953 M 17.999953 56.499953 L 18.99975 56.499953 M 20.000148 56.499953 L 21.999742 56.499953 M 23.000141 56.499953 L 23.999937 56.499953 M 24.999734 56.499953 L 26.99993 56.499953 M 27.999727 56.499953 L 29.999922 56.499953 M 32.000117 56.499953 L 32.999914 56.499953 M 38.000102 56.499953 L 38.999898 56.499953 M 40.000297 56.499953 L 41.000094 56.499953 M 41.999891 56.499953 L 43.000289 56.499953 M 44.999883 56.499953 L 46.000281 56.499953 M 47.000078 56.499953 L 50.999867 56.499953 M 53.000062 56.499953 L 55.000258 56.499953 M 59.999844 56.499953 L 61.000242 56.499953 M 62.999836 56.499953 L 64.000234 56.499953 M 65.000031 56.499953 L 65.999828 56.499953 M 68.000023 56.499953 L 73.000211 56.499953 M 5.000188 57.49975 L 6.999781 57.49975 M 8.999977 57.49975 L 9.999773 57.49975 M 11.000172 57.49975 L 12.999766 57.49975 M 14.000164 57.49975 L 15.999758 57.49975 M 17.999953 57.49975 L 20.000148 57.49975 M 20.999945 57.49975 L 24.999734 57.49975 M 26.000133 57.49975 L 26.99993 57.49975 M 27.999727 57.49975 L 29.000125 57.49975 M 30.999719 57.49975 L 33.999711 57.49975 M 35.000109 57.49975 L 36.999703 57.49975 M 38.999898 57.49975 L 41.000094 57.49975 M 41.999891 57.49975 L 49.000273 57.49975 M 50.00007 57.49975 L 52.000266 57.49975 M 55.000258 57.49975 L 58.00025 57.49975 M 62.000039 57.49975 L 65.000031 57.49975 M 65.999828 57.49975 L 73.000211 57.49975 M 5.000188 58.500148 L 5.999984 58.500148 M 6.999781 58.500148 L 8.999977 58.500148 M 9.999773 58.500148 L 11.999969 58.500148 M 12.999766 58.500148 L 14.999961 58.500148 M 15.999758 58.500148 L 17.999953 58.500148 M 18.99975 58.500148 L 20.000148 58.500148 M 20.999945 58.500148 L 24.999734 58.500148 M 26.000133 58.500148 L 26.99993 58.500148 M 27.999727 58.500148 L 30.999719 58.500148 M 32.000117 58.500148 L 32.999914 58.500148 M 35.999906 58.500148 L 36.999703 58.500148 M 38.999898 58.500148 L 43.000289 58.500148 M 44.000086 58.500148 L 44.999883 58.500148 M 47.999875 58.500148 L 49.000273 58.500148 M 50.00007 58.500148 L 50.999867 58.500148 M 52.000266 58.500148 L 53.000062 58.500148 M 53.999859 58.500148 L 56.999852 58.500148 M 59.999844 58.500148 L 64.000234 58.500148 M 65.000031 58.500148 L 65.999828 58.500148 M 67.000227 58.500148 L 68.99982 58.500148 M 70.000219 58.500148 L 71.000016 58.500148 M 5.000188 59.499945 L 8.999977 59.499945 M 11.999969 59.499945 L 12.999766 59.499945 M 17.000156 59.499945 L 17.999953 59.499945 M 18.99975 59.499945 L 20.999945 59.499945 M 21.999742 59.499945 L 23.000141 59.499945 M 26.000133 59.499945 L 29.999922 59.499945 M 32.000117 59.499945 L 32.999914 59.499945 M 33.999711 59.499945 L 35.999906 59.499945 M 36.999703 59.499945 L 38.000102 59.499945 M 38.999898 59.499945 L 40.000297 59.499945 M 47.999875 59.499945 L 50.999867 59.499945 M 52.000266 59.499945 L 53.000062 59.499945 M 55.000258 59.499945 L 56.999852 59.499945 M 61.000242 59.499945 L 62.000039 59.499945 M 64.000234 59.499945 L 65.999828 59.499945 M 67.000227 59.499945 L 68.000023 59.499945 M 71.999813 59.499945 L 73.000211 59.499945 M 3.999789 60.499742 L 6.999781 60.499742 M 8.00018 60.499742 L 11.000172 60.499742 M 12.999766 60.499742 L 14.000164 60.499742 M 17.000156 60.499742 L 17.999953 60.499742 M 18.99975 60.499742 L 20.000148 60.499742 M 20.999945 60.499742 L 21.999742 60.499742 M 23.000141 60.499742 L 23.999937 60.499742 M 24.999734 60.499742 L 29.000125 60.499742 M 29.999922 60.499742 L 30.999719 60.499742 M 32.000117 60.499742 L 32.999914 60.499742 M 35.999906 60.499742 L 36.999703 60.499742 M 38.000102 60.499742 L 40.000297 60.499742 M 41.999891 60.499742 L 43.000289 60.499742 M 44.999883 60.499742 L 47.000078 60.499742 M 55.000258 60.499742 L 58.00025 60.499742 M 62.000039 60.499742 L 62.999836 60.499742 M 65.999828 60.499742 L 67.000227 60.499742 M 68.000023 60.499742 L 68.99982 60.499742 M 70.000219 60.499742 L 71.000016 60.499742 M 71.999813 60.499742 L 73.000211 60.499742 M 3.999789 61.500141 L 5.000188 61.500141 M 5.999984 61.500141 L 6.999781 61.500141 M 8.00018 61.500141 L 8.999977 61.500141 M 11.999969 61.500141 L 12.999766 61.500141 M 14.000164 61.500141 L 15.999758 61.500141 M 18.99975 61.500141 L 23.999937 61.500141 M 26.000133 61.500141 L 26.99993 61.500141 M 29.000125 61.500141 L 36.999703 61.500141 M 40.000297 61.500141 L 44.000086 61.500141 M 44.999883 61.500141 L 46.000281 61.500141 M 47.000078 61.500141 L 49.000273 61.500141 M 50.00007 61.500141 L 53.999859 61.500141 M 55.000258 61.500141 L 59.999844 61.500141 M 62.999836 61.500141 L 67.000227 61.500141 M 68.000023 61.500141 L 71.000016 61.500141 M 71.999813 61.500141 L 73.000211 61.500141 M 3.999789 62.499938 L 5.000188 62.499938 M 5.999984 62.499938 L 6.999781 62.499938 M 8.00018 62.499938 L 12.999766 62.499938 M 14.000164 62.499938 L 14.999961 62.499938 M 15.999758 62.499938 L 17.000156 62.499938 M 18.99975 62.499938 L 20.000148 62.499938 M 23.000141 62.499938 L 24.999734 62.499938 M 26.99993 62.499938 L 29.000125 62.499938 M 29.999922 62.499938 L 30.999719 62.499938 M 35.000109 62.499938 L 35.999906 62.499938 M 36.999703 62.499938 L 38.000102 62.499938 M 40.000297 62.499938 L 41.999891 62.499938 M 44.000086 62.499938 L 44.999883 62.499938 M 47.000078 62.499938 L 47.999875 62.499938 M 49.000273 62.499938 L 50.00007 62.499938 M 55.000258 62.499938 L 56.000055 62.499938 M 58.00025 62.499938 L 61.000242 62.499938 M 62.000039 62.499938 L 67.000227 62.499938 M 68.000023 62.499938 L 68.99982 62.499938 M 71.000016 62.499938 L 73.000211 62.499938 M 3.999789 63.499734 L 5.000188 63.499734 M 11.000172 63.499734 L 14.000164 63.499734 M 14.999961 63.499734 L 15.999758 63.499734 M 20.999945 63.499734 L 23.999937 63.499734 M 29.000125 63.499734 L 29.999922 63.499734 M 32.000117 63.499734 L 33.999711 63.499734 M 35.000109 63.499734 L 40.000297 63.499734 M 41.000094 63.499734 L 43.000289 63.499734 M 44.999883 63.499734 L 50.00007 63.499734 M 50.999867 63.499734 L 53.000062 63.499734 M 55.000258 63.499734 L 56.000055 63.499734 M 59.000047 63.499734 L 61.000242 63.499734 M 62.000039 63.499734 L 65.000031 63.499734 M 65.999828 63.499734 L 68.000023 63.499734 M 68.99982 63.499734 L 70.000219 63.499734 M 71.000016 63.499734 L 71.999813 63.499734 M 3.999789 64.500133 L 5.000188 64.500133 M 6.999781 64.500133 L 8.999977 64.500133 M 9.999773 64.500133 L 11.000172 64.500133 M 12.999766 64.500133 L 14.000164 64.500133 M 17.000156 64.500133 L 17.999953 64.500133 M 18.99975 64.500133 L 20.999945 64.500133 M 23.999937 64.500133 L 24.999734 64.500133 M 26.000133 64.500133 L 26.99993 64.500133 M 27.999727 64.500133 L 29.999922 64.500133 M 30.999719 64.500133 L 32.999914 64.500133 M 35.999906 64.500133 L 41.999891 64.500133 M 47.000078 64.500133 L 47.999875 64.500133 M 50.00007 64.500133 L 53.999859 64.500133 M 56.999852 64.500133 L 59.000047 64.500133 M 64.000234 64.500133 L 70.000219 64.500133 M 71.000016 64.500133 L 71.999813 64.500133 M 11.999969 65.49993 L 12.999766 65.49993 M 14.000164 65.49993 L 15.999758 65.49993 M 17.000156 65.49993 L 17.999953 65.49993 M 18.99975 65.49993 L 20.000148 65.49993 M 21.999742 65.49993 L 23.999937 65.49993 M 26.000133 65.49993 L 26.99993 65.49993 M 27.999727 65.49993 L 29.999922 65.49993 M 32.000117 65.49993 L 33.999711 65.49993 M 35.999906 65.49993 L 36.999703 65.49993 M 40.000297 65.49993 L 43.000289 65.49993 M 44.000086 65.49993 L 44.999883 65.49993 M 46.000281 65.49993 L 50.00007 65.49993 M 50.999867 65.49993 L 52.000266 65.49993 M 53.999859 65.49993 L 56.000055 65.49993 M 59.000047 65.49993 L 59.999844 65.49993 M 61.000242 65.49993 L 62.000039 65.49993 M 62.999836 65.49993 L 65.000031 65.49993 M 68.000023 65.49993 L 70.000219 65.49993 M 3.999789 66.499727 L 11.000172 66.499727 M 11.999969 66.499727 L 12.999766 66.499727 M 17.000156 66.499727 L 18.99975 66.499727 M 20.000148 66.499727 L 20.999945 66.499727 M 21.999742 66.499727 L 27.999727 66.499727 M 30.999719 66.499727 L 32.000117 66.499727 M 32.999914 66.499727 L 33.999711 66.499727 M 35.000109 66.499727 L 36.999703 66.499727 M 38.000102 66.499727 L 38.999898 66.499727 M 40.000297 66.499727 L 41.000094 66.499727 M 43.000289 66.499727 L 44.999883 66.499727 M 46.000281 66.499727 L 47.999875 66.499727 M 52.000266 66.499727 L 53.000062 66.499727 M 53.999859 66.499727 L 59.999844 66.499727 M 61.000242 66.499727 L 62.000039 66.499727 M 62.999836 66.499727 L 65.000031 66.499727 M 65.999828 66.499727 L 67.000227 66.499727 M 68.000023 66.499727 L 68.99982 66.499727 M 3.999789 67.500125 L 5.000188 67.500125 M 9.999773 67.500125 L 11.000172 67.500125 M 12.999766 67.500125 L 14.999961 67.500125 M 15.999758 67.500125 L 17.000156 67.500125 M 20.000148 67.500125 L 20.999945 67.500125 M 21.999742 67.500125 L 23.999937 67.500125 M 29.000125 67.500125 L 29.999922 67.500125 M 32.000117 67.500125 L 33.999711 67.500125 M 35.000109 67.500125 L 36.999703 67.500125 M 40.000297 67.500125 L 41.000094 67.500125 M 44.000086 67.500125 L 44.999883 67.500125 M 46.000281 67.500125 L 47.000078 67.500125 M 47.999875 67.500125 L 49.000273 67.500125 M 50.00007 67.500125 L 52.000266 67.500125 M 53.000062 67.500125 L 59.000047 67.500125 M 59.999844 67.500125 L 62.000039 67.500125 M 62.999836 67.500125 L 65.000031 67.500125 M 68.000023 67.500125 L 73.000211 67.500125 M 3.999789 68.499922 L 5.000188 68.499922 M 5.999984 68.499922 L 8.999977 68.499922 M 9.999773 68.499922 L 11.000172 68.499922 M 14.000164 68.499922 L 14.999961 68.499922 M 20.999945 68.499922 L 21.999742 68.499922 M 23.000141 68.499922 L 23.999937 68.499922 M 24.999734 68.499922 L 26.000133 68.499922 M 27.999727 68.499922 L 32.000117 68.499922 M 35.000109 68.499922 L 41.000094 68.499922 M 41.999891 68.499922 L 43.000289 68.499922 M 46.000281 68.499922 L 47.999875 68.499922 M 49.000273 68.499922 L 50.999867 68.499922 M 55.000258 68.499922 L 56.000055 68.499922 M 56.999852 68.499922 L 58.00025 68.499922 M 59.000047 68.499922 L 62.000039 68.499922 M 62.999836 68.499922 L 68.99982 68.499922 M 70.000219 68.499922 L 73.000211 68.499922 M 3.999789 69.499719 L 5.000188 69.499719 M 5.999984 69.499719 L 8.999977 69.499719 M 9.999773 69.499719 L 11.000172 69.499719 M 11.999969 69.499719 L 15.999758 69.499719 M 17.000156 69.499719 L 23.000141 69.499719 M 23.999937 69.499719 L 24.999734 69.499719 M 29.000125 69.499719 L 29.999922 69.499719 M 32.000117 69.499719 L 33.999711 69.499719 M 41.999891 69.499719 L 43.000289 69.499719 M 44.000086 69.499719 L 44.999883 69.499719 M 47.000078 69.499719 L 47.999875 69.499719 M 49.000273 69.499719 L 52.000266 69.499719 M 55.000258 69.499719 L 58.00025 69.499719 M 62.000039 69.499719 L 65.000031 69.499719 M 65.999828 69.499719 L 67.000227 69.499719 M 68.99982 69.499719 L 70.000219 69.499719 M 71.000016 69.499719 L 71.999813 69.499719 M 3.999789 70.500117 L 5.000188 70.500117 M 5.999984 70.500117 L 8.999977 70.500117 M 9.999773 70.500117 L 11.000172 70.500117 M 11.999969 70.500117 L 14.000164 70.500117 M 20.999945 70.500117 L 23.000141 70.500117 M 26.99993 70.500117 L 27.999727 70.500117 M 29.000125 70.500117 L 29.999922 70.500117 M 32.000117 70.500117 L 33.999711 70.500117 M 35.000109 70.500117 L 36.999703 70.500117 M 38.999898 70.500117 L 40.000297 70.500117 M 41.999891 70.500117 L 43.000289 70.500117 M 44.000086 70.500117 L 44.999883 70.500117 M 46.000281 70.500117 L 47.000078 70.500117 M 47.999875 70.500117 L 49.000273 70.500117 M 50.999867 70.500117 L 53.000062 70.500117 M 53.999859 70.500117 L 59.999844 70.500117 M 61.000242 70.500117 L 65.000031 70.500117 M 68.99982 70.500117 L 71.000016 70.500117 M 3.999789 71.499914 L 5.000188 71.499914 M 9.999773 71.499914 L 11.000172 71.499914 M 12.999766 71.499914 L 14.999961 71.499914 M 15.999758 71.499914 L 18.99975 71.499914 M 20.999945 71.499914 L 23.000141 71.499914 M 27.999727 71.499914 L 30.999719 71.499914 M 32.999914 71.499914 L 33.999711 71.499914 M 35.999906 71.499914 L 36.999703 71.499914 M 38.999898 71.499914 L 40.000297 71.499914 M 44.000086 71.499914 L 44.999883 71.499914 M 46.000281 71.499914 L 47.000078 71.499914 M 50.999867 71.499914 L 53.000062 71.499914 M 53.999859 71.499914 L 55.000258 71.499914 M 56.999852 71.499914 L 58.00025 71.499914 M 59.000047 71.499914 L 59.999844 71.499914 M 62.000039 71.499914 L 64.000234 71.499914 M 65.000031 71.499914 L 67.000227 71.499914 M 68.000023 71.499914 L 68.99982 71.499914 M 71.999813 71.499914 L 73.000211 71.499914 M 3.999789 72.499711 L 11.000172 72.499711 M 14.999961 72.499711 L 15.999758 72.499711 M 17.999953 72.499711 L 20.000148 72.499711 M 21.999742 72.499711 L 23.000141 72.499711 M 23.999937 72.499711 L 24.999734 72.499711 M 26.000133 72.499711 L 29.000125 72.499711 M 29.999922 72.499711 L 32.999914 72.499711 M 33.999711 72.499711 L 36.999703 72.499711 M 38.000102 72.499711 L 41.000094 72.499711 M 43.000289 72.499711 L 44.000086 72.499711 M 46.000281 72.499711 L 49.000273 72.499711 M 50.999867 72.499711 L 52.000266 72.499711 M 55.000258 72.499711 L 59.000047 72.499711 M 61.000242 72.499711 L 64.000234 72.499711 M 65.000031 72.499711 L 68.000023 72.499711 M 70.000219 72.499711 L 71.000016 72.499711 " transform="matrix(6.493506,0,0,6.493506,0,0)"/>
</g>
</svg>
