<svg width="1440" height="841" viewBox="0 0 1440 841" fill="none" xmlns="http://www.w3.org/2000/svg">
<g clip-path="url(#clip0_40000001_3741)">
<rect width="1440" height="840" transform="translate(0 0.25)" fill="white"/>
<rect width="1440" height="52" transform="translate(0 0.25)" fill="#004D99"/>
<path d="M76.104 22.9L76.23 25.15C76.23 25.906 76.104 26.452 75.852 26.788C75.6 27.124 75.072 27.4 74.268 27.616C75.06 27.82 75.582 28.108 75.834 28.48C76.098 28.84 76.23 29.404 76.23 30.172L76.104 32.278C76.104 32.794 76.218 33.19 76.446 33.466C76.674 33.754 77.1 33.916 77.724 33.952V35.608C76.44 35.56 75.528 35.296 74.988 34.816C74.46 34.348 74.196 33.574 74.196 32.494L74.322 30.316C74.322 29.392 73.662 28.75 72.342 28.39V26.86C73.026 26.704 73.524 26.482 73.836 26.194C74.16 25.894 74.322 25.51 74.322 25.042L74.196 22.756C74.196 21.628 74.46 20.836 74.988 20.38C75.528 19.912 76.446 19.654 77.742 19.606L77.76 21.262C77.124 21.31 76.686 21.466 76.446 21.73C76.218 21.994 76.104 22.384 76.104 22.9ZM79.8556 33.25V20.92H87.6316V22.666H81.8536V26.158H86.5516V27.886H81.8536V31.486H87.6316V33.25H79.8556ZM91.5328 33.25H89.5708V24.25H91.5148V24.808C92.3908 24.304 93.2188 24.052 93.9988 24.052C95.1988 24.052 96.0148 24.394 96.4468 25.078C96.8908 25.75 97.1128 26.866 97.1128 28.426V33.25H95.1688V28.48C95.1688 27.508 95.0608 26.818 94.8448 26.41C94.6408 26.002 94.2148 25.798 93.5668 25.798C92.9548 25.798 92.3668 25.918 91.8028 26.158L91.5328 26.266V33.25ZM104.239 25.924H101.755V29.884C101.755 30.616 101.809 31.102 101.917 31.342C102.025 31.582 102.301 31.702 102.745 31.702L104.221 31.648L104.311 33.214C103.507 33.37 102.895 33.448 102.475 33.448C101.455 33.448 100.753 33.214 100.369 32.746C99.997 32.278 99.811 31.396 99.811 30.1V25.924H98.659V24.25H99.811V21.64H101.755V24.25H104.239V25.924ZM105.848 33.25V24.25H107.81V33.25H105.848ZM105.848 22.72V20.65H107.81V22.72H105.848ZM115.032 25.924H112.548V29.884C112.548 30.616 112.602 31.102 112.71 31.342C112.818 31.582 113.094 31.702 113.538 31.702L115.014 31.648L115.104 33.214C114.3 33.37 113.688 33.448 113.268 33.448C112.248 33.448 111.546 33.214 111.162 32.746C110.79 32.278 110.604 31.396 110.604 30.1V25.924H109.452V24.25H110.604V21.64H112.548V24.25H115.032V25.924ZM115.813 24.25H117.739L119.647 31.576H120.133L122.041 24.25H123.985L120.565 37.12H118.639L119.719 33.25H118.171L115.813 24.25ZM131.418 33.25H129.456V24.25H131.4V24.808C132.276 24.304 133.104 24.052 133.884 24.052C135.084 24.052 135.9 24.394 136.332 25.078C136.776 25.75 136.998 26.866 136.998 28.426V33.25H135.054V28.48C135.054 27.508 134.946 26.818 134.73 26.41C134.526 26.002 134.1 25.798 133.452 25.798C132.84 25.798 132.252 25.918 131.688 26.158L131.418 26.266V33.25ZM145.942 27.022V31.126C145.954 31.39 146.02 31.588 146.14 31.72C146.272 31.84 146.47 31.918 146.734 31.954L146.68 33.448C145.648 33.448 144.85 33.226 144.286 32.782C143.326 33.226 142.36 33.448 141.388 33.448C139.6 33.448 138.706 32.494 138.706 30.586C138.706 29.674 138.946 29.014 139.426 28.606C139.918 28.198 140.668 27.952 141.676 27.868L143.998 27.67V27.022C143.998 26.542 143.89 26.206 143.674 26.014C143.47 25.822 143.164 25.726 142.756 25.726C141.988 25.726 141.028 25.774 139.876 25.87L139.3 25.906L139.228 24.52C140.536 24.208 141.736 24.052 142.828 24.052C143.932 24.052 144.724 24.292 145.204 24.772C145.696 25.24 145.942 25.99 145.942 27.022ZM141.91 29.254C141.082 29.326 140.668 29.776 140.668 30.604C140.668 31.432 141.034 31.846 141.766 31.846C142.366 31.846 143.002 31.75 143.674 31.558L143.998 31.45V29.056L141.91 29.254ZM150.367 33.25H148.405V24.25H150.349V24.808C151.201 24.304 151.981 24.052 152.689 24.052C153.733 24.052 154.495 24.346 154.975 24.934C156.067 24.346 157.153 24.052 158.233 24.052C159.313 24.052 160.075 24.388 160.519 25.06C160.963 25.72 161.185 26.842 161.185 28.426V33.25H159.241V28.48C159.241 27.508 159.139 26.818 158.935 26.41C158.743 26.002 158.335 25.798 157.711 25.798C157.171 25.798 156.589 25.918 155.965 26.158L155.659 26.284C155.755 26.524 155.803 27.292 155.803 28.588V33.25H153.859V28.624C153.859 27.556 153.763 26.818 153.571 26.41C153.379 26.002 152.959 25.798 152.311 25.798C151.711 25.798 151.153 25.918 150.637 26.158L150.367 26.266V33.25ZM169.895 31.63L170.399 31.576L170.435 33.034C169.067 33.31 167.855 33.448 166.799 33.448C165.467 33.448 164.507 33.082 163.919 32.35C163.343 31.618 163.055 30.448 163.055 28.84C163.055 25.648 164.357 24.052 166.961 24.052C169.481 24.052 170.741 25.426 170.741 28.174L170.615 29.578H165.035C165.047 30.322 165.209 30.868 165.521 31.216C165.833 31.564 166.415 31.738 167.267 31.738C168.119 31.738 168.995 31.702 169.895 31.63ZM168.815 28.066C168.815 27.178 168.671 26.56 168.383 26.212C168.107 25.852 167.633 25.672 166.961 25.672C166.289 25.672 165.797 25.858 165.485 26.23C165.185 26.602 165.029 27.214 165.017 28.066H168.815ZM173.445 32.278L173.319 30.172C173.319 29.404 173.445 28.84 173.697 28.48C173.961 28.108 174.489 27.82 175.281 27.616C174.477 27.4 173.949 27.124 173.697 26.788C173.445 26.452 173.319 25.906 173.319 25.15L173.445 22.9C173.445 22.384 173.325 21.994 173.085 21.73C172.857 21.466 172.425 21.31 171.789 21.262L171.807 19.606C173.103 19.654 174.015 19.912 174.543 20.38C175.083 20.836 175.353 21.628 175.353 22.756L175.227 25.042C175.227 25.51 175.383 25.894 175.695 26.194C176.019 26.482 176.523 26.704 177.207 26.86V28.39C175.887 28.75 175.227 29.392 175.227 30.316L175.353 32.494C175.353 33.574 175.083 34.348 174.543 34.816C174.015 35.296 173.109 35.56 171.825 35.608V33.952C172.449 33.916 172.875 33.754 173.103 33.466C173.331 33.19 173.445 32.794 173.445 32.278Z" fill="white"/>
<path d="M72 35.23H75.1163V35.77H72V35.23ZM78.2666 35.23H118.476V35.77H78.2666V35.23ZM121.603 35.23H171.288V35.77H121.603V35.23ZM174.423 35.23H177.549V35.77H174.423V35.23Z" fill="white"/>
<g clip-path="url(#clip1_40000001_3741)">
<path d="M1322.11 31.25V21.66H1328.15V23.018H1323.66V25.734H1327.31V27.078H1323.66V29.878H1328.15V31.25H1322.11ZM1329.84 31.25V21.66H1332.56L1335.47 29.878H1335.68V21.66H1337.24V31.25H1334.58L1331.59 23.018H1331.4V31.25H1329.84ZM1343.35 27.582V26.21H1346.08V31.082C1345.83 31.1473 1345.31 31.2173 1344.54 31.292C1343.77 31.3667 1343.22 31.404 1342.87 31.404C1341.42 31.404 1340.41 31.0027 1339.86 30.2C1339.31 29.3973 1339.04 28.142 1339.04 26.434C1339.04 24.7167 1339.32 23.466 1339.88 22.682C1340.45 21.898 1341.43 21.506 1342.82 21.506C1343.64 21.506 1344.56 21.5993 1345.59 21.786L1346.08 21.884L1346.02 23.116C1344.89 22.9667 1343.88 22.892 1342.98 22.892C1342.09 22.892 1341.47 23.144 1341.14 23.648C1340.81 24.152 1340.65 25.0853 1340.65 26.448C1340.65 27.8107 1340.8 28.7533 1341.11 29.276C1341.43 29.7893 1342.06 30.046 1343.01 30.046C1343.69 30.046 1344.2 30.004 1344.54 29.92V27.582H1343.35Z" fill="white"/>
<path d="M1363 29.45L1357.4 23.85L1358.1 23.05L1363 27.95L1367.9 23.05L1368.6 23.85L1363 29.45Z" fill="white"/>
</g>
<rect width="1440" height="93" transform="translate(0 52.25)" fill="#F2F7FC"/>
<rect x="72.5" y="69.25" width="208.024" height="59" fill="#F2F7FC"/>
<rect x="72.5" y="69.25" width="208.024" height="59" stroke="#C5C7C9"/>
<line x1="73.1967" y1="69.6453" x2="280.122" y2="127.299" stroke="#C5C7C9"/>
<path d="M242.485 89.8694L245.964 97.7795L249.468 89.8694H253.765L247.991 101.222V107.643H243.95V101.222L238.164 89.8694H242.485Z" fill="black"/>
<path d="M232.074 89.8694V107.643H228.106V89.8694H232.074ZM237.481 89.8694V92.9578H222.809V89.8694H237.481Z" fill="black"/>
<path d="M220.952 89.8694V107.643H216.984V89.8694H220.952Z" fill="black"/>
<path d="M209.343 89.8694V107.643H205.376V89.8694H209.343ZM214.751 89.8694V92.9578H200.078V89.8694H214.751Z" fill="black"/>
<path d="M198.493 89.8694V107.643H194.525L187.812 96.156V107.643H183.832V89.8694H187.812L194.538 101.356V89.8694H198.493Z" fill="black"/>
<path d="M181.878 104.567V107.643H172.417V104.567H181.878ZM173.772 89.8694V107.643H169.793V89.8694H173.772ZM180.657 97.0227V100.001H172.417V97.0227H180.657ZM181.89 89.8694V92.9578H172.417V89.8694H181.89Z" fill="black"/>
<path d="M161.129 98.3655V99.1589C161.129 100.51 160.942 101.722 160.567 102.797C160.201 103.871 159.676 104.786 158.993 105.543C158.317 106.3 157.512 106.882 156.576 107.289C155.648 107.688 154.618 107.887 153.487 107.887C152.356 107.887 151.323 107.688 150.387 107.289C149.451 106.882 148.637 106.3 147.945 105.543C147.262 104.786 146.733 103.871 146.358 102.797C145.984 101.722 145.797 100.51 145.797 99.1589V98.3655C145.797 97.0146 145.984 95.802 146.358 94.7278C146.733 93.6454 147.258 92.7258 147.933 91.969C148.617 91.2122 149.426 90.6344 150.362 90.2356C151.298 89.8287 152.332 89.6252 153.463 89.6252C154.594 89.6252 155.628 89.8287 156.563 90.2356C157.499 90.6344 158.305 91.2122 158.98 91.969C159.664 92.7258 160.193 93.6454 160.567 94.7278C160.942 95.802 161.129 97.0146 161.129 98.3655ZM157.113 99.1589V98.3411C157.113 97.4377 157.031 96.6402 156.869 95.9485C156.706 95.2486 156.47 94.6627 156.161 94.1907C155.851 93.7187 155.469 93.3647 155.013 93.1287C154.557 92.8845 154.041 92.7625 153.463 92.7625C152.861 92.7625 152.336 92.8845 151.888 93.1287C151.441 93.3647 151.062 93.7187 150.753 94.1907C150.452 94.6627 150.22 95.2486 150.057 95.9485C149.903 96.6402 149.825 97.4377 149.825 98.3411V99.1589C149.825 100.054 149.903 100.852 150.057 101.552C150.22 102.243 150.456 102.829 150.765 103.309C151.074 103.789 151.453 104.152 151.9 104.396C152.356 104.64 152.885 104.762 153.487 104.762C154.065 104.762 154.578 104.64 155.025 104.396C155.481 104.152 155.864 103.789 156.173 103.309C156.482 102.829 156.714 102.243 156.869 101.552C157.031 100.852 157.113 100.054 157.113 99.1589Z" fill="black"/>
<path d="M143.584 98.2556V105.421C143.292 105.755 142.844 106.113 142.242 106.495C141.648 106.878 140.887 107.207 139.959 107.484C139.031 107.753 137.924 107.887 136.639 107.887C135.475 107.887 134.417 107.7 133.465 107.325C132.513 106.943 131.695 106.385 131.011 105.653C130.328 104.913 129.799 104.009 129.424 102.943C129.058 101.877 128.875 100.656 128.875 99.281V98.2312C128.875 96.8559 129.058 95.6352 129.424 94.5691C129.791 93.503 130.307 92.6038 130.975 91.8713C131.642 91.1308 132.435 90.5693 133.355 90.1868C134.275 89.8043 135.292 89.613 136.407 89.613C137.994 89.613 139.292 89.8694 140.301 90.3821C141.31 90.8866 142.075 91.5865 142.596 92.4817C143.125 93.3769 143.45 94.4063 143.572 95.5701H139.739C139.658 94.976 139.495 94.4633 139.251 94.032C139.015 93.6007 138.677 93.2711 138.238 93.0432C137.798 92.8072 137.229 92.6892 136.529 92.6892C135.967 92.6892 135.459 92.8072 135.003 93.0432C134.555 93.2711 134.177 93.6169 133.868 94.0808C133.558 94.5447 133.322 95.1225 133.16 95.8142C132.997 96.4978 132.916 97.2953 132.916 98.2068V99.281C132.916 100.192 132.997 100.994 133.16 101.686C133.331 102.378 133.579 102.955 133.904 103.419C134.23 103.875 134.641 104.221 135.137 104.457C135.642 104.693 136.228 104.811 136.895 104.811C137.416 104.811 137.855 104.77 138.213 104.689C138.571 104.599 138.864 104.489 139.092 104.359C139.32 104.221 139.491 104.095 139.605 103.981V101.027H136.443V98.2556H143.584Z" fill="black"/>
<path d="M126.824 98.3655V99.1589C126.824 100.51 126.637 101.722 126.263 102.797C125.896 103.871 125.372 104.786 124.688 105.543C124.013 106.3 123.207 106.882 122.271 107.289C121.343 107.688 120.314 107.887 119.183 107.887C118.051 107.887 117.018 107.688 116.082 107.289C115.146 106.882 114.332 106.3 113.641 105.543C112.957 104.786 112.428 103.871 112.054 102.797C111.679 101.722 111.492 100.51 111.492 99.1589V98.3655C111.492 97.0146 111.679 95.802 112.054 94.7278C112.428 93.6454 112.953 92.7258 113.628 91.969C114.312 91.2122 115.122 90.6344 116.058 90.2356C116.993 89.8287 118.027 89.6252 119.158 89.6252C120.289 89.6252 121.323 89.8287 122.259 90.2356C123.195 90.6344 124 91.2122 124.676 91.969C125.359 92.7258 125.888 93.6454 126.263 94.7278C126.637 95.802 126.824 97.0146 126.824 98.3655ZM122.808 99.1589V98.3411C122.808 97.4377 122.727 96.6402 122.564 95.9485C122.401 95.2486 122.165 94.6627 121.856 94.1907C121.547 93.7187 121.164 93.3647 120.708 93.1287C120.253 92.8845 119.736 92.7625 119.158 92.7625C118.556 92.7625 118.031 92.8845 117.583 93.1287C117.136 93.3647 116.757 93.7187 116.448 94.1907C116.147 94.6627 115.915 95.2486 115.752 95.9485C115.598 96.6402 115.521 97.4377 115.521 98.3411V99.1589C115.521 100.054 115.598 100.852 115.752 101.552C115.915 102.243 116.151 102.829 116.46 103.309C116.77 103.789 117.148 104.152 117.596 104.396C118.051 104.64 118.58 104.762 119.183 104.762C119.76 104.762 120.273 104.64 120.721 104.396C121.176 104.152 121.559 103.789 121.868 103.309C122.177 102.829 122.409 102.243 122.564 101.552C122.727 100.852 122.808 100.054 122.808 99.1589Z" fill="black"/>
<path d="M110.858 104.567V107.643H101.886V104.567H110.858ZM103.241 89.8694V107.643H99.2617V89.8694H103.241Z" fill="black"/>
<path d="M305.023 68.75V128.75" stroke="#C5C7C9" stroke-linejoin="round"/>
<rect width="146" height="48" transform="translate(329.023 74.75)" fill="#F6E4C8"/>
<path d="M354.6 95.75H347.688V83.42H349.686V93.968H354.6V95.75ZM356.483 87.722C357.107 86.942 358.139 86.552 359.579 86.552C361.019 86.552 362.045 86.942 362.657 87.722C363.281 88.502 363.593 89.672 363.593 91.232C363.593 92.792 363.293 93.968 362.693 94.76C362.093 95.552 361.055 95.948 359.579 95.948C358.103 95.948 357.065 95.552 356.465 94.76C355.865 93.968 355.565 92.792 355.565 91.232C355.565 89.672 355.871 88.502 356.483 87.722ZM357.959 93.572C358.235 94.052 358.775 94.292 359.579 94.292C360.383 94.292 360.923 94.052 361.199 93.572C361.475 93.092 361.613 92.306 361.613 91.214C361.613 90.122 361.463 89.348 361.163 88.892C360.875 88.436 360.347 88.208 359.579 88.208C358.811 88.208 358.277 88.436 357.977 88.892C357.689 89.348 357.545 90.122 357.545 91.214C357.545 92.306 357.683 93.092 357.959 93.572ZM373.408 96.974C373.408 98.942 371.986 99.926 369.142 99.926C367.774 99.926 366.76 99.74 366.1 99.368C365.44 98.996 365.11 98.318 365.11 97.334C365.11 96.89 365.218 96.506 365.434 96.182C365.65 95.87 365.998 95.528 366.478 95.156C366.082 94.892 365.884 94.454 365.884 93.842C365.884 93.602 366.046 93.212 366.37 92.672L366.532 92.402C365.668 91.886 365.236 90.986 365.236 89.702C365.236 88.622 365.56 87.83 366.208 87.326C366.856 86.822 367.732 86.57 368.836 86.57C369.364 86.57 369.886 86.63 370.402 86.75L370.672 86.804L373.462 86.732V88.316L371.968 88.226C372.292 88.646 372.454 89.138 372.454 89.702C372.454 90.878 372.154 91.694 371.554 92.15C370.966 92.594 370.042 92.816 368.782 92.816C368.47 92.816 368.206 92.792 367.99 92.744C367.822 93.152 367.738 93.47 367.738 93.698C367.738 93.914 367.846 94.064 368.062 94.148C368.29 94.232 368.83 94.28 369.682 94.292C371.11 94.304 372.088 94.496 372.616 94.868C373.144 95.24 373.408 95.942 373.408 96.974ZM367.036 97.154C367.036 97.574 367.204 97.874 367.54 98.054C367.876 98.234 368.452 98.324 369.268 98.324C370.72 98.324 371.446 97.91 371.446 97.082C371.446 96.614 371.314 96.314 371.05 96.182C370.798 96.062 370.288 95.996 369.52 95.984L367.756 95.876C367.492 96.092 367.306 96.29 367.198 96.47C367.09 96.662 367.036 96.89 367.036 97.154ZM367.18 89.702C367.18 90.254 367.312 90.662 367.576 90.926C367.84 91.178 368.266 91.304 368.854 91.304C369.442 91.304 369.862 91.178 370.114 90.926C370.378 90.662 370.51 90.254 370.51 89.702C370.51 89.15 370.378 88.748 370.114 88.496C369.85 88.232 369.424 88.1 368.836 88.1C367.732 88.1 367.18 88.634 367.18 89.702ZM375.485 87.722C376.109 86.942 377.141 86.552 378.581 86.552C380.021 86.552 381.047 86.942 381.659 87.722C382.283 88.502 382.595 89.672 382.595 91.232C382.595 92.792 382.295 93.968 381.695 94.76C381.095 95.552 380.057 95.948 378.581 95.948C377.105 95.948 376.067 95.552 375.467 94.76C374.867 93.968 374.567 92.792 374.567 91.232C374.567 89.672 374.873 88.502 375.485 87.722ZM376.961 93.572C377.237 94.052 377.777 94.292 378.581 94.292C379.385 94.292 379.925 94.052 380.201 93.572C380.477 93.092 380.615 92.306 380.615 91.214C380.615 90.122 380.465 89.348 380.165 88.892C379.877 88.436 379.349 88.208 378.581 88.208C377.813 88.208 377.279 88.436 376.979 88.892C376.691 89.348 376.547 90.122 376.547 91.214C376.547 92.306 376.685 93.092 376.961 93.572ZM388.733 95.75V83.42H390.731V95.75H388.733ZM392.379 85.202V83.42H401.379V85.202H397.905V95.75H395.889V85.202H392.379ZM401.645 91.79V90.008H407.027V91.79H401.645ZM408.256 83.42H410.362L412.126 94.022H412.504L414.844 83.456H417.184L419.524 94.022H419.92L421.684 83.42H423.79L421.36 95.75H418.138L416.014 85.868L413.908 95.75H410.668L408.256 83.42ZM431.809 89.522V93.626C431.821 93.89 431.887 94.088 432.007 94.22C432.139 94.34 432.337 94.418 432.601 94.454L432.547 95.948C431.515 95.948 430.717 95.726 430.153 95.282C429.193 95.726 428.227 95.948 427.255 95.948C425.467 95.948 424.573 94.994 424.573 93.086C424.573 92.174 424.813 91.514 425.293 91.106C425.785 90.698 426.535 90.452 427.543 90.368L429.865 90.17V89.522C429.865 89.042 429.757 88.706 429.541 88.514C429.337 88.322 429.031 88.226 428.623 88.226C427.855 88.226 426.895 88.274 425.743 88.37L425.167 88.406L425.095 87.02C426.403 86.708 427.603 86.552 428.695 86.552C429.799 86.552 430.591 86.792 431.071 87.272C431.563 87.74 431.809 88.49 431.809 89.522ZM427.777 91.754C426.949 91.826 426.535 92.276 426.535 93.104C426.535 93.932 426.901 94.346 427.633 94.346C428.233 94.346 428.869 94.25 429.541 94.058L429.865 93.95V91.556L427.777 91.754ZM434.38 95.75V83.006H436.342V95.75H434.38ZM438.933 95.75V83.006H440.895V95.75H438.933ZM449.785 94.13L450.289 94.076L450.325 95.534C448.957 95.81 447.745 95.948 446.689 95.948C445.357 95.948 444.397 95.582 443.809 94.85C443.233 94.118 442.945 92.948 442.945 91.34C442.945 88.148 444.247 86.552 446.851 86.552C449.371 86.552 450.631 87.926 450.631 90.674L450.505 92.078H444.925C444.937 92.822 445.099 93.368 445.411 93.716C445.723 94.064 446.305 94.238 447.157 94.238C448.009 94.238 448.885 94.202 449.785 94.13ZM448.705 90.566C448.705 89.678 448.561 89.06 448.273 88.712C447.997 88.352 447.523 88.172 446.851 88.172C446.179 88.172 445.687 88.358 445.375 88.73C445.075 89.102 444.919 89.714 444.907 90.566H448.705ZM457.36 88.424H454.876V92.384C454.876 93.116 454.93 93.602 455.038 93.842C455.146 94.082 455.422 94.202 455.866 94.202L457.342 94.148L457.432 95.714C456.628 95.87 456.016 95.948 455.596 95.948C454.576 95.948 453.874 95.714 453.49 95.246C453.118 94.778 452.932 93.896 452.932 92.6V88.424H451.78V86.75H452.932V84.14H454.876V86.75H457.36V88.424ZM378.323 104.968C376.799 104.968 376.037 105.502 376.037 106.57C376.037 107.122 376.217 107.518 376.577 107.758C376.937 107.986 377.729 108.274 378.953 108.622C380.189 108.958 381.059 109.366 381.563 109.846C382.067 110.314 382.319 111.058 382.319 112.078C382.319 113.374 381.947 114.346 381.203 114.994C380.471 115.63 379.469 115.948 378.197 115.948C377.177 115.948 376.049 115.828 374.813 115.588L374.165 115.462L374.363 113.86C375.983 114.076 377.219 114.184 378.071 114.184C379.559 114.184 380.303 113.524 380.303 112.204C380.303 111.688 380.135 111.31 379.799 111.07C379.463 110.818 378.707 110.548 377.531 110.26C376.355 109.96 375.479 109.552 374.903 109.036C374.327 108.52 374.039 107.704 374.039 106.588C374.039 105.472 374.399 104.632 375.119 104.068C375.851 103.492 376.859 103.204 378.143 103.204C379.067 103.204 380.159 103.312 381.419 103.528L382.049 103.636L381.887 105.256C380.207 105.064 379.019 104.968 378.323 104.968ZM383.276 106.75H385.202L387.11 114.076H387.596L389.504 106.75H391.448L388.028 119.62H386.102L387.182 115.75H385.634L383.276 106.75ZM399.086 108.604C397.67 108.412 396.644 108.316 396.008 108.316C395.372 108.316 394.928 108.394 394.676 108.55C394.436 108.694 394.316 108.928 394.316 109.252C394.316 109.576 394.448 109.804 394.712 109.936C394.988 110.068 395.624 110.224 396.62 110.404C397.628 110.572 398.342 110.842 398.762 111.214C399.182 111.586 399.392 112.246 399.392 113.194C399.392 114.142 399.086 114.838 398.474 115.282C397.874 115.726 396.992 115.948 395.828 115.948C395.096 115.948 394.172 115.846 393.056 115.642L392.498 115.552L392.57 113.914C394.01 114.106 395.048 114.202 395.684 114.202C396.32 114.202 396.77 114.124 397.034 113.968C397.31 113.812 397.448 113.554 397.448 113.194C397.448 112.834 397.316 112.588 397.052 112.456C396.8 112.312 396.182 112.162 395.198 112.006C394.226 111.838 393.512 111.58 393.056 111.232C392.6 110.884 392.372 110.248 392.372 109.324C392.372 108.4 392.684 107.71 393.308 107.254C393.944 106.798 394.754 106.57 395.738 106.57C396.506 106.57 397.448 106.666 398.564 106.858L399.122 106.966L399.086 108.604ZM406.12 108.424H403.636V112.384C403.636 113.116 403.69 113.602 403.798 113.842C403.906 114.082 404.182 114.202 404.626 114.202L406.102 114.148L406.192 115.714C405.388 115.87 404.776 115.948 404.356 115.948C403.336 115.948 402.634 115.714 402.25 115.246C401.878 114.778 401.692 113.896 401.692 112.6V108.424H400.54V106.75H401.692V104.14H403.636V106.75H406.12V108.424ZM414.137 114.13L414.641 114.076L414.677 115.534C413.309 115.81 412.097 115.948 411.041 115.948C409.709 115.948 408.749 115.582 408.161 114.85C407.585 114.118 407.297 112.948 407.297 111.34C407.297 108.148 408.599 106.552 411.203 106.552C413.723 106.552 414.983 107.926 414.983 110.674L414.857 112.078H409.277C409.289 112.822 409.451 113.368 409.763 113.716C410.075 114.064 410.657 114.238 411.509 114.238C412.361 114.238 413.237 114.202 414.137 114.13ZM413.057 110.566C413.057 109.678 412.913 109.06 412.625 108.712C412.349 108.352 411.875 108.172 411.203 108.172C410.531 108.172 410.039 108.358 409.727 108.73C409.427 109.102 409.271 109.714 409.259 110.566H413.057ZM418.832 115.75H416.87V106.75H418.814V107.308C419.666 106.804 420.446 106.552 421.154 106.552C422.198 106.552 422.96 106.846 423.44 107.434C424.532 106.846 425.618 106.552 426.698 106.552C427.778 106.552 428.54 106.888 428.984 107.56C429.428 108.22 429.65 109.342 429.65 110.926V115.75H427.706V110.98C427.706 110.008 427.604 109.318 427.4 108.91C427.208 108.502 426.8 108.298 426.176 108.298C425.636 108.298 425.054 108.418 424.43 108.658L424.124 108.784C424.22 109.024 424.268 109.792 424.268 111.088V115.75H422.324V111.124C422.324 110.056 422.228 109.318 422.036 108.91C421.844 108.502 421.424 108.298 420.776 108.298C420.176 108.298 419.618 108.418 419.102 108.658L418.832 108.766V115.75Z" fill="black"/>
<rect width="1440" height="441" transform="translate(0 257.25)" fill="white"/>
<path d="M515.707 319.898C513.446 320.389 511.408 320.634 509.595 320.634C507.782 320.634 506.331 320.41 505.243 319.962C504.155 319.514 503.302 318.799 502.683 317.818C502.064 316.837 501.638 315.685 501.403 314.362C501.168 313.039 501.051 311.375 501.051 309.37C501.051 305.167 501.638 302.245 502.811 300.602C504.006 298.938 506.192 298.106 509.371 298.106C511.206 298.106 513.328 298.394 515.739 298.97L515.611 302.49C513.499 302.17 511.739 302.01 510.331 302.01C508.944 302.01 507.952 302.202 507.355 302.586C506.758 302.949 506.31 303.653 506.011 304.698C505.734 305.743 505.595 307.525 505.595 310.042C505.595 312.559 505.883 314.309 506.459 315.29C507.056 316.25 508.23 316.73 509.979 316.73C511.75 316.73 513.627 316.581 515.611 316.282L515.707 319.898ZM519.52 306.074C520.651 304.602 522.539 303.866 525.184 303.866C527.829 303.866 529.717 304.602 530.848 306.074C531.979 307.525 532.544 309.573 532.544 312.218C532.544 317.829 530.091 320.634 525.184 320.634C520.277 320.634 517.824 317.829 517.824 312.218C517.824 309.573 518.389 307.525 519.52 306.074ZM522.816 315.834C523.264 316.602 524.053 316.986 525.184 316.986C526.315 316.986 527.093 316.602 527.52 315.834C527.968 315.066 528.192 313.861 528.192 312.218C528.192 310.575 527.968 309.381 527.52 308.634C527.093 307.887 526.315 307.514 525.184 307.514C524.053 307.514 523.264 307.887 522.816 308.634C522.389 309.381 522.176 310.575 522.176 312.218C522.176 313.861 522.389 315.066 522.816 315.834ZM539.975 320.25H535.687V304.25H539.943V305.146C541.394 304.293 542.727 303.866 543.943 303.866C546.076 303.866 547.548 304.495 548.359 305.754C549.17 307.013 549.575 308.954 549.575 311.578V320.25H545.287V311.706C545.287 310.341 545.127 309.338 544.807 308.698C544.487 308.037 543.847 307.706 542.887 307.706C542.012 307.706 541.17 307.855 540.359 308.154L539.975 308.282V320.25ZM562.239 307.898H558.303V314.458C558.303 315.098 558.313 315.557 558.335 315.834C558.377 316.09 558.495 316.314 558.687 316.506C558.9 316.698 559.22 316.794 559.647 316.794L562.079 316.73L562.271 320.154C560.841 320.474 559.753 320.634 559.007 320.634C557.087 320.634 555.775 320.207 555.071 319.354C554.367 318.479 554.015 316.879 554.015 314.554V307.898H552.127V304.25H554.015V299.802H558.303V304.25H562.239V307.898ZM565.031 320.25V304.25H569.319V320.25H565.031ZM565.031 302.202V297.85H569.319V302.202H565.031ZM577.569 320.25H573.281V304.25H577.537V305.146C578.988 304.293 580.321 303.866 581.537 303.866C583.67 303.866 585.142 304.495 585.953 305.754C586.764 307.013 587.169 308.954 587.169 311.578V320.25H582.881V311.706C582.881 310.341 582.721 309.338 582.401 308.698C582.081 308.037 581.441 307.706 580.481 307.706C579.606 307.706 578.764 307.855 577.953 308.154L577.569 308.282V320.25ZM600.408 304.25H604.696V320.25H600.44V319.354C598.904 320.207 597.571 320.634 596.44 320.634C594.222 320.634 592.728 320.026 591.96 318.81C591.192 317.573 590.808 315.514 590.808 312.634V304.25H595.096V312.698C595.096 314.277 595.224 315.354 595.48 315.93C595.736 316.506 596.355 316.794 597.336 316.794C598.275 316.794 599.16 316.645 599.992 316.346L600.408 316.218V304.25ZM612.176 314.074C612.197 315.055 612.453 315.77 612.944 316.218C613.456 316.645 614.181 316.858 615.12 316.858C617.104 316.858 618.875 316.794 620.432 316.666L621.328 316.57L621.392 319.738C618.939 320.335 616.72 320.634 614.736 320.634C612.325 320.634 610.576 319.994 609.488 318.714C608.4 317.434 607.856 315.354 607.856 312.474C607.856 306.735 610.213 303.866 614.928 303.866C619.579 303.866 621.904 306.277 621.904 311.098L621.584 314.074H612.176ZM617.68 310.81C617.68 309.53 617.477 308.645 617.072 308.154C616.667 307.642 615.952 307.386 614.928 307.386C613.925 307.386 613.211 307.653 612.784 308.186C612.379 308.698 612.165 309.573 612.144 310.81H617.68ZM632.864 306.074C633.994 304.602 635.882 303.866 638.528 303.866C641.173 303.866 643.061 304.602 644.192 306.074C645.322 307.525 645.888 309.573 645.888 312.218C645.888 317.829 643.434 320.634 638.528 320.634C633.621 320.634 631.168 317.829 631.168 312.218C631.168 309.573 631.733 307.525 632.864 306.074ZM636.16 315.834C636.608 316.602 637.397 316.986 638.528 316.986C639.658 316.986 640.437 316.602 640.864 315.834C641.312 315.066 641.536 313.861 641.536 312.218C641.536 310.575 641.312 309.381 640.864 308.634C640.437 307.887 639.658 307.514 638.528 307.514C637.397 307.514 636.608 307.887 636.16 308.634C635.733 309.381 635.52 310.575 635.52 312.218C635.52 313.861 635.733 315.066 636.16 315.834ZM653.319 320.25H649.031V304.25H653.287V305.146C654.738 304.293 656.071 303.866 657.287 303.866C659.42 303.866 660.892 304.495 661.703 305.754C662.514 307.013 662.919 308.954 662.919 311.578V320.25H658.631V311.706C658.631 310.341 658.471 309.338 658.151 308.698C657.831 308.037 657.191 307.706 656.231 307.706C655.356 307.706 654.514 307.855 653.703 308.154L653.319 308.282V320.25ZM682.614 307.898H678.678V314.458C678.678 315.098 678.688 315.557 678.71 315.834C678.752 316.09 678.87 316.314 679.062 316.506C679.275 316.698 679.595 316.794 680.022 316.794L682.454 316.73L682.646 320.154C681.216 320.474 680.128 320.634 679.382 320.634C677.462 320.634 676.15 320.207 675.446 319.354C674.742 318.479 674.39 316.879 674.39 314.554V307.898H672.502V304.25H674.39V299.802H678.678V304.25H682.614V307.898ZM689.694 320.25H685.406V297.85H689.694V305.018C691.166 304.25 692.489 303.866 693.662 303.866C695.795 303.866 697.267 304.495 698.078 305.754C698.889 307.013 699.294 308.954 699.294 311.578V320.25H695.006V311.674C695.006 310.33 694.846 309.338 694.526 308.698C694.206 308.037 693.566 307.706 692.606 307.706C691.774 307.706 690.942 307.834 690.11 308.09L689.694 308.218V320.25ZM706.613 314.074C706.635 315.055 706.891 315.77 707.381 316.218C707.893 316.645 708.619 316.858 709.557 316.858C711.541 316.858 713.312 316.794 714.869 316.666L715.765 316.57L715.829 319.738C713.376 320.335 711.157 320.634 709.173 320.634C706.763 320.634 705.013 319.994 703.925 318.714C702.837 317.434 702.293 315.354 702.293 312.474C702.293 306.735 704.651 303.866 709.365 303.866C714.016 303.866 716.341 306.277 716.341 311.098L716.021 314.074H706.613ZM712.117 310.81C712.117 309.53 711.915 308.645 711.509 308.154C711.104 307.642 710.389 307.386 709.365 307.386C708.363 307.386 707.648 307.653 707.221 308.186C706.816 308.698 706.603 309.573 706.581 310.81H712.117ZM732.485 301.818L732.709 305.914C732.709 307.258 732.485 308.218 732.037 308.794C731.61 309.37 730.64 309.839 729.125 310.202C730.618 310.565 731.589 311.077 732.037 311.738C732.506 312.378 732.741 313.381 732.741 314.746L732.517 318.49C732.517 319.215 732.666 319.781 732.965 320.186C733.285 320.591 733.893 320.826 734.789 320.89V324.538C732.421 324.453 730.746 323.994 729.765 323.162C728.805 322.33 728.325 320.954 728.325 319.034L728.549 315.162C728.549 313.605 727.354 312.517 724.965 311.898V308.57C727.354 308.015 728.549 307.013 728.549 305.562L728.325 301.498C728.325 299.471 728.805 298.053 729.765 297.242C730.746 296.431 732.442 295.983 734.853 295.898V299.546C733.936 299.631 733.306 299.855 732.965 300.218C732.645 300.581 732.485 301.114 732.485 301.818ZM749.881 309.242V315.898C749.923 316.41 750.009 316.773 750.137 316.986C750.265 317.178 750.531 317.317 750.937 317.402L750.809 320.634C749.721 320.634 748.846 320.559 748.185 320.41C747.545 320.261 746.894 319.962 746.233 319.514C744.697 320.261 743.129 320.634 741.529 320.634C738.222 320.634 736.569 318.885 736.569 315.386C736.569 313.679 737.027 312.474 737.945 311.77C738.862 311.045 740.27 310.618 742.169 310.49L745.593 310.234V309.242C745.593 308.581 745.443 308.133 745.145 307.898C744.846 307.642 744.366 307.514 743.705 307.514L737.689 307.77L737.561 304.794C739.843 304.175 742.009 303.866 744.057 303.866C746.126 303.866 747.609 304.293 748.505 305.146C749.422 305.999 749.881 307.365 749.881 309.242ZM742.681 313.466C741.486 313.573 740.889 314.213 740.889 315.386C740.889 316.559 741.411 317.146 742.457 317.146C743.267 317.146 744.153 317.018 745.113 316.762L745.593 316.634V313.21L742.681 313.466ZM753.968 326.97V304.25H758.224V305.114C759.611 304.282 760.827 303.866 761.872 303.866C764.027 303.866 765.616 304.517 766.64 305.818C767.664 307.098 768.176 309.285 768.176 312.378C768.176 315.471 767.611 317.626 766.48 318.842C765.35 320.037 763.494 320.634 760.912 320.634C760.208 320.634 759.451 320.57 758.64 320.442L758.256 320.378V326.97H753.968ZM761.04 307.706C760.251 307.706 759.451 307.866 758.64 308.186L758.256 308.346V316.73C759.216 316.858 759.995 316.922 760.592 316.922C761.83 316.922 762.672 316.559 763.12 315.834C763.59 315.109 763.824 313.871 763.824 312.122C763.824 309.178 762.896 307.706 761.04 307.706ZM771.375 326.97V304.25H775.631V305.114C777.017 304.282 778.233 303.866 779.279 303.866C781.433 303.866 783.023 304.517 784.047 305.818C785.071 307.098 785.583 309.285 785.583 312.378C785.583 315.471 785.017 317.626 783.887 318.842C782.756 320.037 780.9 320.634 778.319 320.634C777.615 320.634 776.857 320.57 776.047 320.442L775.663 320.378V326.97H771.375ZM778.447 307.706C777.657 307.706 776.857 307.866 776.047 308.186L775.663 308.346V316.73C776.623 316.858 777.401 316.922 777.999 316.922C779.236 316.922 780.079 316.559 780.527 315.834C780.996 315.109 781.231 313.871 781.231 312.122C781.231 309.178 780.303 307.706 778.447 307.706ZM800.1 320.25H795.812V304.25H800.068V305.146C801.519 304.293 802.852 303.866 804.068 303.866C806.201 303.866 807.673 304.495 808.484 305.754C809.295 307.013 809.7 308.954 809.7 311.578V320.25H805.412V311.706C805.412 310.341 805.252 309.338 804.932 308.698C804.612 308.037 803.972 307.706 803.012 307.706C802.137 307.706 801.295 307.855 800.484 308.154L800.1 308.282V320.25ZM825.756 309.242V315.898C825.798 316.41 825.884 316.773 826.012 316.986C826.14 317.178 826.406 317.317 826.812 317.402L826.684 320.634C825.596 320.634 824.721 320.559 824.06 320.41C823.42 320.261 822.769 319.962 822.108 319.514C820.572 320.261 819.004 320.634 817.404 320.634C814.097 320.634 812.444 318.885 812.444 315.386C812.444 313.679 812.902 312.474 813.82 311.77C814.737 311.045 816.145 310.618 818.044 310.49L821.468 310.234V309.242C821.468 308.581 821.318 308.133 821.02 307.898C820.721 307.642 820.241 307.514 819.58 307.514L813.564 307.77L813.436 304.794C815.718 304.175 817.884 303.866 819.932 303.866C822.001 303.866 823.484 304.293 824.38 305.146C825.297 305.999 825.756 307.365 825.756 309.242ZM818.556 313.466C817.361 313.573 816.764 314.213 816.764 315.386C816.764 316.559 817.286 317.146 818.332 317.146C819.142 317.146 820.028 317.018 820.988 316.762L821.468 316.634V313.21L818.556 313.466ZM834.131 320.25H829.843V304.25H834.099V305.146C835.571 304.293 836.83 303.866 837.875 303.866C839.603 303.866 840.937 304.367 841.875 305.37C843.838 304.367 845.63 303.866 847.251 303.866C849.363 303.866 850.825 304.485 851.635 305.722C852.467 306.938 852.883 308.89 852.883 311.578V320.25H848.595V311.706C848.595 310.341 848.446 309.338 848.147 308.698C847.849 308.037 847.251 307.706 846.355 307.706C845.673 307.706 844.841 307.855 843.859 308.154L843.379 308.314C843.465 309.914 843.507 311.13 843.507 311.962V320.25H839.219V312.026C839.219 310.447 839.081 309.338 838.803 308.698C838.526 308.037 837.918 307.706 836.979 307.706C836.147 307.706 835.326 307.855 834.515 308.154L834.131 308.282V320.25ZM860.207 314.074C860.228 315.055 860.484 315.77 860.975 316.218C861.487 316.645 862.212 316.858 863.151 316.858C865.135 316.858 866.906 316.794 868.463 316.666L869.359 316.57L869.423 319.738C866.97 320.335 864.751 320.634 862.767 320.634C860.356 320.634 858.607 319.994 857.519 318.714C856.431 317.434 855.887 315.354 855.887 312.474C855.887 306.735 858.244 303.866 862.959 303.866C867.61 303.866 869.935 306.277 869.935 311.098L869.615 314.074H860.207ZM865.711 310.81C865.711 309.53 865.508 308.645 865.103 308.154C864.698 307.642 863.983 307.386 862.959 307.386C861.956 307.386 861.242 307.653 860.815 308.186C860.41 308.698 860.196 309.573 860.175 310.81H865.711ZM874.191 318.49L873.967 314.746C873.967 313.381 874.191 312.378 874.639 311.738C875.108 311.077 876.09 310.565 877.583 310.202C876.068 309.839 875.087 309.37 874.639 308.794C874.212 308.218 873.999 307.258 873.999 305.914L874.223 301.818C874.223 301.114 874.052 300.581 873.711 300.218C873.391 299.855 872.772 299.631 871.855 299.546V295.898C874.266 295.983 875.951 296.431 876.911 297.242C877.892 298.053 878.383 299.471 878.383 301.498L878.159 305.562C878.159 307.013 879.354 308.015 881.743 308.57V311.898C879.354 312.517 878.159 313.605 878.159 315.162L878.383 319.034C878.383 320.954 877.892 322.33 876.911 323.162C875.951 323.994 874.287 324.453 871.919 324.538V320.89C872.815 320.826 873.412 320.591 873.711 320.186C874.031 319.781 874.191 319.215 874.191 318.49ZM903.537 309.242V315.898C903.58 316.41 903.665 316.773 903.793 316.986C903.921 317.178 904.188 317.317 904.593 317.402L904.465 320.634C903.377 320.634 902.502 320.559 901.841 320.41C901.201 320.261 900.55 319.962 899.889 319.514C898.353 320.261 896.785 320.634 895.185 320.634C891.878 320.634 890.225 318.885 890.225 315.386C890.225 313.679 890.684 312.474 891.601 311.77C892.518 311.045 893.926 310.618 895.825 310.49L899.249 310.234V309.242C899.249 308.581 899.1 308.133 898.801 307.898C898.502 307.642 898.022 307.514 897.361 307.514L891.345 307.77L891.217 304.794C893.5 304.175 895.665 303.866 897.713 303.866C899.782 303.866 901.265 304.293 902.161 305.146C903.078 305.999 903.537 307.365 903.537 309.242ZM896.337 313.466C895.142 313.573 894.545 314.213 894.545 315.386C894.545 316.559 895.068 317.146 896.113 317.146C896.924 317.146 897.809 317.018 898.769 316.762L899.249 316.634V313.21L896.337 313.466ZM907.625 326.97V304.25H911.881V305.114C913.267 304.282 914.483 303.866 915.529 303.866C917.683 303.866 919.273 304.517 920.297 305.818C921.321 307.098 921.833 309.285 921.833 312.378C921.833 315.471 921.267 317.626 920.137 318.842C919.006 320.037 917.15 320.634 914.569 320.634C913.865 320.634 913.107 320.57 912.297 320.442L911.913 320.378V326.97H907.625ZM914.697 307.706C913.907 307.706 913.107 307.866 912.297 308.186L911.913 308.346V316.73C912.873 316.858 913.651 316.922 914.249 316.922C915.486 316.922 916.329 316.559 916.777 315.834C917.246 315.109 917.481 313.871 917.481 312.122C917.481 309.178 916.553 307.706 914.697 307.706ZM925.031 326.97V304.25H929.287V305.114C930.674 304.282 931.89 303.866 932.935 303.866C935.09 303.866 936.679 304.517 937.703 305.818C938.727 307.098 939.239 309.285 939.239 312.378C939.239 315.471 938.674 317.626 937.543 318.842C936.412 320.037 934.556 320.634 931.975 320.634C931.271 320.634 930.514 320.57 929.703 320.442L929.319 320.378V326.97H925.031ZM932.103 307.706C931.314 307.706 930.514 307.866 929.703 308.186L929.319 308.346V316.73C930.279 316.858 931.058 316.922 931.655 316.922C932.892 316.922 933.735 316.559 934.183 315.834C934.652 315.109 934.887 313.871 934.887 312.122C934.887 309.178 933.959 307.706 932.103 307.706Z" fill="#17324D"/>
<rect width="161.539" height="148" transform="translate(639.23 351.25)" fill="#F6E4C8"/>
<path fill-rule="evenodd" clip-rule="evenodd" d="M743.077 379.096H696.923C694.799 379.096 693.077 380.818 693.077 382.942V383.712H746.923V382.942C746.923 380.818 745.201 379.096 743.077 379.096ZM693.077 455.25V387.558H746.923V455.25H693.077ZM746.923 459.096H693.077V467.558C693.077 469.682 694.799 471.404 696.923 471.404H743.077C745.201 471.404 746.923 469.682 746.923 467.558V459.096ZM696.923 375.25C692.674 375.25 689.23 378.694 689.23 382.942V467.558C689.23 471.806 692.674 475.25 696.923 475.25H743.077C747.325 475.25 750.769 471.806 750.769 467.558V382.942C750.769 378.694 747.325 375.25 743.077 375.25H696.923ZM723.077 464.096C723.077 465.583 721.871 466.788 720.384 466.788C718.897 466.788 717.692 465.583 717.692 464.096C717.692 462.609 718.897 461.404 720.384 461.404C721.871 461.404 723.077 462.609 723.077 464.096ZM704.23 402.25H707.231H713.231H716.231V405.25V411.25V414.25H713.231H707.231H704.23V411.25V405.25V402.25ZM710.231 405.25H707.231V408.25V411.25H710.231H713.231V408.25V405.25H710.231ZM737.231 416.25H733.231V420.25H737.231V416.25ZM704.23 421.25H707.231H713.231H716.231V424.25V430.25V433.25H713.231H707.231H704.23V430.25V424.25V421.25ZM710.231 424.25H707.231V427.25V430.25H710.231H713.231V427.25V424.25H710.231ZM737.231 429.25H733.231V425.25H737.231V429.25ZM729.231 425.25V421.25H733.231V425.25H729.231ZM729.231 429.25H725.231V425.25H729.231V429.25ZM729.231 429.25V433.25H733.231V429.25H729.231ZM729.231 416.25H725.231V420.25H729.231V416.25ZM728.231 402.25H725.231V405.25V411.25V414.25H728.231H734.231H737.231V411.25V405.25V402.25H734.231H728.231ZM728.231 405.25H731.231H734.231V408.25V411.25H731.231H728.231V408.25V405.25ZM719.231 402.25H722.231V414.25H719.231V402.25ZM719.231 426.25V433.25H722.231V426.25H719.231ZM712.231 419.25H704.23V416.25H712.231V419.25ZM722.231 416.25V417.25V419.25V423.25H719.231V419.25H715.231V416.25H722.231Z" fill="#995C00"/>
<path d="M546.105 532.036V530.794H555.105V532.036H551.307V543.25H549.939V532.036H546.105ZM554.611 538.732C554.611 537.088 554.905 535.9 555.493 535.168C556.081 534.436 557.071 534.07 558.463 534.07C559.867 534.07 560.857 534.436 561.433 535.168C562.021 535.9 562.315 537.088 562.315 538.732C562.315 540.376 562.039 541.57 561.487 542.314C560.935 543.058 559.927 543.43 558.463 543.43C556.999 543.43 555.991 543.058 555.439 542.314C554.887 541.57 554.611 540.376 554.611 538.732ZM555.997 538.714C555.997 540.022 556.153 540.94 556.465 541.468C556.789 541.996 557.455 542.26 558.463 542.26C559.483 542.26 560.149 542.002 560.461 541.486C560.773 540.958 560.929 540.034 560.929 538.714C560.929 537.394 560.755 536.488 560.407 535.996C560.059 535.492 559.411 535.24 558.463 535.24C557.527 535.24 556.879 535.492 556.519 535.996C556.171 536.488 555.997 537.394 555.997 538.714ZM571.838 534.07C572.234 534.07 572.906 534.142 573.854 534.286L574.286 534.34L574.232 535.438C573.272 535.33 572.564 535.276 572.108 535.276C571.088 535.276 570.392 535.522 570.02 536.014C569.66 536.494 569.48 537.394 569.48 538.714C569.48 540.022 569.648 540.934 569.984 541.45C570.332 541.966 571.046 542.224 572.126 542.224L574.25 542.062L574.304 543.178C573.188 543.346 572.354 543.43 571.802 543.43C570.398 543.43 569.426 543.07 568.886 542.35C568.358 541.63 568.094 540.418 568.094 538.714C568.094 536.998 568.382 535.798 568.958 535.114C569.534 534.418 570.494 534.07 571.838 534.07ZM575.81 538.732C575.81 537.088 576.104 535.9 576.692 535.168C577.28 534.436 578.27 534.07 579.662 534.07C581.066 534.07 582.056 534.436 582.632 535.168C583.22 535.9 583.514 537.088 583.514 538.732C583.514 540.376 583.238 541.57 582.686 542.314C582.134 543.058 581.126 543.43 579.662 543.43C578.198 543.43 577.19 543.058 576.638 542.314C576.086 541.57 575.81 540.376 575.81 538.732ZM577.196 538.714C577.196 540.022 577.352 540.94 577.664 541.468C577.988 541.996 578.654 542.26 579.662 542.26C580.682 542.26 581.348 542.002 581.66 541.486C581.972 540.958 582.128 540.034 582.128 538.714C582.128 537.394 581.954 536.488 581.606 535.996C581.258 535.492 580.61 535.24 579.662 535.24C578.726 535.24 578.078 535.492 577.718 535.996C577.37 536.488 577.196 537.394 577.196 538.714ZM587.066 543.25H585.716V534.25H587.048V534.88C588.02 534.34 588.95 534.07 589.838 534.07C591.038 534.07 591.842 534.394 592.25 535.042C592.67 535.69 592.88 536.842 592.88 538.498V543.25H591.548V538.534C591.548 537.286 591.422 536.434 591.17 535.978C590.93 535.51 590.408 535.276 589.604 535.276C589.22 535.276 588.812 535.336 588.38 535.456C587.96 535.564 587.636 535.672 587.408 535.78L587.066 535.942V543.25ZM599.993 535.42H597.131V539.722C597.131 540.754 597.203 541.432 597.347 541.756C597.503 542.08 597.863 542.242 598.427 542.242L600.029 542.134L600.119 543.25C599.315 543.382 598.703 543.448 598.283 543.448C597.347 543.448 596.699 543.22 596.339 542.764C595.979 542.308 595.799 541.438 595.799 540.154V535.42H594.521V534.25H595.799V531.496H597.131V534.25H599.993V535.42ZM601.642 543.25V534.25H602.992V543.25H601.642ZM601.642 532.216V530.65H602.992V532.216H601.642ZM606.929 543.25H605.579V534.25H606.911V534.88C607.883 534.34 608.813 534.07 609.701 534.07C610.901 534.07 611.705 534.394 612.113 535.042C612.533 535.69 612.743 536.842 612.743 538.498V543.25H611.411V538.534C611.411 537.286 611.285 536.434 611.033 535.978C610.793 535.51 610.271 535.276 609.467 535.276C609.083 535.276 608.675 535.336 608.243 535.456C607.823 535.564 607.499 535.672 607.271 535.78L606.929 535.942V543.25ZM620.863 534.25H622.213V543.25H620.863V542.62C619.963 543.16 619.075 543.43 618.199 543.43C616.975 543.43 616.159 543.112 615.751 542.476C615.355 541.84 615.157 540.664 615.157 538.948V534.25H616.507V538.93C616.507 540.238 616.621 541.114 616.849 541.558C617.077 542.002 617.593 542.224 618.397 542.224C618.793 542.224 619.195 542.17 619.603 542.062C620.011 541.942 620.323 541.828 620.539 541.72L620.863 541.558V534.25ZM630.93 542.134L631.452 542.08L631.488 543.142C630.12 543.334 628.95 543.43 627.978 543.43C626.682 543.43 625.764 543.058 625.224 542.314C624.684 541.558 624.414 540.388 624.414 538.804C624.414 535.648 625.668 534.07 628.176 534.07C629.388 534.07 630.294 534.412 630.894 535.096C631.494 535.768 631.794 536.83 631.794 538.282L631.722 539.308H625.782C625.782 540.304 625.962 541.042 626.322 541.522C626.682 542.002 627.306 542.242 628.194 542.242C629.094 542.242 630.006 542.206 630.93 542.134ZM630.444 538.228C630.444 537.124 630.264 536.344 629.904 535.888C629.556 535.432 628.98 535.204 628.176 535.204C627.384 535.204 626.784 535.444 626.376 535.924C625.98 536.404 625.776 537.172 625.764 538.228H630.444ZM633.214 545.464L634.042 541.324H635.536L634.33 545.464H633.214ZM643.588 535.42V543.25H642.238V535.42H641.104V534.25H642.238V533.44C642.238 532.168 642.418 531.304 642.778 530.848C643.138 530.38 643.768 530.146 644.668 530.146L646.486 530.272L646.468 531.388C645.796 531.364 645.238 531.352 644.794 531.352C644.362 531.352 644.05 531.496 643.858 531.784C643.678 532.072 643.588 532.63 643.588 533.458V534.25H646.198V535.42H643.588ZM647.265 538.732C647.265 537.088 647.559 535.9 648.147 535.168C648.735 534.436 649.725 534.07 651.117 534.07C652.521 534.07 653.511 534.436 654.087 535.168C654.675 535.9 654.969 537.088 654.969 538.732C654.969 540.376 654.693 541.57 654.141 542.314C653.589 543.058 652.581 543.43 651.117 543.43C649.653 543.43 648.645 543.058 648.093 542.314C647.541 541.57 647.265 540.376 647.265 538.732ZM648.651 538.714C648.651 540.022 648.807 540.94 649.119 541.468C649.443 541.996 650.109 542.26 651.117 542.26C652.137 542.26 652.803 542.002 653.115 541.486C653.427 540.958 653.583 540.034 653.583 538.714C653.583 537.394 653.409 536.488 653.061 535.996C652.713 535.492 652.065 535.24 651.117 535.24C650.181 535.24 649.533 535.492 649.173 535.996C648.825 536.488 648.651 537.394 648.651 538.714ZM657.279 543.25V530.326H658.629V543.25H657.279ZM661.445 543.25V530.326H662.795V543.25H661.445ZM665.107 538.732C665.107 537.088 665.401 535.9 665.989 535.168C666.577 534.436 667.567 534.07 668.959 534.07C670.363 534.07 671.353 534.436 671.929 535.168C672.517 535.9 672.811 537.088 672.811 538.732C672.811 540.376 672.535 541.57 671.983 542.314C671.431 543.058 670.423 543.43 668.959 543.43C667.495 543.43 666.487 543.058 665.935 542.314C665.383 541.57 665.107 540.376 665.107 538.732ZM666.493 538.714C666.493 540.022 666.649 540.94 666.961 541.468C667.285 541.996 667.951 542.26 668.959 542.26C669.979 542.26 670.645 542.002 670.957 541.486C671.269 540.958 671.425 540.034 671.425 538.714C671.425 537.394 671.251 536.488 670.903 535.996C670.555 535.492 669.907 535.24 668.959 535.24C668.023 535.24 667.375 535.492 667.015 535.996C666.667 536.488 666.493 537.394 666.493 538.714ZM674.187 534.25H675.537L677.355 542.08H677.643L679.785 534.43H681.189L683.331 542.08H683.637L685.437 534.25H686.787L684.645 543.25H682.395L680.487 536.212L678.579 543.25H676.329L674.187 534.25ZM697.253 535.42H694.391V539.722C694.391 540.754 694.463 541.432 694.607 541.756C694.763 542.08 695.123 542.242 695.687 542.242L697.289 542.134L697.379 543.25C696.575 543.382 695.963 543.448 695.543 543.448C694.607 543.448 693.959 543.22 693.599 542.764C693.239 542.308 693.059 541.438 693.059 540.154V535.42H691.781V534.25H693.059V531.496H694.391V534.25H697.253V535.42ZM700.251 543.25H698.901V530.326H700.251V534.754C701.211 534.298 702.135 534.07 703.023 534.07C704.223 534.07 705.027 534.394 705.435 535.042C705.855 535.69 706.065 536.842 706.065 538.498V543.25H704.715V538.534C704.715 537.286 704.589 536.434 704.337 535.978C704.097 535.51 703.581 535.276 702.789 535.276C702.033 535.276 701.301 535.414 700.593 535.69L700.251 535.816V543.25ZM714.689 542.134L715.211 542.08L715.247 543.142C713.879 543.334 712.709 543.43 711.737 543.43C710.441 543.43 709.523 543.058 708.983 542.314C708.443 541.558 708.173 540.388 708.173 538.804C708.173 535.648 709.427 534.07 711.935 534.07C713.147 534.07 714.053 534.412 714.653 535.096C715.253 535.768 715.553 536.83 715.553 538.282L715.481 539.308H709.541C709.541 540.304 709.721 541.042 710.081 541.522C710.441 542.002 711.065 542.242 711.953 542.242C712.853 542.242 713.765 542.206 714.689 542.134ZM714.203 538.228C714.203 537.124 714.023 536.344 713.663 535.888C713.315 535.432 712.739 535.204 711.935 535.204C711.143 535.204 710.543 535.444 710.135 535.924C709.739 536.404 709.535 537.172 709.523 538.228H714.203ZM721.612 543.25V534.25H722.962V543.25H721.612ZM721.612 532.216V530.65H722.962V532.216H721.612ZM726.9 543.25H725.55V534.25H726.882V534.88C727.854 534.34 728.784 534.07 729.672 534.07C730.872 534.07 731.676 534.394 732.084 535.042C732.504 535.69 732.714 536.842 732.714 538.498V543.25H731.382V538.534C731.382 537.286 731.256 536.434 731.004 535.978C730.764 535.51 730.242 535.276 729.438 535.276C729.054 535.276 728.646 535.336 728.214 535.456C727.794 535.564 727.47 535.672 727.242 535.78L726.9 535.942V543.25ZM738.044 535.276C736.736 535.276 736.082 535.732 736.082 536.644C736.082 537.064 736.232 537.364 736.532 537.544C736.832 537.712 737.516 537.892 738.584 538.084C739.652 538.264 740.408 538.522 740.852 538.858C741.296 539.194 741.518 539.824 741.518 540.748C741.518 541.672 741.218 542.35 740.618 542.782C740.03 543.214 739.166 543.43 738.026 543.43C737.282 543.43 736.406 543.346 735.398 543.178L734.858 543.088L734.93 541.918C736.298 542.122 737.33 542.224 738.026 542.224C738.722 542.224 739.25 542.116 739.61 541.9C739.982 541.672 740.168 541.3 740.168 540.784C740.168 540.256 740.012 539.902 739.7 539.722C739.388 539.53 738.704 539.35 737.648 539.182C736.592 539.014 735.842 538.768 735.398 538.444C734.954 538.12 734.732 537.52 734.732 536.644C734.732 535.768 735.038 535.12 735.65 534.7C736.274 534.28 737.048 534.07 737.972 534.07C738.704 534.07 739.622 534.154 740.726 534.322L741.23 534.412L741.194 535.564C739.862 535.372 738.812 535.276 738.044 535.276ZM748.247 535.42H745.385V539.722C745.385 540.754 745.457 541.432 745.601 541.756C745.757 542.08 746.117 542.242 746.681 542.242L748.283 542.134L748.373 543.25C747.569 543.382 746.957 543.448 746.537 543.448C745.601 543.448 744.953 543.22 744.593 542.764C744.233 542.308 744.053 541.438 744.053 540.154V535.42H742.775V534.25H744.053V531.496H745.385V534.25H748.247V535.42ZM749.896 543.25V534.25H751.228V535.474C752.272 534.754 753.37 534.28 754.522 534.052V535.42C754.018 535.516 753.49 535.666 752.938 535.87C752.398 536.074 751.984 536.254 751.696 536.41L751.246 536.644V543.25H749.896ZM761.734 534.25H763.084V543.25H761.734V542.62C760.834 543.16 759.946 543.43 759.07 543.43C757.846 543.43 757.03 543.112 756.622 542.476C756.226 541.84 756.028 540.664 756.028 538.948V534.25H757.378V538.93C757.378 540.238 757.492 541.114 757.72 541.558C757.948 542.002 758.464 542.224 759.268 542.224C759.664 542.224 760.066 542.17 760.474 542.062C760.882 541.942 761.194 541.828 761.41 541.72L761.734 541.558V534.25ZM769.047 534.07C769.443 534.07 770.115 534.142 771.063 534.286L771.495 534.34L771.441 535.438C770.481 535.33 769.773 535.276 769.317 535.276C768.297 535.276 767.601 535.522 767.229 536.014C766.869 536.494 766.689 537.394 766.689 538.714C766.689 540.022 766.857 540.934 767.193 541.45C767.541 541.966 768.255 542.224 769.335 542.224L771.459 542.062L771.513 543.178C770.397 543.346 769.563 543.43 769.011 543.43C767.607 543.43 766.635 543.07 766.095 542.35C765.567 541.63 765.303 540.418 765.303 538.714C765.303 536.998 765.591 535.798 766.167 535.114C766.743 534.418 767.703 534.07 769.047 534.07ZM778.183 535.42H775.321V539.722C775.321 540.754 775.393 541.432 775.537 541.756C775.693 542.08 776.053 542.242 776.617 542.242L778.219 542.134L778.309 543.25C777.505 543.382 776.893 543.448 776.473 543.448C775.537 543.448 774.889 543.22 774.529 542.764C774.169 542.308 773.989 541.438 773.989 540.154V535.42H772.711V534.25H773.989V531.496H775.321V534.25H778.183V535.42ZM779.831 543.25V534.25H781.181V543.25H779.831ZM779.831 532.216V530.65H781.181V532.216H779.831ZM783.373 538.732C783.373 537.088 783.667 535.9 784.255 535.168C784.843 534.436 785.833 534.07 787.225 534.07C788.629 534.07 789.619 534.436 790.195 535.168C790.783 535.9 791.077 537.088 791.077 538.732C791.077 540.376 790.801 541.57 790.249 542.314C789.697 543.058 788.689 543.43 787.225 543.43C785.761 543.43 784.753 543.058 784.201 542.314C783.649 541.57 783.373 540.376 783.373 538.732ZM784.759 538.714C784.759 540.022 784.915 540.94 785.227 541.468C785.551 541.996 786.217 542.26 787.225 542.26C788.245 542.26 788.911 542.002 789.223 541.486C789.535 540.958 789.691 540.034 789.691 538.714C789.691 537.394 789.517 536.488 789.169 535.996C788.821 535.492 788.173 535.24 787.225 535.24C786.289 535.24 785.641 535.492 785.281 535.996C784.933 536.488 784.759 537.394 784.759 538.714ZM794.628 543.25H793.278V534.25H794.61V534.88C795.582 534.34 796.512 534.07 797.4 534.07C798.6 534.07 799.404 534.394 799.812 535.042C800.232 535.69 800.442 536.842 800.442 538.498V543.25H799.11V538.534C799.11 537.286 798.984 536.434 798.732 535.978C798.492 535.51 797.97 535.276 797.166 535.276C796.782 535.276 796.374 535.336 795.942 535.456C795.522 535.564 795.198 535.672 794.97 535.78L794.628 535.942V543.25ZM805.772 535.276C804.464 535.276 803.81 535.732 803.81 536.644C803.81 537.064 803.96 537.364 804.26 537.544C804.56 537.712 805.244 537.892 806.312 538.084C807.38 538.264 808.136 538.522 808.58 538.858C809.024 539.194 809.246 539.824 809.246 540.748C809.246 541.672 808.946 542.35 808.346 542.782C807.758 543.214 806.894 543.43 805.754 543.43C805.01 543.43 804.134 543.346 803.126 543.178L802.586 543.088L802.658 541.918C804.026 542.122 805.058 542.224 805.754 542.224C806.45 542.224 806.978 542.116 807.338 541.9C807.71 541.672 807.896 541.3 807.896 540.784C807.896 540.256 807.74 539.902 807.428 539.722C807.116 539.53 806.432 539.35 805.376 539.182C804.32 539.014 803.57 538.768 803.126 538.444C802.682 538.12 802.46 537.52 802.46 536.644C802.46 535.768 802.766 535.12 803.378 534.7C804.002 534.28 804.776 534.07 805.7 534.07C806.432 534.07 807.35 534.154 808.454 534.322L808.958 534.412L808.922 535.564C807.59 535.372 806.54 535.276 805.772 535.276ZM814.873 538.732C814.873 537.088 815.167 535.9 815.755 535.168C816.343 534.436 817.333 534.07 818.725 534.07C820.129 534.07 821.119 534.436 821.695 535.168C822.283 535.9 822.577 537.088 822.577 538.732C822.577 540.376 822.301 541.57 821.749 542.314C821.197 543.058 820.189 543.43 818.725 543.43C817.261 543.43 816.253 543.058 815.701 542.314C815.149 541.57 814.873 540.376 814.873 538.732ZM816.259 538.714C816.259 540.022 816.415 540.94 816.727 541.468C817.051 541.996 817.717 542.26 818.725 542.26C819.745 542.26 820.411 542.002 820.723 541.486C821.035 540.958 821.191 540.034 821.191 538.714C821.191 537.394 821.017 536.488 820.669 535.996C820.321 535.492 819.673 535.24 818.725 535.24C817.789 535.24 817.141 535.492 816.781 535.996C816.433 536.488 816.259 537.394 816.259 538.714ZM826.128 543.25H824.778V534.25H826.11V534.88C827.082 534.34 828.012 534.07 828.9 534.07C830.1 534.07 830.904 534.394 831.312 535.042C831.732 535.69 831.942 536.842 831.942 538.498V543.25H830.61V538.534C830.61 537.286 830.484 536.434 830.232 535.978C829.992 535.51 829.47 535.276 828.666 535.276C828.282 535.276 827.874 535.336 827.442 535.456C827.022 535.564 826.698 535.672 826.47 535.78L826.128 535.942V543.25ZM843.063 535.42H840.201V539.722C840.201 540.754 840.273 541.432 840.417 541.756C840.573 542.08 840.933 542.242 841.497 542.242L843.099 542.134L843.189 543.25C842.385 543.382 841.773 543.448 841.353 543.448C840.417 543.448 839.769 543.22 839.409 542.764C839.049 542.308 838.869 541.438 838.869 540.154V535.42H837.591V534.25H838.869V531.496H840.201V534.25H843.063V535.42ZM846.062 543.25H844.712V530.326H846.062V534.754C847.022 534.298 847.946 534.07 848.834 534.07C850.034 534.07 850.838 534.394 851.246 535.042C851.666 535.69 851.876 536.842 851.876 538.498V543.25H850.526V538.534C850.526 537.286 850.4 536.434 850.148 535.978C849.908 535.51 849.392 535.276 848.6 535.276C847.844 535.276 847.112 535.414 846.404 535.69L846.062 535.816V543.25ZM860.5 542.134L861.022 542.08L861.058 543.142C859.69 543.334 858.52 543.43 857.548 543.43C856.252 543.43 855.334 543.058 854.794 542.314C854.254 541.558 853.984 540.388 853.984 538.804C853.984 535.648 855.238 534.07 857.746 534.07C858.958 534.07 859.864 534.412 860.464 535.096C861.064 535.768 861.364 536.83 861.364 538.282L861.292 539.308H855.352C855.352 540.304 855.532 541.042 855.892 541.522C856.252 542.002 856.876 542.242 857.764 542.242C858.664 542.242 859.576 542.206 860.5 542.134ZM860.014 538.228C860.014 537.124 859.834 536.344 859.474 535.888C859.126 535.432 858.55 535.204 857.746 535.204C856.954 535.204 856.354 535.444 855.946 535.924C855.55 536.404 855.346 537.172 855.334 538.228H860.014ZM873.777 536.968V541.576C873.813 542.02 874.161 542.284 874.821 542.368L874.767 543.43C873.819 543.43 873.105 543.19 872.625 542.71C871.545 543.19 870.465 543.43 869.385 543.43C868.557 543.43 867.927 543.196 867.495 542.728C867.063 542.26 866.847 541.588 866.847 540.712C866.847 539.836 867.069 539.194 867.513 538.786C867.957 538.366 868.653 538.108 869.601 538.012L872.427 537.742V536.968C872.427 536.356 872.295 535.918 872.031 535.654C871.767 535.39 871.407 535.258 870.951 535.258C869.991 535.258 868.995 535.318 867.963 535.438L867.405 535.492L867.351 534.466C868.671 534.202 869.841 534.07 870.861 534.07C871.881 534.07 872.619 534.304 873.075 534.772C873.543 535.24 873.777 535.972 873.777 536.968ZM868.233 540.64C868.233 541.744 868.689 542.296 869.601 542.296C870.417 542.296 871.221 542.158 872.013 541.882L872.427 541.738V538.768L869.763 539.02C869.223 539.068 868.833 539.224 868.593 539.488C868.353 539.752 868.233 540.136 868.233 540.64ZM876.441 547.246V534.25H877.773V534.898C878.685 534.346 879.585 534.07 880.473 534.07C881.613 534.07 882.441 534.436 882.957 535.168C883.473 535.888 883.731 537.082 883.731 538.75C883.731 540.418 883.425 541.618 882.813 542.35C882.213 543.07 881.211 543.43 879.807 543.43C879.075 543.43 878.403 543.364 877.791 543.232V547.246H876.441ZM880.275 535.276C879.915 535.276 879.525 535.336 879.105 535.456C878.697 535.576 878.373 535.696 878.133 535.816L877.791 535.996V542.062C878.643 542.194 879.291 542.26 879.735 542.26C880.707 542.26 881.385 541.984 881.769 541.432C882.165 540.88 882.363 539.98 882.363 538.732C882.363 537.484 882.183 536.596 881.823 536.068C881.475 535.54 880.959 535.276 880.275 535.276ZM885.933 547.246V534.25H887.265V534.898C888.177 534.346 889.077 534.07 889.965 534.07C891.105 534.07 891.933 534.436 892.449 535.168C892.965 535.888 893.223 537.082 893.223 538.75C893.223 540.418 892.917 541.618 892.305 542.35C891.705 543.07 890.703 543.43 889.299 543.43C888.567 543.43 887.895 543.364 887.283 543.232V547.246H885.933ZM889.767 535.276C889.407 535.276 889.017 535.336 888.597 535.456C888.189 535.576 887.865 535.696 887.625 535.816L887.283 535.996V542.062C888.135 542.194 888.783 542.26 889.227 542.26C890.199 542.26 890.877 541.984 891.261 541.432C891.657 540.88 891.855 539.98 891.855 538.732C891.855 537.484 891.675 536.596 891.315 536.068C890.967 535.54 890.451 535.276 889.767 535.276ZM648.592 563.968V568.576C648.628 569.02 648.976 569.284 649.636 569.368L649.582 570.43C648.634 570.43 647.92 570.19 647.44 569.71C646.36 570.19 645.28 570.43 644.2 570.43C643.372 570.43 642.742 570.196 642.31 569.728C641.878 569.26 641.662 568.588 641.662 567.712C641.662 566.836 641.884 566.194 642.328 565.786C642.772 565.366 643.468 565.108 644.416 565.012L647.242 564.742V563.968C647.242 563.356 647.11 562.918 646.846 562.654C646.582 562.39 646.222 562.258 645.766 562.258C644.806 562.258 643.81 562.318 642.778 562.438L642.22 562.492L642.166 561.466C643.486 561.202 644.656 561.07 645.676 561.07C646.696 561.07 647.434 561.304 647.89 561.772C648.358 562.24 648.592 562.972 648.592 563.968ZM643.048 567.64C643.048 568.744 643.504 569.296 644.416 569.296C645.232 569.296 646.036 569.158 646.828 568.882L647.242 568.738V565.768L644.578 566.02C644.038 566.068 643.648 566.224 643.408 566.488C643.168 566.752 643.048 567.136 643.048 567.64ZM652.606 570.25H651.256V561.25H652.588V561.88C653.56 561.34 654.49 561.07 655.378 561.07C656.578 561.07 657.382 561.394 657.79 562.042C658.21 562.69 658.42 563.842 658.42 565.498V570.25H657.088V565.534C657.088 564.286 656.962 563.434 656.71 562.978C656.47 562.51 655.948 562.276 655.144 562.276C654.76 562.276 654.352 562.336 653.92 562.456C653.5 562.564 653.176 562.672 652.948 562.78L652.606 562.942V570.25ZM667.836 557.326V570.25H666.504V569.638C665.58 570.166 664.668 570.43 663.768 570.43C663.288 570.43 662.868 570.37 662.508 570.25C662.148 570.13 661.812 569.914 661.5 569.602C660.852 568.954 660.528 567.76 660.528 566.02C660.528 564.268 660.816 563.008 661.392 562.24C661.98 561.46 662.946 561.07 664.29 561.07C664.986 561.07 665.724 561.148 666.504 561.304V557.326H667.836ZM662.544 568.63C662.736 568.858 662.94 569.014 663.156 569.098C663.372 569.182 663.648 569.224 663.984 569.224C664.332 569.224 664.716 569.17 665.136 569.062C665.568 568.942 665.904 568.828 666.144 568.72L666.504 568.558V562.456C665.736 562.312 665.022 562.24 664.362 562.24C663.45 562.24 662.814 562.534 662.454 563.122C662.094 563.698 661.914 564.598 661.914 565.822C661.914 567.214 662.124 568.15 662.544 568.63ZM680.76 563.968V568.576C680.796 569.02 681.144 569.284 681.804 569.368L681.75 570.43C680.802 570.43 680.088 570.19 679.608 569.71C678.528 570.19 677.448 570.43 676.368 570.43C675.54 570.43 674.91 570.196 674.478 569.728C674.046 569.26 673.83 568.588 673.83 567.712C673.83 566.836 674.052 566.194 674.496 565.786C674.94 565.366 675.636 565.108 676.584 565.012L679.41 564.742V563.968C679.41 563.356 679.278 562.918 679.014 562.654C678.75 562.39 678.39 562.258 677.934 562.258C676.974 562.258 675.978 562.318 674.946 562.438L674.388 562.492L674.334 561.466C675.654 561.202 676.824 561.07 677.844 561.07C678.864 561.07 679.602 561.304 680.058 561.772C680.526 562.24 680.76 562.972 680.76 563.968ZM675.216 567.64C675.216 568.744 675.672 569.296 676.584 569.296C677.4 569.296 678.204 569.158 678.996 568.882L679.41 568.738V565.768L676.746 566.02C676.206 566.068 675.816 566.224 675.576 566.488C675.336 566.752 675.216 567.136 675.216 567.64ZM689.04 561.25H690.39V570.25H689.04V569.62C688.14 570.16 687.252 570.43 686.376 570.43C685.152 570.43 684.336 570.112 683.928 569.476C683.532 568.84 683.334 567.664 683.334 565.948V561.25H684.684V565.93C684.684 567.238 684.798 568.114 685.026 568.558C685.254 569.002 685.77 569.224 686.574 569.224C686.97 569.224 687.372 569.17 687.78 569.062C688.188 568.942 688.5 568.828 688.716 568.72L689.04 568.558V561.25ZM697.648 562.42H694.786V566.722C694.786 567.754 694.858 568.432 695.002 568.756C695.158 569.08 695.518 569.242 696.082 569.242L697.684 569.134L697.774 570.25C696.97 570.382 696.358 570.448 695.938 570.448C695.002 570.448 694.354 570.22 693.994 569.764C693.634 569.308 693.454 568.438 693.454 567.154V562.42H692.176V561.25H693.454V558.496H694.786V561.25H697.648V562.42ZM700.647 570.25H699.297V557.326H700.647V561.754C701.607 561.298 702.531 561.07 703.419 561.07C704.619 561.07 705.423 561.394 705.831 562.042C706.251 562.69 706.461 563.842 706.461 565.498V570.25H705.111V565.534C705.111 564.286 704.985 563.434 704.733 562.978C704.493 562.51 703.977 562.276 703.185 562.276C702.429 562.276 701.697 562.414 700.989 562.69L700.647 562.816V570.25ZM708.569 565.732C708.569 564.088 708.863 562.9 709.451 562.168C710.039 561.436 711.029 561.07 712.421 561.07C713.825 561.07 714.815 561.436 715.391 562.168C715.979 562.9 716.273 564.088 716.273 565.732C716.273 567.376 715.997 568.57 715.445 569.314C714.893 570.058 713.885 570.43 712.421 570.43C710.957 570.43 709.949 570.058 709.397 569.314C708.845 568.57 708.569 567.376 708.569 565.732ZM709.955 565.714C709.955 567.022 710.111 567.94 710.423 568.468C710.747 568.996 711.413 569.26 712.421 569.26C713.441 569.26 714.107 569.002 714.419 568.486C714.731 567.958 714.887 567.034 714.887 565.714C714.887 564.394 714.713 563.488 714.365 562.996C714.017 562.492 713.369 562.24 712.421 562.24C711.485 562.24 710.837 562.492 710.477 562.996C710.129 563.488 709.955 564.394 709.955 565.714ZM718.475 570.25V561.25H719.807V562.474C720.851 561.754 721.949 561.28 723.101 561.052V562.42C722.597 562.516 722.069 562.666 721.517 562.87C720.977 563.074 720.563 563.254 720.275 563.41L719.825 563.644V570.25H718.475ZM724.697 570.25V561.25H726.047V570.25H724.697ZM724.697 559.216V557.65H726.047V559.216H724.697ZM731.461 562.276C730.153 562.276 729.499 562.732 729.499 563.644C729.499 564.064 729.649 564.364 729.949 564.544C730.249 564.712 730.933 564.892 732.001 565.084C733.069 565.264 733.825 565.522 734.269 565.858C734.713 566.194 734.935 566.824 734.935 567.748C734.935 568.672 734.635 569.35 734.035 569.782C733.447 570.214 732.583 570.43 731.443 570.43C730.699 570.43 729.823 570.346 728.815 570.178L728.275 570.088L728.347 568.918C729.715 569.122 730.747 569.224 731.443 569.224C732.139 569.224 732.667 569.116 733.027 568.9C733.399 568.672 733.585 568.3 733.585 567.784C733.585 567.256 733.429 566.902 733.117 566.722C732.805 566.53 732.121 566.35 731.065 566.182C730.009 566.014 729.259 565.768 728.815 565.444C728.371 565.12 728.149 564.52 728.149 563.644C728.149 562.768 728.455 562.12 729.067 561.7C729.691 561.28 730.465 561.07 731.389 561.07C732.121 561.07 733.039 561.154 734.143 561.322L734.647 561.412L734.611 562.564C733.279 562.372 732.229 562.276 731.461 562.276ZM743.122 569.134L743.644 569.08L743.68 570.142C742.312 570.334 741.142 570.43 740.17 570.43C738.874 570.43 737.956 570.058 737.416 569.314C736.876 568.558 736.606 567.388 736.606 565.804C736.606 562.648 737.86 561.07 740.368 561.07C741.58 561.07 742.486 561.412 743.086 562.096C743.686 562.768 743.986 563.83 743.986 565.282L743.914 566.308H737.974C737.974 567.304 738.154 568.042 738.514 568.522C738.874 569.002 739.498 569.242 740.386 569.242C741.286 569.242 742.198 569.206 743.122 569.134ZM742.636 565.228C742.636 564.124 742.456 563.344 742.096 562.888C741.748 562.432 741.172 562.204 740.368 562.204C739.576 562.204 738.976 562.444 738.568 562.924C738.172 563.404 737.968 564.172 737.956 565.228H742.636ZM756.399 563.968V568.576C756.435 569.02 756.783 569.284 757.443 569.368L757.389 570.43C756.441 570.43 755.727 570.19 755.247 569.71C754.167 570.19 753.087 570.43 752.007 570.43C751.179 570.43 750.549 570.196 750.117 569.728C749.685 569.26 749.469 568.588 749.469 567.712C749.469 566.836 749.691 566.194 750.135 565.786C750.579 565.366 751.275 565.108 752.223 565.012L755.049 564.742V563.968C755.049 563.356 754.917 562.918 754.653 562.654C754.389 562.39 754.029 562.258 753.573 562.258C752.613 562.258 751.617 562.318 750.585 562.438L750.027 562.492L749.973 561.466C751.293 561.202 752.463 561.07 753.483 561.07C754.503 561.07 755.241 561.304 755.697 561.772C756.165 562.24 756.399 562.972 756.399 563.968ZM750.855 567.64C750.855 568.744 751.311 569.296 752.223 569.296C753.039 569.296 753.843 569.158 754.635 568.882L755.049 568.738V565.768L752.385 566.02C751.845 566.068 751.455 566.224 751.215 566.488C750.975 566.752 750.855 567.136 750.855 567.64ZM762.429 561.07C762.825 561.07 763.497 561.142 764.445 561.286L764.877 561.34L764.823 562.438C763.863 562.33 763.155 562.276 762.699 562.276C761.679 562.276 760.983 562.522 760.611 563.014C760.251 563.494 760.071 564.394 760.071 565.714C760.071 567.022 760.239 567.934 760.575 568.45C760.923 568.966 761.637 569.224 762.717 569.224L764.841 569.062L764.895 570.178C763.779 570.346 762.945 570.43 762.393 570.43C760.989 570.43 760.017 570.07 759.477 569.35C758.949 568.63 758.685 567.418 758.685 565.714C758.685 563.998 758.973 562.798 759.549 562.114C760.125 561.418 761.085 561.07 762.429 561.07ZM770.163 561.07C770.559 561.07 771.231 561.142 772.179 561.286L772.611 561.34L772.557 562.438C771.597 562.33 770.889 562.276 770.433 562.276C769.413 562.276 768.717 562.522 768.345 563.014C767.985 563.494 767.805 564.394 767.805 565.714C767.805 567.022 767.973 567.934 768.309 568.45C768.657 568.966 769.371 569.224 770.451 569.224L772.575 569.062L772.629 570.178C771.513 570.346 770.679 570.43 770.127 570.43C768.723 570.43 767.751 570.07 767.211 569.35C766.683 568.63 766.419 567.418 766.419 565.714C766.419 563.998 766.707 562.798 767.283 562.114C767.859 561.418 768.819 561.07 770.163 561.07ZM780.651 569.134L781.173 569.08L781.209 570.142C779.841 570.334 778.671 570.43 777.699 570.43C776.403 570.43 775.485 570.058 774.945 569.314C774.405 568.558 774.135 567.388 774.135 565.804C774.135 562.648 775.389 561.07 777.897 561.07C779.109 561.07 780.015 561.412 780.615 562.096C781.215 562.768 781.515 563.83 781.515 565.282L781.443 566.308H775.503C775.503 567.304 775.683 568.042 776.043 568.522C776.403 569.002 777.027 569.242 777.915 569.242C778.815 569.242 779.727 569.206 780.651 569.134ZM780.165 565.228C780.165 564.124 779.985 563.344 779.625 562.888C779.277 562.432 778.701 562.204 777.897 562.204C777.105 562.204 776.505 562.444 776.097 562.924C775.701 563.404 775.497 564.172 775.485 565.228H780.165ZM786.445 562.276C785.137 562.276 784.483 562.732 784.483 563.644C784.483 564.064 784.633 564.364 784.933 564.544C785.233 564.712 785.917 564.892 786.985 565.084C788.053 565.264 788.809 565.522 789.253 565.858C789.697 566.194 789.919 566.824 789.919 567.748C789.919 568.672 789.619 569.35 789.019 569.782C788.431 570.214 787.567 570.43 786.427 570.43C785.683 570.43 784.807 570.346 783.799 570.178L783.259 570.088L783.331 568.918C784.699 569.122 785.731 569.224 786.427 569.224C787.123 569.224 787.651 569.116 788.011 568.9C788.383 568.672 788.569 568.3 788.569 567.784C788.569 567.256 788.413 566.902 788.101 566.722C787.789 566.53 787.105 566.35 786.049 566.182C784.993 566.014 784.243 565.768 783.799 565.444C783.355 565.12 783.133 564.52 783.133 563.644C783.133 562.768 783.439 562.12 784.051 561.7C784.675 561.28 785.449 561.07 786.373 561.07C787.105 561.07 788.023 561.154 789.127 561.322L789.631 561.412L789.595 562.564C788.263 562.372 787.213 562.276 786.445 562.276ZM794.812 562.276C793.504 562.276 792.85 562.732 792.85 563.644C792.85 564.064 793 564.364 793.3 564.544C793.6 564.712 794.284 564.892 795.352 565.084C796.42 565.264 797.176 565.522 797.62 565.858C798.064 566.194 798.286 566.824 798.286 567.748C798.286 568.672 797.986 569.35 797.386 569.782C796.798 570.214 795.934 570.43 794.794 570.43C794.05 570.43 793.174 570.346 792.166 570.178L791.626 570.088L791.698 568.918C793.066 569.122 794.098 569.224 794.794 569.224C795.49 569.224 796.018 569.116 796.378 568.9C796.75 568.672 796.936 568.3 796.936 567.784C796.936 567.256 796.78 566.902 796.468 566.722C796.156 566.53 795.472 566.35 794.416 566.182C793.36 566.014 792.61 565.768 792.166 565.444C791.722 565.12 791.5 564.52 791.5 563.644C791.5 562.768 791.806 562.12 792.418 561.7C793.042 561.28 793.816 561.07 794.74 561.07C795.472 561.07 796.39 561.154 797.494 561.322L797.998 561.412L797.962 562.564C796.63 562.372 795.58 562.276 794.812 562.276Z" fill="#17324D"/>
<mask id="path-21-inside-1_40000001_3741" fill="white">
<path d="M0 778.25H1440V840.25H0V778.25Z"/>
</mask>
<path d="M0 778.25H1440V840.25H0V778.25Z" fill="#004D99"/>
<path d="M0 778.25V779.25H1440V778.25V777.25H0V778.25Z" fill="white" fill-opacity="0.5" mask="url(#path-21-inside-1_40000001_3741)"/>
<path d="M30.482 814.25H25.106V804.66H26.66V812.864H30.482V814.25ZM36.5525 812.99L36.9445 812.948L36.9725 814.082C35.9085 814.297 34.9659 814.404 34.1445 814.404C33.1085 814.404 32.3619 814.119 31.9045 813.55C31.4565 812.981 31.2325 812.071 31.2325 810.82C31.2325 808.337 32.2452 807.096 34.2705 807.096C36.2305 807.096 37.2105 808.165 37.2105 810.302L37.1125 811.394H32.7725C32.7819 811.973 32.9079 812.397 33.1505 812.668C33.3932 812.939 33.8459 813.074 34.5085 813.074C35.1712 813.074 35.8525 813.046 36.5525 812.99ZM35.7125 810.218C35.7125 809.527 35.6005 809.047 35.3765 808.776C35.1619 808.496 34.7932 808.356 34.2705 808.356C33.7479 808.356 33.3652 808.501 33.1225 808.79C32.8892 809.079 32.7679 809.555 32.7585 810.218H35.7125ZM44.7959 815.202C44.7959 816.733 43.6899 817.498 41.4779 817.498C40.4139 817.498 39.6252 817.353 39.1119 817.064C38.5986 816.775 38.3419 816.247 38.3419 815.482C38.3419 815.137 38.4259 814.838 38.5939 814.586C38.7619 814.343 39.0326 814.077 39.4059 813.788C39.0979 813.583 38.9439 813.242 38.9439 812.766C38.9439 812.579 39.0699 812.276 39.3219 811.856L39.4479 811.646C38.7759 811.245 38.4399 810.545 38.4399 809.546C38.4399 808.706 38.6919 808.09 39.1959 807.698C39.6999 807.306 40.3812 807.11 41.2399 807.11C41.6506 807.11 42.0566 807.157 42.4579 807.25L42.6679 807.292L44.8379 807.236V808.468L43.6759 808.398C43.9279 808.725 44.0539 809.107 44.0539 809.546C44.0539 810.461 43.8206 811.095 43.3539 811.45C42.8966 811.795 42.1779 811.968 41.1979 811.968C40.9552 811.968 40.7499 811.949 40.5819 811.912C40.4512 812.229 40.3859 812.477 40.3859 812.654C40.3859 812.822 40.4699 812.939 40.6379 813.004C40.8152 813.069 41.2352 813.107 41.8979 813.116C43.0086 813.125 43.7692 813.275 44.1799 813.564C44.5906 813.853 44.7959 814.399 44.7959 815.202ZM39.8399 815.342C39.8399 815.669 39.9706 815.902 40.2319 816.042C40.4932 816.182 40.9412 816.252 41.5759 816.252C42.7052 816.252 43.2699 815.93 43.2699 815.286C43.2699 814.922 43.1672 814.689 42.9619 814.586C42.7659 814.493 42.3692 814.441 41.7719 814.432L40.3999 814.348C40.1946 814.516 40.0499 814.67 39.9659 814.81C39.8819 814.959 39.8399 815.137 39.8399 815.342ZM39.9519 809.546C39.9519 809.975 40.0546 810.293 40.2599 810.498C40.4652 810.694 40.7966 810.792 41.2539 810.792C41.7112 810.792 42.0379 810.694 42.2339 810.498C42.4392 810.293 42.5419 809.975 42.5419 809.546C42.5419 809.117 42.4392 808.804 42.2339 808.608C42.0286 808.403 41.6972 808.3 41.2399 808.3C40.3812 808.3 39.9519 808.715 39.9519 809.546ZM51.2134 809.406V812.598C51.2227 812.803 51.274 812.957 51.3674 813.06C51.47 813.153 51.624 813.214 51.8294 813.242L51.7874 814.404C50.9847 814.404 50.364 814.231 49.9254 813.886C49.1787 814.231 48.4274 814.404 47.6714 814.404C46.2807 814.404 45.5854 813.662 45.5854 812.178C45.5854 811.469 45.772 810.955 46.1454 810.638C46.528 810.321 47.1114 810.129 47.8954 810.064L49.7014 809.91V809.406C49.7014 809.033 49.6174 808.771 49.4494 808.622C49.2907 808.473 49.0527 808.398 48.7354 808.398C48.138 808.398 47.3914 808.435 46.4954 808.51L46.0474 808.538L45.9914 807.46C47.0087 807.217 47.942 807.096 48.7914 807.096C49.65 807.096 50.266 807.283 50.6394 807.656C51.022 808.02 51.2134 808.603 51.2134 809.406ZM48.0774 811.142C47.4334 811.198 47.1114 811.548 47.1114 812.192C47.1114 812.836 47.396 813.158 47.9654 813.158C48.432 813.158 48.9267 813.083 49.4494 812.934L49.7014 812.85V810.988L48.0774 811.142ZM53.2131 814.25V804.338H54.7391V814.25H53.2131ZM59.9283 814.25V804.66H62.6443L65.5563 812.878H65.7663V804.66H67.3203V814.25H64.6603L61.6783 806.018H61.4823V814.25H59.9283ZM69.6399 808.006C70.1252 807.399 70.9279 807.096 72.0479 807.096C73.1679 807.096 73.9659 807.399 74.4419 808.006C74.9272 808.613 75.1699 809.523 75.1699 810.736C75.1699 811.949 74.9366 812.864 74.4699 813.48C74.0032 814.096 73.1959 814.404 72.0479 814.404C70.8999 814.404 70.0926 814.096 69.6259 813.48C69.1592 812.864 68.9259 811.949 68.9259 810.736C68.9259 809.523 69.1639 808.613 69.6399 808.006ZM70.7879 812.556C71.0026 812.929 71.4226 813.116 72.0479 813.116C72.6732 813.116 73.0932 812.929 73.3079 812.556C73.5226 812.183 73.6299 811.571 73.6299 810.722C73.6299 809.873 73.5132 809.271 73.2799 808.916C73.0559 808.561 72.6452 808.384 72.0479 808.384C71.4506 808.384 71.0352 808.561 70.8019 808.916C70.5779 809.271 70.4659 809.873 70.4659 810.722C70.4659 811.571 70.5732 812.183 70.7879 812.556ZM80.4517 808.552H78.5197V811.632C78.5197 812.201 78.5617 812.579 78.6457 812.766C78.7297 812.953 78.9444 813.046 79.2897 813.046L80.4377 813.004L80.5077 814.222C79.8824 814.343 79.4064 814.404 79.0797 814.404C78.2864 814.404 77.7404 814.222 77.4417 813.858C77.1524 813.494 77.0077 812.808 77.0077 811.8V808.552H76.1117V807.25H77.0077V805.22H78.5197V807.25H80.4517V808.552ZM86.6873 812.99L87.0793 812.948L87.1073 814.082C86.0433 814.297 85.1006 814.404 84.2793 814.404C83.2433 814.404 82.4966 814.119 82.0393 813.55C81.5913 812.981 81.3673 812.071 81.3673 810.82C81.3673 808.337 82.38 807.096 84.4053 807.096C86.3653 807.096 87.3453 808.165 87.3453 810.302L87.2473 811.394H82.9073C82.9166 811.973 83.0426 812.397 83.2853 812.668C83.528 812.939 83.9806 813.074 84.6433 813.074C85.306 813.074 85.9873 813.046 86.6873 812.99ZM85.8473 810.218C85.8473 809.527 85.7353 809.047 85.5113 808.776C85.2966 808.496 84.928 808.356 84.4053 808.356C83.8826 808.356 83.5 808.501 83.2573 808.79C83.024 809.079 82.9026 809.555 82.8933 810.218H85.8473ZM93.6707 808.692C92.5693 808.543 91.7713 808.468 91.2767 808.468C90.782 808.468 90.4367 808.529 90.2407 808.65C90.054 808.762 89.9607 808.944 89.9607 809.196C89.9607 809.448 90.0633 809.625 90.2687 809.728C90.4833 809.831 90.978 809.952 91.7527 810.092C92.5367 810.223 93.092 810.433 93.4187 810.722C93.7453 811.011 93.9087 811.525 93.9087 812.262C93.9087 812.999 93.6707 813.541 93.1947 813.886C92.728 814.231 92.042 814.404 91.1367 814.404C90.5673 814.404 89.8487 814.325 88.9807 814.166L88.5467 814.096L88.6027 812.822C89.7227 812.971 90.53 813.046 91.0247 813.046C91.5193 813.046 91.8693 812.985 92.0747 812.864C92.2893 812.743 92.3967 812.542 92.3967 812.262C92.3967 811.982 92.294 811.791 92.0887 811.688C91.8927 811.576 91.412 811.459 90.6467 811.338C89.8907 811.207 89.3353 811.007 88.9807 810.736C88.626 810.465 88.4487 809.971 88.4487 809.252C88.4487 808.533 88.6913 807.997 89.1767 807.642C89.6713 807.287 90.3013 807.11 91.0667 807.11C91.664 807.11 92.3967 807.185 93.2647 807.334L93.6987 807.418L93.6707 808.692Z" fill="white"/>
<path d="M24 815.79H37.9394V816.21H24V815.79ZM45.1466 815.79H94.4547V816.21H45.1466V815.79Z" fill="white"/>
<path d="M123.62 811.268H121.66V814.25H120.106V804.66H123.62C125.795 804.66 126.882 805.733 126.882 807.88C126.882 808.981 126.607 809.821 126.056 810.4C125.515 810.979 124.703 811.268 123.62 811.268ZM121.66 809.924H123.606C124.726 809.924 125.286 809.243 125.286 807.88C125.286 807.227 125.151 806.751 124.88 806.452C124.609 806.153 124.185 806.004 123.606 806.004H121.66V809.924ZM128.195 814.25V807.25H129.707V808.09C130.501 807.577 131.294 807.245 132.087 807.096V808.622C131.285 808.781 130.599 808.986 130.029 809.238L129.721 809.364V814.25H128.195ZM133.254 814.25V807.25H134.78V814.25H133.254ZM133.254 806.06V804.45H134.78V806.06H133.254ZM135.973 807.25H137.569L138.913 812.948H139.361L140.761 807.25H142.315L140.495 814.25H137.779L135.973 807.25ZM148.592 809.406V812.598C148.602 812.803 148.653 812.957 148.746 813.06C148.849 813.153 149.003 813.214 149.208 813.242L149.166 814.404C148.364 814.404 147.743 814.231 147.304 813.886C146.558 814.231 145.806 814.404 145.05 814.404C143.66 814.404 142.964 813.662 142.964 812.178C142.964 811.469 143.151 810.955 143.524 810.638C143.907 810.321 144.49 810.129 145.274 810.064L147.08 809.91V809.406C147.08 809.033 146.996 808.771 146.828 808.622C146.67 808.473 146.432 808.398 146.114 808.398C145.517 808.398 144.77 808.435 143.874 808.51L143.426 808.538L143.37 807.46C144.388 807.217 145.321 807.096 146.17 807.096C147.029 807.096 147.645 807.283 148.018 807.656C148.401 808.02 148.592 808.603 148.592 809.406ZM145.456 811.142C144.812 811.198 144.49 811.548 144.49 812.192C144.49 812.836 144.775 813.158 145.344 813.158C145.811 813.158 146.306 813.083 146.828 812.934L147.08 812.85V810.988L145.456 811.142ZM153.126 807.096C153.621 807.096 154.204 807.161 154.876 807.292L155.226 807.362L155.17 808.566C154.433 808.491 153.887 808.454 153.532 808.454C152.823 808.454 152.347 808.613 152.104 808.93C151.861 809.247 151.74 809.845 151.74 810.722C151.74 811.599 151.857 812.206 152.09 812.542C152.323 812.878 152.809 813.046 153.546 813.046L155.184 812.934L155.226 814.152C154.283 814.32 153.574 814.404 153.098 814.404C152.034 814.404 151.283 814.119 150.844 813.55C150.415 812.971 150.2 812.029 150.2 810.722C150.2 809.415 150.429 808.487 150.886 807.936C151.343 807.376 152.09 807.096 153.126 807.096ZM156.057 807.25H157.555L159.039 812.948H159.417L160.901 807.25H162.413L159.753 817.26H158.255L159.095 814.25H157.891L156.057 807.25ZM170.364 811.268H168.404V814.25H166.85V804.66H170.364C172.539 804.66 173.626 805.733 173.626 807.88C173.626 808.981 173.351 809.821 172.8 810.4C172.259 810.979 171.447 811.268 170.364 811.268ZM168.404 809.924H170.35C171.47 809.924 172.03 809.243 172.03 807.88C172.03 807.227 171.895 806.751 171.624 806.452C171.353 806.153 170.929 806.004 170.35 806.004H168.404V809.924ZM175.318 808.006C175.803 807.399 176.606 807.096 177.726 807.096C178.846 807.096 179.644 807.399 180.12 808.006C180.605 808.613 180.848 809.523 180.848 810.736C180.848 811.949 180.614 812.864 180.148 813.48C179.681 814.096 178.874 814.404 177.726 814.404C176.578 814.404 175.77 814.096 175.304 813.48C174.837 812.864 174.604 811.949 174.604 810.736C174.604 809.523 174.842 808.613 175.318 808.006ZM176.466 812.556C176.68 812.929 177.1 813.116 177.726 813.116C178.351 813.116 178.771 812.929 178.986 812.556C179.2 812.183 179.308 811.571 179.308 810.722C179.308 809.873 179.191 809.271 178.958 808.916C178.734 808.561 178.323 808.384 177.726 808.384C177.128 808.384 176.713 808.561 176.48 808.916C176.256 809.271 176.144 809.873 176.144 810.722C176.144 811.571 176.251 812.183 176.466 812.556ZM182.447 814.25V804.338H183.973V814.25H182.447ZM185.904 814.25V807.25H187.43V814.25H185.904ZM185.904 806.06V804.45H187.43V806.06H185.904ZM191.899 807.096C192.394 807.096 192.977 807.161 193.649 807.292L193.999 807.362L193.943 808.566C193.206 808.491 192.66 808.454 192.305 808.454C191.596 808.454 191.12 808.613 190.877 808.93C190.635 809.247 190.513 809.845 190.513 810.722C190.513 811.599 190.63 812.206 190.863 812.542C191.097 812.878 191.582 813.046 192.319 813.046L193.957 812.934L193.999 814.152C193.057 814.32 192.347 814.404 191.871 814.404C190.807 814.404 190.056 814.119 189.617 813.55C189.188 812.971 188.973 812.029 188.973 810.722C188.973 809.415 189.202 808.487 189.659 807.936C190.117 807.376 190.863 807.096 191.899 807.096ZM194.831 807.25H196.329L197.813 812.948H198.191L199.675 807.25H201.187L198.527 817.26H197.029L197.869 814.25H196.665L194.831 807.25Z" fill="white"/>
<path d="M119 815.79H158.127V816.21H119V815.79ZM160.561 815.79H196.9V816.21H160.561V815.79ZM199.334 815.79H201.439V816.21H199.334V815.79Z" fill="white"/>
<path d="M226.28 814.25L228.646 804.66H231.74L234.12 814.25H232.552L232.034 812.192H228.352L227.834 814.25H226.28ZM229.85 805.962L228.66 810.82H231.726L230.55 805.962H229.85ZM237.855 807.096C238.349 807.096 238.933 807.161 239.605 807.292L239.955 807.362L239.899 808.566C239.161 808.491 238.615 808.454 238.261 808.454C237.551 808.454 237.075 808.613 236.833 808.93C236.59 809.247 236.469 809.845 236.469 810.722C236.469 811.599 236.585 812.206 236.819 812.542C237.052 812.878 237.537 813.046 238.275 813.046L239.913 812.934L239.955 814.152C239.012 814.32 238.303 814.404 237.827 814.404C236.763 814.404 236.011 814.119 235.573 813.55C235.143 812.971 234.929 812.029 234.929 810.722C234.929 809.415 235.157 808.487 235.615 807.936C236.072 807.376 236.819 807.096 237.855 807.096ZM243.98 807.096C244.474 807.096 245.058 807.161 245.73 807.292L246.08 807.362L246.024 808.566C245.286 808.491 244.74 808.454 244.386 808.454C243.676 808.454 243.2 808.613 242.958 808.93C242.715 809.247 242.594 809.845 242.594 810.722C242.594 811.599 242.71 812.206 242.944 812.542C243.177 812.878 243.662 813.046 244.4 813.046L246.038 812.934L246.08 814.152C245.137 814.32 244.428 814.404 243.952 814.404C242.888 814.404 242.136 814.119 241.698 813.55C241.268 812.971 241.054 812.029 241.054 810.722C241.054 809.415 241.282 808.487 241.74 807.936C242.197 807.376 242.944 807.096 243.98 807.096ZM252.471 812.99L252.863 812.948L252.891 814.082C251.827 814.297 250.884 814.404 250.062 814.404C249.027 814.404 248.28 814.119 247.823 813.55C247.375 812.981 247.151 812.071 247.151 810.82C247.151 808.337 248.163 807.096 250.189 807.096C252.149 807.096 253.129 808.165 253.129 810.302L253.031 811.394H248.691C248.7 811.973 248.826 812.397 249.069 812.668C249.311 812.939 249.764 813.074 250.427 813.074C251.089 813.074 251.771 813.046 252.471 812.99ZM251.631 810.218C251.631 809.527 251.519 809.047 251.295 808.776C251.08 808.496 250.711 808.356 250.189 808.356C249.666 808.356 249.283 808.501 249.041 808.79C248.807 809.079 248.686 809.555 248.677 810.218H251.631ZM259.454 808.692C258.353 808.543 257.555 808.468 257.06 808.468C256.565 808.468 256.22 808.529 256.024 808.65C255.837 808.762 255.744 808.944 255.744 809.196C255.744 809.448 255.847 809.625 256.052 809.728C256.267 809.831 256.761 809.952 257.536 810.092C258.32 810.223 258.875 810.433 259.202 810.722C259.529 811.011 259.692 811.525 259.692 812.262C259.692 812.999 259.454 813.541 258.978 813.886C258.511 814.231 257.825 814.404 256.92 814.404C256.351 814.404 255.632 814.325 254.764 814.166L254.33 814.096L254.386 812.822C255.506 812.971 256.313 813.046 256.808 813.046C257.303 813.046 257.653 812.985 257.858 812.864C258.073 812.743 258.18 812.542 258.18 812.262C258.18 811.982 258.077 811.791 257.872 811.688C257.676 811.576 257.195 811.459 256.43 811.338C255.674 811.207 255.119 811.007 254.764 810.736C254.409 810.465 254.232 809.971 254.232 809.252C254.232 808.533 254.475 807.997 254.96 807.642C255.455 807.287 256.085 807.11 256.85 807.11C257.447 807.11 258.18 807.185 259.048 807.334L259.482 807.418L259.454 808.692ZM266.016 808.692C264.915 808.543 264.117 808.468 263.622 808.468C263.128 808.468 262.782 808.529 262.586 808.65C262.4 808.762 262.306 808.944 262.306 809.196C262.306 809.448 262.409 809.625 262.614 809.728C262.829 809.831 263.324 809.952 264.098 810.092C264.882 810.223 265.438 810.433 265.764 810.722C266.091 811.011 266.254 811.525 266.254 812.262C266.254 812.999 266.016 813.541 265.54 813.886C265.074 814.231 264.388 814.404 263.482 814.404C262.913 814.404 262.194 814.325 261.326 814.166L260.892 814.096L260.948 812.822C262.068 812.971 262.876 813.046 263.37 813.046C263.865 813.046 264.215 812.985 264.42 812.864C264.635 812.743 264.742 812.542 264.742 812.262C264.742 811.982 264.64 811.791 264.434 811.688C264.238 811.576 263.758 811.459 262.992 811.338C262.236 811.207 261.681 811.007 261.326 810.736C260.972 810.465 260.794 809.971 260.794 809.252C260.794 808.533 261.037 807.997 261.522 807.642C262.017 807.287 262.647 807.11 263.412 807.11C264.01 807.11 264.742 807.185 265.61 807.334L266.044 807.418L266.016 808.692ZM267.721 814.25V807.25H269.247V814.25H267.721ZM267.721 806.06V804.45H269.247V806.06H267.721ZM274.36 807.096C275.321 807.096 276.012 807.367 276.432 807.908C276.861 808.44 277.076 809.387 277.076 810.75C277.076 812.113 276.824 813.065 276.32 813.606C275.816 814.138 274.929 814.404 273.66 814.404C273.221 814.404 272.526 814.362 271.574 814.278L271.098 814.236V804.338H272.61V807.516C273.254 807.236 273.837 807.096 274.36 807.096ZM273.66 813.046C274.406 813.046 274.901 812.873 275.144 812.528C275.396 812.173 275.522 811.576 275.522 810.736C275.522 809.896 275.414 809.308 275.2 808.972C274.994 808.627 274.654 808.454 274.178 808.454C273.73 808.454 273.282 808.524 272.834 808.664L272.61 808.734V812.99C273.123 813.027 273.473 813.046 273.66 813.046ZM278.604 814.25V807.25H280.13V814.25H278.604ZM278.604 806.06V804.45H280.13V806.06H278.604ZM282.065 814.25V804.338H283.591V814.25H282.065ZM285.522 814.25V807.25H287.048V814.25H285.522ZM285.522 806.06V804.45H287.048V806.06H285.522ZM292.665 808.552H290.733V811.632C290.733 812.201 290.775 812.579 290.859 812.766C290.943 812.953 291.157 813.046 291.503 813.046L292.651 813.004L292.721 814.222C292.095 814.343 291.619 814.404 291.293 814.404C290.499 814.404 289.953 814.222 289.655 813.858C289.365 813.494 289.221 812.808 289.221 811.8V808.552H288.325V807.25H289.221V805.22H290.733V807.25H292.665V808.552ZM293.272 807.25H294.77L296.254 812.948H296.632L298.116 807.25H299.628L296.968 817.26H295.47L296.31 814.25H295.106L293.272 807.25ZM306.879 805.864C305.694 805.864 305.101 806.279 305.101 807.11C305.101 807.539 305.241 807.847 305.521 808.034C305.801 808.211 306.417 808.435 307.369 808.706C308.33 808.967 309.007 809.285 309.399 809.658C309.791 810.022 309.987 810.601 309.987 811.394C309.987 812.402 309.698 813.158 309.119 813.662C308.55 814.157 307.77 814.404 306.781 814.404C305.988 814.404 305.11 814.311 304.149 814.124L303.645 814.026L303.799 812.78C305.059 812.948 306.02 813.032 306.683 813.032C307.84 813.032 308.419 812.519 308.419 811.492C308.419 811.091 308.288 810.797 308.027 810.61C307.766 810.414 307.178 810.204 306.263 809.98C305.348 809.747 304.667 809.429 304.219 809.028C303.771 808.627 303.547 807.992 303.547 807.124C303.547 806.256 303.827 805.603 304.387 805.164C304.956 804.716 305.74 804.492 306.739 804.492C307.458 804.492 308.307 804.576 309.287 804.744L309.777 804.828L309.651 806.088C308.344 805.939 307.42 805.864 306.879 805.864ZM315.155 808.552H313.223V811.632C313.223 812.201 313.265 812.579 313.349 812.766C313.433 812.953 313.648 813.046 313.993 813.046L315.141 813.004L315.211 814.222C314.586 814.343 314.11 814.404 313.783 814.404C312.99 814.404 312.444 814.222 312.145 813.858C311.856 813.494 311.711 812.808 311.711 811.8V808.552H310.815V807.25H311.711V805.22H313.223V807.25H315.155V808.552ZM321.586 809.406V812.598C321.596 812.803 321.647 812.957 321.74 813.06C321.843 813.153 321.997 813.214 322.202 813.242L322.16 814.404C321.358 814.404 320.737 814.231 320.298 813.886C319.552 814.231 318.8 814.404 318.044 814.404C316.654 814.404 315.958 813.662 315.958 812.178C315.958 811.469 316.145 810.955 316.518 810.638C316.901 810.321 317.484 810.129 318.268 810.064L320.074 809.91V809.406C320.074 809.033 319.99 808.771 319.822 808.622C319.664 808.473 319.426 808.398 319.108 808.398C318.511 808.398 317.764 808.435 316.868 808.51L316.42 808.538L316.364 807.46C317.382 807.217 318.315 807.096 319.164 807.096C320.023 807.096 320.639 807.283 321.012 807.656C321.395 808.02 321.586 808.603 321.586 809.406ZM318.45 811.142C317.806 811.198 317.484 811.548 317.484 812.192C317.484 812.836 317.769 813.158 318.338 813.158C318.805 813.158 319.3 813.083 319.822 812.934L320.074 812.85V810.988L318.45 811.142ZM327.268 808.552H325.336V811.632C325.336 812.201 325.378 812.579 325.462 812.766C325.546 812.953 325.761 813.046 326.106 813.046L327.254 813.004L327.324 814.222C326.699 814.343 326.223 814.404 325.896 814.404C325.103 814.404 324.557 814.222 324.258 813.858C323.969 813.494 323.824 812.808 323.824 811.8V808.552H322.928V807.25H323.824V805.22H325.336V807.25H327.268V808.552ZM333.504 812.99L333.896 812.948L333.924 814.082C332.86 814.297 331.917 814.404 331.096 814.404C330.06 814.404 329.313 814.119 328.856 813.55C328.408 812.981 328.184 812.071 328.184 810.82C328.184 808.337 329.196 807.096 331.222 807.096C333.182 807.096 334.162 808.165 334.162 810.302L334.064 811.394H329.724C329.733 811.973 329.859 812.397 330.102 812.668C330.344 812.939 330.797 813.074 331.46 813.074C332.122 813.074 332.804 813.046 333.504 812.99ZM332.664 810.218C332.664 809.527 332.552 809.047 332.328 808.776C332.113 808.496 331.744 808.356 331.222 808.356C330.699 808.356 330.316 808.501 330.074 808.79C329.84 809.079 329.719 809.555 329.71 810.218H332.664ZM337.155 814.25H335.629V807.25H337.141V807.684C337.804 807.292 338.41 807.096 338.961 807.096C339.773 807.096 340.366 807.325 340.739 807.782C341.588 807.325 342.433 807.096 343.273 807.096C344.113 807.096 344.706 807.357 345.051 807.88C345.396 808.393 345.569 809.266 345.569 810.498V814.25H344.057V810.54C344.057 809.784 343.978 809.247 343.819 808.93C343.67 808.613 343.352 808.454 342.867 808.454C342.447 808.454 341.994 808.547 341.509 808.734L341.271 808.832C341.346 809.019 341.383 809.616 341.383 810.624V814.25H339.871V810.652C339.871 809.821 339.796 809.247 339.647 808.93C339.498 808.613 339.171 808.454 338.667 808.454C338.2 808.454 337.766 808.547 337.365 808.734L337.155 808.818V814.25ZM352.344 812.99L352.736 812.948L352.764 814.082C351.7 814.297 350.757 814.404 349.936 814.404C348.9 814.404 348.153 814.119 347.696 813.55C347.248 812.981 347.024 812.071 347.024 810.82C347.024 808.337 348.036 807.096 350.062 807.096C352.022 807.096 353.002 808.165 353.002 810.302L352.904 811.394H348.564C348.573 811.973 348.699 812.397 348.942 812.668C349.184 812.939 349.637 813.074 350.3 813.074C350.962 813.074 351.644 813.046 352.344 812.99ZM351.504 810.218C351.504 809.527 351.392 809.047 351.168 808.776C350.953 808.496 350.584 808.356 350.062 808.356C349.539 808.356 349.156 808.501 348.914 808.79C348.68 809.079 348.559 809.555 348.55 810.218H351.504ZM355.995 814.25H354.469V807.25H355.981V807.684C356.662 807.292 357.306 807.096 357.913 807.096C358.846 807.096 359.481 807.362 359.817 807.894C360.162 808.417 360.335 809.285 360.335 810.498V814.25H358.823V810.54C358.823 809.784 358.739 809.247 358.571 808.93C358.412 808.613 358.081 808.454 357.577 808.454C357.101 808.454 356.644 808.547 356.205 808.734L355.995 808.818V814.25ZM365.878 808.552H363.946V811.632C363.946 812.201 363.988 812.579 364.072 812.766C364.156 812.953 364.37 813.046 364.716 813.046L365.864 813.004L365.934 814.222C365.308 814.343 364.832 814.404 364.506 814.404C363.712 814.404 363.166 814.222 362.868 813.858C362.578 813.494 362.434 812.808 362.434 811.8V808.552H361.538V807.25H362.434V805.22H363.946V807.25H365.878V808.552Z" fill="white"/>
<path d="M226 815.79H295.346V816.21H226V815.79ZM297.779 815.79H366.199V816.21H297.779V815.79Z" fill="white"/>
</g>
<defs>
<clipPath id="clip0_40000001_3741">
<rect width="1440" height="840" fill="white" transform="translate(0 0.25)"/>
</clipPath>
<clipPath id="clip1_40000001_3741">
<rect width="47" height="24" fill="white" transform="translate(1321 14.25)"/>
</clipPath>
</defs>
</svg>
