<svg width="1440" height="841" viewBox="0 0 1440 841" fill="none" xmlns="http://www.w3.org/2000/svg">
<g clip-path="url(#clip0_1230_22964)">
<rect width="1440" height="840" transform="translate(0 0.25)" fill="white"/>
<rect width="1440" height="52" transform="translate(0 0.25)" fill="#004D99"/>
<path d="M76.104 22.9L76.23 25.15C76.23 25.906 76.104 26.452 75.852 26.788C75.6 27.124 75.072 27.4 74.268 27.616C75.06 27.82 75.582 28.108 75.834 28.48C76.098 28.84 76.23 29.404 76.23 30.172L76.104 32.278C76.104 32.794 76.218 33.19 76.446 33.466C76.674 33.754 77.1 33.916 77.724 33.952V35.608C76.44 35.56 75.528 35.296 74.988 34.816C74.46 34.348 74.196 33.574 74.196 32.494L74.322 30.316C74.322 29.392 73.662 28.75 72.342 28.39V26.86C73.026 26.704 73.524 26.482 73.836 26.194C74.16 25.894 74.322 25.51 74.322 25.042L74.196 22.756C74.196 21.628 74.46 20.836 74.988 20.38C75.528 19.912 76.446 19.654 77.742 19.606L77.76 21.262C77.124 21.31 76.686 21.466 76.446 21.73C76.218 21.994 76.104 22.384 76.104 22.9ZM79.8556 33.25V20.92H83.3476L87.0916 31.486H87.3616V20.92H89.3596V33.25H85.9396L82.1056 22.666H81.8536V33.25H79.8556ZM92.342 25.222C92.966 24.442 93.998 24.052 95.438 24.052C96.878 24.052 97.904 24.442 98.516 25.222C99.14 26.002 99.452 27.172 99.452 28.732C99.452 30.292 99.152 31.468 98.552 32.26C97.952 33.052 96.914 33.448 95.438 33.448C93.962 33.448 92.924 33.052 92.324 32.26C91.724 31.468 91.424 30.292 91.424 28.732C91.424 27.172 91.73 26.002 92.342 25.222ZM93.818 31.072C94.094 31.552 94.634 31.792 95.438 31.792C96.242 31.792 96.782 31.552 97.058 31.072C97.334 30.592 97.472 29.806 97.472 28.714C97.472 27.622 97.322 26.848 97.022 26.392C96.734 25.936 96.206 25.708 95.438 25.708C94.67 25.708 94.136 25.936 93.836 26.392C93.548 26.848 93.404 27.622 93.404 28.714C93.404 29.806 93.542 30.592 93.818 31.072ZM103.363 33.25H101.401V24.25H103.345V24.808C104.197 24.304 104.977 24.052 105.685 24.052C106.729 24.052 107.491 24.346 107.971 24.934C109.063 24.346 110.149 24.052 111.229 24.052C112.309 24.052 113.071 24.388 113.515 25.06C113.959 25.72 114.181 26.842 114.181 28.426V33.25H112.237V28.48C112.237 27.508 112.135 26.818 111.931 26.41C111.739 26.002 111.331 25.798 110.707 25.798C110.167 25.798 109.585 25.918 108.961 26.158L108.655 26.284C108.751 26.524 108.799 27.292 108.799 28.588V33.25H106.855V28.624C106.855 27.556 106.759 26.818 106.567 26.41C106.375 26.002 105.955 25.798 105.307 25.798C104.707 25.798 104.149 25.918 103.633 26.158L103.363 26.266V33.25ZM122.891 31.63L123.395 31.576L123.431 33.034C122.063 33.31 120.851 33.448 119.795 33.448C118.463 33.448 117.503 33.082 116.915 32.35C116.339 31.618 116.051 30.448 116.051 28.84C116.051 25.648 117.353 24.052 119.957 24.052C122.477 24.052 123.737 25.426 123.737 28.174L123.611 29.578H118.031C118.043 30.322 118.205 30.868 118.517 31.216C118.829 31.564 119.411 31.738 120.263 31.738C121.115 31.738 121.991 31.702 122.891 31.63ZM121.811 28.066C121.811 27.178 121.667 26.56 121.379 26.212C121.103 25.852 120.629 25.672 119.957 25.672C119.285 25.672 118.793 25.858 118.481 26.23C118.181 26.602 118.025 27.214 118.013 28.066H121.811ZM135.987 31.63L136.491 31.576L136.527 33.034C135.159 33.31 133.947 33.448 132.891 33.448C131.559 33.448 130.599 33.082 130.011 32.35C129.435 31.618 129.147 30.448 129.147 28.84C129.147 25.648 130.449 24.052 133.053 24.052C135.573 24.052 136.833 25.426 136.833 28.174L136.707 29.578H131.127C131.139 30.322 131.301 30.868 131.613 31.216C131.925 31.564 132.507 31.738 133.359 31.738C134.211 31.738 135.087 31.702 135.987 31.63ZM134.907 28.066C134.907 27.178 134.763 26.56 134.475 26.212C134.199 25.852 133.725 25.672 133.053 25.672C132.381 25.672 131.889 25.858 131.577 26.23C131.277 26.602 131.121 27.214 131.109 28.066H134.907ZM140.681 33.25H138.719V24.25H140.663V24.808C141.539 24.304 142.367 24.052 143.147 24.052C144.347 24.052 145.163 24.394 145.595 25.078C146.039 25.75 146.261 26.866 146.261 28.426V33.25H144.317V28.48C144.317 27.508 144.209 26.818 143.993 26.41C143.789 26.002 143.363 25.798 142.715 25.798C142.103 25.798 141.515 25.918 140.951 26.158L140.681 26.266V33.25ZM153.387 25.924H150.903V29.884C150.903 30.616 150.957 31.102 151.065 31.342C151.173 31.582 151.449 31.702 151.893 31.702L153.369 31.648L153.459 33.214C152.655 33.37 152.043 33.448 151.623 33.448C150.603 33.448 149.901 33.214 149.517 32.746C149.145 32.278 148.959 31.396 148.959 30.1V25.924H147.807V24.25H148.959V21.64H150.903V24.25H153.387V25.924ZM161.405 31.63L161.909 31.576L161.945 33.034C160.577 33.31 159.365 33.448 158.309 33.448C156.977 33.448 156.017 33.082 155.429 32.35C154.853 31.618 154.565 30.448 154.565 28.84C154.565 25.648 155.867 24.052 158.471 24.052C160.991 24.052 162.251 25.426 162.251 28.174L162.125 29.578H156.545C156.557 30.322 156.719 30.868 157.031 31.216C157.343 31.564 157.925 31.738 158.777 31.738C159.629 31.738 160.505 31.702 161.405 31.63ZM160.325 28.066C160.325 27.178 160.181 26.56 159.893 26.212C159.617 25.852 159.143 25.672 158.471 25.672C157.799 25.672 157.307 25.858 156.995 26.23C156.695 26.602 156.539 27.214 156.527 28.066H160.325ZM164.955 32.278L164.829 30.172C164.829 29.404 164.955 28.84 165.207 28.48C165.471 28.108 165.999 27.82 166.791 27.616C165.987 27.4 165.459 27.124 165.207 26.788C164.955 26.452 164.829 25.906 164.829 25.15L164.955 22.9C164.955 22.384 164.835 21.994 164.595 21.73C164.367 21.466 163.935 21.31 163.299 21.262L163.317 19.606C164.613 19.654 165.525 19.912 166.053 20.38C166.593 20.836 166.863 21.628 166.863 22.756L166.737 25.042C166.737 25.51 166.893 25.894 167.205 26.194C167.529 26.482 168.033 26.704 168.717 26.86V28.39C167.397 28.75 166.737 29.392 166.737 30.316L166.863 32.494C166.863 33.574 166.593 34.348 166.053 34.816C165.525 35.296 164.619 35.56 163.335 35.608V33.952C163.959 33.916 164.385 33.754 164.613 33.466C164.841 33.19 164.955 32.794 164.955 32.278Z" fill="white"/>
<path d="M72 35.23H75.1163V35.77H72V35.23ZM78.2666 35.23H162.796V35.77H78.2666V35.23ZM165.931 35.23H169.059V35.77H165.931V35.23Z" fill="white"/>
<g clip-path="url(#clip1_1230_22964)">
<path d="M1322.11 31.25V21.66H1323.66V31.25H1322.11ZM1324.94 23.046V21.66H1331.94V23.046H1329.24V31.25H1327.67V23.046H1324.94ZM1331.83 31.25L1334.2 21.66H1337.29L1339.67 31.25H1338.11L1337.59 29.192H1333.91L1333.39 31.25H1331.83ZM1335.4 22.962L1334.21 27.82H1337.28L1336.1 22.962H1335.4Z" fill="white"/>
<path d="M1356 29.4498L1350.4 23.8498L1351.1 23.0498L1356 27.9498L1360.9 23.0498L1361.6 23.8498L1356 29.4498Z" fill="white"/>
</g>
<rect width="1440" height="93" transform="translate(0 52.25)" fill="#F2F7FC"/>
<rect x="72.5" y="69.25" width="208.024" height="59" fill="#F2F7FC"/>
<rect x="72.5" y="69.25" width="208.024" height="59" stroke="#C5C7C9"/>
<line x1="73.1957" y1="69.6453" x2="280.121" y2="127.299" stroke="#C5C7C9"/>
<path d="M119.051 86.75C122.573 86.75 125.051 87.75 126.482 89.75C127.937 91.7273 128.664 94.7616 128.664 98.8525C128.664 102.943 127.937 105.955 126.482 107.887C125.051 109.796 122.573 110.75 119.051 110.75C115.528 110.75 113.04 109.796 111.585 107.887C110.153 105.955 109.438 102.943 109.438 98.8525C109.438 94.7616 110.153 91.7273 111.585 89.75C113.04 87.7501 115.528 86.75 119.051 86.75ZM139.597 86.75C141.71 86.75 143.995 86.9886 146.449 87.4658L147.676 87.7041L147.54 91.3525C144.813 91.0571 142.574 90.9092 140.824 90.9092C139.097 90.9092 137.88 91.1134 137.176 91.5225C136.471 91.9316 135.948 92.6931 135.607 93.8066C135.289 94.8975 135.131 96.784 135.131 99.4658C135.131 102.125 135.46 103.988 136.119 105.057C136.778 106.125 138.142 106.659 140.21 106.659L143.04 106.522V102.022H140.926V97.9316H147.676V109.966C144.426 110.489 141.789 110.75 139.767 110.75C136.153 110.75 133.664 109.784 132.301 107.853C130.96 105.921 130.29 102.852 130.29 98.6475C130.29 94.4433 130.994 91.4095 132.403 89.5459C133.812 87.6823 136.21 86.75 139.597 86.75ZM159.289 86.75C162.812 86.75 165.29 87.75 166.722 89.75C168.176 91.7273 168.903 94.7617 168.903 98.8525C168.903 102.943 168.176 105.955 166.722 107.887C165.29 109.796 162.812 110.75 159.289 110.75C155.767 110.75 153.278 109.796 151.823 107.887C150.391 105.955 149.676 102.943 149.676 98.8525C149.676 94.7617 150.392 91.7273 151.823 89.75C153.278 87.7501 155.767 86.7501 159.289 86.75ZM194.433 90.9854H183.773V96.5967H192.314V100.762H183.773V106.515H194.433V110.75H178.903V86.75H194.433V90.9854ZM212.458 106.515H212.811V86.75H217.682V110.75H209.67L203.67 90.9854H203.316V110.75H198.446V86.75H206.67L212.458 106.515ZM238.411 91.0557H232.059V110.75H227.188V91.0557H220.765V86.75H238.411V91.0557ZM257.024 90.9854H246.365V96.5967H254.907V100.762H246.365V106.515H257.024V110.75H241.495V86.75H257.024V90.9854ZM100.704 106.182H109.193V110.341H96V87.1592H100.704V106.182ZM119.051 90.8408C117.233 90.8408 115.983 91.4773 115.301 92.75C114.619 94.0227 114.278 96.0685 114.278 98.8867C114.278 101.682 114.608 103.682 115.267 104.887C115.948 106.068 117.21 106.659 119.051 106.659C120.892 106.659 122.142 106.068 122.801 104.887C123.483 103.682 123.823 101.682 123.823 98.8867C123.823 96.0686 123.483 94.0227 122.801 92.75C122.119 91.4773 120.869 90.8408 119.051 90.8408ZM159.289 90.8408C157.471 90.8409 156.221 91.4774 155.539 92.75C154.857 94.0227 154.517 96.0687 154.517 98.8867C154.517 101.682 154.847 103.682 155.506 104.887C156.188 106.068 157.449 106.659 159.289 106.659C161.13 106.659 162.38 106.068 163.039 104.887C163.721 103.682 164.062 101.682 164.062 98.8867C164.062 96.0685 163.721 94.0227 163.039 92.75C162.357 91.4774 161.107 90.8408 159.289 90.8408Z" fill="black"/>
<path d="M305.024 68.75V128.75" stroke="#C5C7C9" stroke-linejoin="round"/>
<rect width="146" height="48" transform="translate(329.024 74.75)" fill="#F6E4C8"/>
<path d="M356.349 95.3796H349.146V82.5313H351.228V93.5227H356.349V95.3796Z" fill="black"/>
<path d="M358.311 87.0142C358.961 86.2014 360.037 85.795 361.537 85.795C363.038 85.795 364.107 86.2014 364.745 87.0142C365.395 87.8269 365.72 89.0461 365.72 90.6717C365.72 92.2972 365.407 93.5227 364.782 94.348C364.157 95.1732 363.075 95.5859 361.537 95.5859C359.999 95.5859 358.918 95.1732 358.292 94.348C357.667 93.5227 357.355 92.2972 357.355 90.6717C357.355 89.0461 357.673 87.8269 358.311 87.0142ZM359.849 93.11C360.137 93.6102 360.699 93.8603 361.537 93.8603C362.375 93.8603 362.938 93.6102 363.225 93.11C363.513 92.6098 363.657 91.7908 363.657 90.6529C363.657 89.515 363.5 88.7085 363.188 88.2333C362.888 87.7582 362.337 87.5206 361.537 87.5206C360.737 87.5206 360.18 87.7582 359.868 88.2333C359.568 88.7085 359.418 89.515 359.418 90.6529C359.418 91.7908 359.562 92.6098 359.849 93.11Z" fill="black"/>
<path d="M375.947 96.655C375.947 98.7057 374.466 99.7311 371.502 99.7311C370.077 99.7311 369.02 99.5373 368.332 99.1496C367.644 98.762 367.301 98.0555 367.301 97.0301C367.301 96.5675 367.413 96.1673 367.638 95.8297C367.863 95.5046 368.226 95.1482 368.726 94.7606C368.313 94.4855 368.107 94.0291 368.107 93.3914C368.107 93.1413 368.276 92.7349 368.614 92.1722L368.782 91.8908C367.882 91.3532 367.432 90.4153 367.432 89.0774C367.432 87.952 367.77 87.1267 368.445 86.6015C369.12 86.0763 370.033 85.8137 371.183 85.8137C371.733 85.8137 372.277 85.8763 372.815 86.0013L373.096 86.0576L376.004 85.9825V87.6331L374.447 87.5393C374.784 87.977 374.953 88.4897 374.953 89.0774C374.953 90.3028 374.641 91.1531 374.015 91.6283C373.403 92.0909 372.44 92.3222 371.127 92.3222C370.802 92.3222 370.527 92.2972 370.302 92.2472C370.127 92.6724 370.039 93.0037 370.039 93.2413C370.039 93.4664 370.152 93.6227 370.377 93.7102C370.614 93.7978 371.177 93.8478 372.065 93.8603C373.553 93.8728 374.572 94.0729 375.122 94.4605C375.672 94.8481 375.947 95.5796 375.947 96.655ZM369.308 96.8426C369.308 97.2802 369.483 97.5928 369.833 97.7804C370.183 97.968 370.783 98.0617 371.633 98.0617C373.146 98.0617 373.903 97.6303 373.903 96.7675C373.903 96.2799 373.765 95.9673 373.49 95.8297C373.228 95.7047 372.696 95.6359 371.896 95.6234L370.058 95.5109C369.783 95.7359 369.589 95.9423 369.476 96.1298C369.364 96.3299 369.308 96.5675 369.308 96.8426ZM369.458 89.0774C369.458 89.6526 369.595 90.0777 369.87 90.3528C370.145 90.6154 370.589 90.7467 371.202 90.7467C371.815 90.7467 372.252 90.6154 372.515 90.3528C372.79 90.0777 372.928 89.6526 372.928 89.0774C372.928 88.5022 372.79 88.0833 372.515 87.8207C372.24 87.5456 371.796 87.408 371.183 87.408C370.033 87.408 369.458 87.9645 369.458 89.0774Z" fill="black"/>
<path d="M378.112 87.0142C378.762 86.2014 379.837 85.795 381.338 85.795C382.838 85.795 383.907 86.2014 384.545 87.0142C385.195 87.8269 385.52 89.0461 385.52 90.6717C385.52 92.2972 385.208 93.5227 384.583 94.348C383.957 95.1732 382.876 95.5859 381.338 95.5859C379.8 95.5859 378.718 95.1732 378.093 94.348C377.468 93.5227 377.155 92.2972 377.155 90.6717C377.155 89.0461 377.474 87.8269 378.112 87.0142ZM379.65 93.11C379.937 93.6102 380.5 93.8603 381.338 93.8603C382.176 93.8603 382.738 93.6102 383.026 93.11C383.313 92.6098 383.457 91.7908 383.457 90.6529C383.457 89.515 383.301 88.7085 382.988 88.2333C382.688 87.7582 382.138 87.5206 381.338 87.5206C380.538 87.5206 379.981 87.7582 379.668 88.2333C379.368 88.7085 379.218 89.515 379.218 90.6529C379.218 91.7908 379.362 92.6098 379.65 93.11Z" fill="black"/>
<path d="M395.687 84.1444C394.098 84.1444 393.304 84.7009 393.304 85.8137C393.304 86.3889 393.492 86.8016 393.867 87.0517C394.242 87.2892 395.068 87.5894 396.343 87.952C397.631 88.3021 398.538 88.7272 399.063 89.2274C399.588 89.7151 399.85 90.4904 399.85 91.5532C399.85 92.9037 399.463 93.9166 398.688 94.5918C397.925 95.2545 396.881 95.5859 395.555 95.5859C394.492 95.5859 393.317 95.4608 392.029 95.2108L391.354 95.0795L391.56 93.4101C393.248 93.6352 394.536 93.7477 395.424 93.7477C396.974 93.7477 397.75 93.06 397.75 91.6845C397.75 91.1468 397.575 90.753 397.225 90.5029C396.874 90.2403 396.087 89.9589 394.861 89.6588C393.636 89.3462 392.723 88.9211 392.123 88.3834C391.523 87.8457 391.222 86.9954 391.222 85.8325C391.222 84.6696 391.598 83.7943 392.348 83.2066C393.111 82.6064 394.161 82.3063 395.499 82.3063C396.462 82.3063 397.6 82.4188 398.913 82.6439L399.569 82.7564L399.4 84.4445C397.65 84.2444 396.412 84.1444 395.687 84.1444Z" fill="black"/>
<path d="M401.857 95.3796V86.0013H403.901V95.3796H401.857ZM401.857 84.407V82.25H403.901V84.407H401.857Z" fill="black"/>
<path d="M412.89 87.9332C411.414 87.7332 410.345 87.6331 409.682 87.6331C409.02 87.6331 408.557 87.7144 408.294 87.877C408.044 88.027 407.919 88.2708 407.919 88.6085C407.919 88.9461 408.057 89.1837 408.332 89.3212C408.619 89.4588 409.282 89.6213 410.32 89.8089C411.37 89.9839 412.114 90.2653 412.552 90.6529C412.99 91.0406 413.208 91.7283 413.208 92.7161C413.208 93.704 412.89 94.4292 412.252 94.8919C411.627 95.3546 410.708 95.5859 409.495 95.5859C408.732 95.5859 407.769 95.4796 406.606 95.267L406.025 95.1732L406.1 93.4664C407.6 93.6665 408.682 93.7665 409.345 93.7665C410.007 93.7665 410.476 93.6852 410.751 93.5227C411.039 93.3601 411.183 93.0913 411.183 92.7161C411.183 92.341 411.045 92.0847 410.77 91.9471C410.508 91.7971 409.864 91.6408 408.838 91.4782C407.825 91.3031 407.081 91.0343 406.606 90.6717C406.131 90.309 405.893 89.6463 405.893 88.6835C405.893 87.7206 406.219 87.0017 406.869 86.5265C407.531 86.0513 408.376 85.8137 409.401 85.8137C410.201 85.8137 411.183 85.9138 412.346 86.1138L412.927 86.2264L412.89 87.9332Z" fill="black"/>
<path d="M420.219 87.7457H417.63V91.8721C417.63 92.6349 417.687 93.1413 417.799 93.3914C417.912 93.6415 418.199 93.7665 418.662 93.7665L420.2 93.7102L420.294 95.342C419.456 95.5046 418.818 95.5859 418.381 95.5859C417.318 95.5859 416.586 95.342 416.186 94.8544C415.798 94.3667 415.605 93.4476 415.605 92.0972V87.7457H414.404V86.0013H415.605V83.2816H417.63V86.0013H420.219V87.7457Z" fill="black"/>
<path d="M428.573 93.6915L429.098 93.6352L429.136 95.1545C427.71 95.4421 426.447 95.5859 425.347 95.5859C423.959 95.5859 422.958 95.2045 422.346 94.4417C421.745 93.679 421.445 92.4598 421.445 90.7842C421.445 87.4581 422.802 85.795 425.516 85.795C428.141 85.795 429.454 87.2267 429.454 90.0902L429.323 91.5532H423.509C423.521 92.3285 423.69 92.8974 424.015 93.2601C424.34 93.6227 424.947 93.804 425.834 93.804C426.722 93.804 427.635 93.7665 428.573 93.6915ZM427.447 89.9777C427.447 89.0524 427.297 88.4084 426.997 88.0458C426.71 87.6706 426.216 87.4831 425.516 87.4831C424.815 87.4831 424.303 87.6769 423.977 88.0645C423.665 88.4522 423.502 89.0899 423.49 89.9777H427.447Z" fill="black"/>
<path d="M433.465 95.3796H431.42V86.0013H433.446V86.5828C434.334 86.0576 435.147 85.795 435.884 85.795C436.972 85.795 437.766 86.1013 438.266 86.7141C439.404 86.1013 440.536 85.795 441.661 85.795C442.787 85.795 443.581 86.1451 444.043 86.8453C444.506 87.5331 444.737 88.7022 444.737 90.3528V95.3796H442.712V90.4091C442.712 89.3962 442.605 88.6772 442.393 88.2521C442.193 87.8269 441.768 87.6144 441.117 87.6144C440.555 87.6144 439.948 87.7394 439.298 87.9895L438.979 88.1208C439.079 88.3709 439.129 89.1712 439.129 90.5216V95.3796H437.104V90.5591C437.104 89.4462 437.004 88.6772 436.803 88.2521C436.603 87.8269 436.166 87.6144 435.49 87.6144C434.865 87.6144 434.284 87.7394 433.746 87.9895L433.465 88.102V95.3796Z" fill="black"/>
<path d="M454.076 88.8898V93.1663C454.089 93.4414 454.157 93.6477 454.282 93.7853C454.42 93.9103 454.626 93.9916 454.901 94.0291L454.845 95.5859C453.77 95.5859 452.938 95.3546 452.351 94.8919C451.35 95.3546 450.344 95.5859 449.331 95.5859C447.468 95.5859 446.536 94.5918 446.536 92.6036C446.536 91.6533 446.786 90.9655 447.286 90.5404C447.799 90.1152 448.58 89.8589 449.631 89.7714L452.05 89.565V88.8898C452.05 88.3896 451.938 88.0395 451.713 87.8394C451.5 87.6394 451.181 87.5393 450.756 87.5393C449.956 87.5393 448.956 87.5894 447.755 87.6894L447.155 87.7269L447.08 86.2827C448.443 85.9575 449.693 85.795 450.831 85.795C451.982 85.795 452.807 86.0451 453.307 86.5452C453.82 87.0329 454.076 87.8144 454.076 88.8898ZM449.875 91.2156C449.012 91.2906 448.58 91.7596 448.58 92.6224C448.58 93.4852 448.962 93.9166 449.725 93.9166C450.35 93.9166 451.013 93.8165 451.713 93.6164L452.05 93.5039V91.0093L449.875 91.2156Z" fill="black"/>
<path d="M366.3 115.044V102.195H368.382V115.044H366.3Z" fill="black"/>
<path d="M370.099 104.052V102.195H379.478V104.052H375.858V115.044H373.757V104.052H370.099Z" fill="black"/>
<path d="M379.755 110.917V109.06H385.363V110.917H379.755Z" fill="black"/>
<path d="M386.644 102.195H388.839L390.677 113.243H391.071L393.509 102.233H395.948L398.386 113.243H398.799L400.637 102.195H402.831L400.299 115.044H396.942L394.729 104.746L392.534 115.044H389.158L386.644 102.195Z" fill="black"/>
<path d="M411.187 108.554V112.83C411.2 113.106 411.268 113.312 411.393 113.449C411.531 113.574 411.737 113.656 412.012 113.693L411.956 115.25C410.881 115.25 410.049 115.019 409.461 114.556C408.461 115.019 407.455 115.25 406.442 115.25C404.579 115.25 403.647 114.256 403.647 112.268C403.647 111.317 403.897 110.63 404.397 110.204C404.91 109.779 405.691 109.523 406.742 109.435L409.161 109.229V108.554C409.161 108.054 409.049 107.704 408.824 107.504C408.611 107.303 408.292 107.203 407.867 107.203C407.067 107.203 406.067 107.253 404.866 107.354L404.266 107.391L404.191 105.947C405.554 105.622 406.804 105.459 407.942 105.459C409.093 105.459 409.918 105.709 410.418 106.209C410.931 106.697 411.187 107.479 411.187 108.554ZM406.986 110.88C406.123 110.955 405.691 111.424 405.691 112.286C405.691 113.149 406.073 113.581 406.836 113.581C407.461 113.581 408.124 113.481 408.824 113.281L409.161 113.168V110.673L406.986 110.88Z" fill="black"/>
<path d="M413.866 115.044V101.764H415.911V115.044H413.866Z" fill="black"/>
<path d="M418.61 115.044V101.764H420.655V115.044H418.61Z" fill="black"/>
<path d="M429.919 113.356L430.444 113.299L430.482 114.819C429.056 115.106 427.793 115.25 426.693 115.25C425.305 115.25 424.305 114.869 423.692 114.106C423.092 113.343 422.792 112.124 422.792 110.448C422.792 107.122 424.148 105.459 426.862 105.459C429.488 105.459 430.801 106.891 430.801 109.754L430.669 111.217H424.855C424.867 111.993 425.036 112.562 425.361 112.924C425.686 113.287 426.293 113.468 427.181 113.468C428.068 113.468 428.981 113.431 429.919 113.356ZM428.794 109.642C428.794 108.716 428.644 108.073 428.344 107.71C428.056 107.335 427.562 107.147 426.862 107.147C426.162 107.147 425.649 107.341 425.324 107.729C425.011 108.116 424.849 108.754 424.836 109.642H428.794Z" fill="black"/>
<path d="M437.812 107.41H435.224V111.536C435.224 112.299 435.28 112.805 435.393 113.055C435.505 113.306 435.793 113.431 436.255 113.431L437.793 113.374L437.887 115.006C437.049 115.169 436.412 115.25 435.974 115.25C434.911 115.25 434.18 115.006 433.779 114.518C433.392 114.031 433.198 113.112 433.198 111.761V107.41H431.998V105.665H433.198V102.946H435.224V105.665H437.812V107.41Z" fill="black"/>
<rect width="1440" height="441" transform="translate(0 257.25)" fill="white"/>
<path d="M549.129 319.898C546.867 320.389 544.83 320.634 543.017 320.634C541.203 320.634 539.753 320.41 538.665 319.962C537.577 319.514 536.723 318.799 536.105 317.818C535.486 316.837 535.059 315.685 534.825 314.362C534.59 313.039 534.473 311.375 534.473 309.37C534.473 305.167 535.059 302.245 536.233 300.602C537.427 298.938 539.614 298.106 542.793 298.106C544.627 298.106 546.75 298.394 549.161 298.97L549.033 302.49C546.921 302.17 545.161 302.01 543.753 302.01C542.366 302.01 541.374 302.202 540.777 302.586C540.179 302.949 539.731 303.653 539.433 304.698C539.155 305.743 539.017 307.525 539.017 310.042C539.017 312.559 539.305 314.309 539.881 315.29C540.478 316.25 541.651 316.73 543.401 316.73C545.171 316.73 547.049 316.581 549.033 316.282L549.129 319.898ZM552.942 306.074C554.072 304.602 555.96 303.866 558.606 303.866C561.251 303.866 563.139 304.602 564.27 306.074C565.4 307.525 565.966 309.573 565.966 312.218C565.966 317.829 563.512 320.634 558.606 320.634C553.699 320.634 551.246 317.829 551.246 312.218C551.246 309.573 551.811 307.525 552.942 306.074ZM556.238 315.834C556.686 316.602 557.475 316.986 558.606 316.986C559.736 316.986 560.515 316.602 560.942 315.834C561.39 315.066 561.614 313.861 561.614 312.218C561.614 310.575 561.39 309.381 560.942 308.634C560.515 307.887 559.736 307.514 558.606 307.514C557.475 307.514 556.686 307.887 556.238 308.634C555.811 309.381 555.598 310.575 555.598 312.218C555.598 313.861 555.811 315.066 556.238 315.834ZM573.397 320.25H569.109V304.25H573.365V305.146C574.816 304.293 576.149 303.866 577.365 303.866C579.498 303.866 580.97 304.495 581.781 305.754C582.592 307.013 582.997 308.954 582.997 311.578V320.25H578.709V311.706C578.709 310.341 578.549 309.338 578.229 308.698C577.909 308.037 577.269 307.706 576.309 307.706C575.434 307.706 574.592 307.855 573.781 308.154L573.397 308.282V320.25ZM595.661 307.898H591.725V314.458C591.725 315.098 591.735 315.557 591.757 315.834C591.799 316.09 591.917 316.314 592.109 316.506C592.322 316.698 592.642 316.794 593.069 316.794L595.501 316.73L595.693 320.154C594.263 320.474 593.175 320.634 592.429 320.634C590.509 320.634 589.197 320.207 588.493 319.354C587.789 318.479 587.437 316.879 587.437 314.554V307.898H585.549V304.25H587.437V299.802H591.725V304.25H595.661V307.898ZM598.453 320.25V304.25H602.741V320.25H598.453ZM598.453 302.202V297.85H602.741V302.202H598.453ZM610.991 320.25H606.703V304.25H610.959V305.146C612.409 304.293 613.743 303.866 614.959 303.866C617.092 303.866 618.564 304.495 619.375 305.754C620.185 307.013 620.591 308.954 620.591 311.578V320.25H616.303V311.706C616.303 310.341 616.143 309.338 615.823 308.698C615.503 308.037 614.863 307.706 613.903 307.706C613.028 307.706 612.185 307.855 611.375 308.154L610.991 308.282V320.25ZM633.83 304.25H638.118V320.25H633.862V319.354C632.326 320.207 630.993 320.634 629.862 320.634C627.644 320.634 626.15 320.026 625.382 318.81C624.614 317.573 624.23 315.514 624.23 312.634V304.25H628.518V312.698C628.518 314.277 628.646 315.354 628.902 315.93C629.158 316.506 629.777 316.794 630.758 316.794C631.697 316.794 632.582 316.645 633.414 316.346L633.83 316.218V304.25ZM654.334 309.242V315.898C654.376 316.41 654.462 316.773 654.59 316.986C654.718 317.178 654.984 317.317 655.39 317.402L655.262 320.634C654.174 320.634 653.299 320.559 652.638 320.41C651.998 320.261 651.347 319.962 650.686 319.514C649.15 320.261 647.582 320.634 645.982 320.634C642.675 320.634 641.022 318.885 641.022 315.386C641.022 313.679 641.48 312.474 642.398 311.77C643.315 311.045 644.723 310.618 646.622 310.49L650.046 310.234V309.242C650.046 308.581 649.896 308.133 649.598 307.898C649.299 307.642 648.819 307.514 648.158 307.514L642.142 307.77L642.014 304.794C644.296 304.175 646.462 303.866 648.51 303.866C650.579 303.866 652.062 304.293 652.958 305.146C653.875 305.999 654.334 307.365 654.334 309.242ZM647.134 313.466C645.939 313.573 645.342 314.213 645.342 315.386C645.342 316.559 645.864 317.146 646.91 317.146C647.72 317.146 648.606 317.018 649.566 316.762L650.046 316.634V313.21L647.134 313.466ZM676.941 308.25C674.295 307.909 672.439 307.738 671.373 307.738C670.327 307.738 669.645 307.834 669.325 308.026C669.026 308.218 668.877 308.527 668.877 308.954C668.877 309.359 669.079 309.647 669.485 309.818C669.911 309.967 670.978 310.202 672.685 310.522C674.413 310.821 675.639 311.322 676.365 312.026C677.09 312.73 677.453 313.871 677.453 315.45C677.453 318.906 675.309 320.634 671.021 320.634C669.613 320.634 667.906 320.442 665.901 320.058L664.877 319.866L665.005 316.282C667.65 316.623 669.485 316.794 670.509 316.794C671.554 316.794 672.258 316.698 672.621 316.506C673.005 316.293 673.197 315.983 673.197 315.578C673.197 315.173 672.994 314.874 672.589 314.682C672.205 314.49 671.181 314.255 669.517 313.978C667.874 313.701 666.647 313.231 665.837 312.57C665.026 311.909 664.621 310.735 664.621 309.05C664.621 307.343 665.197 306.063 666.349 305.21C667.501 304.335 668.983 303.898 670.797 303.898C672.055 303.898 673.773 304.101 675.949 304.506L677.005 304.698L676.941 308.25ZM689.987 304.25H694.275V320.25H690.019V319.354C688.483 320.207 687.149 320.634 686.019 320.634C683.8 320.634 682.307 320.026 681.539 318.81C680.771 317.573 680.387 315.514 680.387 312.634V304.25H684.675V312.698C684.675 314.277 684.803 315.354 685.059 315.93C685.315 316.506 685.933 316.794 686.915 316.794C687.853 316.794 688.739 316.645 689.571 316.346L689.987 316.218V304.25ZM698.426 320.25V297.85H702.714V320.25H698.426ZM707.051 320.25V297.85H711.339V320.25H707.051ZM714.812 306.394L716.316 298.49H720.828L718.108 306.394H714.812ZM735.459 309.242V315.898C735.501 316.41 735.587 316.773 735.715 316.986C735.843 317.178 736.109 317.317 736.515 317.402L736.387 320.634C735.299 320.634 734.424 320.559 733.763 320.41C733.123 320.261 732.472 319.962 731.811 319.514C730.275 320.261 728.707 320.634 727.107 320.634C723.8 320.634 722.147 318.885 722.147 315.386C722.147 313.679 722.605 312.474 723.523 311.77C724.44 311.045 725.848 310.618 727.747 310.49L731.171 310.234V309.242C731.171 308.581 731.021 308.133 730.723 307.898C730.424 307.642 729.944 307.514 729.283 307.514L723.267 307.77L723.139 304.794C725.421 304.175 727.587 303.866 729.635 303.866C731.704 303.866 733.187 304.293 734.083 305.146C735 305.999 735.459 307.365 735.459 309.242ZM728.259 313.466C727.064 313.573 726.467 314.213 726.467 315.386C726.467 316.559 726.989 317.146 728.035 317.146C728.845 317.146 729.731 317.018 730.691 316.762L731.171 316.634V313.21L728.259 313.466ZM739.547 326.97V304.25H743.803V305.114C745.189 304.282 746.405 303.866 747.451 303.866C749.605 303.866 751.195 304.517 752.219 305.818C753.243 307.098 753.755 309.285 753.755 312.378C753.755 315.471 753.189 317.626 752.059 318.842C750.928 320.037 749.072 320.634 746.491 320.634C745.787 320.634 745.029 320.57 744.219 320.442L743.835 320.378V326.97H739.547ZM746.619 307.706C745.829 307.706 745.029 307.866 744.219 308.186L743.835 308.346V316.73C744.795 316.858 745.573 316.922 746.171 316.922C747.408 316.922 748.251 316.559 748.699 315.834C749.168 315.109 749.403 313.871 749.403 312.122C749.403 309.178 748.475 307.706 746.619 307.706ZM756.953 326.97V304.25H761.209V305.114C762.595 304.282 763.811 303.866 764.857 303.866C767.011 303.866 768.601 304.517 769.625 305.818C770.649 307.098 771.161 309.285 771.161 312.378C771.161 315.471 770.595 317.626 769.465 318.842C768.334 320.037 766.478 320.634 763.897 320.634C763.193 320.634 762.435 320.57 761.625 320.442L761.241 320.378V326.97H756.953ZM764.025 307.706C763.235 307.706 762.435 307.866 761.625 308.186L761.241 308.346V316.73C762.201 316.858 762.979 316.922 763.577 316.922C764.814 316.922 765.657 316.559 766.105 315.834C766.574 315.109 766.809 313.871 766.809 312.122C766.809 309.178 765.881 307.706 764.025 307.706ZM781.774 320.25V298.49H786.19V320.25H781.774ZM788.979 302.394V298.49H804.979V302.394H799.219V320.25H794.803V302.394H788.979ZM805.386 313.69V309.786H814.858V313.69H805.386ZM816.796 298.49H821.436L824.124 316.474H824.604L828.508 298.49H833.628L837.532 316.474H838.012L840.7 298.49H845.34L841.18 320.25H834.492L831.068 303.706L827.644 320.25H820.956L816.796 298.49ZM859.709 309.242V315.898C859.751 316.41 859.837 316.773 859.965 316.986C860.093 317.178 860.359 317.317 860.765 317.402L860.637 320.634C859.549 320.634 858.674 320.559 858.013 320.41C857.373 320.261 856.722 319.962 856.061 319.514C854.525 320.261 852.957 320.634 851.357 320.634C848.05 320.634 846.397 318.885 846.397 315.386C846.397 313.679 846.855 312.474 847.773 311.77C848.69 311.045 850.098 310.618 851.997 310.49L855.421 310.234V309.242C855.421 308.581 855.271 308.133 854.973 307.898C854.674 307.642 854.194 307.514 853.533 307.514L847.517 307.77L847.389 304.794C849.671 304.175 851.837 303.866 853.885 303.866C855.954 303.866 857.437 304.293 858.333 305.146C859.25 305.999 859.709 307.365 859.709 309.242ZM852.509 313.466C851.314 313.573 850.717 314.213 850.717 315.386C850.717 316.559 851.239 317.146 852.285 317.146C853.095 317.146 853.981 317.018 854.941 316.762L855.421 316.634V313.21L852.509 313.466ZM863.989 320.25V297.85H868.277V320.25H863.989ZM872.614 320.25V297.85H876.902V320.25H872.614ZM884.567 314.074C884.588 315.055 884.844 315.77 885.335 316.218C885.847 316.645 886.572 316.858 887.51 316.858C889.495 316.858 891.265 316.794 892.823 316.666L893.719 316.57L893.783 319.738C891.329 320.335 889.111 320.634 887.127 320.634C884.716 320.634 882.967 319.994 881.879 318.714C880.791 317.434 880.247 315.354 880.247 312.474C880.247 306.735 882.604 303.866 887.319 303.866C891.969 303.866 894.295 306.277 894.295 311.098L893.975 314.074H884.567ZM890.071 310.81C890.071 309.53 889.868 308.645 889.463 308.154C889.057 307.642 888.343 307.386 887.319 307.386C886.316 307.386 885.601 307.653 885.175 308.186C884.769 308.698 884.556 309.573 884.535 310.81H890.071ZM906.223 307.898H902.287V314.458C902.287 315.098 902.298 315.557 902.319 315.834C902.362 316.09 902.479 316.314 902.671 316.506C902.884 316.698 903.204 316.794 903.631 316.794L906.063 316.73L906.255 320.154C904.826 320.474 903.738 320.634 902.991 320.634C901.071 320.634 899.759 320.207 899.055 319.354C898.351 318.479 897.999 316.879 897.999 314.554V307.898H896.111V304.25H897.999V299.802H902.287V304.25H906.223V307.898Z" fill="#17324D"/>
<rect width="161.539" height="148" transform="translate(639.23 351.25)" fill="#F6E4C8"/>
<path fill-rule="evenodd" clip-rule="evenodd" d="M743.077 379.096H696.923C694.799 379.096 693.077 380.818 693.077 382.942V383.712H746.923V382.942C746.923 380.818 745.201 379.096 743.077 379.096ZM693.077 455.25V387.558H746.923V455.25H693.077ZM746.923 459.096H693.077V467.558C693.077 469.682 694.799 471.404 696.923 471.404H743.077C745.201 471.404 746.923 469.682 746.923 467.558V459.096ZM696.923 375.25C692.674 375.25 689.23 378.694 689.23 382.942V467.558C689.23 471.806 692.674 475.25 696.923 475.25H743.077C747.325 475.25 750.769 471.806 750.769 467.558V382.942C750.769 378.694 747.325 375.25 743.077 375.25H696.923ZM723.077 464.096C723.077 465.583 721.871 466.788 720.384 466.788C718.897 466.788 717.692 465.583 717.692 464.096C717.692 462.609 718.897 461.404 720.384 461.404C721.871 461.404 723.077 462.609 723.077 464.096ZM704.23 402.25H707.231H713.231H716.231V405.25V411.25V414.25H713.231H707.231H704.23V411.25V405.25V402.25ZM710.231 405.25H707.231V408.25V411.25H710.231H713.231V408.25V405.25H710.231ZM737.231 416.25H733.231V420.25H737.231V416.25ZM704.23 421.25H707.231H713.231H716.231V424.25V430.25V433.25H713.231H707.231H704.23V430.25V424.25V421.25ZM710.231 424.25H707.231V427.25V430.25H710.231H713.231V427.25V424.25H710.231ZM737.231 429.25H733.231V425.25H737.231V429.25ZM729.231 425.25V421.25H733.231V425.25H729.231ZM729.231 429.25H725.231V425.25H729.231V429.25ZM729.231 429.25V433.25H733.231V429.25H729.231ZM729.231 416.25H725.231V420.25H729.231V416.25ZM728.231 402.25H725.231V405.25V411.25V414.25H728.231H734.231H737.231V411.25V405.25V402.25H734.231H728.231ZM728.231 405.25H731.231H734.231V408.25V411.25H731.231H728.231V408.25V405.25ZM719.231 402.25H722.231V414.25H719.231V402.25ZM719.231 426.25V433.25H722.231V426.25H719.231ZM712.231 419.25H704.23V416.25H712.231V419.25ZM722.231 416.25V417.25V419.25V423.25H719.231V419.25H715.231V416.25H722.231Z" fill="#995C00"/>
<path d="M570.465 539.056H567.297V543.25H565.911V530.794H570.465C571.821 530.794 572.823 531.124 573.471 531.784C574.119 532.444 574.443 533.452 574.443 534.808C574.443 537.64 573.117 539.056 570.465 539.056ZM567.297 537.832H570.447C572.163 537.832 573.021 536.824 573.021 534.808C573.021 533.848 572.817 533.146 572.409 532.702C572.001 532.246 571.347 532.018 570.447 532.018H567.297V537.832ZM582.396 542.134L582.918 542.08L582.954 543.142C581.586 543.334 580.416 543.43 579.444 543.43C578.148 543.43 577.23 543.058 576.69 542.314C576.15 541.558 575.88 540.388 575.88 538.804C575.88 535.648 577.134 534.07 579.642 534.07C580.854 534.07 581.76 534.412 582.36 535.096C582.96 535.768 583.26 536.83 583.26 538.282L583.188 539.308H577.248C577.248 540.304 577.428 541.042 577.788 541.522C578.148 542.002 578.772 542.242 579.66 542.242C580.56 542.242 581.472 542.206 582.396 542.134ZM581.91 538.228C581.91 537.124 581.73 536.344 581.37 535.888C581.022 535.432 580.446 535.204 579.642 535.204C578.85 535.204 578.25 535.444 577.842 535.924C577.446 536.404 577.242 537.172 577.23 538.228H581.91ZM585.364 543.25V534.25H586.696V535.474C587.74 534.754 588.838 534.28 589.99 534.052V535.42C589.486 535.516 588.958 535.666 588.406 535.87C587.866 536.074 587.452 536.254 587.164 536.41L586.714 536.644V543.25H585.364ZM595.542 547.246V534.25H596.874V534.898C597.786 534.346 598.686 534.07 599.574 534.07C600.714 534.07 601.542 534.436 602.058 535.168C602.574 535.888 602.832 537.082 602.832 538.75C602.832 540.418 602.526 541.618 601.914 542.35C601.314 543.07 600.312 543.43 598.908 543.43C598.176 543.43 597.504 543.364 596.892 543.232V547.246H595.542ZM599.376 535.276C599.016 535.276 598.626 535.336 598.206 535.456C597.798 535.576 597.474 535.696 597.234 535.816L596.892 535.996V542.062C597.744 542.194 598.392 542.26 598.836 542.26C599.808 542.26 600.486 541.984 600.87 541.432C601.266 540.88 601.464 539.98 601.464 538.732C601.464 537.484 601.284 536.596 600.924 536.068C600.576 535.54 600.06 535.276 599.376 535.276ZM605.034 543.25V534.25H606.366V535.474C607.41 534.754 608.508 534.28 609.66 534.052V535.42C609.156 535.516 608.628 535.666 608.076 535.87C607.536 536.074 607.122 536.254 606.834 536.41L606.384 536.644V543.25H605.034ZM610.685 538.732C610.685 537.088 610.979 535.9 611.567 535.168C612.155 534.436 613.145 534.07 614.537 534.07C615.941 534.07 616.931 534.436 617.507 535.168C618.095 535.9 618.389 537.088 618.389 538.732C618.389 540.376 618.113 541.57 617.561 542.314C617.009 543.058 616.001 543.43 614.537 543.43C613.073 543.43 612.065 543.058 611.513 542.314C610.961 541.57 610.685 540.376 610.685 538.732ZM612.071 538.714C612.071 540.022 612.227 540.94 612.539 541.468C612.863 541.996 613.529 542.26 614.537 542.26C615.557 542.26 616.223 542.002 616.535 541.486C616.847 540.958 617.003 540.034 617.003 538.714C617.003 537.394 616.829 536.488 616.481 535.996C616.133 535.492 615.485 535.24 614.537 535.24C613.601 535.24 612.953 535.492 612.593 535.996C612.245 536.488 612.071 537.394 612.071 538.714ZM623.417 535.276C622.109 535.276 621.455 535.732 621.455 536.644C621.455 537.064 621.605 537.364 621.905 537.544C622.205 537.712 622.889 537.892 623.957 538.084C625.025 538.264 625.781 538.522 626.225 538.858C626.669 539.194 626.891 539.824 626.891 540.748C626.891 541.672 626.591 542.35 625.991 542.782C625.403 543.214 624.539 543.43 623.399 543.43C622.655 543.43 621.779 543.346 620.771 543.178L620.231 543.088L620.303 541.918C621.671 542.122 622.703 542.224 623.399 542.224C624.095 542.224 624.623 542.116 624.983 541.9C625.355 541.672 625.541 541.3 625.541 540.784C625.541 540.256 625.385 539.902 625.073 539.722C624.761 539.53 624.077 539.35 623.021 539.182C621.965 539.014 621.215 538.768 620.771 538.444C620.327 538.12 620.105 537.52 620.105 536.644C620.105 535.768 620.411 535.12 621.023 534.7C621.647 534.28 622.421 534.07 623.345 534.07C624.077 534.07 624.995 534.154 626.099 534.322L626.603 534.412L626.567 535.564C625.235 535.372 624.185 535.276 623.417 535.276ZM635.078 542.134L635.6 542.08L635.636 543.142C634.268 543.334 633.098 543.43 632.126 543.43C630.83 543.43 629.912 543.058 629.372 542.314C628.832 541.558 628.562 540.388 628.562 538.804C628.562 535.648 629.816 534.07 632.324 534.07C633.536 534.07 634.442 534.412 635.042 535.096C635.642 535.768 635.942 536.83 635.942 538.282L635.87 539.308H629.93C629.93 540.304 630.11 541.042 630.47 541.522C630.83 542.002 631.454 542.242 632.342 542.242C633.242 542.242 634.154 542.206 635.078 542.134ZM634.592 538.228C634.592 537.124 634.412 536.344 634.052 535.888C633.704 535.432 633.128 535.204 632.324 535.204C631.532 535.204 630.932 535.444 630.524 535.924C630.128 536.404 629.924 537.172 629.912 538.228H634.592ZM641.52 547.48C640.08 547.48 639.072 547.282 638.496 546.886C637.932 546.502 637.65 545.794 637.65 544.762C637.65 544.27 637.758 543.868 637.974 543.556C638.19 543.256 638.556 542.914 639.072 542.53C638.736 542.302 638.568 541.888 638.568 541.288C638.568 541.084 638.718 540.706 639.018 540.154L639.18 539.866C638.232 539.434 637.758 538.528 637.758 537.148C637.758 535.096 638.88 534.07 641.124 534.07C641.7 534.07 642.234 534.13 642.726 534.25L642.996 534.304L645.66 534.232V535.384L643.95 535.348C644.346 535.744 644.544 536.344 644.544 537.148C644.544 538.276 644.262 539.068 643.698 539.524C643.146 539.968 642.27 540.19 641.07 540.19C640.746 540.19 640.452 540.166 640.188 540.118C639.972 540.646 639.864 540.988 639.864 541.144C639.864 541.516 639.978 541.75 640.206 541.846C640.434 541.93 641.124 541.972 642.276 541.972C643.428 541.972 644.256 542.152 644.76 542.512C645.264 542.872 645.516 543.574 645.516 544.618C645.516 546.526 644.184 547.48 641.52 547.48ZM638.982 544.654C638.982 545.29 639.156 545.728 639.504 545.968C639.864 546.22 640.518 546.346 641.466 546.346C642.426 546.346 643.11 546.214 643.518 545.95C643.938 545.686 644.148 545.242 644.148 544.618C644.148 544.006 643.998 543.61 643.698 543.43C643.398 543.25 642.81 543.16 641.934 543.16L639.99 543.07C639.594 543.358 639.324 543.61 639.18 543.826C639.048 544.042 638.982 544.318 638.982 544.654ZM639.108 537.148C639.108 537.856 639.264 538.36 639.576 538.66C639.9 538.96 640.428 539.11 641.16 539.11C641.892 539.11 642.414 538.96 642.726 538.66C643.038 538.36 643.194 537.856 643.194 537.148C643.194 536.428 643.038 535.918 642.726 535.618C642.414 535.318 641.892 535.168 641.16 535.168C640.428 535.168 639.9 535.324 639.576 535.636C639.264 535.936 639.108 536.44 639.108 537.148ZM652.908 534.25H654.258V543.25H652.908V542.62C652.008 543.16 651.12 543.43 650.244 543.43C649.02 543.43 648.204 543.112 647.796 542.476C647.4 541.84 647.202 540.664 647.202 538.948V534.25H648.552V538.93C648.552 540.238 648.666 541.114 648.894 541.558C649.122 542.002 649.638 542.224 650.442 542.224C650.838 542.224 651.24 542.17 651.648 542.062C652.056 541.942 652.368 541.828 652.584 541.72L652.908 541.558V534.25ZM656.855 543.25V534.25H658.205V543.25H656.855ZM656.855 532.216V530.65H658.205V532.216H656.855ZM660.792 543.25V534.25H662.124V535.474C663.168 534.754 664.266 534.28 665.418 534.052V535.42C664.914 535.516 664.386 535.666 663.834 535.87C663.294 536.074 662.88 536.254 662.592 536.41L662.142 536.644V543.25H660.792ZM672.959 542.134L673.481 542.08L673.517 543.142C672.149 543.334 670.979 543.43 670.007 543.43C668.711 543.43 667.793 543.058 667.253 542.314C666.713 541.558 666.443 540.388 666.443 538.804C666.443 535.648 667.697 534.07 670.205 534.07C671.417 534.07 672.323 534.412 672.923 535.096C673.523 535.768 673.823 536.83 673.823 538.282L673.751 539.308H667.811C667.811 540.304 667.991 541.042 668.351 541.522C668.711 542.002 669.335 542.242 670.223 542.242C671.123 542.242 672.035 542.206 672.959 542.134ZM672.473 538.228C672.473 537.124 672.293 536.344 671.933 535.888C671.585 535.432 671.009 535.204 670.205 535.204C669.413 535.204 668.813 535.444 668.405 535.924C668.009 536.404 667.805 537.172 667.793 538.228H672.473ZM675.243 545.464L676.071 541.324H677.565L676.359 545.464H675.243ZM686.716 535.276C685.408 535.276 684.754 535.732 684.754 536.644C684.754 537.064 684.904 537.364 685.204 537.544C685.504 537.712 686.188 537.892 687.256 538.084C688.324 538.264 689.08 538.522 689.524 538.858C689.968 539.194 690.19 539.824 690.19 540.748C690.19 541.672 689.89 542.35 689.29 542.782C688.702 543.214 687.838 543.43 686.698 543.43C685.954 543.43 685.078 543.346 684.07 543.178L683.53 543.088L683.602 541.918C684.97 542.122 686.002 542.224 686.698 542.224C687.394 542.224 687.922 542.116 688.282 541.9C688.654 541.672 688.84 541.3 688.84 540.784C688.84 540.256 688.684 539.902 688.372 539.722C688.06 539.53 687.376 539.35 686.32 539.182C685.264 539.014 684.514 538.768 684.07 538.444C683.626 538.12 683.404 537.52 683.404 536.644C683.404 535.768 683.71 535.12 684.322 534.7C684.946 534.28 685.72 534.07 686.644 534.07C687.376 534.07 688.294 534.154 689.398 534.322L689.902 534.412L689.866 535.564C688.534 535.372 687.484 535.276 686.716 535.276ZM698.377 542.134L698.899 542.08L698.935 543.142C697.567 543.334 696.397 543.43 695.425 543.43C694.129 543.43 693.211 543.058 692.671 542.314C692.131 541.558 691.861 540.388 691.861 538.804C691.861 535.648 693.115 534.07 695.623 534.07C696.835 534.07 697.741 534.412 698.341 535.096C698.941 535.768 699.241 536.83 699.241 538.282L699.169 539.308H693.229C693.229 540.304 693.409 541.042 693.769 541.522C694.129 542.002 694.753 542.242 695.641 542.242C696.541 542.242 697.453 542.206 698.377 542.134ZM697.891 538.228C697.891 537.124 697.711 536.344 697.351 535.888C697.003 535.432 696.427 535.204 695.623 535.204C694.831 535.204 694.231 535.444 693.823 535.924C693.427 536.404 693.223 537.172 693.211 538.228H697.891ZM704.819 547.48C703.379 547.48 702.371 547.282 701.795 546.886C701.231 546.502 700.949 545.794 700.949 544.762C700.949 544.27 701.057 543.868 701.273 543.556C701.489 543.256 701.855 542.914 702.371 542.53C702.035 542.302 701.867 541.888 701.867 541.288C701.867 541.084 702.017 540.706 702.317 540.154L702.479 539.866C701.531 539.434 701.057 538.528 701.057 537.148C701.057 535.096 702.179 534.07 704.423 534.07C704.999 534.07 705.533 534.13 706.025 534.25L706.295 534.304L708.959 534.232V535.384L707.249 535.348C707.645 535.744 707.843 536.344 707.843 537.148C707.843 538.276 707.561 539.068 706.997 539.524C706.445 539.968 705.569 540.19 704.369 540.19C704.045 540.19 703.751 540.166 703.487 540.118C703.271 540.646 703.163 540.988 703.163 541.144C703.163 541.516 703.277 541.75 703.505 541.846C703.733 541.93 704.423 541.972 705.575 541.972C706.727 541.972 707.555 542.152 708.059 542.512C708.563 542.872 708.815 543.574 708.815 544.618C708.815 546.526 707.483 547.48 704.819 547.48ZM702.281 544.654C702.281 545.29 702.455 545.728 702.803 545.968C703.163 546.22 703.817 546.346 704.765 546.346C705.725 546.346 706.409 546.214 706.817 545.95C707.237 545.686 707.447 545.242 707.447 544.618C707.447 544.006 707.297 543.61 706.997 543.43C706.697 543.25 706.109 543.16 705.233 543.16L703.289 543.07C702.893 543.358 702.623 543.61 702.479 543.826C702.347 544.042 702.281 544.318 702.281 544.654ZM702.407 537.148C702.407 537.856 702.563 538.36 702.875 538.66C703.199 538.96 703.727 539.11 704.459 539.11C705.191 539.11 705.713 538.96 706.025 538.66C706.337 538.36 706.493 537.856 706.493 537.148C706.493 536.428 706.337 535.918 706.025 535.618C705.713 535.318 705.191 535.168 704.459 535.168C703.727 535.168 703.199 535.324 702.875 535.636C702.563 535.936 702.407 536.44 702.407 537.148ZM716.207 534.25H717.557V543.25H716.207V542.62C715.307 543.16 714.419 543.43 713.543 543.43C712.319 543.43 711.503 543.112 711.095 542.476C710.699 541.84 710.501 540.664 710.501 538.948V534.25H711.851V538.93C711.851 540.238 711.965 541.114 712.193 541.558C712.421 542.002 712.937 542.224 713.741 542.224C714.137 542.224 714.539 542.17 714.947 542.062C715.355 541.942 715.667 541.828 715.883 541.72L716.207 541.558V534.25ZM720.153 543.25V534.25H721.503V543.25H720.153ZM720.153 532.216V530.65H721.503V532.216H720.153ZM728.154 543.25V530.326H729.504V543.25H728.154ZM738.332 542.134L738.854 542.08L738.89 543.142C737.522 543.334 736.352 543.43 735.38 543.43C734.084 543.43 733.166 543.058 732.626 542.314C732.086 541.558 731.816 540.388 731.816 538.804C731.816 535.648 733.07 534.07 735.578 534.07C736.79 534.07 737.696 534.412 738.296 535.096C738.896 535.768 739.196 536.83 739.196 538.282L739.124 539.308H733.184C733.184 540.304 733.364 541.042 733.724 541.522C734.084 542.002 734.708 542.242 735.596 542.242C736.496 542.242 737.408 542.206 738.332 542.134ZM737.846 538.228C737.846 537.124 737.666 536.344 737.306 535.888C736.958 535.432 736.382 535.204 735.578 535.204C734.786 535.204 734.186 535.444 733.778 535.924C733.382 536.404 733.178 537.172 733.166 538.228H737.846ZM745.255 543.25V534.25H746.605V543.25H745.255ZM745.255 532.216V530.65H746.605V532.216H745.255ZM752.018 535.276C750.71 535.276 750.056 535.732 750.056 536.644C750.056 537.064 750.206 537.364 750.506 537.544C750.806 537.712 751.49 537.892 752.558 538.084C753.626 538.264 754.382 538.522 754.826 538.858C755.27 539.194 755.492 539.824 755.492 540.748C755.492 541.672 755.192 542.35 754.592 542.782C754.004 543.214 753.14 543.43 752 543.43C751.256 543.43 750.38 543.346 749.372 543.178L748.832 543.088L748.904 541.918C750.272 542.122 751.304 542.224 752 542.224C752.696 542.224 753.224 542.116 753.584 541.9C753.956 541.672 754.142 541.3 754.142 540.784C754.142 540.256 753.986 539.902 753.674 539.722C753.362 539.53 752.678 539.35 751.622 539.182C750.566 539.014 749.816 538.768 749.372 538.444C748.928 538.12 748.706 537.52 748.706 536.644C748.706 535.768 749.012 535.12 749.624 534.7C750.248 534.28 751.022 534.07 751.946 534.07C752.678 534.07 753.596 534.154 754.7 534.322L755.204 534.412L755.168 535.564C753.836 535.372 752.786 535.276 752.018 535.276ZM762.222 535.42H759.36V539.722C759.36 540.754 759.432 541.432 759.576 541.756C759.732 542.08 760.092 542.242 760.656 542.242L762.258 542.134L762.348 543.25C761.544 543.382 760.932 543.448 760.512 543.448C759.576 543.448 758.928 543.22 758.568 542.764C758.208 542.308 758.028 541.438 758.028 540.154V535.42H756.75V534.25H758.028V531.496H759.36V534.25H762.222V535.42ZM763.87 543.25V534.25H765.202V535.474C766.246 534.754 767.344 534.28 768.496 534.052V535.42C767.992 535.516 767.464 535.666 766.912 535.87C766.372 536.074 765.958 536.254 765.67 536.41L765.22 536.644V543.25H763.87ZM775.709 534.25H777.059V543.25H775.709V542.62C774.809 543.16 773.921 543.43 773.045 543.43C771.821 543.43 771.005 543.112 770.597 542.476C770.201 541.84 770.003 540.664 770.003 538.948V534.25H771.353V538.93C771.353 540.238 771.467 541.114 771.695 541.558C771.923 542.002 772.439 542.224 773.243 542.224C773.639 542.224 774.041 542.17 774.449 542.062C774.857 541.942 775.169 541.828 775.385 541.72L775.709 541.558V534.25ZM779.115 535.456V534.25H785.793V535.456L780.753 542.044H785.793V543.25H779.115V542.044L784.155 535.456H779.115ZM787.847 543.25V534.25H789.197V543.25H787.847ZM787.847 532.216V530.65H789.197V532.216H787.847ZM791.388 538.732C791.388 537.088 791.682 535.9 792.27 535.168C792.858 534.436 793.848 534.07 795.24 534.07C796.644 534.07 797.634 534.436 798.21 535.168C798.798 535.9 799.092 537.088 799.092 538.732C799.092 540.376 798.816 541.57 798.264 542.314C797.712 543.058 796.704 543.43 795.24 543.43C793.776 543.43 792.768 543.058 792.216 542.314C791.664 541.57 791.388 540.376 791.388 538.732ZM792.774 538.714C792.774 540.022 792.93 540.94 793.242 541.468C793.566 541.996 794.232 542.26 795.24 542.26C796.26 542.26 796.926 542.002 797.238 541.486C797.55 540.958 797.706 540.034 797.706 538.714C797.706 537.394 797.532 536.488 797.184 535.996C796.836 535.492 796.188 535.24 795.24 535.24C794.304 535.24 793.656 535.492 793.296 535.996C792.948 536.488 792.774 537.394 792.774 538.714ZM802.644 543.25H801.294V534.25H802.626V534.88C803.598 534.34 804.528 534.07 805.416 534.07C806.616 534.07 807.42 534.394 807.828 535.042C808.248 535.69 808.458 536.842 808.458 538.498V543.25H807.126V538.534C807.126 537.286 807 536.434 806.748 535.978C806.508 535.51 805.986 535.276 805.182 535.276C804.798 535.276 804.39 535.336 803.958 535.456C803.538 535.564 803.214 535.672 802.986 535.78L802.644 535.942V543.25ZM810.962 543.25V534.25H812.312V543.25H810.962ZM810.962 532.216V530.65H812.312V532.216H810.962ZM821.681 535.276C820.373 535.276 819.719 535.732 819.719 536.644C819.719 537.064 819.869 537.364 820.169 537.544C820.469 537.712 821.153 537.892 822.221 538.084C823.289 538.264 824.045 538.522 824.489 538.858C824.933 539.194 825.155 539.824 825.155 540.748C825.155 541.672 824.855 542.35 824.255 542.782C823.667 543.214 822.803 543.43 821.663 543.43C820.919 543.43 820.043 543.346 819.035 543.178L818.495 543.088L818.567 541.918C819.935 542.122 820.967 542.224 821.663 542.224C822.359 542.224 822.887 542.116 823.247 541.9C823.619 541.672 823.805 541.3 823.805 540.784C823.805 540.256 823.649 539.902 823.337 539.722C823.025 539.53 822.341 539.35 821.285 539.182C820.229 539.014 819.479 538.768 819.035 538.444C818.591 538.12 818.369 537.52 818.369 536.644C818.369 535.768 818.675 535.12 819.287 534.7C819.911 534.28 820.685 534.07 821.609 534.07C822.341 534.07 823.259 534.154 824.363 534.322L824.867 534.412L824.831 535.564C823.499 535.372 822.449 535.276 821.681 535.276ZM832.838 534.25H834.188V543.25H832.838V542.62C831.938 543.16 831.05 543.43 830.174 543.43C828.95 543.43 828.134 543.112 827.726 542.476C827.33 541.84 827.132 540.664 827.132 538.948V534.25H828.482V538.93C828.482 540.238 828.596 541.114 828.824 541.558C829.052 542.002 829.568 542.224 830.372 542.224C830.768 542.224 831.17 542.17 831.578 542.062C831.986 541.942 832.298 541.828 832.514 541.72L832.838 541.558V534.25ZM836.892 543.25V530.326H838.242V543.25H836.892ZM841.058 543.25V530.326H842.408V543.25H841.058ZM844.774 534.448L845.566 530.506H846.988L845.836 534.448H844.774ZM855.267 536.968V541.576C855.303 542.02 855.651 542.284 856.311 542.368L856.257 543.43C855.309 543.43 854.595 543.19 854.115 542.71C853.035 543.19 851.955 543.43 850.875 543.43C850.047 543.43 849.417 543.196 848.985 542.728C848.553 542.26 848.337 541.588 848.337 540.712C848.337 539.836 848.559 539.194 849.003 538.786C849.447 538.366 850.143 538.108 851.091 538.012L853.917 537.742V536.968C853.917 536.356 853.785 535.918 853.521 535.654C853.257 535.39 852.897 535.258 852.441 535.258C851.481 535.258 850.485 535.318 849.453 535.438L848.895 535.492L848.841 534.466C850.161 534.202 851.331 534.07 852.351 534.07C853.371 534.07 854.109 534.304 854.565 534.772C855.033 535.24 855.267 535.972 855.267 536.968ZM849.723 540.64C849.723 541.744 850.179 542.296 851.091 542.296C851.907 542.296 852.711 542.158 853.503 541.882L853.917 541.738V538.768L851.253 539.02C850.713 539.068 850.323 539.224 850.083 539.488C849.843 539.752 849.723 540.136 849.723 540.64ZM857.931 547.246V534.25H859.263V534.898C860.175 534.346 861.075 534.07 861.963 534.07C863.103 534.07 863.931 534.436 864.447 535.168C864.963 535.888 865.221 537.082 865.221 538.75C865.221 540.418 864.915 541.618 864.303 542.35C863.703 543.07 862.701 543.43 861.297 543.43C860.565 543.43 859.893 543.364 859.281 543.232V547.246H857.931ZM861.765 535.276C861.405 535.276 861.015 535.336 860.595 535.456C860.187 535.576 859.863 535.696 859.623 535.816L859.281 535.996V542.062C860.133 542.194 860.781 542.26 861.225 542.26C862.197 542.26 862.875 541.984 863.259 541.432C863.655 540.88 863.853 539.98 863.853 538.732C863.853 537.484 863.673 536.596 863.313 536.068C862.965 535.54 862.449 535.276 861.765 535.276ZM867.423 547.246V534.25H868.755V534.898C869.667 534.346 870.567 534.07 871.455 534.07C872.595 534.07 873.423 534.436 873.939 535.168C874.455 535.888 874.713 537.082 874.713 538.75C874.713 540.418 874.407 541.618 873.795 542.35C873.195 543.07 872.193 543.43 870.789 543.43C870.057 543.43 869.385 543.364 868.773 543.232V547.246H867.423ZM871.257 535.276C870.897 535.276 870.507 535.336 870.087 535.456C869.679 535.576 869.355 535.696 869.115 535.816L868.773 535.996V542.062C869.625 542.194 870.273 542.26 870.717 542.26C871.689 542.26 872.367 541.984 872.751 541.432C873.147 540.88 873.345 539.98 873.345 538.732C873.345 537.484 873.165 536.596 872.805 536.068C872.457 535.54 871.941 535.276 871.257 535.276ZM650.046 569.134L650.568 569.08L650.604 570.142C649.236 570.334 648.066 570.43 647.094 570.43C645.798 570.43 644.88 570.058 644.34 569.314C643.8 568.558 643.53 567.388 643.53 565.804C643.53 562.648 644.784 561.07 647.292 561.07C648.504 561.07 649.41 561.412 650.01 562.096C650.61 562.768 650.91 563.83 650.91 565.282L650.838 566.308H644.898C644.898 567.304 645.078 568.042 645.438 568.522C645.798 569.002 646.422 569.242 647.31 569.242C648.21 569.242 649.122 569.206 650.046 569.134ZM649.56 565.228C649.56 564.124 649.38 563.344 649.02 562.888C648.672 562.432 648.096 562.204 647.292 562.204C646.5 562.204 645.9 562.444 645.492 562.924C645.096 563.404 644.892 564.172 644.88 565.228H649.56ZM663.323 563.968V568.576C663.359 569.02 663.707 569.284 664.367 569.368L664.313 570.43C663.365 570.43 662.651 570.19 662.171 569.71C661.091 570.19 660.011 570.43 658.931 570.43C658.103 570.43 657.473 570.196 657.041 569.728C656.609 569.26 656.393 568.588 656.393 567.712C656.393 566.836 656.615 566.194 657.059 565.786C657.503 565.366 658.199 565.108 659.147 565.012L661.973 564.742V563.968C661.973 563.356 661.841 562.918 661.577 562.654C661.313 562.39 660.953 562.258 660.497 562.258C659.537 562.258 658.541 562.318 657.509 562.438L656.951 562.492L656.897 561.466C658.217 561.202 659.387 561.07 660.407 561.07C661.427 561.07 662.165 561.304 662.621 561.772C663.089 562.24 663.323 562.972 663.323 563.968ZM657.779 567.64C657.779 568.744 658.235 569.296 659.147 569.296C659.963 569.296 660.767 569.158 661.559 568.882L661.973 568.738V565.768L659.309 566.02C658.769 566.068 658.379 566.224 658.139 566.488C657.899 566.752 657.779 567.136 657.779 567.64ZM671.602 561.25H672.952V570.25H671.602V569.62C670.702 570.16 669.814 570.43 668.938 570.43C667.714 570.43 666.898 570.112 666.49 569.476C666.094 568.84 665.896 567.664 665.896 565.948V561.25H667.246V565.93C667.246 567.238 667.36 568.114 667.588 568.558C667.816 569.002 668.332 569.224 669.136 569.224C669.532 569.224 669.934 569.17 670.342 569.062C670.75 568.942 671.062 568.828 671.278 568.72L671.602 568.558V561.25ZM680.211 562.42H677.349V566.722C677.349 567.754 677.421 568.432 677.565 568.756C677.721 569.08 678.081 569.242 678.645 569.242L680.247 569.134L680.337 570.25C679.533 570.382 678.921 570.448 678.501 570.448C677.565 570.448 676.917 570.22 676.557 569.764C676.197 569.308 676.017 568.438 676.017 567.154V562.42H674.739V561.25H676.017V558.496H677.349V561.25H680.211V562.42ZM681.463 565.732C681.463 564.088 681.757 562.9 682.345 562.168C682.933 561.436 683.923 561.07 685.315 561.07C686.719 561.07 687.709 561.436 688.285 562.168C688.873 562.9 689.167 564.088 689.167 565.732C689.167 567.376 688.891 568.57 688.339 569.314C687.787 570.058 686.779 570.43 685.315 570.43C683.851 570.43 682.843 570.058 682.291 569.314C681.739 568.57 681.463 567.376 681.463 565.732ZM682.849 565.714C682.849 567.022 683.005 567.94 683.317 568.468C683.641 568.996 684.307 569.26 685.315 569.26C686.335 569.26 687.001 569.002 687.313 568.486C687.625 567.958 687.781 567.034 687.781 565.714C687.781 564.394 687.607 563.488 687.259 562.996C686.911 562.492 686.263 562.24 685.315 562.24C684.379 562.24 683.731 562.492 683.371 562.996C683.023 563.488 682.849 564.394 682.849 565.714ZM691.369 570.25V561.25H692.701V562.474C693.745 561.754 694.843 561.28 695.995 561.052V562.42C695.491 562.516 694.963 562.666 694.411 562.87C693.871 563.074 693.457 563.254 693.169 563.41L692.719 563.644V570.25H691.369ZM697.592 570.25V561.25H698.942V570.25H697.592ZM697.592 559.216V557.65H698.942V559.216H697.592ZM700.989 562.456V561.25H707.667V562.456L702.627 569.044H707.667V570.25H700.989V569.044L706.029 562.456H700.989ZM709.181 562.456V561.25H715.859V562.456L710.819 569.044H715.859V570.25H709.181V569.044L714.221 562.456H709.181ZM724.266 563.968V568.576C724.302 569.02 724.65 569.284 725.31 569.368L725.256 570.43C724.308 570.43 723.594 570.19 723.114 569.71C722.034 570.19 720.954 570.43 719.874 570.43C719.046 570.43 718.416 570.196 717.984 569.728C717.552 569.26 717.336 568.588 717.336 567.712C717.336 566.836 717.558 566.194 718.002 565.786C718.446 565.366 719.142 565.108 720.09 565.012L722.916 564.742V563.968C722.916 563.356 722.784 562.918 722.52 562.654C722.256 562.39 721.896 562.258 721.44 562.258C720.48 562.258 719.484 562.318 718.452 562.438L717.894 562.492L717.84 561.466C719.16 561.202 720.33 561.07 721.35 561.07C722.37 561.07 723.108 561.304 723.564 561.772C724.032 562.24 724.266 562.972 724.266 563.968ZM718.722 567.64C718.722 568.744 719.178 569.296 720.09 569.296C720.906 569.296 721.71 569.158 722.502 568.882L722.916 568.738V565.768L720.252 566.02C719.712 566.068 719.322 566.224 719.082 566.488C718.842 566.752 718.722 567.136 718.722 567.64ZM730.993 570.25V557.326H732.343V570.25H730.993ZM734.709 561.448L735.501 557.506H736.923L735.771 561.448H734.709ZM745.202 563.968V568.576C745.238 569.02 745.586 569.284 746.246 569.368L746.192 570.43C745.244 570.43 744.53 570.19 744.05 569.71C742.97 570.19 741.89 570.43 740.81 570.43C739.982 570.43 739.352 570.196 738.92 569.728C738.488 569.26 738.272 568.588 738.272 567.712C738.272 566.836 738.494 566.194 738.938 565.786C739.382 565.366 740.078 565.108 741.026 565.012L743.852 564.742V563.968C743.852 563.356 743.72 562.918 743.456 562.654C743.192 562.39 742.832 562.258 742.376 562.258C741.416 562.258 740.42 562.318 739.388 562.438L738.83 562.492L738.776 561.466C740.096 561.202 741.266 561.07 742.286 561.07C743.306 561.07 744.044 561.304 744.5 561.772C744.968 562.24 745.202 562.972 745.202 563.968ZM739.658 567.64C739.658 568.744 740.114 569.296 741.026 569.296C741.842 569.296 742.646 569.158 743.438 568.882L743.852 568.738V565.768L741.188 566.02C740.648 566.068 740.258 566.224 740.018 566.488C739.778 566.752 739.658 567.136 739.658 567.64ZM751.231 561.07C751.627 561.07 752.299 561.142 753.247 561.286L753.679 561.34L753.625 562.438C752.665 562.33 751.957 562.276 751.501 562.276C750.481 562.276 749.785 562.522 749.413 563.014C749.053 563.494 748.873 564.394 748.873 565.714C748.873 567.022 749.041 567.934 749.377 568.45C749.725 568.966 750.439 569.224 751.519 569.224L753.643 569.062L753.697 570.178C752.581 570.346 751.747 570.43 751.195 570.43C749.791 570.43 748.819 570.07 748.279 569.35C747.751 568.63 747.487 567.418 747.487 565.714C747.487 563.998 747.775 562.798 748.351 562.114C748.927 561.418 749.887 561.07 751.231 561.07ZM758.966 561.07C759.362 561.07 760.034 561.142 760.982 561.286L761.414 561.34L761.36 562.438C760.4 562.33 759.692 562.276 759.236 562.276C758.216 562.276 757.52 562.522 757.148 563.014C756.788 563.494 756.608 564.394 756.608 565.714C756.608 567.022 756.776 567.934 757.112 568.45C757.46 568.966 758.174 569.224 759.254 569.224L761.378 569.062L761.432 570.178C760.316 570.346 759.482 570.43 758.93 570.43C757.526 570.43 756.554 570.07 756.014 569.35C755.486 568.63 755.222 567.418 755.222 565.714C755.222 563.998 755.51 562.798 756.086 562.114C756.662 561.418 757.622 561.07 758.966 561.07ZM769.454 569.134L769.976 569.08L770.012 570.142C768.644 570.334 767.474 570.43 766.502 570.43C765.206 570.43 764.288 570.058 763.748 569.314C763.208 568.558 762.938 567.388 762.938 565.804C762.938 562.648 764.192 561.07 766.7 561.07C767.912 561.07 768.818 561.412 769.418 562.096C770.018 562.768 770.318 563.83 770.318 565.282L770.246 566.308H764.306C764.306 567.304 764.486 568.042 764.846 568.522C765.206 569.002 765.83 569.242 766.718 569.242C767.618 569.242 768.53 569.206 769.454 569.134ZM768.968 565.228C768.968 564.124 768.788 563.344 768.428 562.888C768.08 562.432 767.504 562.204 766.7 562.204C765.908 562.204 765.308 562.444 764.9 562.924C764.504 563.404 764.3 564.172 764.288 565.228H768.968ZM775.248 562.276C773.94 562.276 773.286 562.732 773.286 563.644C773.286 564.064 773.436 564.364 773.736 564.544C774.036 564.712 774.72 564.892 775.788 565.084C776.856 565.264 777.612 565.522 778.056 565.858C778.5 566.194 778.722 566.824 778.722 567.748C778.722 568.672 778.422 569.35 777.822 569.782C777.234 570.214 776.37 570.43 775.23 570.43C774.486 570.43 773.61 570.346 772.602 570.178L772.062 570.088L772.134 568.918C773.502 569.122 774.534 569.224 775.23 569.224C775.926 569.224 776.454 569.116 776.814 568.9C777.186 568.672 777.372 568.3 777.372 567.784C777.372 567.256 777.216 566.902 776.904 566.722C776.592 566.53 775.908 566.35 774.852 566.182C773.796 566.014 773.046 565.768 772.602 565.444C772.158 565.12 771.936 564.52 771.936 563.644C771.936 562.768 772.242 562.12 772.854 561.7C773.478 561.28 774.252 561.07 775.176 561.07C775.908 561.07 776.826 561.154 777.93 561.322L778.434 561.412L778.398 562.564C777.066 562.372 776.016 562.276 775.248 562.276ZM783.615 562.276C782.307 562.276 781.653 562.732 781.653 563.644C781.653 564.064 781.803 564.364 782.103 564.544C782.403 564.712 783.087 564.892 784.155 565.084C785.223 565.264 785.979 565.522 786.423 565.858C786.867 566.194 787.089 566.824 787.089 567.748C787.089 568.672 786.789 569.35 786.189 569.782C785.601 570.214 784.737 570.43 783.597 570.43C782.853 570.43 781.977 570.346 780.969 570.178L780.429 570.088L780.501 568.918C781.869 569.122 782.901 569.224 783.597 569.224C784.293 569.224 784.821 569.116 785.181 568.9C785.553 568.672 785.739 568.3 785.739 567.784C785.739 567.256 785.583 566.902 785.271 566.722C784.959 566.53 784.275 566.35 783.219 566.182C782.163 566.014 781.413 565.768 780.969 565.444C780.525 565.12 780.303 564.52 780.303 563.644C780.303 562.768 780.609 562.12 781.221 561.7C781.845 561.28 782.619 561.07 783.543 561.07C784.275 561.07 785.193 561.154 786.297 561.322L786.801 561.412L786.765 562.564C785.433 562.372 784.383 562.276 783.615 562.276ZM788.76 565.732C788.76 564.088 789.054 562.9 789.642 562.168C790.23 561.436 791.22 561.07 792.612 561.07C794.016 561.07 795.006 561.436 795.582 562.168C796.17 562.9 796.464 564.088 796.464 565.732C796.464 567.376 796.188 568.57 795.636 569.314C795.084 570.058 794.076 570.43 792.612 570.43C791.148 570.43 790.14 570.058 789.588 569.314C789.036 568.57 788.76 567.376 788.76 565.732ZM790.146 565.714C790.146 567.022 790.302 567.94 790.614 568.468C790.938 568.996 791.604 569.26 792.612 569.26C793.632 569.26 794.298 569.002 794.61 568.486C794.922 567.958 795.078 567.034 795.078 565.714C795.078 564.394 794.904 563.488 794.556 562.996C794.208 562.492 793.56 562.24 792.612 562.24C791.676 562.24 791.028 562.492 790.668 562.996C790.32 563.488 790.146 564.394 790.146 565.714Z" fill="#17324D"/>
<rect width="1440" height="62" transform="translate(0 778.25)" fill="#003366"/>
<mask id="path-12-inside-1_1230_22964" fill="white">
<path d="M0 778.25H1440V840.25H0V778.25Z"/>
</mask>
<path d="M0 778.25H1440V840.25H0V778.25Z" fill="#004D99"/>
<path d="M0 778.25V779.25H1440V778.25V777.25H0V778.25Z" fill="white" fill-opacity="0.5" mask="url(#path-12-inside-1_1230_22964)"/>
<path d="M25.106 814.25V804.66H27.822L30.734 812.878H30.944V804.66H32.498V814.25H29.838L26.856 806.018H26.66V814.25H25.106ZM34.8176 808.006C35.303 807.399 36.1056 807.096 37.2256 807.096C38.3456 807.096 39.1436 807.399 39.6196 808.006C40.105 808.613 40.3476 809.523 40.3476 810.736C40.3476 811.949 40.1143 812.864 39.6476 813.48C39.181 814.096 38.3736 814.404 37.2256 814.404C36.0776 814.404 35.2703 814.096 34.8036 813.48C34.337 812.864 34.1036 811.949 34.1036 810.736C34.1036 809.523 34.3416 808.613 34.8176 808.006ZM35.9656 812.556C36.1803 812.929 36.6003 813.116 37.2256 813.116C37.851 813.116 38.271 812.929 38.4856 812.556C38.7003 812.183 38.8076 811.571 38.8076 810.722C38.8076 809.873 38.691 809.271 38.4576 808.916C38.2336 808.561 37.823 808.384 37.2256 808.384C36.6283 808.384 36.213 808.561 35.9796 808.916C35.7556 809.271 35.6436 809.873 35.6436 810.722C35.6436 811.571 35.751 812.183 35.9656 812.556ZM45.6295 808.552H43.6975V811.632C43.6975 812.201 43.7395 812.579 43.8235 812.766C43.9075 812.953 44.1221 813.046 44.4675 813.046L45.6155 813.004L45.6855 814.222C45.0601 814.343 44.5841 814.404 44.2575 814.404C43.4641 814.404 42.9181 814.222 42.6195 813.858C42.3301 813.494 42.1855 812.808 42.1855 811.8V808.552H41.2895V807.25H42.1855V805.22H43.6975V807.25H45.6295V808.552ZM51.865 812.99L52.257 812.948L52.285 814.082C51.221 814.297 50.2784 814.404 49.457 814.404C48.421 814.404 47.6744 814.119 47.217 813.55C46.769 812.981 46.545 812.071 46.545 810.82C46.545 808.337 47.5577 807.096 49.583 807.096C51.543 807.096 52.523 808.165 52.523 810.302L52.425 811.394H48.085C48.0944 811.973 48.2204 812.397 48.463 812.668C48.7057 812.939 49.1584 813.074 49.821 813.074C50.4837 813.074 51.165 813.046 51.865 812.99ZM51.025 810.218C51.025 809.527 50.913 809.047 50.689 808.776C50.4744 808.496 50.1057 808.356 49.583 808.356C49.0604 808.356 48.6777 808.501 48.435 808.79C48.2017 809.079 48.0804 809.555 48.071 810.218H51.025ZM62.6246 814.25H57.2486V804.66H58.8026V812.864H62.6246V814.25ZM68.6951 812.99L69.0871 812.948L69.1151 814.082C68.0511 814.297 67.1084 814.404 66.2871 814.404C65.2511 814.404 64.5044 814.119 64.0471 813.55C63.5991 812.981 63.3751 812.071 63.3751 810.82C63.3751 808.337 64.3878 807.096 66.4131 807.096C68.3731 807.096 69.3531 808.165 69.3531 810.302L69.2551 811.394H64.9151C64.9244 811.973 65.0504 812.397 65.2931 812.668C65.5358 812.939 65.9884 813.074 66.6511 813.074C67.3138 813.074 67.9951 813.046 68.6951 812.99ZM67.8551 810.218C67.8551 809.527 67.7431 809.047 67.5191 808.776C67.3044 808.496 66.9358 808.356 66.4131 808.356C65.8904 808.356 65.5078 808.501 65.2651 808.79C65.0318 809.079 64.9104 809.555 64.9011 810.218H67.8551ZM76.9385 815.202C76.9385 816.733 75.8325 817.498 73.6205 817.498C72.5565 817.498 71.7678 817.353 71.2545 817.064C70.7412 816.775 70.4845 816.247 70.4845 815.482C70.4845 815.137 70.5685 814.838 70.7365 814.586C70.9045 814.343 71.1752 814.077 71.5485 813.788C71.2405 813.583 71.0865 813.242 71.0865 812.766C71.0865 812.579 71.2125 812.276 71.4645 811.856L71.5905 811.646C70.9185 811.245 70.5825 810.545 70.5825 809.546C70.5825 808.706 70.8345 808.09 71.3385 807.698C71.8425 807.306 72.5238 807.11 73.3825 807.11C73.7932 807.11 74.1992 807.157 74.6005 807.25L74.8105 807.292L76.9805 807.236V808.468L75.8185 808.398C76.0705 808.725 76.1965 809.107 76.1965 809.546C76.1965 810.461 75.9632 811.095 75.4965 811.45C75.0392 811.795 74.3205 811.968 73.3405 811.968C73.0978 811.968 72.8925 811.949 72.7245 811.912C72.5938 812.229 72.5285 812.477 72.5285 812.654C72.5285 812.822 72.6125 812.939 72.7805 813.004C72.9578 813.069 73.3778 813.107 74.0405 813.116C75.1512 813.125 75.9118 813.275 76.3225 813.564C76.7332 813.853 76.9385 814.399 76.9385 815.202ZM71.9825 815.342C71.9825 815.669 72.1132 815.902 72.3745 816.042C72.6358 816.182 73.0838 816.252 73.7185 816.252C74.8478 816.252 75.4125 815.93 75.4125 815.286C75.4125 814.922 75.3098 814.689 75.1045 814.586C74.9085 814.493 74.5118 814.441 73.9145 814.432L72.5425 814.348C72.3372 814.516 72.1925 814.67 72.1085 814.81C72.0245 814.959 71.9825 815.137 71.9825 815.342ZM72.0945 809.546C72.0945 809.975 72.1972 810.293 72.4025 810.498C72.6078 810.694 72.9392 810.792 73.3965 810.792C73.8538 810.792 74.1805 810.694 74.3765 810.498C74.5818 810.293 74.6845 809.975 74.6845 809.546C74.6845 809.117 74.5818 808.804 74.3765 808.608C74.1712 808.403 73.8398 808.3 73.3825 808.3C72.5238 808.3 72.0945 808.715 72.0945 809.546ZM83.356 809.406V812.598C83.3653 812.803 83.4166 812.957 83.51 813.06C83.6126 813.153 83.7666 813.214 83.972 813.242L83.93 814.404C83.1273 814.404 82.5066 814.231 82.068 813.886C81.3213 814.231 80.57 814.404 79.814 814.404C78.4233 814.404 77.728 813.662 77.728 812.178C77.728 811.469 77.9146 810.955 78.288 810.638C78.6706 810.321 79.254 810.129 80.038 810.064L81.844 809.91V809.406C81.844 809.033 81.76 808.771 81.592 808.622C81.4333 808.473 81.1953 808.398 80.878 808.398C80.2806 808.398 79.534 808.435 78.638 808.51L78.19 808.538L78.134 807.46C79.1513 807.217 80.0846 807.096 80.934 807.096C81.7926 807.096 82.4086 807.283 82.782 807.656C83.1646 808.02 83.356 808.603 83.356 809.406ZM80.22 811.142C79.576 811.198 79.254 811.548 79.254 812.192C79.254 812.836 79.5386 813.158 80.108 813.158C80.5746 813.158 81.0693 813.083 81.592 812.934L81.844 812.85V810.988L80.22 811.142ZM85.3557 814.25V804.338H86.8817V814.25H85.3557ZM88.8127 814.25V807.25H90.3387V814.25H88.8127ZM88.8127 806.06V804.45H90.3387V806.06H88.8127Z" fill="white"/>
<path d="M24 815.79H70.08V816.21H24V815.79ZM77.2872 815.79H91.2627V816.21H77.2872V815.79Z" fill="white"/>
<path d="M120.62 811.268H118.66V814.25H117.106V804.66H120.62C122.795 804.66 123.882 805.733 123.882 807.88C123.882 808.981 123.607 809.821 123.056 810.4C122.515 810.979 121.703 811.268 120.62 811.268ZM118.66 809.924H120.606C121.726 809.924 122.286 809.243 122.286 807.88C122.286 807.227 122.151 806.751 121.88 806.452C121.609 806.153 121.185 806.004 120.606 806.004H118.66V809.924ZM125.195 814.25V807.25H126.707V808.09C127.501 807.577 128.294 807.245 129.087 807.096V808.622C128.285 808.781 127.599 808.986 127.029 809.238L126.721 809.364V814.25H125.195ZM130.254 814.25V807.25H131.78V814.25H130.254ZM130.254 806.06V804.45H131.78V806.06H130.254ZM132.973 807.25H134.569L135.913 812.948H136.361L137.761 807.25H139.315L137.495 814.25H134.779L132.973 807.25ZM145.592 809.406V812.598C145.602 812.803 145.653 812.957 145.746 813.06C145.849 813.153 146.003 813.214 146.208 813.242L146.166 814.404C145.364 814.404 144.743 814.231 144.304 813.886C143.558 814.231 142.806 814.404 142.05 814.404C140.66 814.404 139.964 813.662 139.964 812.178C139.964 811.469 140.151 810.955 140.524 810.638C140.907 810.321 141.49 810.129 142.274 810.064L144.08 809.91V809.406C144.08 809.033 143.996 808.771 143.828 808.622C143.67 808.473 143.432 808.398 143.114 808.398C142.517 808.398 141.77 808.435 140.874 808.51L140.426 808.538L140.37 807.46C141.388 807.217 142.321 807.096 143.17 807.096C144.029 807.096 144.645 807.283 145.018 807.656C145.401 808.02 145.592 808.603 145.592 809.406ZM142.456 811.142C141.812 811.198 141.49 811.548 141.49 812.192C141.49 812.836 141.775 813.158 142.344 813.158C142.811 813.158 143.306 813.083 143.828 812.934L144.08 812.85V810.988L142.456 811.142ZM150.126 807.096C150.621 807.096 151.204 807.161 151.876 807.292L152.226 807.362L152.17 808.566C151.433 808.491 150.887 808.454 150.532 808.454C149.823 808.454 149.347 808.613 149.104 808.93C148.861 809.247 148.74 809.845 148.74 810.722C148.74 811.599 148.857 812.206 149.09 812.542C149.323 812.878 149.809 813.046 150.546 813.046L152.184 812.934L152.226 814.152C151.283 814.32 150.574 814.404 150.098 814.404C149.034 814.404 148.283 814.119 147.844 813.55C147.415 812.971 147.2 812.029 147.2 810.722C147.2 809.415 147.429 808.487 147.886 807.936C148.343 807.376 149.09 807.096 150.126 807.096ZM153.057 807.25H154.555L156.039 812.948H156.417L157.901 807.25H159.413L156.753 817.26H155.255L156.095 814.25H154.891L153.057 807.25ZM167.364 811.268H165.404V814.25H163.85V804.66H167.364C169.539 804.66 170.626 805.733 170.626 807.88C170.626 808.981 170.351 809.821 169.8 810.4C169.259 810.979 168.447 811.268 167.364 811.268ZM165.404 809.924H167.35C168.47 809.924 169.03 809.243 169.03 807.88C169.03 807.227 168.895 806.751 168.624 806.452C168.353 806.153 167.929 806.004 167.35 806.004H165.404V809.924ZM172.318 808.006C172.803 807.399 173.606 807.096 174.726 807.096C175.846 807.096 176.644 807.399 177.12 808.006C177.605 808.613 177.848 809.523 177.848 810.736C177.848 811.949 177.614 812.864 177.148 813.48C176.681 814.096 175.874 814.404 174.726 814.404C173.578 814.404 172.77 814.096 172.304 813.48C171.837 812.864 171.604 811.949 171.604 810.736C171.604 809.523 171.842 808.613 172.318 808.006ZM173.466 812.556C173.68 812.929 174.1 813.116 174.726 813.116C175.351 813.116 175.771 812.929 175.986 812.556C176.2 812.183 176.308 811.571 176.308 810.722C176.308 809.873 176.191 809.271 175.958 808.916C175.734 808.561 175.323 808.384 174.726 808.384C174.128 808.384 173.713 808.561 173.48 808.916C173.256 809.271 173.144 809.873 173.144 810.722C173.144 811.571 173.251 812.183 173.466 812.556ZM179.447 814.25V804.338H180.973V814.25H179.447ZM182.904 814.25V807.25H184.43V814.25H182.904ZM182.904 806.06V804.45H184.43V806.06H182.904ZM188.899 807.096C189.394 807.096 189.977 807.161 190.649 807.292L190.999 807.362L190.943 808.566C190.206 808.491 189.66 808.454 189.305 808.454C188.596 808.454 188.12 808.613 187.877 808.93C187.635 809.247 187.513 809.845 187.513 810.722C187.513 811.599 187.63 812.206 187.863 812.542C188.097 812.878 188.582 813.046 189.319 813.046L190.957 812.934L190.999 814.152C190.057 814.32 189.347 814.404 188.871 814.404C187.807 814.404 187.056 814.119 186.617 813.55C186.188 812.971 185.973 812.029 185.973 810.722C185.973 809.415 186.202 808.487 186.659 807.936C187.117 807.376 187.863 807.096 188.899 807.096ZM191.831 807.25H193.329L194.813 812.948H195.191L196.675 807.25H198.187L195.527 817.26H194.029L194.869 814.25H193.665L191.831 807.25Z" fill="white"/>
<path d="M116 815.79H155.127V816.21H116V815.79ZM157.561 815.79H193.9V816.21H157.561V815.79ZM196.334 815.79H198.439V816.21H196.334V815.79Z" fill="white"/>
<path d="M227.424 814.25H224.106V804.66H227.424C228.899 804.66 229.907 805.033 230.448 805.78C230.989 806.527 231.26 807.698 231.26 809.294C231.26 810.106 231.204 810.797 231.092 811.366C230.989 811.926 230.803 812.435 230.532 812.892C230 813.797 228.964 814.25 227.424 814.25ZM229.65 809.294C229.65 808.137 229.505 807.301 229.216 806.788C228.927 806.275 228.329 806.018 227.424 806.018H225.66V812.878H227.424C228.348 812.878 228.964 812.537 229.272 811.856C229.421 811.511 229.519 811.142 229.566 810.75C229.622 810.358 229.65 809.873 229.65 809.294ZM232.893 814.25V807.25H234.419V814.25H232.893ZM232.893 806.06V804.45H234.419V806.06H232.893ZM238.888 807.096C239.382 807.096 239.966 807.161 240.638 807.292L240.988 807.362L240.932 808.566C240.194 808.491 239.648 808.454 239.294 808.454C238.584 808.454 238.108 808.613 237.866 808.93C237.623 809.247 237.502 809.845 237.502 810.722C237.502 811.599 237.618 812.206 237.852 812.542C238.085 812.878 238.57 813.046 239.308 813.046L240.946 812.934L240.988 814.152C240.045 814.32 239.336 814.404 238.86 814.404C237.796 814.404 237.044 814.119 236.606 813.55C236.176 812.971 235.962 812.029 235.962 810.722C235.962 809.415 236.19 808.487 236.648 807.936C237.105 807.376 237.852 807.096 238.888 807.096ZM243.989 814.25H242.463V804.338H243.989V807.614C244.68 807.269 245.319 807.096 245.907 807.096C246.84 807.096 247.475 807.362 247.811 807.894C248.156 808.417 248.329 809.285 248.329 810.498V814.25H246.803V810.54C246.803 809.784 246.724 809.247 246.565 808.93C246.406 808.613 246.07 808.454 245.557 808.454C245.109 808.454 244.661 808.529 244.213 808.678L243.989 808.762V814.25ZM250.106 814.25V807.25H251.632V814.25H250.106ZM250.106 806.06V804.45H251.632V806.06H250.106ZM258.663 809.406V812.598C258.672 812.803 258.723 812.957 258.817 813.06C258.919 813.153 259.073 813.214 259.279 813.242L259.237 814.404C258.434 814.404 257.813 814.231 257.375 813.886C256.628 814.231 255.877 814.404 255.121 814.404C253.73 814.404 253.035 813.662 253.035 812.178C253.035 811.469 253.221 810.955 253.595 810.638C253.977 810.321 254.561 810.129 255.345 810.064L257.151 809.91V809.406C257.151 809.033 257.067 808.771 256.899 808.622C256.74 808.473 256.502 808.398 256.185 808.398C255.587 808.398 254.841 808.435 253.945 808.51L253.497 808.538L253.441 807.46C254.458 807.217 255.391 807.096 256.241 807.096C257.099 807.096 257.715 807.283 258.089 807.656C258.471 808.02 258.663 808.603 258.663 809.406ZM255.527 811.142C254.883 811.198 254.561 811.548 254.561 812.192C254.561 812.836 254.845 813.158 255.415 813.158C255.881 813.158 256.376 813.083 256.899 812.934L257.151 812.85V810.988L255.527 811.142ZM260.578 814.25V807.25H262.09V808.09C262.884 807.577 263.677 807.245 264.47 807.096V808.622C263.668 808.781 262.982 808.986 262.412 809.238L262.104 809.364V814.25H260.578ZM270.817 809.406V812.598C270.826 812.803 270.878 812.957 270.971 813.06C271.074 813.153 271.228 813.214 271.433 813.242L271.391 814.404C270.588 814.404 269.968 814.231 269.529 813.886C268.782 814.231 268.031 814.404 267.275 814.404C265.884 814.404 265.189 813.662 265.189 812.178C265.189 811.469 265.376 810.955 265.749 810.638C266.132 810.321 266.715 810.129 267.499 810.064L269.305 809.91V809.406C269.305 809.033 269.221 808.771 269.053 808.622C268.894 808.473 268.656 808.398 268.339 808.398C267.742 808.398 266.995 808.435 266.099 808.51L265.651 808.538L265.595 807.46C266.612 807.217 267.546 807.096 268.395 807.096C269.254 807.096 269.87 807.283 270.243 807.656C270.626 808.02 270.817 808.603 270.817 809.406ZM267.681 811.142C267.037 811.198 266.715 811.548 266.715 812.192C266.715 812.836 267 813.158 267.569 813.158C268.036 813.158 268.53 813.083 269.053 812.934L269.305 812.85V810.988L267.681 811.142ZM272.383 808.608V807.25H277.577V808.608L274.217 812.892H277.577V814.25H272.383V812.892L275.757 808.608H272.383ZM279.09 814.25V807.25H280.616V814.25H279.09ZM279.09 806.06V804.45H280.616V806.06H279.09ZM282.845 808.006C283.33 807.399 284.133 807.096 285.253 807.096C286.373 807.096 287.171 807.399 287.647 808.006C288.132 808.613 288.375 809.523 288.375 810.736C288.375 811.949 288.142 812.864 287.675 813.48C287.208 814.096 286.401 814.404 285.253 814.404C284.105 814.404 283.298 814.096 282.831 813.48C282.364 812.864 282.131 811.949 282.131 810.736C282.131 809.523 282.369 808.613 282.845 808.006ZM283.993 812.556C284.208 812.929 284.628 813.116 285.253 813.116C285.878 813.116 286.298 812.929 286.513 812.556C286.728 812.183 286.835 811.571 286.835 810.722C286.835 809.873 286.718 809.271 286.485 808.916C286.261 808.561 285.85 808.384 285.253 808.384C284.656 808.384 284.24 808.561 284.007 808.916C283.783 809.271 283.671 809.873 283.671 810.722C283.671 811.571 283.778 812.183 283.993 812.556ZM291.417 814.25H289.891V807.25H291.403V807.684C292.084 807.292 292.728 807.096 293.335 807.096C294.268 807.096 294.903 807.362 295.239 807.894C295.584 808.417 295.757 809.285 295.757 810.498V814.25H294.245V810.54C294.245 809.784 294.161 809.247 293.993 808.93C293.834 808.613 293.503 808.454 292.999 808.454C292.523 808.454 292.065 808.547 291.627 808.734L291.417 808.818V814.25ZM302.517 812.99L302.909 812.948L302.937 814.082C301.873 814.297 300.931 814.404 300.109 814.404C299.073 814.404 298.327 814.119 297.869 813.55C297.421 812.981 297.197 812.071 297.197 810.82C297.197 808.337 298.21 807.096 300.235 807.096C302.195 807.096 303.175 808.165 303.175 810.302L303.077 811.394H298.737C298.747 811.973 298.873 812.397 299.115 812.668C299.358 812.939 299.811 813.074 300.473 813.074C301.136 813.074 301.817 813.046 302.517 812.99ZM301.677 810.218C301.677 809.527 301.565 809.047 301.341 808.776C301.127 808.496 300.758 808.356 300.235 808.356C299.713 808.356 299.33 808.501 299.087 808.79C298.854 809.079 298.733 809.555 298.723 810.218H301.677ZM307.075 814.25L309.441 804.66H312.535L314.915 814.25H313.347L312.829 812.192H309.147L308.629 814.25H307.075ZM310.645 805.962L309.455 810.82H312.521L311.345 805.962H310.645ZM318.649 807.096C319.144 807.096 319.727 807.161 320.399 807.292L320.749 807.362L320.693 808.566C319.956 808.491 319.41 808.454 319.055 808.454C318.346 808.454 317.87 808.613 317.627 808.93C317.385 809.247 317.263 809.845 317.263 810.722C317.263 811.599 317.38 812.206 317.613 812.542C317.847 812.878 318.332 813.046 319.069 813.046L320.707 812.934L320.749 814.152C319.807 814.32 319.097 814.404 318.621 814.404C317.557 814.404 316.806 814.119 316.367 813.55C315.938 812.971 315.723 812.029 315.723 810.722C315.723 809.415 315.952 808.487 316.409 807.936C316.867 807.376 317.613 807.096 318.649 807.096ZM324.774 807.096C325.269 807.096 325.852 807.161 326.524 807.292L326.874 807.362L326.818 808.566C326.081 808.491 325.535 808.454 325.18 808.454C324.471 808.454 323.995 808.613 323.752 808.93C323.51 809.247 323.388 809.845 323.388 810.722C323.388 811.599 323.505 812.206 323.738 812.542C323.972 812.878 324.457 813.046 325.194 813.046L326.832 812.934L326.874 814.152C325.932 814.32 325.222 814.404 324.746 814.404C323.682 814.404 322.931 814.119 322.492 813.55C322.063 812.971 321.848 812.029 321.848 810.722C321.848 809.415 322.077 808.487 322.534 807.936C322.992 807.376 323.738 807.096 324.774 807.096ZM333.265 812.99L333.657 812.948L333.685 814.082C332.621 814.297 331.679 814.404 330.857 814.404C329.821 814.404 329.075 814.119 328.617 813.55C328.169 812.981 327.945 812.071 327.945 810.82C327.945 808.337 328.958 807.096 330.983 807.096C332.943 807.096 333.923 808.165 333.923 810.302L333.825 811.394H329.485C329.495 811.973 329.621 812.397 329.863 812.668C330.106 812.939 330.559 813.074 331.221 813.074C331.884 813.074 332.565 813.046 333.265 812.99ZM332.425 810.218C332.425 809.527 332.313 809.047 332.089 808.776C331.875 808.496 331.506 808.356 330.983 808.356C330.461 808.356 330.078 808.501 329.835 808.79C329.602 809.079 329.481 809.555 329.471 810.218H332.425ZM340.249 808.692C339.147 808.543 338.349 808.468 337.855 808.468C337.36 808.468 337.015 808.529 336.819 808.65C336.632 808.762 336.539 808.944 336.539 809.196C336.539 809.448 336.641 809.625 336.847 809.728C337.061 809.831 337.556 809.952 338.331 810.092C339.115 810.223 339.67 810.433 339.997 810.722C340.323 811.011 340.487 811.525 340.487 812.262C340.487 812.999 340.249 813.541 339.773 813.886C339.306 814.231 338.62 814.404 337.715 814.404C337.145 814.404 336.427 814.325 335.559 814.166L335.125 814.096L335.181 812.822C336.301 812.971 337.108 813.046 337.603 813.046C338.097 813.046 338.447 812.985 338.653 812.864C338.867 812.743 338.975 812.542 338.975 812.262C338.975 811.982 338.872 811.791 338.667 811.688C338.471 811.576 337.99 811.459 337.225 811.338C336.469 811.207 335.913 811.007 335.559 810.736C335.204 810.465 335.027 809.971 335.027 809.252C335.027 808.533 335.269 807.997 335.755 807.642C336.249 807.287 336.879 807.11 337.645 807.11C338.242 807.11 338.975 807.185 339.843 807.334L340.277 807.418L340.249 808.692ZM346.811 808.692C345.71 808.543 344.912 808.468 344.417 808.468C343.923 808.468 343.577 808.529 343.381 808.65C343.195 808.762 343.101 808.944 343.101 809.196C343.101 809.448 343.204 809.625 343.409 809.728C343.624 809.831 344.119 809.952 344.893 810.092C345.677 810.223 346.233 810.433 346.559 810.722C346.886 811.011 347.049 811.525 347.049 812.262C347.049 812.999 346.811 813.541 346.335 813.886C345.869 814.231 345.183 814.404 344.277 814.404C343.708 814.404 342.989 814.325 342.121 814.166L341.687 814.096L341.743 812.822C342.863 812.971 343.671 813.046 344.165 813.046C344.66 813.046 345.01 812.985 345.215 812.864C345.43 812.743 345.537 812.542 345.537 812.262C345.537 811.982 345.435 811.791 345.229 811.688C345.033 811.576 344.553 811.459 343.787 811.338C343.031 811.207 342.476 811.007 342.121 810.736C341.767 810.465 341.589 809.971 341.589 809.252C341.589 808.533 341.832 807.997 342.317 807.642C342.812 807.287 343.442 807.11 344.207 807.11C344.805 807.11 345.537 807.185 346.405 807.334L346.839 807.418L346.811 808.692ZM348.516 814.25V807.25H350.042V814.25H348.516ZM348.516 806.06V804.45H350.042V806.06H348.516ZM355.155 807.096C356.116 807.096 356.807 807.367 357.227 807.908C357.656 808.44 357.871 809.387 357.871 810.75C357.871 812.113 357.619 813.065 357.115 813.606C356.611 814.138 355.724 814.404 354.455 814.404C354.016 814.404 353.321 814.362 352.369 814.278L351.893 814.236V804.338H353.405V807.516C354.049 807.236 354.632 807.096 355.155 807.096ZM354.455 813.046C355.201 813.046 355.696 812.873 355.939 812.528C356.191 812.173 356.317 811.576 356.317 810.736C356.317 809.896 356.209 809.308 355.995 808.972C355.789 808.627 355.449 808.454 354.973 808.454C354.525 808.454 354.077 808.524 353.629 808.664L353.405 808.734V812.99C353.918 813.027 354.268 813.046 354.455 813.046ZM359.399 814.25V807.25H360.925V814.25H359.399ZM359.399 806.06V804.45H360.925V806.06H359.399ZM362.86 814.25V804.338H364.386V814.25H362.86ZM366.317 814.25V807.25H367.843V814.25H366.317ZM366.317 806.06V804.45H367.843V806.06H366.317ZM373.46 808.552H371.528V811.632C371.528 812.201 371.57 812.579 371.654 812.766C371.738 812.953 371.952 813.046 372.298 813.046L373.446 813.004L373.516 814.222C372.89 814.343 372.414 814.404 372.088 814.404C371.294 814.404 370.748 814.222 370.45 813.858C370.16 813.494 370.016 812.808 370.016 811.8V808.552H369.12V807.25H370.016V805.22H371.528V807.25H373.46V808.552ZM379.891 809.406V812.598C379.9 812.803 379.952 812.957 380.045 813.06C380.148 813.153 380.302 813.214 380.507 813.242L380.465 814.404C379.662 814.404 379.042 814.231 378.603 813.886C377.856 814.231 377.105 814.404 376.349 814.404C374.958 814.404 374.263 813.662 374.263 812.178C374.263 811.469 374.45 810.955 374.823 810.638C375.206 810.321 375.789 810.129 376.573 810.064L378.379 809.91V809.406C378.379 809.033 378.295 808.771 378.127 808.622C377.968 808.473 377.73 808.398 377.413 808.398C376.816 808.398 376.069 808.435 375.173 808.51L374.725 808.538L374.669 807.46C375.686 807.217 376.62 807.096 377.469 807.096C378.328 807.096 378.944 807.283 379.317 807.656C379.7 808.02 379.891 808.603 379.891 809.406ZM376.755 811.142C376.111 811.198 375.789 811.548 375.789 812.192C375.789 812.836 376.074 813.158 376.643 813.158C377.11 813.158 377.604 813.083 378.127 812.934L378.379 812.85V810.988L376.755 811.142ZM375.817 803.778L379.121 805.192L378.757 806.186L375.341 805.094L375.817 803.778Z" fill="white"/>
<path d="M223 815.79H380.885V816.21H223V815.79Z" fill="white"/>
</g>
<defs>
<clipPath id="clip0_1230_22964">
<rect width="1440" height="840" fill="white" transform="translate(0 0.25)"/>
</clipPath>
<clipPath id="clip1_1230_22964">
<rect width="47" height="24" fill="white" transform="translate(1321 14.25)"/>
</clipPath>
</defs>
</svg>
