<svg width="291" height="105" viewBox="0 0 291 105" fill="none" xmlns="http://www.w3.org/2000/svg">
<rect width="290" height="104" transform="translate(0.945312 0.730469)" fill="white"/>
<rect x="12.9453" y="12.7305" width="266" height="48" rx="4" fill="#0066CC"/>
<path d="M37.0053 35.5705L41.4253 31.1505L37.0053 26.7305L32.5853 31.1505L37.0053 35.5705ZM42.6453 41.2105L47.0653 36.7905L42.6453 32.3705L38.2253 36.7905L42.6453 41.2105ZM31.3653 41.2105L35.7853 36.7905L31.3653 32.3705L26.9453 36.7905L31.3653 41.2105ZM37.0053 46.8505L41.4253 42.4305L37.0053 38.0105L32.5853 42.4305L37.0053 46.8505Z" fill="white"/>
<path d="M60.9453 16.7305V56.7305" stroke="white" stroke-linejoin="round"/>
<path d="M99.6624 42.7305V31.7705H106.574V33.3225H101.438V36.4265H105.614V37.9625H101.438V41.1625H106.574V42.7305H99.6624ZM110.042 42.7305H108.298V34.7305H110.026V35.2265C110.805 34.7785 111.541 34.5545 112.234 34.5545C113.301 34.5545 114.026 34.8585 114.41 35.4665C114.805 36.0638 115.002 37.0558 115.002 38.4425V42.7305H113.274V38.4905C113.274 37.6265 113.178 37.0131 112.986 36.6505C112.805 36.2878 112.426 36.1065 111.85 36.1065C111.306 36.1065 110.784 36.2131 110.282 36.4265L110.042 36.5225V42.7305ZM121.337 36.2185H119.129V39.7385C119.129 40.3891 119.177 40.8211 119.273 41.0345C119.369 41.2478 119.614 41.3545 120.009 41.3545L121.321 41.3065L121.401 42.6985C120.686 42.8371 120.142 42.9065 119.769 42.9065C118.862 42.9065 118.238 42.6985 117.897 42.2825C117.566 41.8665 117.401 41.0825 117.401 39.9305V36.2185H116.377V34.7305H117.401V32.4105H119.129V34.7305H121.337V36.2185ZM122.767 42.7305V34.7305H124.495V35.6905C125.402 35.1038 126.308 34.7251 127.215 34.5545V36.2985C126.298 36.4798 125.514 36.7145 124.863 37.0025L124.511 37.1465V42.7305H122.767ZM134.468 37.1945V40.8425C134.479 41.0771 134.538 41.2531 134.644 41.3705C134.762 41.4771 134.938 41.5465 135.172 41.5785L135.124 42.9065C134.207 42.9065 133.498 42.7091 132.996 42.3145C132.143 42.7091 131.284 42.9065 130.42 42.9065C128.831 42.9065 128.036 42.0585 128.036 40.3625C128.036 39.5518 128.25 38.9651 128.676 38.6025C129.114 38.2398 129.78 38.0211 130.676 37.9465L132.74 37.7705V37.1945C132.74 36.7678 132.644 36.4691 132.452 36.2985C132.271 36.1278 131.999 36.0425 131.636 36.0425C130.954 36.0425 130.1 36.0851 129.076 36.1705L128.564 36.2025L128.5 34.9705C129.663 34.6931 130.73 34.5545 131.7 34.5545C132.682 34.5545 133.386 34.7678 133.812 35.1945C134.25 35.6105 134.468 36.2771 134.468 37.1945ZM130.884 39.1785C130.148 39.2425 129.78 39.6425 129.78 40.3785C129.78 41.1145 130.106 41.4825 130.756 41.4825C131.29 41.4825 131.855 41.3971 132.452 41.2265L132.74 41.1305V39.0025L130.884 39.1785ZM143.165 34.5545C143.731 34.5545 144.397 34.6291 145.165 34.7785L145.565 34.8585L145.501 36.2345C144.659 36.1491 144.035 36.1065 143.629 36.1065C142.819 36.1065 142.275 36.2878 141.997 36.6505C141.72 37.0131 141.581 37.6958 141.581 38.6985C141.581 39.7011 141.715 40.3945 141.981 40.7785C142.248 41.1625 142.803 41.3545 143.645 41.3545L145.517 41.2265L145.565 42.6185C144.488 42.8105 143.677 42.9065 143.133 42.9065C141.917 42.9065 141.059 42.5811 140.557 41.9305C140.067 41.2691 139.821 40.1918 139.821 38.6985C139.821 37.2051 140.083 36.1438 140.605 35.5145C141.128 34.8745 141.981 34.5545 143.165 34.5545ZM147.605 35.5945C148.16 34.9011 149.077 34.5545 150.357 34.5545C151.637 34.5545 152.549 34.9011 153.093 35.5945C153.648 36.2878 153.925 37.3278 153.925 38.7145C153.925 40.1011 153.659 41.1465 153.125 41.8505C152.592 42.5545 151.669 42.9065 150.357 42.9065C149.045 42.9065 148.123 42.5545 147.589 41.8505C147.056 41.1465 146.789 40.1011 146.789 38.7145C146.789 37.3278 147.061 36.2878 147.605 35.5945ZM148.917 40.7945C149.163 41.2211 149.643 41.4345 150.357 41.4345C151.072 41.4345 151.552 41.2211 151.797 40.7945C152.043 40.3678 152.165 39.6691 152.165 38.6985C152.165 37.7278 152.032 37.0398 151.765 36.6345C151.509 36.2291 151.04 36.0265 150.357 36.0265C149.675 36.0265 149.2 36.2291 148.933 36.6345C148.677 37.0398 148.549 37.7278 148.549 38.6985C148.549 39.6691 148.672 40.3678 148.917 40.7945ZM157.402 42.7305H155.658V34.7305H157.386V35.2265C158.164 34.7785 158.9 34.5545 159.594 34.5545C160.66 34.5545 161.386 34.8585 161.77 35.4665C162.164 36.0638 162.362 37.0558 162.362 38.4425V42.7305H160.634V38.4905C160.634 37.6265 160.538 37.0131 160.346 36.6505C160.164 36.2878 159.786 36.1065 159.21 36.1065C158.666 36.1065 158.143 36.2131 157.642 36.4265L157.402 36.5225V42.7305ZM168.116 42.7305V31.7705H169.892V42.7305H168.116ZM171.356 33.3545V31.7705H179.356V33.3545H176.268V42.7305H174.476V33.3545H171.356ZM179.593 39.2105V37.6265H184.377V39.2105H179.593ZM185.47 31.7705H187.342L188.91 41.1945H189.246L191.326 31.8025H193.406L195.486 41.1945H195.838L197.406 31.7705H199.278L197.118 42.7305H194.254L192.366 33.9465L190.494 42.7305H187.614L185.47 31.7705ZM206.406 37.1945V40.8425C206.416 41.0771 206.475 41.2531 206.582 41.3705C206.699 41.4771 206.875 41.5465 207.11 41.5785L207.062 42.9065C206.144 42.9065 205.435 42.7091 204.934 42.3145C204.08 42.7091 203.222 42.9065 202.358 42.9065C200.768 42.9065 199.974 42.0585 199.974 40.3625C199.974 39.5518 200.187 38.9651 200.614 38.6025C201.051 38.2398 201.718 38.0211 202.614 37.9465L204.678 37.7705V37.1945C204.678 36.7678 204.582 36.4691 204.39 36.2985C204.208 36.1278 203.936 36.0425 203.574 36.0425C202.891 36.0425 202.038 36.0851 201.014 36.1705L200.502 36.2025L200.438 34.9705C201.6 34.6931 202.667 34.5545 203.638 34.5545C204.619 34.5545 205.323 34.7678 205.75 35.1945C206.187 35.6105 206.406 36.2771 206.406 37.1945ZM202.822 39.1785C202.086 39.2425 201.718 39.6425 201.718 40.3785C201.718 41.1145 202.043 41.4825 202.694 41.4825C203.227 41.4825 203.792 41.3971 204.39 41.2265L204.678 41.1305V39.0025L202.822 39.1785ZM208.691 42.7305V31.4025H210.435V42.7305H208.691ZM212.738 42.7305V31.4025H214.482V42.7305H212.738ZM222.385 41.2905L222.833 41.2425L222.865 42.5385C221.649 42.7838 220.571 42.9065 219.633 42.9065C218.449 42.9065 217.595 42.5811 217.073 41.9305C216.561 41.2798 216.305 40.2398 216.305 38.8105C216.305 35.9731 217.462 34.5545 219.777 34.5545C222.017 34.5545 223.137 35.7758 223.137 38.2185L223.025 39.4665H218.065C218.075 40.1278 218.219 40.6131 218.497 40.9225C218.774 41.2318 219.291 41.3865 220.049 41.3865C220.806 41.3865 221.585 41.3545 222.385 41.2905ZM221.425 38.1225C221.425 37.3331 221.297 36.7838 221.041 36.4745C220.795 36.1545 220.374 35.9945 219.777 35.9945C219.179 35.9945 218.742 36.1598 218.465 36.4905C218.198 36.8211 218.059 37.3651 218.049 38.1225H221.425ZM229.118 36.2185H226.91V39.7385C226.91 40.3891 226.958 40.8211 227.054 41.0345C227.15 41.2478 227.395 41.3545 227.79 41.3545L229.102 41.3065L229.182 42.6985C228.467 42.8371 227.923 42.9065 227.55 42.9065C226.643 42.9065 226.019 42.6985 225.678 42.2825C225.347 41.8665 225.182 41.0825 225.182 39.9305V36.2185H224.158V34.7305H225.182V32.4105H226.91V34.7305H229.118V36.2185Z" fill="white"/>
<path d="M16.8653 80.3445C15.68 80.3445 15.0873 80.7598 15.0873 81.5905C15.0873 82.0198 15.2273 82.3278 15.5073 82.5145C15.7873 82.6918 16.4033 82.9158 17.3553 83.1865C18.3166 83.4478 18.9933 83.7651 19.3853 84.1385C19.7773 84.5025 19.9733 85.0811 19.9733 85.8745C19.9733 86.8825 19.684 87.6385 19.1053 88.1425C18.536 88.6371 17.7566 88.8845 16.7673 88.8845C15.974 88.8845 15.0966 88.7911 14.1353 88.6045L13.6313 88.5065L13.7853 87.2605C15.0453 87.4285 16.0066 87.5125 16.6693 87.5125C17.8266 87.5125 18.4053 86.9991 18.4053 85.9725C18.4053 85.5711 18.2746 85.2771 18.0133 85.0905C17.752 84.8945 17.164 84.6845 16.2493 84.4605C15.3346 84.2271 14.6533 83.9098 14.2053 83.5085C13.7573 83.1071 13.5333 82.4725 13.5333 81.6045C13.5333 80.7365 13.8133 80.0831 14.3733 79.6445C14.9426 79.1965 15.7266 78.9725 16.7253 78.9725C17.444 78.9725 18.2933 79.0565 19.2733 79.2245L19.7633 79.3085L19.6373 80.5685C18.3306 80.4191 17.4066 80.3445 16.8653 80.3445ZM24.0889 81.5765C24.5835 81.5765 25.1669 81.6418 25.8389 81.7725L26.1889 81.8425L26.1329 83.0465C25.3955 82.9718 24.8495 82.9345 24.4949 82.9345C23.7855 82.9345 23.3095 83.0931 23.0669 83.4105C22.8242 83.7278 22.7029 84.3251 22.7029 85.2025C22.7029 86.0798 22.8195 86.6865 23.0529 87.0225C23.2862 87.3585 23.7715 87.5265 24.5089 87.5265L26.1469 87.4145L26.1889 88.6325C25.2462 88.8005 24.5369 88.8845 24.0609 88.8845C22.9969 88.8845 22.2455 88.5998 21.8069 88.0305C21.3775 87.4518 21.1629 86.5091 21.1629 85.2025C21.1629 83.8958 21.3915 82.9671 21.8489 82.4165C22.3062 81.8565 23.0529 81.5765 24.0889 81.5765ZM27.9739 82.4865C28.4592 81.8798 29.2619 81.5765 30.3819 81.5765C31.5019 81.5765 32.2999 81.8798 32.7759 82.4865C33.2612 83.0931 33.5039 84.0031 33.5039 85.2165C33.5039 86.4298 33.2705 87.3445 32.8039 87.9605C32.3372 88.5765 31.5299 88.8845 30.3819 88.8845C29.2339 88.8845 28.4265 88.5765 27.9599 87.9605C27.4932 87.3445 27.2599 86.4298 27.2599 85.2165C27.2599 84.0031 27.4979 83.0931 27.9739 82.4865ZM29.1219 87.0365C29.3365 87.4098 29.7565 87.5965 30.3819 87.5965C31.0072 87.5965 31.4272 87.4098 31.6419 87.0365C31.8565 86.6631 31.9639 86.0518 31.9639 85.2025C31.9639 84.3531 31.8472 83.7511 31.6139 83.3965C31.3899 83.0418 30.9792 82.8645 30.3819 82.8645C29.7845 82.8645 29.3692 83.0418 29.1359 83.3965C28.9119 83.7511 28.7999 84.3531 28.7999 85.2025C28.7999 86.0518 28.9072 86.6631 29.1219 87.0365ZM35.0197 91.7405V81.7305H36.5317V82.1645C37.1757 81.7725 37.7777 81.5765 38.3377 81.5765C39.2617 81.5765 39.9384 81.8611 40.3677 82.4305C40.797 82.9905 41.0117 83.9378 41.0117 85.2725C41.0117 86.5978 40.7644 87.5311 40.2697 88.0725C39.7844 88.6138 38.9864 88.8845 37.8757 88.8845C37.493 88.8845 37.0497 88.8425 36.5457 88.7585V91.7405H35.0197ZM38.0717 82.9345C37.633 82.9345 37.1944 83.0325 36.7557 83.2285L36.5457 83.3265V87.4565C36.919 87.5311 37.3297 87.5685 37.7777 87.5685C38.4124 87.5685 38.851 87.3865 39.0937 87.0225C39.3364 86.6585 39.4577 86.0378 39.4577 85.1605C39.4577 83.6765 38.9957 82.9345 38.0717 82.9345ZM42.5392 88.7305V81.7305H44.0512V82.5705C44.8446 82.0571 45.6379 81.7258 46.4312 81.5765V83.1025C45.6286 83.2611 44.9426 83.4665 44.3732 83.7185L44.0652 83.8445V88.7305H42.5392ZM47.5978 88.7305V81.7305H49.1238V88.7305H47.5978ZM47.5978 80.5405V78.9305H49.1238V80.5405H47.5978ZM59.763 78.8185V88.7305H58.251V88.3665C57.5696 88.7118 56.9443 88.8845 56.375 88.8845C55.4603 88.8845 54.7883 88.6091 54.359 88.0585C53.939 87.5078 53.729 86.5838 53.729 85.2865C53.729 83.9891 53.9623 83.0465 54.429 82.4585C54.905 81.8705 55.6423 81.5765 56.641 81.5765C56.977 81.5765 57.509 81.6371 58.237 81.7585V78.8185H59.763ZM57.999 87.2745L58.237 87.1765V83.0325C57.677 82.9391 57.159 82.8925 56.683 82.8925C55.7403 82.8925 55.269 83.6765 55.269 85.2445C55.269 86.1031 55.3763 86.7005 55.591 87.0365C55.815 87.3631 56.165 87.5265 56.641 87.5265C57.117 87.5265 57.5696 87.4425 57.999 87.2745ZM61.6115 88.7305V81.7305H63.1375V88.7305H61.6115ZM61.6115 80.5405V78.9305H63.1375V80.5405H61.6115ZM68.0646 91.7405V81.7305H69.5766V82.1645C70.2206 81.7725 70.8226 81.5765 71.3826 81.5765C72.3066 81.5765 72.9833 81.8611 73.4126 82.4305C73.842 82.9905 74.0566 83.9378 74.0566 85.2725C74.0566 86.5978 73.8093 87.5311 73.3146 88.0725C72.8293 88.6138 72.0313 88.8845 70.9206 88.8845C70.538 88.8845 70.0946 88.8425 69.5906 88.7585V91.7405H68.0646ZM71.1166 82.9345C70.678 82.9345 70.2393 83.0325 69.8006 83.2285L69.5906 83.3265V87.4565C69.964 87.5311 70.3746 87.5685 70.8226 87.5685C71.4573 87.5685 71.896 87.3865 72.1386 87.0225C72.3813 86.6585 72.5026 86.0378 72.5026 85.1605C72.5026 83.6765 72.0406 82.9345 71.1166 82.9345ZM75.5842 88.7305V81.7305H77.1102V88.7305H75.5842ZM75.5842 80.5405V78.9305H77.1102V80.5405H75.5842ZM83.2031 81.7305H84.7151V88.7305H83.2031V88.2965C82.5218 88.6885 81.8918 88.8845 81.3131 88.8845C80.3518 88.8845 79.7078 88.6278 79.3811 88.1145C79.0544 87.5918 78.8911 86.6818 78.8911 85.3845V81.7305H80.4171V85.3985C80.4171 86.2385 80.4871 86.8031 80.6271 87.0925C80.7671 87.3818 81.0938 87.5265 81.6071 87.5265C82.1111 87.5265 82.5731 87.4331 82.9931 87.2465L83.2031 87.1625V81.7305ZM79.9831 78.2585L83.2871 79.6725L82.9231 80.6665L79.5071 79.5745L79.9831 78.2585Z" fill="#0066CC"/>
<path d="M12.9453 90.2705H34.6034V90.6905H12.9453V90.2705ZM36.9669 90.2705H67.6425V90.6905H36.9669V90.2705ZM70.0137 90.2705H85.6391V90.6905H70.0137V90.2705Z" fill="#0066CC"/>
<path d="M99.1123 77.7314C99.3403 77.736 99.5237 77.9195 99.5283 78.1475C99.5283 78.3775 99.3423 78.5643 99.1123 78.5645H94.9453C94.0248 78.5645 93.2783 79.311 93.2783 80.2314V87.7314C93.2785 88.6518 94.0249 89.3975 94.9453 89.3975H102.454C103.374 89.3972 104.12 88.6516 104.12 87.7314V83.1475C104.12 82.9175 104.307 82.7314 104.537 82.7314C104.761 82.7359 104.941 82.916 104.945 83.1396V87.7314C104.945 89.112 103.826 90.2314 102.445 90.2314H94.9453C93.5647 90.2314 92.4455 89.112 92.4453 87.7314V80.2314C92.4453 78.8507 93.5646 77.7314 94.9453 77.7314H99.1123ZM105.778 76.0645C106.238 76.0645 106.612 76.4374 106.612 76.8975V81.4814C106.612 81.7114 106.425 81.8975 106.195 81.8975C105.965 81.8975 105.778 81.7114 105.778 81.4814V77.4092L98.7266 84.4609C98.5638 84.6236 98.3004 84.6236 98.1377 84.4609C97.975 84.2982 97.975 84.0348 98.1377 83.8721L105.112 76.8975H101.195C100.965 76.8975 100.778 76.7114 100.778 76.4814C100.778 76.2513 100.965 76.0645 101.195 76.0645H105.778Z" fill="#0066CC"/>
</svg>
