<svg width="2085" height="864" viewBox="0 0 2085 864" fill="none" xmlns="http://www.w3.org/2000/svg">
<rect width="2085" height="864" fill="white"/>
<path d="M1385 623H1980V628C1980 639.046 1971.05 648 1960 648H1405C1393.95 648 1385 639.046 1385 628V623Z" fill="#5C6F82"/>
<path d="M745 623H1340V628C1340 639.046 1331.05 648 1320 648H765C753.954 648 745 639.046 745 628V623Z" fill="#5C6F82"/>
<path d="M105 623H700V628C700 639.046 691.046 648 680 648H125C113.954 648 105 639.046 105 628V623Z" fill="#5C6F82"/>
<rect x="1386" y="218" width="593" height="429" rx="19" stroke="#17324D" stroke-width="2"/>
<rect x="746" y="218" width="593" height="429" rx="19" stroke="#17324D" stroke-width="2"/>
<rect x="106" y="218" width="593" height="429" rx="19" stroke="#17324D" stroke-width="2"/>
<path d="M1405 218H1960C1970.49 218 1979 226.507 1979 237V246H1386V237C1386 226.507 1394.51 218 1405 218Z" fill="#17324D" stroke="#17324D" stroke-width="2"/>
<path d="M765 218H1320C1330.49 218 1339 226.507 1339 237V246H746V237C746 226.507 754.507 218 765 218Z" fill="#17324D" stroke="#17324D" stroke-width="2"/>
<path d="M125 218H680C690.493 218 699 226.507 699 237V246H106V237C106 226.507 114.507 218 125 218Z" fill="#17324D" stroke="#17324D" stroke-width="2"/>
<rect x="1387" y="247" width="591" height="40" fill="#5C6F82"/>
<rect x="747" y="247" width="591" height="40" fill="#5C6F82"/>
<rect x="107" y="247" width="591" height="40" fill="#5C6F82"/>
<circle cx="1411" cy="232" r="5" fill="white"/>
<circle cx="771" cy="232" r="5" fill="white"/>
<circle cx="131" cy="232" r="5" fill="white"/>
<circle cx="1428" cy="232" r="5" fill="white"/>
<circle cx="788" cy="232" r="5" fill="white"/>
<circle cx="148" cy="232" r="5" fill="white"/>
<circle cx="1445" cy="232" r="5" fill="white"/>
<circle cx="805" cy="232" r="5" fill="white"/>
<circle cx="165" cy="232" r="5" fill="white"/>
<rect x="1465" y="327" width="130" height="15" rx="7.5" fill="#A3ADB7"/>
<rect x="978" y="327" width="130" height="15" rx="7.5" fill="#A3ADB7"/>
<rect x="338" y="327" width="130" height="15" rx="7.5" fill="#A3ADB7"/>
<rect x="1465" y="377" width="70" height="10" rx="5" fill="#4392E0"/>
<rect x="901" y="436" width="70" height="10" rx="5" fill="#4392E0"/>
<rect x="200" y="396" width="70" height="10" rx="5" fill="#4392E0"/>
<rect x="422" y="396" width="70" height="10" rx="5" fill="#C5C7C9"/>
<rect x="422" y="487" width="70" height="10" rx="5" fill="#C5C7C9"/>
<rect x="200" y="488" width="70" height="10" rx="5" fill="#C5C7C9"/>
<rect x="1465" y="436" width="70" height="10" rx="5" fill="#C5C7C9"/>
<rect x="1465" y="495" width="70" height="10" rx="5" fill="#C5C7C9"/>
<rect x="1465" y="554" width="70" height="10" rx="5" fill="#C5C7C9"/>
<rect x="1465" y="396" width="170" height="10" rx="5" fill="#6AAAEB"/>
<rect x="901" y="465" width="148" height="10" rx="5" fill="#6AAAEB"/>
<rect x="200" y="430" width="50" height="10" rx="5" fill="#6AAAEB"/>
<rect x="422" y="430" width="50" height="10" rx="5" fill="#D9DADB"/>
<rect x="422" y="521" width="50" height="10" rx="5" fill="#D9DADB"/>
<rect x="200" y="521" width="50" height="10" rx="5" fill="#D9DADB"/>
<rect x="901" y="480" width="148" height="10" rx="5" fill="#6AAAEB"/>
<rect x="901" y="495" width="98" height="10" rx="5" fill="#6AAAEB"/>
<rect x="901" y="534" width="70" height="10" rx="5" fill="#6AAAEB"/>
<rect x="1465" y="455" width="170" height="10" rx="5" fill="#D9DADB"/>
<rect x="1465" y="514" width="170" height="10" rx="5" fill="#D9DADB"/>
<rect x="1465" y="573" width="170" height="10" rx="5" fill="#D9DADB"/>
<rect x="1669" y="377" width="100" height="29" rx="5" fill="#0066CC"/>
<rect x="1084" y="524" width="100" height="29" rx="5" fill="#0066CC"/>
<rect x="283" y="396" width="100" height="29" rx="5" fill="#0066CC"/>
<rect x="505" y="396" width="100" height="29" rx="5" fill="#D9DADB"/>
<rect x="505" y="487" width="100" height="29" rx="5" fill="#D9DADB"/>
<rect x="283" y="487" width="100" height="29" rx="5" fill="#D9DADB"/>
<path d="M881 382C881 379.239 883.239 377 886 377H956C958.761 377 961 379.239 961 382V406H881V382Z" fill="#4392E0"/>
<path d="M882 407H1203V578C1203 580.209 1201.21 582 1199 582H886C883.791 582 882 580.209 882 578V407Z" stroke="#4392E0" stroke-width="2"/>
<rect x="186" y="378" width="211" height="79.7891" rx="4" stroke="#6AAAEB" stroke-width="2"/>
<rect x="408" y="378" width="211" height="79.7891" rx="4" stroke="#C5C7C9" stroke-width="2"/>
<rect x="408" y="469" width="211" height="82.5449" rx="4" stroke="#C5C7C9" stroke-width="2"/>
<rect x="186" y="469" width="211" height="82.5449" rx="4" stroke="#C5C7C9" stroke-width="2"/>
<rect x="1669" y="436" width="100" height="29" rx="5" fill="#D9DADB"/>
<path d="M962 382C962 379.239 964.239 377 967 377H1037C1039.76 377 1042 379.239 1042 382V406H962V382Z" fill="#D9DADB"/>
<path d="M1043 382C1043 379.239 1045.24 377 1048 377H1118C1120.76 377 1123 379.239 1123 382V406H1043V382Z" fill="#D9DADB"/>
<path d="M1124 382C1124 379.239 1126.24 377 1129 377H1199C1201.76 377 1204 379.239 1204 382V406H1124V382Z" fill="#D9DADB"/>
<rect x="1669" y="495" width="100" height="29" rx="5" fill="#D9DADB"/>
<rect x="1669" y="554" width="100" height="29" rx="5" fill="#D9DADB"/>
<circle cx="122" cy="123" r="15" fill="#0066CC"/>
<path d="M180.2 129.48H174.6V138H170.16V110.6H180.2C186.413 110.6 189.52 113.667 189.52 119.8C189.52 122.947 188.733 125.347 187.16 127C185.613 128.653 183.293 129.48 180.2 129.48ZM174.6 125.64H180.16C183.36 125.64 184.96 123.693 184.96 119.8C184.96 117.933 184.573 116.573 183.8 115.72C183.027 114.867 181.813 114.44 180.16 114.44H174.6V125.64ZM204.953 118H209.273V138H204.953V136.76C203.006 137.88 201.206 138.44 199.553 138.44C196.806 138.44 194.966 137.707 194.033 136.24C193.099 134.747 192.633 132.147 192.633 128.44V118H196.993V128.48C196.993 130.88 197.193 132.493 197.593 133.32C197.993 134.147 198.926 134.56 200.393 134.56C201.833 134.56 203.153 134.293 204.353 133.76L204.953 133.52V118ZM214.352 138V109.68H218.712V138H214.352ZM237.669 122.12C234.522 121.693 232.242 121.48 230.829 121.48C229.415 121.48 228.429 121.653 227.869 122C227.335 122.32 227.069 122.84 227.069 123.56C227.069 124.28 227.362 124.787 227.949 125.08C228.562 125.373 229.975 125.72 232.189 126.12C234.429 126.493 236.015 127.093 236.949 127.92C237.882 128.747 238.349 130.213 238.349 132.32C238.349 134.427 237.669 135.973 236.309 136.96C234.975 137.947 233.015 138.44 230.429 138.44C228.802 138.44 226.749 138.213 224.269 137.76L223.029 137.56L223.189 133.92C226.389 134.347 228.695 134.56 230.109 134.56C231.522 134.56 232.522 134.387 233.109 134.04C233.722 133.693 234.029 133.12 234.029 132.32C234.029 131.52 233.735 130.973 233.149 130.68C232.589 130.36 231.215 130.027 229.029 129.68C226.869 129.307 225.282 128.733 224.269 127.96C223.255 127.187 222.749 125.773 222.749 123.72C222.749 121.667 223.442 120.133 224.829 119.12C226.242 118.107 228.042 117.6 230.229 117.6C231.935 117.6 234.029 117.813 236.509 118.24L237.749 118.48L237.669 122.12ZM256.899 124.16V133.28C256.925 133.867 257.072 134.307 257.339 134.6C257.632 134.867 258.072 135.04 258.659 135.12L258.539 138.44C256.245 138.44 254.472 137.947 253.219 136.96C251.085 137.947 248.939 138.44 246.779 138.44C242.805 138.44 240.819 136.32 240.819 132.08C240.819 130.053 241.352 128.587 242.419 127.68C243.512 126.773 245.179 126.227 247.419 126.04L252.579 125.6V124.16C252.579 123.093 252.339 122.347 251.859 121.92C251.405 121.493 250.725 121.28 249.819 121.28C248.112 121.28 245.979 121.387 243.419 121.6L242.139 121.68L241.979 118.6C244.885 117.907 247.552 117.56 249.979 117.56C252.432 117.56 254.192 118.093 255.259 119.16C256.352 120.2 256.899 121.867 256.899 124.16ZM247.939 129.12C246.099 129.28 245.179 130.28 245.179 132.12C245.179 133.96 245.992 134.88 247.619 134.88C248.952 134.88 250.365 134.667 251.859 134.24L252.579 134V128.68L247.939 129.12ZM266.292 138H261.932V118H266.252V119.24C268.199 118.12 270.039 117.56 271.772 117.56C274.439 117.56 276.252 118.32 277.212 119.84C278.199 121.333 278.692 123.813 278.692 127.28V138H274.372V127.4C274.372 125.24 274.132 123.707 273.652 122.8C273.199 121.893 272.252 121.44 270.812 121.44C269.452 121.44 268.146 121.707 266.892 122.24L266.292 122.48V138ZM294.088 121.72H288.568V130.52C288.568 132.147 288.688 133.227 288.928 133.76C289.168 134.293 289.781 134.56 290.768 134.56L294.048 134.44L294.248 137.92C292.461 138.267 291.101 138.44 290.168 138.44C287.901 138.44 286.341 137.92 285.488 136.88C284.661 135.84 284.248 133.88 284.248 131V121.72H281.688V118H284.248V112.2H288.568V118H294.088V121.72ZM311.464 134.4L312.584 134.28L312.664 137.52C309.624 138.133 306.931 138.44 304.584 138.44C301.624 138.44 299.491 137.627 298.184 136C296.904 134.373 296.264 131.773 296.264 128.2C296.264 121.107 299.157 117.56 304.944 117.56C310.544 117.56 313.344 120.613 313.344 126.72L313.064 129.84H300.664C300.691 131.493 301.051 132.707 301.744 133.48C302.437 134.253 303.731 134.64 305.624 134.64C307.517 134.64 309.464 134.56 311.464 134.4ZM309.064 126.48C309.064 124.507 308.744 123.133 308.104 122.36C307.491 121.56 306.437 121.16 304.944 121.16C303.451 121.16 302.357 121.573 301.664 122.4C300.997 123.227 300.651 124.587 300.624 126.48H309.064ZM341.766 109.68V138H337.446V136.96C335.499 137.947 333.712 138.44 332.086 138.44C329.472 138.44 327.552 137.653 326.326 136.08C325.126 134.507 324.526 131.867 324.526 128.16C324.526 124.453 325.192 121.76 326.526 120.08C327.886 118.4 329.992 117.56 332.846 117.56C333.806 117.56 335.326 117.733 337.406 118.08V109.68H341.766ZM336.726 133.84L337.406 133.56V121.72C335.806 121.453 334.326 121.32 332.966 121.32C330.272 121.32 328.926 123.56 328.926 128.04C328.926 130.493 329.232 132.2 329.846 133.16C330.486 134.093 331.486 134.56 332.846 134.56C334.206 134.56 335.499 134.32 336.726 133.84ZM346.607 138V118H350.967V138H346.607ZM346.607 114.6V110H350.967V114.6H346.607ZM362.325 138L369.085 110.6H377.925L384.725 138H380.245L378.765 132.12H368.245L366.765 138H362.325ZM372.525 114.32L369.125 128.2H377.885L374.525 114.32H372.525ZM399.79 118H404.11V138H399.79V136.76C397.843 137.88 396.043 138.44 394.39 138.44C391.643 138.44 389.803 137.707 388.87 136.24C387.937 134.747 387.47 132.147 387.47 128.44V118H391.83V128.48C391.83 130.88 392.03 132.493 392.43 133.32C392.83 134.147 393.763 134.56 395.23 134.56C396.67 134.56 397.99 134.293 399.19 133.76L399.79 133.52V118ZM419.709 121.72H414.189V130.52C414.189 132.147 414.309 133.227 414.549 133.76C414.789 134.293 415.402 134.56 416.389 134.56L419.669 134.44L419.869 137.92C418.082 138.267 416.722 138.44 415.789 138.44C413.522 138.44 411.962 137.92 411.109 136.88C410.282 135.84 409.869 133.88 409.869 131V121.72H407.309V118H409.869V112.2H414.189V118H419.709V121.72ZM437.085 134.4L438.205 134.28L438.285 137.52C435.245 138.133 432.551 138.44 430.205 138.44C427.245 138.44 425.111 137.627 423.805 136C422.525 134.373 421.885 131.773 421.885 128.2C421.885 121.107 424.778 117.56 430.565 117.56C436.165 117.56 438.965 120.613 438.965 126.72L438.685 129.84H426.285C426.311 131.493 426.671 132.707 427.365 133.48C428.058 134.253 429.351 134.64 431.245 134.64C433.138 134.64 435.085 134.56 437.085 134.4ZM434.685 126.48C434.685 124.507 434.365 123.133 433.725 122.36C433.111 121.56 432.058 121.16 430.565 121.16C429.071 121.16 427.978 121.573 427.285 122.4C426.618 123.227 426.271 124.587 426.245 126.48H434.685ZM447.077 138H442.717V118H447.037V119.24C448.984 118.12 450.824 117.56 452.557 117.56C455.224 117.56 457.037 118.32 457.997 119.84C458.984 121.333 459.477 123.813 459.477 127.28V138H455.157V127.4C455.157 125.24 454.917 123.707 454.437 122.8C453.984 121.893 453.037 121.44 451.597 121.44C450.237 121.44 448.931 121.707 447.677 122.24L447.077 122.48V138ZM474.873 121.72H469.353V130.52C469.353 132.147 469.473 133.227 469.713 133.76C469.953 134.293 470.566 134.56 471.553 134.56L474.833 134.44L475.033 137.92C473.246 138.267 471.886 138.44 470.953 138.44C468.686 138.44 467.126 137.92 466.273 136.88C465.446 135.84 465.033 133.88 465.033 131V121.72H462.473V118H465.033V112.2H469.353V118H474.873V121.72ZM478.009 138V118H482.369V138H478.009ZM478.009 114.6V110H482.369V114.6H478.009ZM494.698 117.56C496.111 117.56 497.778 117.747 499.698 118.12L500.698 118.32L500.538 121.76C498.431 121.547 496.871 121.44 495.858 121.44C493.831 121.44 492.471 121.893 491.778 122.8C491.084 123.707 490.738 125.413 490.738 127.92C490.738 130.427 491.071 132.16 491.738 133.12C492.404 134.08 493.791 134.56 495.898 134.56L500.578 134.24L500.698 137.72C498.004 138.2 495.978 138.44 494.618 138.44C491.578 138.44 489.431 137.627 488.178 136C486.951 134.347 486.338 131.653 486.338 127.92C486.338 124.187 486.991 121.533 488.298 119.96C489.604 118.36 491.738 117.56 494.698 117.56ZM519.273 124.16V133.28C519.299 133.867 519.446 134.307 519.713 134.6C520.006 134.867 520.446 135.04 521.033 135.12L520.913 138.44C518.619 138.44 516.846 137.947 515.593 136.96C513.459 137.947 511.313 138.44 509.153 138.44C505.179 138.44 503.193 136.32 503.193 132.08C503.193 130.053 503.726 128.587 504.793 127.68C505.886 126.773 507.553 126.227 509.793 126.04L514.953 125.6V124.16C514.953 123.093 514.713 122.347 514.233 121.92C513.779 121.493 513.099 121.28 512.193 121.28C510.486 121.28 508.353 121.387 505.793 121.6L504.513 121.68L504.353 118.6C507.259 117.907 509.926 117.56 512.353 117.56C514.806 117.56 516.566 118.093 517.633 119.16C518.726 120.2 519.273 121.867 519.273 124.16ZM510.313 129.12C508.473 129.28 507.553 130.28 507.553 132.12C507.553 133.96 508.366 134.88 509.993 134.88C511.326 134.88 512.739 134.667 514.233 134.24L514.953 134V128.68L510.313 129.12ZM523.306 121.88V118H538.146V121.88L528.546 134.12H538.146V138H523.306V134.12L532.946 121.88H523.306ZM542.03 138V118H546.39V138H542.03ZM542.03 114.6V110H546.39V114.6H542.03ZM552.319 120.16C553.705 118.427 555.999 117.56 559.199 117.56C562.399 117.56 564.679 118.427 566.039 120.16C567.425 121.893 568.119 124.493 568.119 127.96C568.119 131.427 567.452 134.04 566.119 135.8C564.785 137.56 562.479 138.44 559.199 138.44C555.919 138.44 553.612 137.56 552.279 135.8C550.945 134.04 550.279 131.427 550.279 127.96C550.279 124.493 550.959 121.893 552.319 120.16ZM555.599 133.16C556.212 134.227 557.412 134.76 559.199 134.76C560.985 134.76 562.185 134.227 562.799 133.16C563.412 132.093 563.719 130.347 563.719 127.92C563.719 125.493 563.385 123.773 562.719 122.76C562.079 121.747 560.905 121.24 559.199 121.24C557.492 121.24 556.305 121.747 555.639 122.76C554.999 123.773 554.679 125.493 554.679 127.92C554.679 130.347 554.985 132.093 555.599 133.16ZM576.37 138H572.01V118H576.33V119.24C578.276 118.12 580.116 117.56 581.85 117.56C584.516 117.56 586.33 118.32 587.29 119.84C588.276 121.333 588.77 123.813 588.77 127.28V138H584.45V127.4C584.45 125.24 584.21 123.707 583.73 122.8C583.276 121.893 582.33 121.44 580.89 121.44C579.53 121.44 578.223 121.707 576.97 122.24L576.37 122.48V138ZM607.646 134.4L608.766 134.28L608.846 137.52C605.806 138.133 603.112 138.44 600.766 138.44C597.806 138.44 595.672 137.627 594.366 136C593.086 134.373 592.446 131.773 592.446 128.2C592.446 121.107 595.339 117.56 601.126 117.56C606.726 117.56 609.526 120.613 609.526 126.72L609.246 129.84H596.846C596.872 131.493 597.232 132.707 597.926 133.48C598.619 134.253 599.912 134.64 601.806 134.64C603.699 134.64 605.646 134.56 607.646 134.4ZM605.246 126.48C605.246 124.507 604.926 123.133 604.286 122.36C603.672 121.56 602.619 121.16 601.126 121.16C599.632 121.16 598.539 121.573 597.846 122.4C597.179 123.227 596.832 124.587 596.806 126.48H605.246ZM637.947 109.68V138H633.627V136.96C631.681 137.947 629.894 138.44 628.267 138.44C625.654 138.44 623.734 137.653 622.507 136.08C621.307 134.507 620.707 131.867 620.707 128.16C620.707 124.453 621.374 121.76 622.707 120.08C624.067 118.4 626.174 117.56 629.027 117.56C629.987 117.56 631.507 117.733 633.587 118.08V109.68H637.947ZM632.907 133.84L633.587 133.56V121.72C631.987 121.453 630.507 121.32 629.147 121.32C626.454 121.32 625.107 123.56 625.107 128.04C625.107 130.493 625.414 132.2 626.027 133.16C626.667 134.093 627.667 134.56 629.027 134.56C630.387 134.56 631.681 134.32 632.907 133.84ZM657.029 134.4L658.149 134.28L658.229 137.52C655.189 138.133 652.495 138.44 650.149 138.44C647.189 138.44 645.055 137.627 643.749 136C642.469 134.373 641.829 131.773 641.829 128.2C641.829 121.107 644.722 117.56 650.509 117.56C656.109 117.56 658.909 120.613 658.909 126.72L658.629 129.84H646.229C646.255 131.493 646.615 132.707 647.309 133.48C648.002 134.253 649.295 134.64 651.189 134.64C653.082 134.64 655.029 134.56 657.029 134.4ZM654.629 126.48C654.629 124.507 654.309 123.133 653.669 122.36C653.055 121.56 652.002 121.16 650.509 121.16C649.015 121.16 647.922 121.573 647.229 122.4C646.562 123.227 646.215 124.587 646.189 126.48H654.629ZM662.901 138V109.68H667.261V138H662.901ZM689.247 114.04C685.861 114.04 684.167 115.227 684.167 117.6C684.167 118.827 684.567 119.707 685.367 120.24C686.167 120.747 687.927 121.387 690.647 122.16C693.394 122.907 695.327 123.813 696.447 124.88C697.567 125.92 698.127 127.573 698.127 129.84C698.127 132.72 697.301 134.88 695.647 136.32C694.021 137.733 691.794 138.44 688.967 138.44C686.701 138.44 684.194 138.173 681.447 137.64L680.007 137.36L680.447 133.8C684.047 134.28 686.794 134.52 688.687 134.52C691.994 134.52 693.647 133.053 693.647 130.12C693.647 128.973 693.274 128.133 692.527 127.6C691.781 127.04 690.101 126.44 687.487 125.8C684.874 125.133 682.927 124.227 681.647 123.08C680.367 121.933 679.727 120.12 679.727 117.64C679.727 115.16 680.527 113.293 682.127 112.04C683.754 110.76 685.994 110.12 688.847 110.12C690.901 110.12 693.327 110.36 696.127 110.84L697.527 111.08L697.167 114.68C693.434 114.253 690.794 114.04 689.247 114.04ZM701.966 138V118H706.326V138H701.966ZM701.966 114.6V110H706.326V114.6H701.966ZM725.055 122.12C721.908 121.693 719.628 121.48 718.215 121.48C716.801 121.48 715.815 121.653 715.255 122C714.721 122.32 714.455 122.84 714.455 123.56C714.455 124.28 714.748 124.787 715.335 125.08C715.948 125.373 717.361 125.72 719.575 126.12C721.815 126.493 723.401 127.093 724.335 127.92C725.268 128.747 725.735 130.213 725.735 132.32C725.735 134.427 725.055 135.973 723.695 136.96C722.361 137.947 720.401 138.44 717.815 138.44C716.188 138.44 714.135 138.213 711.655 137.76L710.415 137.56L710.575 133.92C713.775 134.347 716.081 134.56 717.495 134.56C718.908 134.56 719.908 134.387 720.495 134.04C721.108 133.693 721.415 133.12 721.415 132.32C721.415 131.52 721.121 130.973 720.535 130.68C719.975 130.36 718.601 130.027 716.415 129.68C714.255 129.307 712.668 128.733 711.655 127.96C710.641 127.187 710.135 125.773 710.135 123.72C710.135 121.667 710.828 120.133 712.215 119.12C713.628 118.107 715.428 117.6 717.615 117.6C719.321 117.6 721.415 117.813 723.895 118.24L725.135 118.48L725.055 122.12ZM740.245 121.72H734.725V130.52C734.725 132.147 734.845 133.227 735.085 133.76C735.325 134.293 735.938 134.56 736.925 134.56L740.205 134.44L740.405 137.92C738.618 138.267 737.258 138.44 736.325 138.44C734.058 138.44 732.498 137.92 731.645 136.88C730.818 135.84 730.405 133.88 730.405 131V121.72H727.845V118H730.405V112.2H734.725V118H740.245V121.72ZM757.621 134.4L758.741 134.28L758.821 137.52C755.781 138.133 753.087 138.44 750.741 138.44C747.781 138.44 745.647 137.627 744.341 136C743.061 134.373 742.421 131.773 742.421 128.2C742.421 121.107 745.314 117.56 751.101 117.56C756.701 117.56 759.501 120.613 759.501 126.72L759.221 129.84H746.821C746.847 131.493 747.207 132.707 747.901 133.48C748.594 134.253 749.887 134.64 751.781 134.64C753.674 134.64 755.621 134.56 757.621 134.4ZM755.221 126.48C755.221 124.507 754.901 123.133 754.261 122.36C753.647 121.56 752.594 121.16 751.101 121.16C749.607 121.16 748.514 121.573 747.821 122.4C747.154 123.227 746.807 124.587 746.781 126.48H755.221ZM767.613 138H763.253V118H767.573V119.24C769.466 118.12 771.2 117.56 772.773 117.56C775.093 117.56 776.786 118.213 777.853 119.52C780.28 118.213 782.693 117.56 785.093 117.56C787.493 117.56 789.186 118.307 790.173 119.8C791.16 121.267 791.653 123.76 791.653 127.28V138H787.333V127.4C787.333 125.24 787.106 123.707 786.653 122.8C786.226 121.893 785.32 121.44 783.933 121.44C782.733 121.44 781.44 121.707 780.053 122.24L779.373 122.52C779.586 123.053 779.693 124.76 779.693 127.64V138H775.373V127.72C775.373 125.347 775.16 123.707 774.733 122.8C774.306 121.893 773.373 121.44 771.933 121.44C770.6 121.44 769.36 121.707 768.213 122.24L767.613 122.48V138ZM811.129 124.16V133.28C811.155 133.867 811.302 134.307 811.569 134.6C811.862 134.867 812.302 135.04 812.889 135.12L812.769 138.44C810.475 138.44 808.702 137.947 807.449 136.96C805.315 137.947 803.169 138.44 801.009 138.44C797.035 138.44 795.049 136.32 795.049 132.08C795.049 130.053 795.582 128.587 796.649 127.68C797.742 126.773 799.409 126.227 801.649 126.04L806.809 125.6V124.16C806.809 123.093 806.569 122.347 806.089 121.92C805.635 121.493 804.955 121.28 804.049 121.28C802.342 121.28 800.209 121.387 797.649 121.6L796.369 121.68L796.209 118.6C799.115 117.907 801.782 117.56 804.209 117.56C806.662 117.56 808.422 118.093 809.489 119.16C810.582 120.2 811.129 121.867 811.129 124.16ZM802.169 129.12C800.329 129.28 799.409 130.28 799.409 132.12C799.409 133.96 800.222 134.88 801.849 134.88C803.182 134.88 804.595 134.667 806.089 134.24L806.809 134V128.68L802.169 129.12ZM825.031 138V110.6H829.471V138H825.031ZM832.693 114.56V110.6H852.693V114.56H844.973V138H840.493V114.56H832.693ZM852.845 129.2V125.24H864.805V129.2H852.845ZM867.097 110.6H871.777L875.697 134.16H876.537L881.737 110.68H886.937L892.137 134.16H893.017L896.937 110.6H901.617L896.217 138H889.057L884.337 116.04L879.657 138H872.457L867.097 110.6ZM918.997 124.16V133.28C919.023 133.867 919.17 134.307 919.437 134.6C919.73 134.867 920.17 135.04 920.757 135.12L920.637 138.44C918.343 138.44 916.57 137.947 915.317 136.96C913.183 137.947 911.037 138.44 908.877 138.44C904.903 138.44 902.917 136.32 902.917 132.08C902.917 130.053 903.45 128.587 904.517 127.68C905.61 126.773 907.277 126.227 909.517 126.04L914.677 125.6V124.16C914.677 123.093 914.437 122.347 913.957 121.92C913.503 121.493 912.823 121.28 911.917 121.28C910.21 121.28 908.077 121.387 905.517 121.6L904.237 121.68L904.077 118.6C906.983 117.907 909.65 117.56 912.077 117.56C914.53 117.56 916.29 118.093 917.357 119.16C918.45 120.2 918.997 121.867 918.997 124.16ZM910.037 129.12C908.197 129.28 907.277 130.28 907.277 132.12C907.277 133.96 908.09 134.88 909.717 134.88C911.05 134.88 912.463 134.667 913.957 134.24L914.677 134V128.68L910.037 129.12ZM924.27 138V109.68H928.63V138H924.27ZM933.947 138V109.68H938.307V138H933.947ZM957.624 134.4L958.744 134.28L958.824 137.52C955.784 138.133 953.091 138.44 950.744 138.44C947.784 138.44 945.651 137.627 944.344 136C943.064 134.373 942.424 131.773 942.424 128.2C942.424 121.107 945.318 117.56 951.104 117.56C956.704 117.56 959.504 120.613 959.504 126.72L959.224 129.84H946.824C946.851 131.493 947.211 132.707 947.904 133.48C948.598 134.253 949.891 134.64 951.784 134.64C953.678 134.64 955.624 134.56 957.624 134.4ZM955.224 126.48C955.224 124.507 954.904 123.133 954.264 122.36C953.651 121.56 952.598 121.16 951.104 121.16C949.611 121.16 948.518 121.573 947.824 122.4C947.158 123.227 946.811 124.587 946.784 126.48H955.224ZM974.017 121.72H968.497V130.52C968.497 132.147 968.617 133.227 968.857 133.76C969.097 134.293 969.71 134.56 970.697 134.56L973.977 134.44L974.177 137.92C972.39 138.267 971.03 138.44 970.097 138.44C967.83 138.44 966.27 137.92 965.417 136.88C964.59 135.84 964.177 133.88 964.177 131V121.72H961.617V118H964.177V112.2H968.497V118H974.017V121.72Z" fill="#17324D"/>
<rect x="107" y="287" width="78" height="336" fill="#EBECED" fill-opacity="0.5"/>
<rect x="746" y="287" width="78" height="336" fill="#EBECED" fill-opacity="0.5"/>
<rect x="1387" y="287" width="78" height="336" fill="#EBECED" fill-opacity="0.5"/>
<rect x="824" y="287" width="59" height="336" fill="#EBECED" fill-opacity="0.25"/>
<rect x="1204" y="287" width="59" height="336" fill="#EBECED" fill-opacity="0.25"/>
<rect x="620" y="287" width="78" height="336" fill="#EBECED" fill-opacity="0.5"/>
<rect x="1263" y="287" width="74" height="336" fill="#EBECED" fill-opacity="0.5"/>
<rect x="1904" y="287" width="74" height="336" fill="#EBECED" fill-opacity="0.5"/>
</svg>
